%TF.GenerationSoftware,KiCad,Pcbnew,8.0.2*%
%TF.CreationDate,2025-09-09T09:28:48+02:00*%
%TF.ProjectId,e77,6537372e-6b69-4636-9164-5f7063625858,rev?*%
%TF.SameCoordinates,Original*%
%TF.FileFunction,Soldermask,Bot*%
%TF.FilePolarity,Negative*%
%FSLAX46Y46*%
G04 Gerber Fmt 4.6, Leading zero omitted, Abs format (unit mm)*
G04 Created by KiCad (PCBNEW 8.0.2) date 2025-09-09 09:28:48*
%MOMM*%
%LPD*%
G01*
G04 APERTURE LIST*
G04 Aperture macros list*
%AMRoundRect*
0 Rectangle with rounded corners*
0 $1 Rounding radius*
0 $2 $3 $4 $5 $6 $7 $8 $9 X,Y pos of 4 corners*
0 Add a 4 corners polygon primitive as box body*
4,1,4,$2,$3,$4,$5,$6,$7,$8,$9,$2,$3,0*
0 Add four circle primitives for the rounded corners*
1,1,$1+$1,$2,$3*
1,1,$1+$1,$4,$5*
1,1,$1+$1,$6,$7*
1,1,$1+$1,$8,$9*
0 Add four rect primitives between the rounded corners*
20,1,$1+$1,$2,$3,$4,$5,0*
20,1,$1+$1,$4,$5,$6,$7,0*
20,1,$1+$1,$6,$7,$8,$9,0*
20,1,$1+$1,$8,$9,$2,$3,0*%
G04 Aperture macros list end*
%ADD10R,1.700000X1.700000*%
%ADD11O,1.700000X1.700000*%
%ADD12R,1.524000X1.524000*%
%ADD13C,1.524000*%
%ADD14R,2.000000X0.700000*%
%ADD15R,0.700000X2.000000*%
%ADD16R,3.600000X1.270000*%
%ADD17R,4.200000X1.350000*%
%ADD18C,1.000000*%
%ADD19RoundRect,0.200000X0.200000X-1.050000X0.200000X1.050000X-0.200000X1.050000X-0.200000X-1.050000X0*%
G04 APERTURE END LIST*
D10*
%TO.C,J2*%
X134064000Y-85150200D03*
D11*
X134064000Y-82610200D03*
X134064000Y-80070200D03*
X134064000Y-77530200D03*
X134064000Y-74990200D03*
X134064000Y-72450200D03*
%TD*%
D12*
%TO.C,U2*%
X115400000Y-116500000D03*
D13*
X117400000Y-116500000D03*
X119400000Y-116500000D03*
X121400000Y-116500000D03*
X123400000Y-116500000D03*
X125400000Y-116500000D03*
X127400000Y-116500000D03*
X129400000Y-116500000D03*
X131400000Y-116500000D03*
X133400000Y-116500000D03*
X133400000Y-94500000D03*
X131400000Y-94500000D03*
X129400000Y-94500000D03*
X127400000Y-94500000D03*
X125400000Y-94500000D03*
X123400000Y-94500000D03*
X121400000Y-94500000D03*
X119400000Y-94500000D03*
X117400000Y-94500000D03*
X115400000Y-94500000D03*
%TD*%
D12*
%TO.C,U1*%
X115511600Y-89511600D03*
D13*
X117511600Y-89511600D03*
X119511600Y-89511600D03*
X121511600Y-89511600D03*
X123511600Y-89511600D03*
X125511600Y-89511600D03*
X127511600Y-89511600D03*
X129511600Y-89511600D03*
X131511600Y-89511600D03*
X133511600Y-89511600D03*
X133511600Y-67511600D03*
X131511600Y-67511600D03*
X129511600Y-67511600D03*
X127511600Y-67511600D03*
X125511600Y-67511600D03*
X123511600Y-67511600D03*
X121511600Y-67511600D03*
X119511600Y-67511600D03*
X117511600Y-67511600D03*
X115511600Y-67511600D03*
%TD*%
D10*
%TO.C,J1*%
X133908800Y-112000000D03*
D11*
X133908800Y-109460000D03*
X133908800Y-106920000D03*
X133908800Y-104380000D03*
X133908800Y-101840000D03*
X133908800Y-99300000D03*
%TD*%
D14*
%TO.C,U4*%
X114500000Y-111000000D03*
X114500000Y-110000000D03*
X114500000Y-109000000D03*
X114500000Y-108000000D03*
X114500000Y-107000000D03*
X114500000Y-106000000D03*
X114500000Y-105000000D03*
X114500000Y-104000000D03*
X114500000Y-103000000D03*
X114500000Y-102000000D03*
X114500000Y-101000000D03*
X114500000Y-100000000D03*
D15*
X122500000Y-97500000D03*
X123500000Y-97500000D03*
X124500000Y-97500000D03*
X125500000Y-97500000D03*
D14*
X129500000Y-100000000D03*
X129500000Y-101000000D03*
X129500000Y-102000000D03*
X129500000Y-107000000D03*
X129500000Y-108000000D03*
X129500000Y-109000000D03*
X129500000Y-110000000D03*
X129500000Y-111000000D03*
D15*
X125500000Y-113000000D03*
X124500000Y-113000000D03*
X123500000Y-113000000D03*
X122500000Y-113000000D03*
X121500000Y-113000000D03*
X120500000Y-113000000D03*
X119500000Y-113000000D03*
X118500000Y-113000000D03*
%TD*%
D16*
%TO.C,AE2*%
X108462500Y-105500000D03*
D17*
X108662500Y-108325000D03*
X108662500Y-102675000D03*
%TD*%
D16*
%TO.C,AE1*%
X109073600Y-78597000D03*
D17*
X109273600Y-81422000D03*
X109273600Y-75772000D03*
%TD*%
D18*
%TO.C,U3*%
X124411600Y-80921600D03*
D19*
X131001600Y-86226600D03*
X129731600Y-86226600D03*
X128461600Y-86226600D03*
X127191600Y-86226600D03*
X125921600Y-86226600D03*
X124651600Y-86226600D03*
X123381600Y-86226600D03*
X122111600Y-86226600D03*
X120841600Y-86226600D03*
X119571600Y-86226600D03*
X118301600Y-86226600D03*
X117031600Y-86226600D03*
X115761600Y-86226600D03*
X114491600Y-86226600D03*
X113221600Y-86226600D03*
X113221600Y-70986600D03*
X114491600Y-70986600D03*
X115761600Y-70986600D03*
X117031600Y-70986600D03*
X118301600Y-70986600D03*
X119571600Y-70986600D03*
X120841600Y-70986600D03*
X122111600Y-70986600D03*
X123381600Y-70986600D03*
X124651600Y-70986600D03*
X125921600Y-70986600D03*
X127191600Y-70986600D03*
X128461600Y-70986600D03*
X129731600Y-70986600D03*
X131001600Y-70986600D03*
%TD*%
M02*
