%TF.GenerationSoftware,KiCad,Pcbnew,8.0.2*%
%TF.CreationDate,2025-09-09T09:28:48+02:00*%
%TF.ProjectId,e77,6537372e-6b69-4636-9164-5f7063625858,rev?*%
%TF.SameCoordinates,Original*%
%TF.FileFunction,Copper,L1,Top*%
%TF.FilePolarity,Positive*%
%FSLAX46Y46*%
G04 Gerber Fmt 4.6, Leading zero omitted, Abs format (unit mm)*
G04 Created by KiCad (PCBNEW 8.0.2) date 2025-09-09 09:28:48*
%MOMM*%
%LPD*%
G01*
G04 APERTURE LIST*
G04 Aperture macros list*
%AMRoundRect*
0 Rectangle with rounded corners*
0 $1 Rounding radius*
0 $2 $3 $4 $5 $6 $7 $8 $9 X,Y pos of 4 corners*
0 Add a 4 corners polygon primitive as box body*
4,1,4,$2,$3,$4,$5,$6,$7,$8,$9,$2,$3,0*
0 Add four circle primitives for the rounded corners*
1,1,$1+$1,$2,$3*
1,1,$1+$1,$4,$5*
1,1,$1+$1,$6,$7*
1,1,$1+$1,$8,$9*
0 Add four rect primitives between the rounded corners*
20,1,$1+$1,$2,$3,$4,$5,0*
20,1,$1+$1,$4,$5,$6,$7,0*
20,1,$1+$1,$6,$7,$8,$9,0*
20,1,$1+$1,$8,$9,$2,$3,0*%
%AMFreePoly0*
4,1,19,0.500000,-0.750000,0.000000,-0.750000,0.000000,-0.744911,-0.071157,-0.744911,-0.207708,-0.704816,-0.327430,-0.627875,-0.420627,-0.520320,-0.479746,-0.390866,-0.500000,-0.250000,-0.500000,0.250000,-0.479746,0.390866,-0.420627,0.520320,-0.327430,0.627875,-0.207708,0.704816,-0.071157,0.744911,0.000000,0.744911,0.000000,0.750000,0.500000,0.750000,0.500000,-0.750000,0.500000,-0.750000,
$1*%
%AMFreePoly1*
4,1,19,0.000000,0.744911,0.071157,0.744911,0.207708,0.704816,0.327430,0.627875,0.420627,0.520320,0.479746,0.390866,0.500000,0.250000,0.500000,-0.250000,0.479746,-0.390866,0.420627,-0.520320,0.327430,-0.627875,0.207708,-0.704816,0.071157,-0.744911,0.000000,-0.744911,0.000000,-0.750000,-0.500000,-0.750000,-0.500000,0.750000,0.000000,0.750000,0.000000,0.744911,0.000000,0.744911,
$1*%
G04 Aperture macros list end*
%TA.AperFunction,SMDPad,CuDef*%
%ADD10RoundRect,0.218750X-0.218750X-0.256250X0.218750X-0.256250X0.218750X0.256250X-0.218750X0.256250X0*%
%TD*%
%TA.AperFunction,SMDPad,CuDef*%
%ADD11FreePoly0,90.000000*%
%TD*%
%TA.AperFunction,SMDPad,CuDef*%
%ADD12FreePoly1,90.000000*%
%TD*%
%TA.AperFunction,SMDPad,CuDef*%
%ADD13R,0.500000X0.800000*%
%TD*%
%TA.AperFunction,SMDPad,CuDef*%
%ADD14R,0.400000X0.800000*%
%TD*%
%TA.AperFunction,ComponentPad*%
%ADD15R,1.700000X1.700000*%
%TD*%
%TA.AperFunction,ComponentPad*%
%ADD16O,1.700000X1.700000*%
%TD*%
%TA.AperFunction,SMDPad,CuDef*%
%ADD17RoundRect,0.218750X0.256250X-0.218750X0.256250X0.218750X-0.256250X0.218750X-0.256250X-0.218750X0*%
%TD*%
%TA.AperFunction,SMDPad,CuDef*%
%ADD18RoundRect,0.225000X0.250000X-0.225000X0.250000X0.225000X-0.250000X0.225000X-0.250000X-0.225000X0*%
%TD*%
%TA.AperFunction,ComponentPad*%
%ADD19R,1.524000X1.524000*%
%TD*%
%TA.AperFunction,ComponentPad*%
%ADD20C,1.524000*%
%TD*%
%TA.AperFunction,SMDPad,CuDef*%
%ADD21R,0.800000X0.500000*%
%TD*%
%TA.AperFunction,SMDPad,CuDef*%
%ADD22R,0.800000X0.400000*%
%TD*%
%TA.AperFunction,SMDPad,CuDef*%
%ADD23RoundRect,0.225000X0.225000X0.250000X-0.225000X0.250000X-0.225000X-0.250000X0.225000X-0.250000X0*%
%TD*%
%TA.AperFunction,SMDPad,CuDef*%
%ADD24FreePoly0,0.000000*%
%TD*%
%TA.AperFunction,SMDPad,CuDef*%
%ADD25FreePoly1,0.000000*%
%TD*%
%TA.AperFunction,SMDPad,CuDef*%
%ADD26R,4.200000X1.350000*%
%TD*%
%TA.AperFunction,ViaPad*%
%ADD27C,0.600000*%
%TD*%
%TA.AperFunction,Conductor*%
%ADD28C,0.250000*%
%TD*%
%TA.AperFunction,Conductor*%
%ADD29C,0.200000*%
%TD*%
%TA.AperFunction,Conductor*%
%ADD30C,0.500000*%
%TD*%
%TA.AperFunction,Conductor*%
%ADD31C,0.750000*%
%TD*%
G04 APERTURE END LIST*
D10*
%TO.P,D4,1,K*%
%TO.N,GND*%
X120925000Y-110000000D03*
%TO.P,D4,2,A*%
%TO.N,Net-(D4-A)*%
X122500000Y-110000000D03*
%TD*%
D11*
%TO.P,JP2,1,A*%
%TO.N,GND*%
X129692400Y-108254800D03*
D12*
%TO.P,JP2,2,B*%
%TO.N,Net-(JP2-B)*%
X129692400Y-106954800D03*
%TD*%
D13*
%TO.P,RN1,1,R1.1*%
%TO.N,Net-(J2-Pin_4)*%
X117128400Y-72972600D03*
D14*
%TO.P,RN1,2,R2.1*%
%TO.N,Net-(RN1-R2.1)*%
X116328400Y-72972600D03*
%TO.P,RN1,3,R3.1*%
%TO.N,Net-(RN1-R3.1)*%
X115528400Y-72972600D03*
D13*
%TO.P,RN1,4,R4.1*%
%TO.N,Net-(JP1-B)*%
X114728400Y-72972600D03*
%TO.P,RN1,5,R4.2*%
%TO.N,Net-(RN1-R1.2)*%
X114728400Y-74772600D03*
D14*
%TO.P,RN1,6,R3.2*%
%TO.N,Net-(D1-A)*%
X115528400Y-74772600D03*
%TO.P,RN1,7,R2.2*%
%TO.N,Net-(D2-A)*%
X116328400Y-74772600D03*
D13*
%TO.P,RN1,8,R1.2*%
%TO.N,Net-(RN1-R1.2)*%
X117128400Y-74772600D03*
%TD*%
D15*
%TO.P,J2,1,Pin_1*%
%TO.N,/b6*%
X134064000Y-85150200D03*
D16*
%TO.P,J2,2,Pin_2*%
%TO.N,/b7R*%
X134064000Y-82610200D03*
%TO.P,J2,3,Pin_3*%
%TO.N,GND*%
X134064000Y-80070200D03*
%TO.P,J2,4,Pin_4*%
%TO.N,Net-(J2-Pin_4)*%
X134064000Y-77530200D03*
%TO.P,J2,5,Pin_5*%
%TO.N,Net-(J2-Pin_5)*%
X134064000Y-74990200D03*
%TO.P,J2,6,Pin_6*%
%TO.N,Net-(J2-Pin_6)*%
X134064000Y-72450200D03*
%TD*%
D17*
%TO.P,D1,1,K*%
%TO.N,GND*%
X114658400Y-78495600D03*
%TO.P,D1,2,A*%
%TO.N,Net-(D1-A)*%
X114658400Y-76920600D03*
%TD*%
D18*
%TO.P,C2,1*%
%TO.N,Net-(J1-Pin_4)*%
X129500000Y-111519000D03*
%TO.P,C2,2*%
%TO.N,GND*%
X129500000Y-109969000D03*
%TD*%
D19*
%TO.P,U2,1,VCC*%
%TO.N,Net-(J1-Pin_4)*%
X115400000Y-116500000D03*
D20*
%TO.P,U2,2,DOUT*%
%TO.N,Net-(U2-DOUT)*%
X117400000Y-116500000D03*
%TO.P,U2,3,DIN*%
%TO.N,Net-(U2-DIN)*%
X119400000Y-116500000D03*
%TO.P,U2,4,DO8*%
%TO.N,unconnected-(U2-DO8-Pad4)*%
X121400000Y-116500000D03*
%TO.P,U2,5,RESET*%
%TO.N,unconnected-(U2-RESET-Pad5)*%
X123400000Y-116500000D03*
%TO.P,U2,6,PWM0/RSSI*%
%TO.N,unconnected-(U2-PWM0{slash}RSSI-Pad6)*%
X125400000Y-116500000D03*
%TO.P,U2,7,PWM1*%
%TO.N,unconnected-(U2-PWM1-Pad7)*%
X127400000Y-116500000D03*
%TO.P,U2,8,RESERVED*%
%TO.N,unconnected-(U2-RESERVED-Pad8)*%
X129400000Y-116500000D03*
%TO.P,U2,9,DTR/DI8*%
%TO.N,unconnected-(U2-DTR{slash}DI8-Pad9)*%
X131400000Y-116500000D03*
%TO.P,U2,10,GND*%
%TO.N,GND*%
X133400000Y-116500000D03*
%TO.P,U2,11,AD4/DIO4*%
%TO.N,unconnected-(U2-AD4{slash}DIO4-Pad11)*%
X133400000Y-94500000D03*
%TO.P,U2,12,CTS/DIO7*%
%TO.N,unconnected-(U2-CTS{slash}DIO7-Pad12)*%
X131400000Y-94500000D03*
%TO.P,U2,13,ON/SLEEP*%
%TO.N,unconnected-(U2-ON{slash}SLEEP-Pad13)*%
X129400000Y-94500000D03*
%TO.P,U2,14,VREF*%
%TO.N,unconnected-(U2-VREF-Pad14)*%
X127400000Y-94500000D03*
%TO.P,U2,15,AD5/DIO5*%
%TO.N,unconnected-(U2-AD5{slash}DIO5-Pad15)*%
X125400000Y-94500000D03*
%TO.P,U2,16,RTS/AD6/DIO6*%
%TO.N,unconnected-(U2-RTS{slash}AD6{slash}DIO6-Pad16)*%
X123400000Y-94500000D03*
%TO.P,U2,17,AD3/DIO3*%
%TO.N,unconnected-(U2-AD3{slash}DIO3-Pad17)*%
X121400000Y-94500000D03*
%TO.P,U2,18,AD2/DIO2*%
%TO.N,unconnected-(U2-AD2{slash}DIO2-Pad18)*%
X119400000Y-94500000D03*
%TO.P,U2,19,AD1/DIO1*%
%TO.N,unconnected-(U2-AD1{slash}DIO1-Pad19)*%
X117400000Y-94500000D03*
%TO.P,U2,20,AD0/DIO0*%
%TO.N,unconnected-(U2-AD0{slash}DIO0-Pad20)*%
X115400000Y-94500000D03*
%TD*%
D10*
%TO.P,D3,1,K*%
%TO.N,GND*%
X120925000Y-107000000D03*
%TO.P,D3,2,A*%
%TO.N,Net-(D3-A)*%
X122500000Y-107000000D03*
%TD*%
D19*
%TO.P,U1,1,VCC*%
%TO.N,Net-(J2-Pin_4)*%
X115511600Y-89511600D03*
D20*
%TO.P,U1,2,DOUT*%
%TO.N,/a2*%
X117511600Y-89511600D03*
%TO.P,U1,3,DIN*%
%TO.N,/a3*%
X119511600Y-89511600D03*
%TO.P,U1,4,DO8*%
%TO.N,unconnected-(U1-DO8-Pad4)*%
X121511600Y-89511600D03*
%TO.P,U1,5,RESET*%
%TO.N,unconnected-(U1-RESET-Pad5)*%
X123511600Y-89511600D03*
%TO.P,U1,6,PWM0/RSSI*%
%TO.N,unconnected-(U1-PWM0{slash}RSSI-Pad6)*%
X125511600Y-89511600D03*
%TO.P,U1,7,PWM1*%
%TO.N,unconnected-(U1-PWM1-Pad7)*%
X127511600Y-89511600D03*
%TO.P,U1,8,RESERVED*%
%TO.N,unconnected-(U1-RESERVED-Pad8)*%
X129511600Y-89511600D03*
%TO.P,U1,9,DTR/DI8*%
%TO.N,unconnected-(U1-DTR{slash}DI8-Pad9)*%
X131511600Y-89511600D03*
%TO.P,U1,10,GND*%
%TO.N,GND*%
X133511600Y-89511600D03*
%TO.P,U1,11,AD4/DIO4*%
%TO.N,unconnected-(U1-AD4{slash}DIO4-Pad11)*%
X133511600Y-67511600D03*
%TO.P,U1,12,CTS/DIO7*%
%TO.N,unconnected-(U1-CTS{slash}DIO7-Pad12)*%
X131511600Y-67511600D03*
%TO.P,U1,13,ON/SLEEP*%
%TO.N,unconnected-(U1-ON{slash}SLEEP-Pad13)*%
X129511600Y-67511600D03*
%TO.P,U1,14,VREF*%
%TO.N,unconnected-(U1-VREF-Pad14)*%
X127511600Y-67511600D03*
%TO.P,U1,15,AD5/DIO5*%
%TO.N,unconnected-(U1-AD5{slash}DIO5-Pad15)*%
X125511600Y-67511600D03*
%TO.P,U1,16,RTS/AD6/DIO6*%
%TO.N,unconnected-(U1-RTS{slash}AD6{slash}DIO6-Pad16)*%
X123511600Y-67511600D03*
%TO.P,U1,17,AD3/DIO3*%
%TO.N,unconnected-(U1-AD3{slash}DIO3-Pad17)*%
X121511600Y-67511600D03*
%TO.P,U1,18,AD2/DIO2*%
%TO.N,unconnected-(U1-AD2{slash}DIO2-Pad18)*%
X119511600Y-67511600D03*
%TO.P,U1,19,AD1/DIO1*%
%TO.N,unconnected-(U1-AD1{slash}DIO1-Pad19)*%
X117511600Y-67511600D03*
%TO.P,U1,20,AD0/DIO0*%
%TO.N,unconnected-(U1-AD0{slash}DIO0-Pad20)*%
X115511600Y-67511600D03*
%TD*%
D21*
%TO.P,RN2,1,R1.1*%
%TO.N,Net-(RN2-R1.1)*%
X126900000Y-109700000D03*
D22*
%TO.P,RN2,2,R2.1*%
%TO.N,Net-(JP2-B)*%
X126900000Y-108900000D03*
%TO.P,RN2,3,R3.1*%
%TO.N,Net-(RN2-R3.1)*%
X126900000Y-108100000D03*
D21*
%TO.P,RN2,4,R4.1*%
%TO.N,Net-(RN2-R4.1)*%
X126900000Y-107300000D03*
%TO.P,RN2,5,R4.2*%
%TO.N,Net-(D3-A)*%
X125100000Y-107300000D03*
D22*
%TO.P,RN2,6,R3.2*%
%TO.N,Net-(J1-Pin_4)*%
X125100000Y-108100000D03*
%TO.P,RN2,7,R2.2*%
X125100000Y-108900000D03*
D21*
%TO.P,RN2,8,R1.2*%
%TO.N,Net-(D4-A)*%
X125100000Y-109700000D03*
%TD*%
D17*
%TO.P,D2,1,K*%
%TO.N,GND*%
X116538000Y-78546400D03*
%TO.P,D2,2,A*%
%TO.N,Net-(D2-A)*%
X116538000Y-76971400D03*
%TD*%
D23*
%TO.P,C1,1*%
%TO.N,Net-(J2-Pin_4)*%
X128628400Y-71586600D03*
%TO.P,C1,2*%
%TO.N,GND*%
X127078400Y-71586600D03*
%TD*%
D24*
%TO.P,JP1,1,A*%
%TO.N,GND*%
X111730000Y-72390000D03*
D25*
%TO.P,JP1,2,B*%
%TO.N,Net-(JP1-B)*%
X113030000Y-72390000D03*
%TD*%
D15*
%TO.P,J1,1,Pin_1*%
%TO.N,Net-(J1-Pin_1)*%
X133908800Y-112000000D03*
D16*
%TO.P,J1,2,Pin_2*%
%TO.N,Net-(J1-Pin_2)*%
X133908800Y-109460000D03*
%TO.P,J1,3,Pin_3*%
%TO.N,GND*%
X133908800Y-106920000D03*
%TO.P,J1,4,Pin_4*%
%TO.N,Net-(J1-Pin_4)*%
X133908800Y-104380000D03*
%TO.P,J1,5,Pin_5*%
%TO.N,Net-(J1-Pin_5)*%
X133908800Y-101840000D03*
%TO.P,J1,6,Pin_6*%
%TO.N,Net-(J1-Pin_6)*%
X133908800Y-99300000D03*
%TD*%
D26*
%TO.P,AE2,2,Shield*%
%TO.N,GND*%
X108662500Y-108325000D03*
X108662500Y-102675000D03*
%TD*%
%TO.P,AE1,2,Shield*%
%TO.N,GND*%
X109273600Y-81422000D03*
X109273600Y-75772000D03*
%TD*%
D27*
%TO.N,Net-(J1-Pin_1)*%
X116000000Y-108000000D03*
%TO.N,Net-(J1-Pin_2)*%
X116000000Y-107000000D03*
%TO.N,Net-(JP1-B)*%
X114491600Y-72385000D03*
%TO.N,Net-(JP2-B)*%
X128000000Y-109000000D03*
%TO.N,Net-(J1-Pin_4)*%
X131000000Y-111500000D03*
X128000000Y-111500000D03*
%TO.N,Net-(J1-Pin_6)*%
X116000000Y-104000000D03*
%TO.N,Net-(J1-Pin_5)*%
X116000000Y-105000000D03*
%TO.N,/a2*%
X119952218Y-87954361D03*
%TO.N,Net-(RN1-R3.1)*%
X115791341Y-72203286D03*
%TO.N,Net-(RN1-R2.1)*%
X119484400Y-72247000D03*
%TO.N,Net-(J2-Pin_4)*%
X128374400Y-72399400D03*
%TO.N,GND*%
X109324400Y-74126600D03*
X111712000Y-77530200D03*
X122684800Y-88249000D03*
X120297200Y-77073000D03*
X111335000Y-102500000D03*
X114658400Y-78089000D03*
X115064800Y-80019400D03*
X127203200Y-102819200D03*
X111762800Y-85963000D03*
X128831600Y-82000600D03*
X119500000Y-107000000D03*
X113845600Y-68741800D03*
X111579400Y-75772000D03*
X126500000Y-96000000D03*
X111048800Y-106578400D03*
X122532400Y-68945000D03*
X111610400Y-81422000D03*
X134318000Y-69453000D03*
X126190000Y-73517000D03*
X111508800Y-71078600D03*
X113500000Y-115500000D03*
X115369600Y-82305400D03*
X120500000Y-115000000D03*
X120094000Y-73517000D03*
X113500000Y-96000000D03*
X130304800Y-75599800D03*
X109500000Y-100500000D03*
X118265200Y-74787000D03*
X124920000Y-83677000D03*
X122583200Y-79206600D03*
X134550000Y-108204000D03*
X111661200Y-79917800D03*
X109476800Y-83118200D03*
X124500000Y-115000000D03*
X134500000Y-96000000D03*
X109500000Y-110500000D03*
X126291600Y-76209400D03*
X131879600Y-73161400D03*
X113744000Y-75803000D03*
X113236000Y-78190600D03*
X117706400Y-83880200D03*
X110896400Y-104140000D03*
X132082800Y-79105000D03*
X127104400Y-72399400D03*
X117706400Y-76057000D03*
X116538000Y-78038200D03*
X116588800Y-79765400D03*
X131876800Y-105460800D03*
X120500000Y-96000000D03*
X122500000Y-111500000D03*
X123494800Y-108407200D03*
X130000000Y-80375000D03*
X113000000Y-101000000D03*
X131879600Y-82153000D03*
X117195600Y-98399600D03*
X111610400Y-83169000D03*
X127254000Y-100939600D03*
X122684800Y-76158600D03*
X120548400Y-102666800D03*
X113286800Y-81492600D03*
X134673600Y-87385400D03*
X116382800Y-102362000D03*
X128000000Y-110000000D03*
X111559600Y-73923400D03*
X132590800Y-87131400D03*
X130500000Y-115000000D03*
X117297200Y-110540800D03*
X111250000Y-108250000D03*
X131927600Y-104495600D03*
X131572000Y-100126800D03*
X119500000Y-110000000D03*
%TO.N,Net-(RN2-R4.1)*%
X128000000Y-107000000D03*
%TO.N,Net-(RN2-R1.1)*%
X127000000Y-112000000D03*
%TO.N,Net-(RN2-R3.1)*%
X127660400Y-108100000D03*
%TD*%
D28*
%TO.N,Net-(J1-Pin_1)*%
X116000000Y-108000000D02*
X116654371Y-108000000D01*
X129559908Y-106000000D02*
X120722956Y-106000000D01*
X131426800Y-107866891D02*
X131426800Y-108305800D01*
X132283954Y-110375154D02*
X133908800Y-112000000D01*
X117771453Y-107537289D02*
X118308743Y-107000000D01*
X134000000Y-111750000D02*
X134000000Y-112000000D01*
X120722956Y-106000000D02*
G75*
G03*
X118308768Y-107000025I44J-3414200D01*
G01*
X134000000Y-111750000D02*
G75*
G03*
X133823233Y-111323213I-603600J0D01*
G01*
X130880000Y-106546800D02*
G75*
G03*
X129559908Y-105999997I-1320100J-1320100D01*
G01*
X117771453Y-107537289D02*
G75*
G02*
X116654371Y-107999977I-1117053J1117089D01*
G01*
X131426800Y-108305800D02*
G75*
G03*
X132283956Y-110375152I2926500J0D01*
G01*
X130880000Y-106546800D02*
G75*
G02*
X131426803Y-107866891I-1320100J-1320100D01*
G01*
%TO.N,Net-(J1-Pin_2)*%
X132619916Y-109099516D02*
X132415615Y-108895215D01*
X129448611Y-105410000D02*
X119214299Y-105410000D01*
X131165600Y-106121200D02*
X131337984Y-106293584D01*
X116676776Y-106823223D02*
X117295000Y-106205000D01*
X116000000Y-107000000D02*
X116250000Y-107000000D01*
X133490200Y-109460000D02*
X134000000Y-109460000D01*
X131876800Y-107594400D02*
G75*
G03*
X132415621Y-108895209I1839600J0D01*
G01*
X131337984Y-106293584D02*
G75*
G02*
X131876809Y-107594400I-1300784J-1300816D01*
G01*
X119214299Y-105410000D02*
G75*
G03*
X117295000Y-106205000I1J-2714300D01*
G01*
X131165600Y-106121200D02*
G75*
G03*
X129448611Y-105409995I-1717000J-1717000D01*
G01*
X116676776Y-106823223D02*
G75*
G02*
X116250000Y-106999986I-426776J426823D01*
G01*
X132619916Y-109099516D02*
G75*
G03*
X133490200Y-109459990I870284J870316D01*
G01*
D29*
%TO.N,Net-(JP1-B)*%
X114483064Y-72390000D02*
X113030000Y-72390000D01*
X114728400Y-72789242D02*
X114728400Y-72972600D01*
X114610000Y-72503400D02*
X114491600Y-72385000D01*
X114489100Y-72387500D02*
X114491600Y-72385000D01*
X114489100Y-72387500D02*
G75*
G02*
X114483064Y-72389985I-6000J6000D01*
G01*
X114610000Y-72503400D02*
G75*
G02*
X114728382Y-72789242I-285800J-285800D01*
G01*
D28*
%TO.N,Net-(JP2-B)*%
X127829289Y-108900000D02*
X126900000Y-108900000D01*
X129268981Y-106954800D02*
X129692400Y-106954800D01*
X128524000Y-107699781D02*
X128524000Y-108105476D01*
X128000000Y-109000000D02*
X127950000Y-108950000D01*
X128000000Y-109000000D02*
X128262000Y-108738000D01*
X128524000Y-108105476D02*
G75*
G02*
X128262007Y-108738007I-894500J-24D01*
G01*
X127829289Y-108900000D02*
G75*
G02*
X127950003Y-108949997I11J-170700D01*
G01*
X129268981Y-106954800D02*
G75*
G03*
X128742205Y-107173005I19J-745000D01*
G01*
X128742200Y-107173000D02*
G75*
G03*
X128523992Y-107699781I526800J-526800D01*
G01*
D30*
%TO.N,Net-(J1-Pin_4)*%
X135300000Y-106599238D02*
X135300000Y-112634314D01*
X129500000Y-111500000D02*
X131000000Y-111500000D01*
X124250000Y-114000000D02*
X117277817Y-114000000D01*
D28*
X126000000Y-112250000D02*
X126000000Y-109326776D01*
D30*
X124250000Y-114000000D02*
X127750000Y-114000000D01*
X129500000Y-111500000D02*
X128000000Y-111500000D01*
D28*
X125573223Y-108900000D02*
X125100000Y-108900000D01*
D30*
X128250000Y-114000000D02*
X127750000Y-114000000D01*
D28*
X125100000Y-108900000D02*
X125100000Y-108100000D01*
D30*
X134650000Y-105030000D02*
X134000000Y-104380000D01*
X115400000Y-115800000D02*
X115400000Y-116500000D01*
X129500000Y-112750000D02*
X129500000Y-111500000D01*
X130750000Y-114000000D02*
X133934314Y-114000000D01*
X128250000Y-114000000D02*
X130750000Y-114000000D01*
X115949999Y-114549999D02*
X115894974Y-114605025D01*
X115400000Y-115800000D02*
G75*
G02*
X115894985Y-114605036I1689900J0D01*
G01*
X134900000Y-113600000D02*
G75*
G03*
X135300006Y-112634314I-965700J965700D01*
G01*
X133934314Y-114000000D02*
G75*
G03*
X134899996Y-113599996I-14J1365700D01*
G01*
X115949999Y-114549999D02*
G75*
G02*
X117277817Y-114000006I1327801J-1327801D01*
G01*
X128250000Y-114000000D02*
G75*
G03*
X129500000Y-112750000I0J1250000D01*
G01*
D28*
X126000000Y-112250000D02*
G75*
G02*
X124250000Y-114000000I-1750000J0D01*
G01*
D30*
X129500000Y-112750000D02*
G75*
G03*
X130750000Y-114000000I1250000J0D01*
G01*
D28*
X126000000Y-109326776D02*
G75*
G03*
X125874993Y-109025007I-426800J-24D01*
G01*
X126000000Y-112250000D02*
G75*
G03*
X127750000Y-114000000I1750000J0D01*
G01*
D30*
X134650000Y-105030000D02*
G75*
G02*
X135299984Y-106599238I-1569200J-1569200D01*
G01*
D28*
X125875000Y-109025000D02*
G75*
G03*
X125573223Y-108899990I-301800J-301800D01*
G01*
%TO.N,Net-(J1-Pin_6)*%
X116000000Y-104000000D02*
X127746036Y-104000000D01*
X134000000Y-99650000D02*
X134000000Y-99300000D01*
X133752512Y-100247487D02*
X131593792Y-102406207D01*
X133752512Y-100247487D02*
G75*
G03*
X133999992Y-99650000I-597512J597487D01*
G01*
X127746036Y-104000000D02*
G75*
G03*
X131593785Y-102406200I-36J5441600D01*
G01*
%TO.N,Net-(J1-Pin_5)*%
X127870631Y-104749600D02*
X116427459Y-104749600D01*
X133482942Y-101975057D02*
X132715002Y-102742996D01*
X133809000Y-101840000D02*
X134000000Y-101840000D01*
X116125200Y-104874800D02*
X116000000Y-105000000D01*
X133482942Y-101975057D02*
G75*
G02*
X133809000Y-101839995I326058J-326043D01*
G01*
X127870631Y-104749600D02*
G75*
G03*
X132714992Y-102742986I-31J6851000D01*
G01*
X116125200Y-104874800D02*
G75*
G02*
X116427459Y-104749583I302300J-302300D01*
G01*
D29*
%TO.N,/a2*%
X119941600Y-87893171D02*
X119941600Y-87936234D01*
X118911545Y-88111654D02*
X117511600Y-89511600D01*
X119952218Y-87954361D02*
X119946909Y-87949052D01*
X119561100Y-87842600D02*
X119891028Y-87842600D01*
X119941600Y-87936234D02*
G75*
G03*
X119946932Y-87949029I18100J34D01*
G01*
X119941600Y-87893171D02*
G75*
G03*
X119891028Y-87842600I-50600J-29D01*
G01*
X118911545Y-88111654D02*
G75*
G02*
X119561100Y-87842597I649555J-649546D01*
G01*
%TO.N,Net-(D1-A)*%
X115528400Y-75435417D02*
X115528400Y-74772600D01*
X115093400Y-76485600D02*
X114658400Y-76920600D01*
X115093400Y-76485600D02*
G75*
G03*
X115528407Y-75435417I-1050200J1050200D01*
G01*
%TO.N,Net-(D2-A)*%
X116433200Y-76866600D02*
X116538000Y-76971400D01*
X116328400Y-76613590D02*
X116328400Y-74772600D01*
X116328400Y-76613590D02*
G75*
G03*
X116433197Y-76866603I357800J-10D01*
G01*
%TO.N,Net-(RN1-R3.1)*%
X115528400Y-72652154D02*
X115528400Y-72972600D01*
X115791341Y-72203286D02*
X115659870Y-72334756D01*
X115659870Y-72334756D02*
G75*
G03*
X115528447Y-72652154I317430J-317344D01*
G01*
%TO.N,Net-(RN1-R1.2)*%
X114728400Y-74324228D02*
X114728400Y-74772600D01*
X117128400Y-74324228D02*
X117128400Y-74772600D01*
X115129228Y-73923400D02*
X116727571Y-73923400D01*
X115129228Y-73923400D02*
G75*
G03*
X114845792Y-74040792I-28J-400800D01*
G01*
X117011000Y-74040800D02*
G75*
G02*
X117128388Y-74324228I-283400J-283400D01*
G01*
X117011000Y-74040800D02*
G75*
G03*
X116727571Y-73923412I-283400J-283400D01*
G01*
X114845800Y-74040800D02*
G75*
G03*
X114728412Y-74324228I283400J-283400D01*
G01*
%TO.N,Net-(RN1-R2.1)*%
X119459000Y-72221600D02*
X119484400Y-72247000D01*
X119397678Y-72196200D02*
X116885599Y-72196200D01*
X116328400Y-72747600D02*
X116328400Y-72972600D01*
X116491600Y-72359400D02*
X116487499Y-72363500D01*
X119459000Y-72221600D02*
G75*
G03*
X119397678Y-72196209I-61300J-61300D01*
G01*
X116328400Y-72747600D02*
G75*
G02*
X116487499Y-72363500I543200J0D01*
G01*
X116491600Y-72359400D02*
G75*
G02*
X116885599Y-72196200I394000J-394000D01*
G01*
D28*
%TO.N,Net-(D3-A)*%
X122650000Y-107150000D02*
X122500000Y-107000000D01*
X123012132Y-107300000D02*
X125100000Y-107300000D01*
X123012132Y-107300000D02*
G75*
G02*
X122649991Y-107150009I-32J512100D01*
G01*
%TO.N,Net-(D4-A)*%
X122650000Y-109850000D02*
X122500000Y-110000000D01*
X123012132Y-109700000D02*
X125100000Y-109700000D01*
X122650000Y-109850000D02*
G75*
G02*
X123012132Y-109700013I362100J-362100D01*
G01*
D31*
%TO.N,Net-(J2-Pin_4)*%
X132847179Y-77530200D02*
X132441572Y-77530200D01*
X130295248Y-77530200D02*
X129196716Y-77530200D01*
X133658393Y-77530200D02*
X132847179Y-77530200D01*
X132441572Y-77530200D02*
X130819144Y-77530200D01*
X115511600Y-86195363D02*
X115511600Y-89511600D01*
X126999652Y-77530200D02*
X126132856Y-77530200D01*
D29*
X128628400Y-71786718D02*
X128628400Y-71986836D01*
D31*
X126132856Y-77530200D02*
X124167528Y-77530200D01*
X130295248Y-77530200D02*
X130819144Y-77530200D01*
D29*
X128458039Y-72315760D02*
X128374400Y-72399400D01*
D31*
X122693532Y-77530200D02*
X122202200Y-77530200D01*
D29*
X121725234Y-76773834D02*
X118205287Y-73253887D01*
D31*
X124167528Y-77530200D02*
X123676196Y-77530200D01*
D29*
X117526200Y-72972600D02*
X117128400Y-72972600D01*
D31*
X123676196Y-77530200D02*
X122693532Y-77530200D01*
X128628400Y-71786718D02*
X128628400Y-77377800D01*
X129196716Y-77530200D02*
X128098184Y-77530200D01*
X117105392Y-82347607D02*
X121725234Y-77727765D01*
D29*
X128552199Y-72170799D02*
X128493960Y-72229039D01*
D31*
X133658393Y-77530200D02*
X134064000Y-77530200D01*
X128098184Y-77530200D02*
X126999652Y-77530200D01*
X121922800Y-77250800D02*
G75*
G02*
X121725228Y-77727759I-674500J0D01*
G01*
D29*
X128628400Y-71786718D02*
X128628400Y-71786718D01*
X121725234Y-76773834D02*
G75*
G02*
X121922809Y-77250800I-476934J-476966D01*
G01*
X117526200Y-72972600D02*
G75*
G02*
X118205292Y-73253882I0J-960400D01*
G01*
D31*
X121725234Y-77727765D02*
G75*
G02*
X122202200Y-77530190I476966J-476935D01*
G01*
D29*
X128458039Y-72315760D02*
G75*
G03*
X128476005Y-72272400I-43339J43360D01*
G01*
X128476000Y-72272400D02*
G75*
G02*
X128493965Y-72229044I61300J0D01*
G01*
X121922800Y-77250800D02*
G75*
G03*
X122202200Y-77530200I279400J0D01*
G01*
X128552199Y-72170799D02*
G75*
G03*
X128628414Y-71986836I-183999J183999D01*
G01*
D31*
X117105392Y-82347607D02*
G75*
G03*
X115511559Y-86195363I3847708J-3847793D01*
G01*
D30*
%TO.N,GND*%
X133908800Y-106317400D02*
X133908800Y-106915191D01*
X131927600Y-105469642D02*
X131927600Y-104495600D01*
D29*
X127078400Y-72355015D02*
X127078400Y-71586600D01*
D31*
X130000000Y-80679800D02*
X130000000Y-80375000D01*
D29*
X127104400Y-72399400D02*
X127091400Y-72386400D01*
D30*
X128000000Y-110000000D02*
X128025000Y-109975000D01*
X133343000Y-106920000D02*
X133903991Y-106920000D01*
D28*
X111036256Y-102675000D02*
X108662500Y-102675000D01*
X119500000Y-107000000D02*
X120925000Y-107000000D01*
D31*
X131593792Y-87593792D02*
X133511600Y-89511600D01*
D30*
X133902000Y-107181000D02*
X133902000Y-106931608D01*
X134550000Y-108204000D02*
X134550000Y-108143600D01*
X134384145Y-107917345D02*
X134507290Y-108040490D01*
D31*
X130000000Y-80679800D02*
X130000000Y-80349600D01*
D29*
X111508800Y-71078600D02*
X111619400Y-71189200D01*
D30*
X134384145Y-107917345D02*
X134081746Y-107614946D01*
D31*
X130126999Y-80197199D02*
X130017960Y-80306239D01*
D30*
X129363952Y-109950000D02*
X128085355Y-109950000D01*
X133306200Y-105714800D02*
X132166721Y-105714800D01*
D29*
X129692400Y-109621552D02*
X129692400Y-108254800D01*
D31*
X130433605Y-80070200D02*
X134064000Y-80070200D01*
D29*
X111730000Y-71456212D02*
X111730000Y-72390000D01*
D31*
X130000000Y-80679800D02*
X130000000Y-80984600D01*
X130000000Y-81594200D02*
X130000000Y-81289400D01*
D28*
X119500000Y-110000000D02*
X120925000Y-110000000D01*
D31*
X130000000Y-80349600D02*
X130000000Y-80375000D01*
X130000000Y-81594200D02*
X130000000Y-82203800D01*
X130000000Y-81594200D02*
X130000000Y-81289400D01*
X130000000Y-80679800D02*
X130000000Y-80984600D01*
X130000000Y-82203800D02*
X130000000Y-81594200D01*
D29*
X131876800Y-105460800D02*
X132054600Y-105638600D01*
D30*
X132377118Y-106519918D02*
X132352400Y-106495200D01*
D28*
X111335000Y-102500000D02*
X111247500Y-102587500D01*
X111250000Y-108250000D02*
X111212500Y-108287500D01*
D31*
X130000000Y-80984600D02*
X130000000Y-81289400D01*
D28*
X111121966Y-108325000D02*
X108662500Y-108325000D01*
D29*
X116538000Y-78038200D02*
X116538000Y-78546400D01*
X132054600Y-105638600D02*
X132105400Y-105689400D01*
X114658400Y-78089000D02*
X114658400Y-78495600D01*
D31*
X130000000Y-80984600D02*
X130000000Y-81289400D01*
X130000000Y-82203800D02*
X130000000Y-83746036D01*
D28*
X111036256Y-102675000D02*
G75*
G03*
X111247533Y-102587534I44J298800D01*
G01*
D31*
X130000000Y-80349600D02*
G75*
G02*
X130017965Y-80306244I61300J0D01*
G01*
D30*
X132105400Y-105689400D02*
G75*
G03*
X132166721Y-105714791I61300J61300D01*
G01*
X131927600Y-105469642D02*
G75*
G03*
X132352433Y-106495167I1450300J42D01*
G01*
X134507290Y-108040490D02*
G75*
G02*
X134550005Y-108143600I-103090J-103110D01*
G01*
D28*
X111212500Y-108287500D02*
G75*
G02*
X111121966Y-108324986I-90500J90500D01*
G01*
D29*
X129596200Y-109853800D02*
G75*
G02*
X129363952Y-109950022I-232300J232300D01*
G01*
D30*
X134384145Y-107917345D02*
X134384145Y-107917345D01*
D31*
X130000000Y-80984600D02*
X130000000Y-80984600D01*
X131593792Y-87593792D02*
G75*
G02*
X129999989Y-83746036I3847808J3847792D01*
G01*
D29*
X127091400Y-72386400D02*
G75*
G02*
X127078394Y-72355015I31400J31400D01*
G01*
D31*
X130126999Y-80197199D02*
G75*
G02*
X130433605Y-80070201I306601J-306601D01*
G01*
D30*
X133903991Y-106920000D02*
G75*
G03*
X133908800Y-106915191I9J4800D01*
G01*
X133908800Y-106317400D02*
G75*
G03*
X133306200Y-105714800I-602600J0D01*
G01*
X133905400Y-106923400D02*
G75*
G03*
X133902003Y-106931608I8200J-8200D01*
G01*
X132377118Y-106519918D02*
G75*
G03*
X133343000Y-106919989I965882J965918D01*
G01*
X134384145Y-107917345D02*
X134384145Y-107917345D01*
X133902000Y-107181000D02*
G75*
G03*
X134081745Y-107614947I613700J0D01*
G01*
D31*
X130000000Y-81594200D02*
X130000000Y-81594200D01*
X130000000Y-80349600D02*
X130000000Y-80349600D01*
X130000000Y-80679800D02*
X130000000Y-80679800D01*
D29*
X129692400Y-109621552D02*
G75*
G02*
X129596185Y-109853785I-328500J52D01*
G01*
D30*
X133908800Y-106915191D02*
G75*
G02*
X133905402Y-106923402I-11600J-9D01*
G01*
X128025000Y-109975000D02*
G75*
G02*
X128085355Y-109949982I60400J-60400D01*
G01*
X133905400Y-106923400D02*
G75*
G03*
X133903991Y-106920020I-1400J1400D01*
G01*
D31*
X130000000Y-81289400D02*
X130000000Y-81289400D01*
X130000000Y-80349600D02*
G75*
G02*
X130017965Y-80306244I61300J0D01*
G01*
D29*
X111619400Y-71189200D02*
G75*
G02*
X111729995Y-71456212I-267000J-267000D01*
G01*
D28*
%TO.N,Net-(RN2-R4.1)*%
X127487867Y-107300000D02*
X126900000Y-107300000D01*
X127850000Y-107150000D02*
X128000000Y-107000000D01*
X127487867Y-107300000D02*
G75*
G03*
X127850009Y-107150009I33J512100D01*
G01*
%TO.N,Net-(RN2-R1.1)*%
X127000000Y-112000000D02*
X126950000Y-111950000D01*
X126900000Y-111829289D02*
X126900000Y-109700000D01*
X126900000Y-111829289D02*
G75*
G03*
X126949997Y-111950003I170700J-11D01*
G01*
%TO.N,Net-(RN2-R3.1)*%
X127660400Y-108100000D02*
X126900000Y-108100000D01*
%TD*%
%TA.AperFunction,Conductor*%
%TO.N,GND*%
G36*
X135955743Y-113661010D02*
G01*
X135994115Y-113719400D01*
X135999500Y-113755546D01*
X135999500Y-117375500D01*
X135979815Y-117442539D01*
X135927011Y-117488294D01*
X135875500Y-117499500D01*
X134478962Y-117499500D01*
X134411923Y-117479815D01*
X134366168Y-117427011D01*
X134356224Y-117357853D01*
X134377387Y-117304376D01*
X134497099Y-117133409D01*
X134497100Y-117133407D01*
X134590419Y-116933284D01*
X134590424Y-116933270D01*
X134647573Y-116719986D01*
X134647575Y-116719976D01*
X134666821Y-116500000D01*
X134666821Y-116499999D01*
X134647575Y-116280023D01*
X134647573Y-116280013D01*
X134590424Y-116066729D01*
X134590420Y-116066720D01*
X134497096Y-115866586D01*
X134451741Y-115801811D01*
X134451740Y-115801810D01*
X133781000Y-116472550D01*
X133781000Y-116449840D01*
X133755036Y-116352939D01*
X133704876Y-116266060D01*
X133633940Y-116195124D01*
X133547061Y-116144964D01*
X133450160Y-116119000D01*
X133427448Y-116119000D01*
X134098188Y-115448259D01*
X134098187Y-115448258D01*
X134033411Y-115402901D01*
X134033405Y-115402898D01*
X133833284Y-115309580D01*
X133833270Y-115309575D01*
X133619986Y-115252426D01*
X133619976Y-115252424D01*
X133400001Y-115233179D01*
X133399999Y-115233179D01*
X133180023Y-115252424D01*
X133180013Y-115252426D01*
X132966729Y-115309575D01*
X132966720Y-115309579D01*
X132766590Y-115402901D01*
X132701811Y-115448258D01*
X133372553Y-116119000D01*
X133349840Y-116119000D01*
X133252939Y-116144964D01*
X133166060Y-116195124D01*
X133095124Y-116266060D01*
X133044964Y-116352939D01*
X133019000Y-116449840D01*
X133019000Y-116472553D01*
X132587041Y-116040594D01*
X132562341Y-116005319D01*
X132497534Y-115866339D01*
X132400000Y-115727045D01*
X132370827Y-115685381D01*
X132312318Y-115626872D01*
X132214620Y-115529174D01*
X132214616Y-115529171D01*
X132214615Y-115529170D01*
X132033666Y-115402468D01*
X132033662Y-115402466D01*
X131986457Y-115380454D01*
X131833450Y-115309106D01*
X131833447Y-115309105D01*
X131833445Y-115309104D01*
X131620070Y-115251930D01*
X131620062Y-115251929D01*
X131400002Y-115232677D01*
X131399998Y-115232677D01*
X131179937Y-115251929D01*
X131179929Y-115251930D01*
X130966554Y-115309104D01*
X130966548Y-115309107D01*
X130766340Y-115402465D01*
X130766338Y-115402466D01*
X130585381Y-115529172D01*
X130487680Y-115626873D01*
X130426356Y-115660357D01*
X130356665Y-115655373D01*
X130312318Y-115626872D01*
X130214621Y-115529175D01*
X130214615Y-115529170D01*
X130033666Y-115402468D01*
X130033662Y-115402466D01*
X129986457Y-115380454D01*
X129833450Y-115309106D01*
X129833447Y-115309105D01*
X129833445Y-115309104D01*
X129620070Y-115251930D01*
X129620062Y-115251929D01*
X129400002Y-115232677D01*
X129399998Y-115232677D01*
X129179937Y-115251929D01*
X129179929Y-115251930D01*
X128966554Y-115309104D01*
X128966548Y-115309107D01*
X128766340Y-115402465D01*
X128766338Y-115402466D01*
X128585381Y-115529172D01*
X128487680Y-115626873D01*
X128426356Y-115660357D01*
X128356665Y-115655373D01*
X128312318Y-115626872D01*
X128214621Y-115529175D01*
X128214615Y-115529170D01*
X128033666Y-115402468D01*
X128033662Y-115402466D01*
X127986457Y-115380454D01*
X127833450Y-115309106D01*
X127833447Y-115309105D01*
X127833445Y-115309104D01*
X127620070Y-115251930D01*
X127620062Y-115251929D01*
X127400002Y-115232677D01*
X127399998Y-115232677D01*
X127179937Y-115251929D01*
X127179929Y-115251930D01*
X126966554Y-115309104D01*
X126966548Y-115309107D01*
X126766340Y-115402465D01*
X126766338Y-115402466D01*
X126585381Y-115529172D01*
X126487680Y-115626873D01*
X126426356Y-115660357D01*
X126356665Y-115655373D01*
X126312318Y-115626872D01*
X126214621Y-115529175D01*
X126214615Y-115529170D01*
X126033666Y-115402468D01*
X126033662Y-115402466D01*
X125986457Y-115380454D01*
X125833450Y-115309106D01*
X125833447Y-115309105D01*
X125833445Y-115309104D01*
X125620070Y-115251930D01*
X125620062Y-115251929D01*
X125400002Y-115232677D01*
X125399998Y-115232677D01*
X125179937Y-115251929D01*
X125179929Y-115251930D01*
X124966554Y-115309104D01*
X124966548Y-115309107D01*
X124766340Y-115402465D01*
X124766338Y-115402466D01*
X124585381Y-115529172D01*
X124487680Y-115626873D01*
X124426356Y-115660357D01*
X124356665Y-115655373D01*
X124312318Y-115626872D01*
X124214621Y-115529175D01*
X124214615Y-115529170D01*
X124033666Y-115402468D01*
X124033662Y-115402466D01*
X123986457Y-115380454D01*
X123833450Y-115309106D01*
X123833447Y-115309105D01*
X123833445Y-115309104D01*
X123620070Y-115251930D01*
X123620062Y-115251929D01*
X123400002Y-115232677D01*
X123399998Y-115232677D01*
X123179937Y-115251929D01*
X123179929Y-115251930D01*
X122966554Y-115309104D01*
X122966548Y-115309107D01*
X122766340Y-115402465D01*
X122766338Y-115402466D01*
X122585381Y-115529172D01*
X122487680Y-115626873D01*
X122426356Y-115660357D01*
X122356665Y-115655373D01*
X122312318Y-115626872D01*
X122214621Y-115529175D01*
X122214615Y-115529170D01*
X122033666Y-115402468D01*
X122033662Y-115402466D01*
X121986457Y-115380454D01*
X121833450Y-115309106D01*
X121833447Y-115309105D01*
X121833445Y-115309104D01*
X121620070Y-115251930D01*
X121620062Y-115251929D01*
X121400002Y-115232677D01*
X121399998Y-115232677D01*
X121179937Y-115251929D01*
X121179929Y-115251930D01*
X120966554Y-115309104D01*
X120966548Y-115309107D01*
X120766340Y-115402465D01*
X120766338Y-115402466D01*
X120585381Y-115529172D01*
X120487680Y-115626873D01*
X120426356Y-115660357D01*
X120356665Y-115655373D01*
X120312318Y-115626872D01*
X120214621Y-115529175D01*
X120214615Y-115529170D01*
X120033666Y-115402468D01*
X120033662Y-115402466D01*
X119986457Y-115380454D01*
X119833450Y-115309106D01*
X119833447Y-115309105D01*
X119833445Y-115309104D01*
X119620070Y-115251930D01*
X119620062Y-115251929D01*
X119400002Y-115232677D01*
X119399998Y-115232677D01*
X119179937Y-115251929D01*
X119179929Y-115251930D01*
X118966554Y-115309104D01*
X118966548Y-115309107D01*
X118766340Y-115402465D01*
X118766338Y-115402466D01*
X118585381Y-115529172D01*
X118487680Y-115626873D01*
X118426356Y-115660357D01*
X118356665Y-115655373D01*
X118312318Y-115626872D01*
X118214621Y-115529175D01*
X118214615Y-115529170D01*
X118033666Y-115402468D01*
X118033662Y-115402466D01*
X117986457Y-115380454D01*
X117833450Y-115309106D01*
X117833447Y-115309105D01*
X117833445Y-115309104D01*
X117620070Y-115251930D01*
X117620062Y-115251929D01*
X117400002Y-115232677D01*
X117399998Y-115232677D01*
X117179937Y-115251929D01*
X117179929Y-115251930D01*
X116966554Y-115309104D01*
X116966548Y-115309107D01*
X116766340Y-115402465D01*
X116766334Y-115402469D01*
X116713629Y-115439372D01*
X116647423Y-115461699D01*
X116579656Y-115444686D01*
X116543242Y-115412107D01*
X116519547Y-115380455D01*
X116519544Y-115380452D01*
X116440637Y-115321382D01*
X116398766Y-115265449D01*
X116393782Y-115195757D01*
X116420641Y-115141604D01*
X116421073Y-115141098D01*
X116422612Y-115139295D01*
X116429216Y-115132151D01*
X116477266Y-115084101D01*
X116484389Y-115077516D01*
X116607778Y-114972133D01*
X116623514Y-114960701D01*
X116757708Y-114878468D01*
X116775045Y-114869635D01*
X116787189Y-114864605D01*
X116920438Y-114809411D01*
X116938934Y-114803401D01*
X117091977Y-114766660D01*
X117111180Y-114763619D01*
X117273038Y-114750881D01*
X117282754Y-114750500D01*
X117356691Y-114750501D01*
X117356696Y-114750500D01*
X124176082Y-114750500D01*
X127676082Y-114750500D01*
X128171119Y-114750500D01*
X128176082Y-114750500D01*
X130618880Y-114750500D01*
X130676082Y-114750500D01*
X133855436Y-114750500D01*
X133855441Y-114750501D01*
X133882952Y-114750500D01*
X133882973Y-114750506D01*
X133934322Y-114750505D01*
X133934322Y-114750506D01*
X134053157Y-114750504D01*
X134053167Y-114750504D01*
X134224915Y-114731150D01*
X134289353Y-114723890D01*
X134521077Y-114670999D01*
X134745423Y-114592495D01*
X134959568Y-114489367D01*
X135160821Y-114362911D01*
X135346649Y-114214717D01*
X135367836Y-114193530D01*
X135367843Y-114193524D01*
X135374905Y-114186462D01*
X135374907Y-114186461D01*
X135430684Y-114130684D01*
X135486461Y-114074907D01*
X135486462Y-114074904D01*
X135491455Y-114069912D01*
X135491535Y-114069821D01*
X135514713Y-114046645D01*
X135662906Y-113860817D01*
X135770506Y-113689574D01*
X135822841Y-113643283D01*
X135891895Y-113632635D01*
X135955743Y-113661010D01*
G37*
%TD.AperFunction*%
%TA.AperFunction,Conductor*%
G36*
X114507188Y-66520185D02*
G01*
X114552943Y-66572989D01*
X114562887Y-66642147D01*
X114541724Y-66695623D01*
X114414066Y-66877938D01*
X114414065Y-66877940D01*
X114320707Y-67078148D01*
X114320704Y-67078154D01*
X114263530Y-67291529D01*
X114263529Y-67291537D01*
X114244277Y-67511597D01*
X114244277Y-67511602D01*
X114263529Y-67731662D01*
X114263530Y-67731670D01*
X114320704Y-67945045D01*
X114320705Y-67945047D01*
X114320706Y-67945050D01*
X114414066Y-68145262D01*
X114414068Y-68145266D01*
X114540770Y-68326215D01*
X114540775Y-68326221D01*
X114696978Y-68482424D01*
X114696984Y-68482429D01*
X114877933Y-68609131D01*
X114877935Y-68609132D01*
X114877938Y-68609134D01*
X115078150Y-68702494D01*
X115291532Y-68759670D01*
X115448723Y-68773422D01*
X115511598Y-68778923D01*
X115511600Y-68778923D01*
X115511602Y-68778923D01*
X115566617Y-68774109D01*
X115731668Y-68759670D01*
X115945050Y-68702494D01*
X116145262Y-68609134D01*
X116326220Y-68482426D01*
X116423919Y-68384727D01*
X116485242Y-68351242D01*
X116554934Y-68356226D01*
X116599281Y-68384727D01*
X116696978Y-68482424D01*
X116696984Y-68482429D01*
X116877933Y-68609131D01*
X116877935Y-68609132D01*
X116877938Y-68609134D01*
X117078150Y-68702494D01*
X117291532Y-68759670D01*
X117448723Y-68773422D01*
X117511598Y-68778923D01*
X117511600Y-68778923D01*
X117511602Y-68778923D01*
X117566617Y-68774109D01*
X117731668Y-68759670D01*
X117945050Y-68702494D01*
X118145262Y-68609134D01*
X118326220Y-68482426D01*
X118423919Y-68384727D01*
X118485242Y-68351242D01*
X118554934Y-68356226D01*
X118599281Y-68384727D01*
X118696978Y-68482424D01*
X118696984Y-68482429D01*
X118877933Y-68609131D01*
X118877935Y-68609132D01*
X118877938Y-68609134D01*
X119078150Y-68702494D01*
X119291532Y-68759670D01*
X119448723Y-68773422D01*
X119511598Y-68778923D01*
X119511600Y-68778923D01*
X119511602Y-68778923D01*
X119566617Y-68774109D01*
X119731668Y-68759670D01*
X119945050Y-68702494D01*
X120145262Y-68609134D01*
X120326220Y-68482426D01*
X120423919Y-68384727D01*
X120485242Y-68351242D01*
X120554934Y-68356226D01*
X120599281Y-68384727D01*
X120696978Y-68482424D01*
X120696984Y-68482429D01*
X120877933Y-68609131D01*
X120877935Y-68609132D01*
X120877938Y-68609134D01*
X121078150Y-68702494D01*
X121291532Y-68759670D01*
X121448723Y-68773422D01*
X121511598Y-68778923D01*
X121511600Y-68778923D01*
X121511602Y-68778923D01*
X121566617Y-68774109D01*
X121731668Y-68759670D01*
X121945050Y-68702494D01*
X122145262Y-68609134D01*
X122326220Y-68482426D01*
X122423919Y-68384727D01*
X122485242Y-68351242D01*
X122554934Y-68356226D01*
X122599281Y-68384727D01*
X122696978Y-68482424D01*
X122696984Y-68482429D01*
X122877933Y-68609131D01*
X122877935Y-68609132D01*
X122877938Y-68609134D01*
X123078150Y-68702494D01*
X123291532Y-68759670D01*
X123448723Y-68773422D01*
X123511598Y-68778923D01*
X123511600Y-68778923D01*
X123511602Y-68778923D01*
X123566617Y-68774109D01*
X123731668Y-68759670D01*
X123945050Y-68702494D01*
X124145262Y-68609134D01*
X124326220Y-68482426D01*
X124423919Y-68384727D01*
X124485242Y-68351242D01*
X124554934Y-68356226D01*
X124599281Y-68384727D01*
X124696978Y-68482424D01*
X124696984Y-68482429D01*
X124877933Y-68609131D01*
X124877935Y-68609132D01*
X124877938Y-68609134D01*
X125078150Y-68702494D01*
X125291532Y-68759670D01*
X125448723Y-68773422D01*
X125511598Y-68778923D01*
X125511600Y-68778923D01*
X125511602Y-68778923D01*
X125566617Y-68774109D01*
X125731668Y-68759670D01*
X125945050Y-68702494D01*
X126145262Y-68609134D01*
X126326220Y-68482426D01*
X126423919Y-68384727D01*
X126485242Y-68351242D01*
X126554934Y-68356226D01*
X126599281Y-68384727D01*
X126696978Y-68482424D01*
X126696984Y-68482429D01*
X126877933Y-68609131D01*
X126877935Y-68609132D01*
X126877938Y-68609134D01*
X127078150Y-68702494D01*
X127291532Y-68759670D01*
X127448723Y-68773422D01*
X127511598Y-68778923D01*
X127511600Y-68778923D01*
X127511602Y-68778923D01*
X127566617Y-68774109D01*
X127731668Y-68759670D01*
X127945050Y-68702494D01*
X128145262Y-68609134D01*
X128326220Y-68482426D01*
X128423919Y-68384727D01*
X128485242Y-68351242D01*
X128554934Y-68356226D01*
X128599281Y-68384727D01*
X128696978Y-68482424D01*
X128696984Y-68482429D01*
X128877933Y-68609131D01*
X128877935Y-68609132D01*
X128877938Y-68609134D01*
X129078150Y-68702494D01*
X129291532Y-68759670D01*
X129448723Y-68773422D01*
X129511598Y-68778923D01*
X129511600Y-68778923D01*
X129511602Y-68778923D01*
X129566617Y-68774109D01*
X129731668Y-68759670D01*
X129945050Y-68702494D01*
X130145262Y-68609134D01*
X130326220Y-68482426D01*
X130423919Y-68384727D01*
X130485242Y-68351242D01*
X130554934Y-68356226D01*
X130599281Y-68384727D01*
X130696978Y-68482424D01*
X130696984Y-68482429D01*
X130877933Y-68609131D01*
X130877935Y-68609132D01*
X130877938Y-68609134D01*
X131078150Y-68702494D01*
X131291532Y-68759670D01*
X131448723Y-68773422D01*
X131511598Y-68778923D01*
X131511600Y-68778923D01*
X131511602Y-68778923D01*
X131566617Y-68774109D01*
X131731668Y-68759670D01*
X131945050Y-68702494D01*
X132145262Y-68609134D01*
X132326220Y-68482426D01*
X132423919Y-68384727D01*
X132485242Y-68351242D01*
X132554934Y-68356226D01*
X132599281Y-68384727D01*
X132696978Y-68482424D01*
X132696984Y-68482429D01*
X132877933Y-68609131D01*
X132877935Y-68609132D01*
X132877938Y-68609134D01*
X133078150Y-68702494D01*
X133291532Y-68759670D01*
X133448723Y-68773422D01*
X133511598Y-68778923D01*
X133511600Y-68778923D01*
X133511602Y-68778923D01*
X133566617Y-68774109D01*
X133731668Y-68759670D01*
X133945050Y-68702494D01*
X134145262Y-68609134D01*
X134326220Y-68482426D01*
X134482426Y-68326220D01*
X134609134Y-68145262D01*
X134702494Y-67945050D01*
X134759670Y-67731668D01*
X134778923Y-67511600D01*
X134759670Y-67291532D01*
X134702494Y-67078150D01*
X134609134Y-66877939D01*
X134482426Y-66696980D01*
X134481476Y-66695623D01*
X134459149Y-66629417D01*
X134476159Y-66561649D01*
X134527108Y-66513837D01*
X134583051Y-66500500D01*
X135875500Y-66500500D01*
X135942539Y-66520185D01*
X135988294Y-66572989D01*
X135999500Y-66624500D01*
X135999500Y-105264917D01*
X135979815Y-105331956D01*
X135927011Y-105377711D01*
X135857853Y-105387655D01*
X135794297Y-105358630D01*
X135766141Y-105323369D01*
X135689108Y-105179249D01*
X135631062Y-105070650D01*
X135631056Y-105070641D01*
X135631052Y-105070634D01*
X135468959Y-104828043D01*
X135468950Y-104828031D01*
X135281914Y-104600127D01*
X135282786Y-104599411D01*
X135254342Y-104540582D01*
X135253134Y-104509434D01*
X135253960Y-104500000D01*
X135264459Y-104380000D01*
X135243863Y-104144592D01*
X135182703Y-103916337D01*
X135082835Y-103702171D01*
X135046640Y-103650478D01*
X134947294Y-103508597D01*
X134780202Y-103341506D01*
X134780196Y-103341501D01*
X134594642Y-103211575D01*
X134551017Y-103156998D01*
X134543823Y-103087500D01*
X134575346Y-103025145D01*
X134594642Y-103008425D01*
X134713785Y-102925000D01*
X134780201Y-102878495D01*
X134947295Y-102711401D01*
X135082835Y-102517830D01*
X135182703Y-102303663D01*
X135243863Y-102075408D01*
X135264459Y-101840000D01*
X135243863Y-101604592D01*
X135182703Y-101376337D01*
X135082835Y-101162171D01*
X134947295Y-100968599D01*
X134947294Y-100968597D01*
X134780202Y-100801506D01*
X134780196Y-100801501D01*
X134594642Y-100671575D01*
X134551017Y-100616998D01*
X134543823Y-100547500D01*
X134575346Y-100485145D01*
X134594642Y-100468425D01*
X134616826Y-100452891D01*
X134780201Y-100338495D01*
X134947295Y-100171401D01*
X135082835Y-99977830D01*
X135182703Y-99763663D01*
X135243863Y-99535408D01*
X135264459Y-99300000D01*
X135243863Y-99064592D01*
X135182703Y-98836337D01*
X135082835Y-98622171D01*
X134947295Y-98428599D01*
X134947294Y-98428597D01*
X134780202Y-98261506D01*
X134780195Y-98261501D01*
X134586634Y-98125967D01*
X134586630Y-98125965D01*
X134586628Y-98125964D01*
X134372463Y-98026097D01*
X134372459Y-98026096D01*
X134372455Y-98026094D01*
X134144213Y-97964938D01*
X134144203Y-97964936D01*
X133908801Y-97944341D01*
X133908799Y-97944341D01*
X133673396Y-97964936D01*
X133673386Y-97964938D01*
X133445144Y-98026094D01*
X133445135Y-98026098D01*
X133230971Y-98125964D01*
X133230969Y-98125965D01*
X133037397Y-98261505D01*
X132870305Y-98428597D01*
X132734765Y-98622169D01*
X132734764Y-98622171D01*
X132634898Y-98836335D01*
X132634894Y-98836344D01*
X132573738Y-99064586D01*
X132573736Y-99064596D01*
X132553141Y-99299999D01*
X132553141Y-99300000D01*
X132573736Y-99535403D01*
X132573738Y-99535413D01*
X132634894Y-99763655D01*
X132634896Y-99763659D01*
X132634897Y-99763663D01*
X132734765Y-99977830D01*
X132734767Y-99977834D01*
X132840978Y-100129519D01*
X132863305Y-100195725D01*
X132846295Y-100263492D01*
X132827084Y-100288323D01*
X131205202Y-101910207D01*
X131205201Y-101910208D01*
X131153226Y-101962182D01*
X131149717Y-101965556D01*
X130877388Y-102217293D01*
X130869985Y-102223616D01*
X130580658Y-102451703D01*
X130572781Y-102457426D01*
X130266465Y-102662099D01*
X130258163Y-102667186D01*
X129936734Y-102847196D01*
X129928059Y-102851617D01*
X129593481Y-103005860D01*
X129584486Y-103009586D01*
X129238835Y-103137105D01*
X129229575Y-103140113D01*
X128875008Y-103240113D01*
X128865541Y-103242386D01*
X128504204Y-103314262D01*
X128494587Y-103315785D01*
X128128733Y-103359088D01*
X128119027Y-103359852D01*
X127748729Y-103374404D01*
X127743860Y-103374500D01*
X116544855Y-103374500D01*
X116478883Y-103355494D01*
X116349523Y-103274211D01*
X116179254Y-103214631D01*
X116179249Y-103214630D01*
X116000004Y-103194435D01*
X115999996Y-103194435D01*
X115820750Y-103214630D01*
X115820745Y-103214631D01*
X115650476Y-103274211D01*
X115497737Y-103370184D01*
X115370184Y-103497737D01*
X115274211Y-103650476D01*
X115214631Y-103820745D01*
X115214630Y-103820750D01*
X115194435Y-103999996D01*
X115194435Y-104000003D01*
X115214630Y-104179249D01*
X115214633Y-104179262D01*
X115274209Y-104349520D01*
X115327309Y-104434029D01*
X115346309Y-104501266D01*
X115327309Y-104565971D01*
X115274209Y-104650479D01*
X115214633Y-104820737D01*
X115214630Y-104820750D01*
X115194435Y-104999996D01*
X115194435Y-105000003D01*
X115214630Y-105179249D01*
X115214631Y-105179254D01*
X115274211Y-105349523D01*
X115370183Y-105502260D01*
X115370184Y-105502262D01*
X115497738Y-105629816D01*
X115566155Y-105672805D01*
X115633407Y-105715063D01*
X115650478Y-105725789D01*
X115690185Y-105739683D01*
X115820745Y-105785368D01*
X115820750Y-105785369D01*
X115999996Y-105805565D01*
X116000000Y-105805565D01*
X116000004Y-105805565D01*
X116179249Y-105785369D01*
X116179252Y-105785368D01*
X116179255Y-105785368D01*
X116349522Y-105725789D01*
X116502262Y-105629816D01*
X116629816Y-105502262D01*
X116641491Y-105483679D01*
X116673257Y-105433127D01*
X116725591Y-105386837D01*
X116778250Y-105375100D01*
X116953095Y-105375100D01*
X117020134Y-105394785D01*
X117065889Y-105447589D01*
X117075833Y-105516747D01*
X117046808Y-105580303D01*
X117031760Y-105594953D01*
X116968722Y-105646686D01*
X116889206Y-105726200D01*
X116889194Y-105726214D01*
X116398449Y-106216958D01*
X116337126Y-106250443D01*
X116269814Y-106246319D01*
X116179257Y-106214632D01*
X116179249Y-106214630D01*
X116000004Y-106194435D01*
X115999996Y-106194435D01*
X115820750Y-106214630D01*
X115820745Y-106214631D01*
X115650476Y-106274211D01*
X115497737Y-106370184D01*
X115370184Y-106497737D01*
X115274211Y-106650476D01*
X115214631Y-106820745D01*
X115214630Y-106820750D01*
X115194435Y-106999996D01*
X115194435Y-107000003D01*
X115214630Y-107179249D01*
X115214633Y-107179262D01*
X115274209Y-107349520D01*
X115327309Y-107434029D01*
X115346309Y-107501266D01*
X115327309Y-107565971D01*
X115274209Y-107650479D01*
X115214633Y-107820737D01*
X115214630Y-107820750D01*
X115194435Y-107999996D01*
X115194435Y-108000003D01*
X115214630Y-108179249D01*
X115214631Y-108179254D01*
X115274211Y-108349523D01*
X115339177Y-108452915D01*
X115370184Y-108502262D01*
X115497738Y-108629816D01*
X115650478Y-108725789D01*
X115803121Y-108779201D01*
X115820745Y-108785368D01*
X115820750Y-108785369D01*
X115999996Y-108805565D01*
X116000000Y-108805565D01*
X116000004Y-108805565D01*
X116179249Y-108785369D01*
X116179252Y-108785368D01*
X116179255Y-108785368D01*
X116349522Y-108725789D01*
X116478883Y-108644505D01*
X116544855Y-108625500D01*
X116722134Y-108625500D01*
X116722590Y-108625476D01*
X116778206Y-108625478D01*
X117024341Y-108597750D01*
X117265823Y-108542638D01*
X117499617Y-108460834D01*
X117499627Y-108460828D01*
X117499630Y-108460828D01*
X117722776Y-108353372D01*
X117722778Y-108353371D01*
X117722778Y-108353370D01*
X117722782Y-108353369D01*
X117932511Y-108221592D01*
X118126167Y-108067162D01*
X118164794Y-108028535D01*
X118164821Y-108028511D01*
X118170183Y-108023148D01*
X118170186Y-108023147D01*
X118253509Y-107939824D01*
X118267446Y-107925888D01*
X118267446Y-107925885D01*
X118277649Y-107915684D01*
X118277652Y-107915679D01*
X118687128Y-107506204D01*
X118687138Y-107506197D01*
X118697340Y-107495995D01*
X118748895Y-107444438D01*
X118753248Y-107440292D01*
X118903453Y-107304152D01*
X119987501Y-107304152D01*
X119997556Y-107402583D01*
X120050406Y-107562072D01*
X120050408Y-107562077D01*
X120138614Y-107705080D01*
X120257419Y-107823885D01*
X120400422Y-107912091D01*
X120400427Y-107912093D01*
X120559916Y-107964942D01*
X120658356Y-107974999D01*
X120675000Y-107974998D01*
X120675000Y-107250000D01*
X119987501Y-107250000D01*
X119987501Y-107304152D01*
X118903453Y-107304152D01*
X118949325Y-107262575D01*
X118958696Y-107254884D01*
X119168759Y-107099086D01*
X119178837Y-107092352D01*
X119403155Y-106957897D01*
X119413874Y-106952168D01*
X119650267Y-106840359D01*
X119661488Y-106835711D01*
X119890780Y-106753665D01*
X119936138Y-106751031D01*
X119936138Y-106750000D01*
X119953886Y-106750000D01*
X119960531Y-106749614D01*
X119961227Y-106750000D01*
X121051000Y-106750000D01*
X121118039Y-106769685D01*
X121163794Y-106822489D01*
X121175000Y-106874000D01*
X121175000Y-107974999D01*
X121191636Y-107974999D01*
X121191652Y-107974998D01*
X121290083Y-107964943D01*
X121449572Y-107912093D01*
X121449577Y-107912091D01*
X121592580Y-107823885D01*
X121624466Y-107792000D01*
X121685789Y-107758515D01*
X121755481Y-107763499D01*
X121799828Y-107792000D01*
X121832108Y-107824280D01*
X121832112Y-107824283D01*
X121975204Y-107912544D01*
X121975207Y-107912545D01*
X121975213Y-107912549D01*
X122134815Y-107965436D01*
X122233326Y-107975500D01*
X122233331Y-107975500D01*
X122766669Y-107975500D01*
X122766674Y-107975500D01*
X122865185Y-107965436D01*
X122966709Y-107931793D01*
X123005709Y-107925500D01*
X123012171Y-107925500D01*
X124075500Y-107925500D01*
X124142539Y-107945185D01*
X124188294Y-107997989D01*
X124199500Y-108049500D01*
X124199500Y-108347869D01*
X124199501Y-108347876D01*
X124205908Y-108407482D01*
X124224253Y-108456666D01*
X124229237Y-108526358D01*
X124224253Y-108543331D01*
X124205910Y-108592511D01*
X124205909Y-108592515D01*
X124205909Y-108592517D01*
X124199500Y-108652127D01*
X124199500Y-108849795D01*
X124199501Y-108950500D01*
X124179817Y-109017539D01*
X124127013Y-109063294D01*
X124075501Y-109074500D01*
X123005714Y-109074500D01*
X122966711Y-109068206D01*
X122865188Y-109034565D01*
X122865185Y-109034564D01*
X122865180Y-109034563D01*
X122865178Y-109034563D01*
X122766681Y-109024500D01*
X122766674Y-109024500D01*
X122233326Y-109024500D01*
X122233318Y-109024500D01*
X122134816Y-109034563D01*
X122134815Y-109034564D01*
X122094739Y-109047844D01*
X121975215Y-109087450D01*
X121975204Y-109087455D01*
X121832112Y-109175716D01*
X121832107Y-109175719D01*
X121799827Y-109208000D01*
X121738503Y-109241485D01*
X121668812Y-109236499D01*
X121624467Y-109208000D01*
X121592580Y-109176114D01*
X121449577Y-109087908D01*
X121449572Y-109087906D01*
X121290083Y-109035057D01*
X121191650Y-109025000D01*
X121175000Y-109025000D01*
X121175000Y-110974999D01*
X121191636Y-110974999D01*
X121191652Y-110974998D01*
X121290083Y-110964943D01*
X121449572Y-110912093D01*
X121449577Y-110912091D01*
X121592580Y-110823885D01*
X121624466Y-110792000D01*
X121685789Y-110758515D01*
X121755481Y-110763499D01*
X121799828Y-110792000D01*
X121832108Y-110824280D01*
X121832112Y-110824283D01*
X121975204Y-110912544D01*
X121975207Y-110912545D01*
X121975213Y-110912549D01*
X122134815Y-110965436D01*
X122233326Y-110975500D01*
X122233331Y-110975500D01*
X122766669Y-110975500D01*
X122766674Y-110975500D01*
X122865185Y-110965436D01*
X123024787Y-110912549D01*
X123167891Y-110824281D01*
X123286781Y-110705391D01*
X123375049Y-110562287D01*
X123425348Y-110410494D01*
X123465119Y-110353051D01*
X123529635Y-110326228D01*
X123543053Y-110325500D01*
X124325165Y-110325500D01*
X124392204Y-110345185D01*
X124399476Y-110350233D01*
X124457668Y-110393795D01*
X124457671Y-110393797D01*
X124502444Y-110410496D01*
X124592517Y-110444091D01*
X124652127Y-110450500D01*
X125250500Y-110450499D01*
X125317539Y-110470183D01*
X125363294Y-110522987D01*
X125374500Y-110574499D01*
X125374500Y-112244586D01*
X125374028Y-112255394D01*
X125358361Y-112434459D01*
X125354608Y-112455744D01*
X125309491Y-112624125D01*
X125302098Y-112644436D01*
X125228433Y-112802413D01*
X125217625Y-112821133D01*
X125117635Y-112963932D01*
X125103742Y-112980489D01*
X124980489Y-113103742D01*
X124963932Y-113117636D01*
X124821133Y-113217625D01*
X124802415Y-113228431D01*
X124782149Y-113237881D01*
X124729745Y-113249500D01*
X117198473Y-113249500D01*
X117198361Y-113249505D01*
X117130211Y-113249505D01*
X116836885Y-113282552D01*
X116836865Y-113282555D01*
X116549068Y-113348241D01*
X116549062Y-113348243D01*
X116270428Y-113445740D01*
X116004447Y-113573827D01*
X115754490Y-113730885D01*
X115523683Y-113914947D01*
X115464511Y-113974118D01*
X115464507Y-113974122D01*
X115419316Y-114019314D01*
X115419314Y-114019316D01*
X115361110Y-114077519D01*
X115361104Y-114077524D01*
X115361105Y-114077525D01*
X115308133Y-114130500D01*
X115307966Y-114130683D01*
X115267405Y-114171243D01*
X115096490Y-114385556D01*
X114950657Y-114617640D01*
X114950655Y-114617643D01*
X114950655Y-114617644D01*
X114860101Y-114805678D01*
X114831719Y-114864612D01*
X114741190Y-115123322D01*
X114741188Y-115123329D01*
X114737132Y-115141098D01*
X114703020Y-115202075D01*
X114641357Y-115234930D01*
X114616246Y-115237500D01*
X114590131Y-115237500D01*
X114590123Y-115237501D01*
X114530516Y-115243908D01*
X114395671Y-115294202D01*
X114395664Y-115294206D01*
X114280455Y-115380452D01*
X114280452Y-115380455D01*
X114194206Y-115495664D01*
X114194202Y-115495671D01*
X114143908Y-115630517D01*
X114137501Y-115690116D01*
X114137500Y-115690135D01*
X114137500Y-116630324D01*
X114117815Y-116697363D01*
X114065011Y-116743118D01*
X113995853Y-116753062D01*
X113932297Y-116724037D01*
X113925819Y-116718005D01*
X113256487Y-116048673D01*
X113250020Y-116041690D01*
X108529852Y-110534827D01*
X108501169Y-110471116D01*
X108500000Y-110454129D01*
X108500000Y-110304152D01*
X119987501Y-110304152D01*
X119997556Y-110402583D01*
X120050406Y-110562072D01*
X120050408Y-110562077D01*
X120138614Y-110705080D01*
X120257419Y-110823885D01*
X120400422Y-110912091D01*
X120400427Y-110912093D01*
X120559916Y-110964942D01*
X120658356Y-110974999D01*
X120675000Y-110974998D01*
X120675000Y-110250000D01*
X119987501Y-110250000D01*
X119987501Y-110304152D01*
X108500000Y-110304152D01*
X108500000Y-109695849D01*
X119987500Y-109695849D01*
X119987500Y-109750000D01*
X120675000Y-109750000D01*
X120675000Y-109024999D01*
X120658356Y-109025000D01*
X120559915Y-109035057D01*
X120400427Y-109087906D01*
X120400422Y-109087908D01*
X120257419Y-109176114D01*
X120138614Y-109294919D01*
X120050408Y-109437922D01*
X120050406Y-109437927D01*
X119997557Y-109597416D01*
X119987500Y-109695849D01*
X108500000Y-109695849D01*
X108500000Y-109543000D01*
X108500000Y-109500000D01*
X108912500Y-109500000D01*
X110810328Y-109500000D01*
X110810344Y-109499999D01*
X110869872Y-109493598D01*
X110869879Y-109493596D01*
X111004586Y-109443354D01*
X111004593Y-109443350D01*
X111119687Y-109357190D01*
X111119690Y-109357187D01*
X111205850Y-109242093D01*
X111205854Y-109242086D01*
X111256096Y-109107379D01*
X111256098Y-109107372D01*
X111262499Y-109047844D01*
X111262500Y-109047827D01*
X111262500Y-108575000D01*
X108912500Y-108575000D01*
X108912500Y-109500000D01*
X108500000Y-109500000D01*
X108500000Y-108075000D01*
X108912500Y-108075000D01*
X111262500Y-108075000D01*
X111262500Y-107602172D01*
X111262499Y-107602155D01*
X111256098Y-107542627D01*
X111256096Y-107542620D01*
X111205854Y-107407913D01*
X111205850Y-107407906D01*
X111119690Y-107292812D01*
X111119687Y-107292809D01*
X111004593Y-107206649D01*
X111004586Y-107206645D01*
X110869879Y-107156403D01*
X110869872Y-107156401D01*
X110810344Y-107150000D01*
X108912500Y-107150000D01*
X108912500Y-108075000D01*
X108500000Y-108075000D01*
X108500000Y-103850000D01*
X108912500Y-103850000D01*
X110810328Y-103850000D01*
X110810344Y-103849999D01*
X110869872Y-103843598D01*
X110869879Y-103843596D01*
X111004586Y-103793354D01*
X111004593Y-103793350D01*
X111119687Y-103707190D01*
X111119690Y-103707187D01*
X111205850Y-103592093D01*
X111205854Y-103592086D01*
X111256096Y-103457379D01*
X111256098Y-103457372D01*
X111262499Y-103397844D01*
X111262500Y-103397827D01*
X111262500Y-102925000D01*
X108912500Y-102925000D01*
X108912500Y-103850000D01*
X108500000Y-103850000D01*
X108500000Y-102425000D01*
X108912500Y-102425000D01*
X111262500Y-102425000D01*
X111262500Y-101952172D01*
X111262499Y-101952155D01*
X111256098Y-101892627D01*
X111256096Y-101892620D01*
X111205854Y-101757913D01*
X111205850Y-101757906D01*
X111119690Y-101642812D01*
X111119687Y-101642809D01*
X111004593Y-101556649D01*
X111004586Y-101556645D01*
X110869879Y-101506403D01*
X110869872Y-101506401D01*
X110810344Y-101500000D01*
X108912500Y-101500000D01*
X108912500Y-102425000D01*
X108500000Y-102425000D01*
X108500000Y-101041333D01*
X108519685Y-100974294D01*
X108524800Y-100966933D01*
X108648874Y-100801501D01*
X112371281Y-95838291D01*
X112382784Y-95825028D01*
X113932511Y-94275301D01*
X113993832Y-94241818D01*
X114063524Y-94246802D01*
X114119457Y-94288674D01*
X114143874Y-94354138D01*
X114143718Y-94373791D01*
X114132677Y-94499997D01*
X114132677Y-94500002D01*
X114151929Y-94720062D01*
X114151930Y-94720070D01*
X114209104Y-94933445D01*
X114209105Y-94933447D01*
X114209106Y-94933450D01*
X114302466Y-95133662D01*
X114302468Y-95133666D01*
X114429170Y-95314615D01*
X114429175Y-95314621D01*
X114585378Y-95470824D01*
X114585384Y-95470829D01*
X114766333Y-95597531D01*
X114766335Y-95597532D01*
X114766338Y-95597534D01*
X114966550Y-95690894D01*
X115179932Y-95748070D01*
X115337123Y-95761822D01*
X115399998Y-95767323D01*
X115400000Y-95767323D01*
X115400002Y-95767323D01*
X115455017Y-95762509D01*
X115620068Y-95748070D01*
X115833450Y-95690894D01*
X116033662Y-95597534D01*
X116214620Y-95470826D01*
X116312319Y-95373127D01*
X116373642Y-95339642D01*
X116443334Y-95344626D01*
X116487681Y-95373127D01*
X116585378Y-95470824D01*
X116585384Y-95470829D01*
X116766333Y-95597531D01*
X116766335Y-95597532D01*
X116766338Y-95597534D01*
X116966550Y-95690894D01*
X117179932Y-95748070D01*
X117337123Y-95761822D01*
X117399998Y-95767323D01*
X117400000Y-95767323D01*
X117400002Y-95767323D01*
X117455017Y-95762509D01*
X117620068Y-95748070D01*
X117833450Y-95690894D01*
X118033662Y-95597534D01*
X118214620Y-95470826D01*
X118312319Y-95373127D01*
X118373642Y-95339642D01*
X118443334Y-95344626D01*
X118487681Y-95373127D01*
X118585378Y-95470824D01*
X118585384Y-95470829D01*
X118766333Y-95597531D01*
X118766335Y-95597532D01*
X118766338Y-95597534D01*
X118966550Y-95690894D01*
X119179932Y-95748070D01*
X119337123Y-95761822D01*
X119399998Y-95767323D01*
X119400000Y-95767323D01*
X119400002Y-95767323D01*
X119455017Y-95762509D01*
X119620068Y-95748070D01*
X119833450Y-95690894D01*
X120033662Y-95597534D01*
X120214620Y-95470826D01*
X120312319Y-95373127D01*
X120373642Y-95339642D01*
X120443334Y-95344626D01*
X120487681Y-95373127D01*
X120585378Y-95470824D01*
X120585384Y-95470829D01*
X120766333Y-95597531D01*
X120766335Y-95597532D01*
X120766338Y-95597534D01*
X120966550Y-95690894D01*
X121179932Y-95748070D01*
X121337123Y-95761822D01*
X121399998Y-95767323D01*
X121400000Y-95767323D01*
X121400002Y-95767323D01*
X121455017Y-95762509D01*
X121620068Y-95748070D01*
X121833450Y-95690894D01*
X122033662Y-95597534D01*
X122214620Y-95470826D01*
X122312319Y-95373127D01*
X122373642Y-95339642D01*
X122443334Y-95344626D01*
X122487681Y-95373127D01*
X122585378Y-95470824D01*
X122585384Y-95470829D01*
X122766333Y-95597531D01*
X122766335Y-95597532D01*
X122766338Y-95597534D01*
X122966550Y-95690894D01*
X123179932Y-95748070D01*
X123337123Y-95761822D01*
X123399998Y-95767323D01*
X123400000Y-95767323D01*
X123400002Y-95767323D01*
X123455017Y-95762509D01*
X123620068Y-95748070D01*
X123833450Y-95690894D01*
X124033662Y-95597534D01*
X124214620Y-95470826D01*
X124312319Y-95373127D01*
X124373642Y-95339642D01*
X124443334Y-95344626D01*
X124487681Y-95373127D01*
X124585378Y-95470824D01*
X124585384Y-95470829D01*
X124766333Y-95597531D01*
X124766335Y-95597532D01*
X124766338Y-95597534D01*
X124966550Y-95690894D01*
X125179932Y-95748070D01*
X125337123Y-95761822D01*
X125399998Y-95767323D01*
X125400000Y-95767323D01*
X125400002Y-95767323D01*
X125455017Y-95762509D01*
X125620068Y-95748070D01*
X125833450Y-95690894D01*
X126033662Y-95597534D01*
X126214620Y-95470826D01*
X126312319Y-95373127D01*
X126373642Y-95339642D01*
X126443334Y-95344626D01*
X126487681Y-95373127D01*
X126585378Y-95470824D01*
X126585384Y-95470829D01*
X126766333Y-95597531D01*
X126766335Y-95597532D01*
X126766338Y-95597534D01*
X126966550Y-95690894D01*
X127179932Y-95748070D01*
X127337123Y-95761822D01*
X127399998Y-95767323D01*
X127400000Y-95767323D01*
X127400002Y-95767323D01*
X127455017Y-95762509D01*
X127620068Y-95748070D01*
X127833450Y-95690894D01*
X128033662Y-95597534D01*
X128214620Y-95470826D01*
X128312319Y-95373127D01*
X128373642Y-95339642D01*
X128443334Y-95344626D01*
X128487681Y-95373127D01*
X128585378Y-95470824D01*
X128585384Y-95470829D01*
X128766333Y-95597531D01*
X128766335Y-95597532D01*
X128766338Y-95597534D01*
X128966550Y-95690894D01*
X129179932Y-95748070D01*
X129337123Y-95761822D01*
X129399998Y-95767323D01*
X129400000Y-95767323D01*
X129400002Y-95767323D01*
X129455017Y-95762509D01*
X129620068Y-95748070D01*
X129833450Y-95690894D01*
X130033662Y-95597534D01*
X130214620Y-95470826D01*
X130312319Y-95373127D01*
X130373642Y-95339642D01*
X130443334Y-95344626D01*
X130487681Y-95373127D01*
X130585378Y-95470824D01*
X130585384Y-95470829D01*
X130766333Y-95597531D01*
X130766335Y-95597532D01*
X130766338Y-95597534D01*
X130966550Y-95690894D01*
X131179932Y-95748070D01*
X131337123Y-95761822D01*
X131399998Y-95767323D01*
X131400000Y-95767323D01*
X131400002Y-95767323D01*
X131455017Y-95762509D01*
X131620068Y-95748070D01*
X131833450Y-95690894D01*
X132033662Y-95597534D01*
X132214620Y-95470826D01*
X132312319Y-95373127D01*
X132373642Y-95339642D01*
X132443334Y-95344626D01*
X132487681Y-95373127D01*
X132585378Y-95470824D01*
X132585384Y-95470829D01*
X132766333Y-95597531D01*
X132766335Y-95597532D01*
X132766338Y-95597534D01*
X132966550Y-95690894D01*
X133179932Y-95748070D01*
X133337123Y-95761822D01*
X133399998Y-95767323D01*
X133400000Y-95767323D01*
X133400002Y-95767323D01*
X133455017Y-95762509D01*
X133620068Y-95748070D01*
X133833450Y-95690894D01*
X134033662Y-95597534D01*
X134214620Y-95470826D01*
X134370826Y-95314620D01*
X134497534Y-95133662D01*
X134590894Y-94933450D01*
X134648070Y-94720068D01*
X134667323Y-94500000D01*
X134648070Y-94279932D01*
X134590894Y-94066550D01*
X134497534Y-93866339D01*
X134370826Y-93685380D01*
X134214620Y-93529174D01*
X134214616Y-93529171D01*
X134214615Y-93529170D01*
X134033666Y-93402468D01*
X134033662Y-93402466D01*
X133960568Y-93368382D01*
X133833450Y-93309106D01*
X133833447Y-93309105D01*
X133833445Y-93309104D01*
X133620070Y-93251930D01*
X133620062Y-93251929D01*
X133400002Y-93232677D01*
X133399998Y-93232677D01*
X133179937Y-93251929D01*
X133179929Y-93251930D01*
X132966554Y-93309104D01*
X132966548Y-93309107D01*
X132766340Y-93402465D01*
X132766338Y-93402466D01*
X132585381Y-93529172D01*
X132487680Y-93626873D01*
X132426356Y-93660357D01*
X132356665Y-93655373D01*
X132312318Y-93626872D01*
X132214621Y-93529175D01*
X132214615Y-93529170D01*
X132033666Y-93402468D01*
X132033662Y-93402466D01*
X131960568Y-93368382D01*
X131833450Y-93309106D01*
X131833447Y-93309105D01*
X131833445Y-93309104D01*
X131620070Y-93251930D01*
X131620062Y-93251929D01*
X131400002Y-93232677D01*
X131399998Y-93232677D01*
X131179937Y-93251929D01*
X131179929Y-93251930D01*
X130966554Y-93309104D01*
X130966548Y-93309107D01*
X130766340Y-93402465D01*
X130766338Y-93402466D01*
X130585381Y-93529172D01*
X130487680Y-93626873D01*
X130426356Y-93660357D01*
X130356665Y-93655373D01*
X130312318Y-93626872D01*
X130214621Y-93529175D01*
X130214615Y-93529170D01*
X130033666Y-93402468D01*
X130033662Y-93402466D01*
X129960568Y-93368382D01*
X129833450Y-93309106D01*
X129833447Y-93309105D01*
X129833445Y-93309104D01*
X129620070Y-93251930D01*
X129620062Y-93251929D01*
X129400002Y-93232677D01*
X129399998Y-93232677D01*
X129179937Y-93251929D01*
X129179929Y-93251930D01*
X128966554Y-93309104D01*
X128966548Y-93309107D01*
X128766340Y-93402465D01*
X128766338Y-93402466D01*
X128585381Y-93529172D01*
X128487680Y-93626873D01*
X128426356Y-93660357D01*
X128356665Y-93655373D01*
X128312318Y-93626872D01*
X128214621Y-93529175D01*
X128214615Y-93529170D01*
X128033666Y-93402468D01*
X128033662Y-93402466D01*
X127960568Y-93368382D01*
X127833450Y-93309106D01*
X127833447Y-93309105D01*
X127833445Y-93309104D01*
X127620070Y-93251930D01*
X127620062Y-93251929D01*
X127400002Y-93232677D01*
X127399998Y-93232677D01*
X127179937Y-93251929D01*
X127179929Y-93251930D01*
X126966554Y-93309104D01*
X126966548Y-93309107D01*
X126766340Y-93402465D01*
X126766338Y-93402466D01*
X126585381Y-93529172D01*
X126487680Y-93626873D01*
X126426356Y-93660357D01*
X126356665Y-93655373D01*
X126312318Y-93626872D01*
X126214621Y-93529175D01*
X126214615Y-93529170D01*
X126033666Y-93402468D01*
X126033662Y-93402466D01*
X125960568Y-93368382D01*
X125833450Y-93309106D01*
X125833447Y-93309105D01*
X125833445Y-93309104D01*
X125620070Y-93251930D01*
X125620062Y-93251929D01*
X125400002Y-93232677D01*
X125399998Y-93232677D01*
X125179937Y-93251929D01*
X125179929Y-93251930D01*
X124966554Y-93309104D01*
X124966548Y-93309107D01*
X124766340Y-93402465D01*
X124766338Y-93402466D01*
X124585381Y-93529172D01*
X124487680Y-93626873D01*
X124426356Y-93660357D01*
X124356665Y-93655373D01*
X124312318Y-93626872D01*
X124214621Y-93529175D01*
X124214615Y-93529170D01*
X124033666Y-93402468D01*
X124033662Y-93402466D01*
X123960568Y-93368382D01*
X123833450Y-93309106D01*
X123833447Y-93309105D01*
X123833445Y-93309104D01*
X123620070Y-93251930D01*
X123620062Y-93251929D01*
X123400002Y-93232677D01*
X123399998Y-93232677D01*
X123179937Y-93251929D01*
X123179929Y-93251930D01*
X122966554Y-93309104D01*
X122966548Y-93309107D01*
X122766340Y-93402465D01*
X122766338Y-93402466D01*
X122585381Y-93529172D01*
X122487680Y-93626873D01*
X122426356Y-93660357D01*
X122356665Y-93655373D01*
X122312318Y-93626872D01*
X122214621Y-93529175D01*
X122214615Y-93529170D01*
X122033666Y-93402468D01*
X122033662Y-93402466D01*
X121960568Y-93368382D01*
X121833450Y-93309106D01*
X121833447Y-93309105D01*
X121833445Y-93309104D01*
X121620070Y-93251930D01*
X121620062Y-93251929D01*
X121400002Y-93232677D01*
X121399998Y-93232677D01*
X121179937Y-93251929D01*
X121179929Y-93251930D01*
X120966554Y-93309104D01*
X120966548Y-93309107D01*
X120766340Y-93402465D01*
X120766338Y-93402466D01*
X120585381Y-93529172D01*
X120487680Y-93626873D01*
X120426356Y-93660357D01*
X120356665Y-93655373D01*
X120312318Y-93626872D01*
X120214621Y-93529175D01*
X120214615Y-93529170D01*
X120033666Y-93402468D01*
X120033662Y-93402466D01*
X119960568Y-93368382D01*
X119833450Y-93309106D01*
X119833447Y-93309105D01*
X119833445Y-93309104D01*
X119620070Y-93251930D01*
X119620062Y-93251929D01*
X119400002Y-93232677D01*
X119399998Y-93232677D01*
X119179937Y-93251929D01*
X119179929Y-93251930D01*
X118966554Y-93309104D01*
X118966548Y-93309107D01*
X118766340Y-93402465D01*
X118766338Y-93402466D01*
X118585381Y-93529172D01*
X118487680Y-93626873D01*
X118426356Y-93660357D01*
X118356665Y-93655373D01*
X118312318Y-93626872D01*
X118214621Y-93529175D01*
X118214615Y-93529170D01*
X118033666Y-93402468D01*
X118033662Y-93402466D01*
X117960568Y-93368382D01*
X117833450Y-93309106D01*
X117833447Y-93309105D01*
X117833445Y-93309104D01*
X117620070Y-93251930D01*
X117620062Y-93251929D01*
X117400002Y-93232677D01*
X117399998Y-93232677D01*
X117179937Y-93251929D01*
X117179929Y-93251930D01*
X116966554Y-93309104D01*
X116966548Y-93309107D01*
X116766340Y-93402465D01*
X116766338Y-93402466D01*
X116585381Y-93529172D01*
X116487680Y-93626873D01*
X116426356Y-93660357D01*
X116356665Y-93655373D01*
X116312318Y-93626872D01*
X116214621Y-93529175D01*
X116214615Y-93529170D01*
X116033666Y-93402468D01*
X116033662Y-93402466D01*
X115960568Y-93368382D01*
X115833450Y-93309106D01*
X115833447Y-93309105D01*
X115833445Y-93309104D01*
X115620070Y-93251930D01*
X115620062Y-93251929D01*
X115400002Y-93232677D01*
X115399998Y-93232677D01*
X115179937Y-93251929D01*
X115179923Y-93251932D01*
X115140370Y-93262530D01*
X115070521Y-93260867D01*
X115012658Y-93221704D01*
X114985155Y-93157475D01*
X114988503Y-93110663D01*
X115000500Y-93065893D01*
X115000500Y-92934108D01*
X115000500Y-91019492D01*
X115000742Y-91011757D01*
X115000948Y-91008454D01*
X115003636Y-90965456D01*
X115002956Y-90962089D01*
X115000500Y-90937533D01*
X115000500Y-90934109D01*
X115000500Y-90934108D01*
X114999450Y-90930189D01*
X114999531Y-90926756D01*
X114999439Y-90926051D01*
X114999548Y-90926036D01*
X115001115Y-90860339D01*
X115040280Y-90802478D01*
X115104509Y-90774975D01*
X115119226Y-90774099D01*
X116321471Y-90774099D01*
X116321472Y-90774099D01*
X116381083Y-90767691D01*
X116515931Y-90717396D01*
X116631146Y-90631146D01*
X116654842Y-90599492D01*
X116710774Y-90557621D01*
X116780466Y-90552637D01*
X116825232Y-90572229D01*
X116877938Y-90609134D01*
X117078150Y-90702494D01*
X117291532Y-90759670D01*
X117448723Y-90773422D01*
X117511598Y-90778923D01*
X117511600Y-90778923D01*
X117511602Y-90778923D01*
X117566751Y-90774098D01*
X117731668Y-90759670D01*
X117945050Y-90702494D01*
X118145262Y-90609134D01*
X118326220Y-90482426D01*
X118423919Y-90384727D01*
X118485242Y-90351242D01*
X118554934Y-90356226D01*
X118599281Y-90384727D01*
X118696978Y-90482424D01*
X118696984Y-90482429D01*
X118877933Y-90609131D01*
X118877935Y-90609132D01*
X118877938Y-90609134D01*
X119078150Y-90702494D01*
X119291532Y-90759670D01*
X119448723Y-90773422D01*
X119511598Y-90778923D01*
X119511600Y-90778923D01*
X119511602Y-90778923D01*
X119566751Y-90774098D01*
X119731668Y-90759670D01*
X119945050Y-90702494D01*
X120145262Y-90609134D01*
X120326220Y-90482426D01*
X120423919Y-90384727D01*
X120485242Y-90351242D01*
X120554934Y-90356226D01*
X120599281Y-90384727D01*
X120696978Y-90482424D01*
X120696984Y-90482429D01*
X120877933Y-90609131D01*
X120877935Y-90609132D01*
X120877938Y-90609134D01*
X121078150Y-90702494D01*
X121291532Y-90759670D01*
X121448723Y-90773422D01*
X121511598Y-90778923D01*
X121511600Y-90778923D01*
X121511602Y-90778923D01*
X121566751Y-90774098D01*
X121731668Y-90759670D01*
X121945050Y-90702494D01*
X122145262Y-90609134D01*
X122326220Y-90482426D01*
X122423919Y-90384727D01*
X122485242Y-90351242D01*
X122554934Y-90356226D01*
X122599281Y-90384727D01*
X122696978Y-90482424D01*
X122696984Y-90482429D01*
X122877933Y-90609131D01*
X122877935Y-90609132D01*
X122877938Y-90609134D01*
X123078150Y-90702494D01*
X123291532Y-90759670D01*
X123448723Y-90773422D01*
X123511598Y-90778923D01*
X123511600Y-90778923D01*
X123511602Y-90778923D01*
X123566751Y-90774098D01*
X123731668Y-90759670D01*
X123945050Y-90702494D01*
X124145262Y-90609134D01*
X124326220Y-90482426D01*
X124423919Y-90384727D01*
X124485242Y-90351242D01*
X124554934Y-90356226D01*
X124599281Y-90384727D01*
X124696978Y-90482424D01*
X124696984Y-90482429D01*
X124877933Y-90609131D01*
X124877935Y-90609132D01*
X124877938Y-90609134D01*
X125078150Y-90702494D01*
X125291532Y-90759670D01*
X125448723Y-90773422D01*
X125511598Y-90778923D01*
X125511600Y-90778923D01*
X125511602Y-90778923D01*
X125566751Y-90774098D01*
X125731668Y-90759670D01*
X125945050Y-90702494D01*
X126145262Y-90609134D01*
X126326220Y-90482426D01*
X126423919Y-90384727D01*
X126485242Y-90351242D01*
X126554934Y-90356226D01*
X126599281Y-90384727D01*
X126696978Y-90482424D01*
X126696984Y-90482429D01*
X126877933Y-90609131D01*
X126877935Y-90609132D01*
X126877938Y-90609134D01*
X127078150Y-90702494D01*
X127291532Y-90759670D01*
X127448723Y-90773422D01*
X127511598Y-90778923D01*
X127511600Y-90778923D01*
X127511602Y-90778923D01*
X127566751Y-90774098D01*
X127731668Y-90759670D01*
X127945050Y-90702494D01*
X128145262Y-90609134D01*
X128326220Y-90482426D01*
X128423919Y-90384727D01*
X128485242Y-90351242D01*
X128554934Y-90356226D01*
X128599281Y-90384727D01*
X128696978Y-90482424D01*
X128696984Y-90482429D01*
X128877933Y-90609131D01*
X128877935Y-90609132D01*
X128877938Y-90609134D01*
X129078150Y-90702494D01*
X129291532Y-90759670D01*
X129448723Y-90773422D01*
X129511598Y-90778923D01*
X129511600Y-90778923D01*
X129511602Y-90778923D01*
X129566751Y-90774098D01*
X129731668Y-90759670D01*
X129945050Y-90702494D01*
X130145262Y-90609134D01*
X130326220Y-90482426D01*
X130423919Y-90384727D01*
X130485242Y-90351242D01*
X130554934Y-90356226D01*
X130599281Y-90384727D01*
X130696978Y-90482424D01*
X130696984Y-90482429D01*
X130877933Y-90609131D01*
X130877935Y-90609132D01*
X130877938Y-90609134D01*
X131078150Y-90702494D01*
X131291532Y-90759670D01*
X131448723Y-90773422D01*
X131511598Y-90778923D01*
X131511600Y-90778923D01*
X131511602Y-90778923D01*
X131566751Y-90774098D01*
X131731668Y-90759670D01*
X131945050Y-90702494D01*
X132145262Y-90609134D01*
X132326220Y-90482426D01*
X132482426Y-90326220D01*
X132609134Y-90145262D01*
X132673943Y-90006276D01*
X132698643Y-89971001D01*
X133130600Y-89539044D01*
X133130600Y-89561760D01*
X133156564Y-89658661D01*
X133206724Y-89745540D01*
X133277660Y-89816476D01*
X133364539Y-89866636D01*
X133461440Y-89892600D01*
X133484153Y-89892600D01*
X132813410Y-90563340D01*
X132878190Y-90608699D01*
X132878192Y-90608700D01*
X133078315Y-90702019D01*
X133078329Y-90702024D01*
X133291613Y-90759173D01*
X133291623Y-90759175D01*
X133511599Y-90778421D01*
X133511601Y-90778421D01*
X133731576Y-90759175D01*
X133731586Y-90759173D01*
X133944870Y-90702024D01*
X133944884Y-90702019D01*
X134145007Y-90608700D01*
X134145017Y-90608694D01*
X134209788Y-90563341D01*
X133539048Y-89892600D01*
X133561760Y-89892600D01*
X133658661Y-89866636D01*
X133745540Y-89816476D01*
X133816476Y-89745540D01*
X133866636Y-89658661D01*
X133892600Y-89561760D01*
X133892600Y-89539047D01*
X134563341Y-90209788D01*
X134608694Y-90145017D01*
X134608700Y-90145007D01*
X134702019Y-89944884D01*
X134702024Y-89944870D01*
X134759173Y-89731586D01*
X134759175Y-89731576D01*
X134778421Y-89511600D01*
X134778421Y-89511599D01*
X134759175Y-89291623D01*
X134759173Y-89291613D01*
X134702024Y-89078329D01*
X134702020Y-89078320D01*
X134608696Y-88878186D01*
X134563341Y-88813411D01*
X134563340Y-88813410D01*
X133892600Y-89484151D01*
X133892600Y-89461440D01*
X133866636Y-89364539D01*
X133816476Y-89277660D01*
X133745540Y-89206724D01*
X133658661Y-89156564D01*
X133561760Y-89130600D01*
X133539048Y-89130600D01*
X134209788Y-88459859D01*
X134209787Y-88459858D01*
X134145011Y-88414501D01*
X134145005Y-88414498D01*
X133944884Y-88321180D01*
X133944870Y-88321175D01*
X133731586Y-88264026D01*
X133731576Y-88264024D01*
X133511601Y-88244779D01*
X133511599Y-88244779D01*
X133291623Y-88264024D01*
X133291613Y-88264026D01*
X133078329Y-88321175D01*
X133078320Y-88321179D01*
X132878190Y-88414501D01*
X132813411Y-88459858D01*
X133484153Y-89130600D01*
X133461440Y-89130600D01*
X133364539Y-89156564D01*
X133277660Y-89206724D01*
X133206724Y-89277660D01*
X133156564Y-89364539D01*
X133130600Y-89461440D01*
X133130600Y-89484153D01*
X132698641Y-89052194D01*
X132673941Y-89016919D01*
X132609134Y-88877939D01*
X132511600Y-88738645D01*
X132482427Y-88696981D01*
X132423918Y-88638472D01*
X132326220Y-88540774D01*
X132326216Y-88540771D01*
X132326215Y-88540770D01*
X132145266Y-88414068D01*
X132145262Y-88414066D01*
X132098057Y-88392054D01*
X131945050Y-88320706D01*
X131945047Y-88320705D01*
X131945045Y-88320704D01*
X131731670Y-88263530D01*
X131731662Y-88263529D01*
X131511602Y-88244277D01*
X131511598Y-88244277D01*
X131291537Y-88263529D01*
X131291529Y-88263530D01*
X131078154Y-88320704D01*
X131078148Y-88320707D01*
X130877940Y-88414065D01*
X130877938Y-88414066D01*
X130696981Y-88540772D01*
X130599280Y-88638473D01*
X130537956Y-88671957D01*
X130468265Y-88666973D01*
X130423918Y-88638472D01*
X130326221Y-88540775D01*
X130326215Y-88540770D01*
X130145266Y-88414068D01*
X130145262Y-88414066D01*
X130098057Y-88392054D01*
X129945050Y-88320706D01*
X129945047Y-88320705D01*
X129945045Y-88320704D01*
X129731670Y-88263530D01*
X129731662Y-88263529D01*
X129511602Y-88244277D01*
X129511598Y-88244277D01*
X129291537Y-88263529D01*
X129291529Y-88263530D01*
X129078154Y-88320704D01*
X129078148Y-88320707D01*
X128877940Y-88414065D01*
X128877938Y-88414066D01*
X128696981Y-88540772D01*
X128599280Y-88638473D01*
X128537956Y-88671957D01*
X128468265Y-88666973D01*
X128423918Y-88638472D01*
X128326221Y-88540775D01*
X128326215Y-88540770D01*
X128145266Y-88414068D01*
X128145262Y-88414066D01*
X128098057Y-88392054D01*
X127945050Y-88320706D01*
X127945047Y-88320705D01*
X127945045Y-88320704D01*
X127731670Y-88263530D01*
X127731662Y-88263529D01*
X127511602Y-88244277D01*
X127511598Y-88244277D01*
X127291537Y-88263529D01*
X127291529Y-88263530D01*
X127078154Y-88320704D01*
X127078148Y-88320707D01*
X126877940Y-88414065D01*
X126877938Y-88414066D01*
X126696981Y-88540772D01*
X126599280Y-88638473D01*
X126537956Y-88671957D01*
X126468265Y-88666973D01*
X126423918Y-88638472D01*
X126326221Y-88540775D01*
X126326215Y-88540770D01*
X126145266Y-88414068D01*
X126145262Y-88414066D01*
X126098057Y-88392054D01*
X125945050Y-88320706D01*
X125945047Y-88320705D01*
X125945045Y-88320704D01*
X125731670Y-88263530D01*
X125731662Y-88263529D01*
X125511602Y-88244277D01*
X125511598Y-88244277D01*
X125291537Y-88263529D01*
X125291529Y-88263530D01*
X125078154Y-88320704D01*
X125078148Y-88320707D01*
X124877940Y-88414065D01*
X124877938Y-88414066D01*
X124696981Y-88540772D01*
X124599280Y-88638473D01*
X124537956Y-88671957D01*
X124468265Y-88666973D01*
X124423918Y-88638472D01*
X124326221Y-88540775D01*
X124326215Y-88540770D01*
X124145266Y-88414068D01*
X124145262Y-88414066D01*
X124098057Y-88392054D01*
X123945050Y-88320706D01*
X123945047Y-88320705D01*
X123945045Y-88320704D01*
X123731670Y-88263530D01*
X123731662Y-88263529D01*
X123511602Y-88244277D01*
X123511598Y-88244277D01*
X123291537Y-88263529D01*
X123291529Y-88263530D01*
X123078154Y-88320704D01*
X123078148Y-88320707D01*
X122877940Y-88414065D01*
X122877938Y-88414066D01*
X122696981Y-88540772D01*
X122599280Y-88638473D01*
X122537956Y-88671957D01*
X122468265Y-88666973D01*
X122423918Y-88638472D01*
X122326221Y-88540775D01*
X122326215Y-88540770D01*
X122145266Y-88414068D01*
X122145262Y-88414066D01*
X122098057Y-88392054D01*
X121945050Y-88320706D01*
X121945047Y-88320705D01*
X121945045Y-88320704D01*
X121731670Y-88263530D01*
X121731662Y-88263529D01*
X121511602Y-88244277D01*
X121511598Y-88244277D01*
X121291537Y-88263529D01*
X121291529Y-88263530D01*
X121078154Y-88320704D01*
X121078148Y-88320707D01*
X120877940Y-88414065D01*
X120877937Y-88414067D01*
X120877341Y-88414485D01*
X120877035Y-88414587D01*
X120873253Y-88416772D01*
X120872813Y-88416011D01*
X120811134Y-88436810D01*
X120743367Y-88419796D01*
X120695557Y-88368846D01*
X120682881Y-88300135D01*
X120689181Y-88271952D01*
X120737584Y-88133623D01*
X120737587Y-88133610D01*
X120757783Y-87954364D01*
X120757783Y-87954357D01*
X120737587Y-87775111D01*
X120737586Y-87775106D01*
X120678006Y-87604837D01*
X120582033Y-87452098D01*
X120454480Y-87324545D01*
X120301741Y-87228572D01*
X120131472Y-87168992D01*
X120131467Y-87168991D01*
X119952222Y-87148796D01*
X119952214Y-87148796D01*
X119772968Y-87168991D01*
X119772955Y-87168994D01*
X119602697Y-87228570D01*
X119600103Y-87229820D01*
X119597298Y-87230460D01*
X119596124Y-87230871D01*
X119596077Y-87230738D01*
X119546312Y-87242096D01*
X119461530Y-87242097D01*
X119264102Y-87268089D01*
X119071748Y-87319631D01*
X118887771Y-87395838D01*
X118887767Y-87395840D01*
X118715308Y-87495410D01*
X118557327Y-87616636D01*
X117923279Y-88250684D01*
X117861956Y-88284169D01*
X117803506Y-88282778D01*
X117731676Y-88263532D01*
X117731673Y-88263531D01*
X117731668Y-88263530D01*
X117731665Y-88263529D01*
X117731662Y-88263529D01*
X117511602Y-88244277D01*
X117511598Y-88244277D01*
X117291537Y-88263529D01*
X117291529Y-88263530D01*
X117078154Y-88320704D01*
X117078148Y-88320707D01*
X116877940Y-88414065D01*
X116877934Y-88414069D01*
X116825229Y-88450972D01*
X116759023Y-88473299D01*
X116691256Y-88456286D01*
X116654842Y-88423707D01*
X116631147Y-88392055D01*
X116631144Y-88392052D01*
X116515935Y-88305806D01*
X116515929Y-88305803D01*
X116467766Y-88287839D01*
X116411833Y-88245967D01*
X116387416Y-88180503D01*
X116387100Y-88171657D01*
X116387100Y-86198076D01*
X116387218Y-86192667D01*
X116390929Y-86107682D01*
X116404242Y-85802800D01*
X116405181Y-85792066D01*
X116455768Y-85407843D01*
X116457640Y-85397224D01*
X116541524Y-85018864D01*
X116544313Y-85008452D01*
X116660854Y-84638845D01*
X116664543Y-84628710D01*
X116812855Y-84270661D01*
X116817404Y-84260907D01*
X116996358Y-83917148D01*
X117001751Y-83907806D01*
X117209978Y-83580962D01*
X117216171Y-83572120D01*
X117452088Y-83264674D01*
X117459018Y-83256415D01*
X117723299Y-82968009D01*
X117727001Y-82964141D01*
X117785431Y-82905713D01*
X117785432Y-82905710D01*
X117792493Y-82898650D01*
X117792499Y-82898642D01*
X119695621Y-80995520D01*
X123661099Y-80995520D01*
X123689940Y-81140507D01*
X123689943Y-81140517D01*
X123746512Y-81277088D01*
X123746519Y-81277101D01*
X123828648Y-81400015D01*
X123828651Y-81400019D01*
X123933180Y-81504548D01*
X123933184Y-81504551D01*
X124056098Y-81586680D01*
X124056111Y-81586687D01*
X124192682Y-81643256D01*
X124192687Y-81643258D01*
X124192691Y-81643258D01*
X124192692Y-81643259D01*
X124337679Y-81672100D01*
X124337682Y-81672100D01*
X124485520Y-81672100D01*
X124583062Y-81652696D01*
X124630513Y-81643258D01*
X124767095Y-81586684D01*
X124890016Y-81504551D01*
X124994551Y-81400016D01*
X125076684Y-81277095D01*
X125133258Y-81140513D01*
X125162100Y-80995518D01*
X125162100Y-80847682D01*
X125162100Y-80847679D01*
X125133259Y-80702692D01*
X125133258Y-80702691D01*
X125133258Y-80702687D01*
X125107135Y-80639620D01*
X125076687Y-80566111D01*
X125076680Y-80566098D01*
X124994551Y-80443184D01*
X124994548Y-80443180D01*
X124890019Y-80338651D01*
X124890015Y-80338648D01*
X124767101Y-80256519D01*
X124767088Y-80256512D01*
X124630517Y-80199943D01*
X124630507Y-80199940D01*
X124485520Y-80171100D01*
X124485518Y-80171100D01*
X124337682Y-80171100D01*
X124337680Y-80171100D01*
X124192692Y-80199940D01*
X124192682Y-80199943D01*
X124056111Y-80256512D01*
X124056098Y-80256519D01*
X123933184Y-80338648D01*
X123933180Y-80338651D01*
X123828651Y-80443180D01*
X123828648Y-80443184D01*
X123746519Y-80566098D01*
X123746512Y-80566111D01*
X123689943Y-80702682D01*
X123689940Y-80702692D01*
X123661100Y-80847679D01*
X123661100Y-80847682D01*
X123661100Y-80995518D01*
X123661100Y-80995520D01*
X123661099Y-80995520D01*
X119695621Y-80995520D01*
X122249123Y-78442019D01*
X122310446Y-78408534D01*
X122336804Y-78405700D01*
X122607303Y-78405700D01*
X123589967Y-78405700D01*
X124081299Y-78405700D01*
X126046627Y-78405700D01*
X126913423Y-78405700D01*
X128011955Y-78405700D01*
X129110487Y-78405700D01*
X130209019Y-78405700D01*
X130732915Y-78405700D01*
X132355343Y-78405700D01*
X132760950Y-78405700D01*
X132978242Y-78405700D01*
X133045281Y-78425385D01*
X133065923Y-78442019D01*
X133192597Y-78568693D01*
X133192603Y-78568698D01*
X133378594Y-78698930D01*
X133422219Y-78753507D01*
X133429413Y-78823005D01*
X133397890Y-78885360D01*
X133378595Y-78902080D01*
X133192922Y-79032090D01*
X133192920Y-79032091D01*
X133025891Y-79199120D01*
X133025886Y-79199126D01*
X132890400Y-79392620D01*
X132890399Y-79392622D01*
X132790570Y-79606707D01*
X132790567Y-79606713D01*
X132733364Y-79820199D01*
X132733364Y-79820200D01*
X133630988Y-79820200D01*
X133598075Y-79877207D01*
X133564000Y-80004374D01*
X133564000Y-80136026D01*
X133598075Y-80263193D01*
X133630988Y-80320200D01*
X132733364Y-80320200D01*
X132790567Y-80533686D01*
X132790570Y-80533692D01*
X132890399Y-80747778D01*
X133025894Y-80941282D01*
X133192917Y-81108305D01*
X133378595Y-81238319D01*
X133422219Y-81292896D01*
X133429412Y-81362395D01*
X133397890Y-81424749D01*
X133378595Y-81441469D01*
X133192594Y-81571708D01*
X133025505Y-81738797D01*
X132889965Y-81932369D01*
X132889964Y-81932371D01*
X132836714Y-82046567D01*
X132790887Y-82144844D01*
X132790098Y-82146535D01*
X132790094Y-82146544D01*
X132728938Y-82374786D01*
X132728936Y-82374796D01*
X132708341Y-82610199D01*
X132708341Y-82610200D01*
X132728936Y-82845603D01*
X132728938Y-82845613D01*
X132790094Y-83073855D01*
X132790096Y-83073859D01*
X132790097Y-83073863D01*
X132875214Y-83256396D01*
X132889965Y-83288030D01*
X132889967Y-83288034D01*
X132944522Y-83365946D01*
X133025501Y-83481596D01*
X133025506Y-83481602D01*
X133147430Y-83603526D01*
X133180915Y-83664849D01*
X133175931Y-83734541D01*
X133134059Y-83790474D01*
X133103083Y-83807389D01*
X132971669Y-83856403D01*
X132971664Y-83856406D01*
X132856455Y-83942652D01*
X132856452Y-83942655D01*
X132770206Y-84057864D01*
X132770202Y-84057871D01*
X132719908Y-84192717D01*
X132713501Y-84252316D01*
X132713501Y-84252323D01*
X132713500Y-84252335D01*
X132713500Y-86048070D01*
X132713501Y-86048076D01*
X132719908Y-86107683D01*
X132770202Y-86242528D01*
X132770206Y-86242535D01*
X132856452Y-86357744D01*
X132856455Y-86357747D01*
X132971664Y-86443993D01*
X132971671Y-86443997D01*
X133106517Y-86494291D01*
X133106516Y-86494291D01*
X133113444Y-86495035D01*
X133166127Y-86500700D01*
X134961872Y-86500699D01*
X135021483Y-86494291D01*
X135156331Y-86443996D01*
X135271546Y-86357746D01*
X135357796Y-86242531D01*
X135408091Y-86107683D01*
X135414500Y-86048073D01*
X135414499Y-84252328D01*
X135408091Y-84192717D01*
X135357796Y-84057869D01*
X135357795Y-84057868D01*
X135357793Y-84057864D01*
X135271547Y-83942655D01*
X135271544Y-83942652D01*
X135156335Y-83856406D01*
X135156328Y-83856402D01*
X135024917Y-83807389D01*
X134968983Y-83765518D01*
X134944566Y-83700053D01*
X134959418Y-83631780D01*
X134980563Y-83603532D01*
X135102495Y-83481601D01*
X135238035Y-83288030D01*
X135337903Y-83073863D01*
X135399063Y-82845608D01*
X135419659Y-82610200D01*
X135399063Y-82374792D01*
X135337903Y-82146537D01*
X135238035Y-81932371D01*
X135102495Y-81738799D01*
X135102494Y-81738797D01*
X134935402Y-81571706D01*
X134935401Y-81571705D01*
X134749405Y-81441469D01*
X134705781Y-81386892D01*
X134698588Y-81317393D01*
X134730110Y-81255039D01*
X134749405Y-81238319D01*
X134935082Y-81108305D01*
X135102105Y-80941282D01*
X135237600Y-80747778D01*
X135337429Y-80533692D01*
X135337432Y-80533686D01*
X135394636Y-80320200D01*
X134497012Y-80320200D01*
X134529925Y-80263193D01*
X134564000Y-80136026D01*
X134564000Y-80004374D01*
X134529925Y-79877207D01*
X134497012Y-79820200D01*
X135394636Y-79820200D01*
X135394635Y-79820199D01*
X135337432Y-79606713D01*
X135337429Y-79606707D01*
X135237600Y-79392622D01*
X135237599Y-79392620D01*
X135102113Y-79199126D01*
X135102108Y-79199120D01*
X134935078Y-79032090D01*
X134749405Y-78902079D01*
X134705780Y-78847502D01*
X134698588Y-78778004D01*
X134730110Y-78715649D01*
X134749406Y-78698930D01*
X134935401Y-78568695D01*
X135102495Y-78401601D01*
X135238035Y-78208030D01*
X135337903Y-77993863D01*
X135399063Y-77765608D01*
X135419659Y-77530200D01*
X135399063Y-77294792D01*
X135337903Y-77066537D01*
X135238035Y-76852371D01*
X135204299Y-76804190D01*
X135102494Y-76658797D01*
X134935402Y-76491706D01*
X134935396Y-76491701D01*
X134749842Y-76361775D01*
X134706217Y-76307198D01*
X134699023Y-76237700D01*
X134730546Y-76175345D01*
X134749842Y-76158625D01*
X134772026Y-76143091D01*
X134935401Y-76028695D01*
X135102495Y-75861601D01*
X135238035Y-75668030D01*
X135337903Y-75453863D01*
X135399063Y-75225608D01*
X135419659Y-74990200D01*
X135399063Y-74754792D01*
X135337903Y-74526537D01*
X135238035Y-74312371D01*
X135182245Y-74232693D01*
X135102494Y-74118797D01*
X134935402Y-73951706D01*
X134935396Y-73951701D01*
X134749842Y-73821775D01*
X134706217Y-73767198D01*
X134699023Y-73697700D01*
X134730546Y-73635345D01*
X134749842Y-73618625D01*
X134798553Y-73584517D01*
X134935401Y-73488695D01*
X135102495Y-73321601D01*
X135238035Y-73128030D01*
X135337903Y-72913863D01*
X135399063Y-72685608D01*
X135419659Y-72450200D01*
X135399063Y-72214792D01*
X135337903Y-71986537D01*
X135238035Y-71772371D01*
X135221959Y-71749411D01*
X135102494Y-71578797D01*
X134935402Y-71411706D01*
X134935395Y-71411701D01*
X134741834Y-71276167D01*
X134741830Y-71276165D01*
X134702813Y-71257971D01*
X134527663Y-71176297D01*
X134527659Y-71176296D01*
X134527655Y-71176294D01*
X134299413Y-71115138D01*
X134299403Y-71115136D01*
X134064001Y-71094541D01*
X134063999Y-71094541D01*
X133828596Y-71115136D01*
X133828586Y-71115138D01*
X133600344Y-71176294D01*
X133600335Y-71176298D01*
X133386171Y-71276164D01*
X133386169Y-71276165D01*
X133192597Y-71411705D01*
X133025505Y-71578797D01*
X132889965Y-71772369D01*
X132889964Y-71772371D01*
X132790098Y-71986535D01*
X132790094Y-71986544D01*
X132728938Y-72214786D01*
X132728936Y-72214796D01*
X132708341Y-72450199D01*
X132708341Y-72450200D01*
X132728936Y-72685597D01*
X132728938Y-72685613D01*
X132790094Y-72913855D01*
X132790096Y-72913859D01*
X132790097Y-72913863D01*
X132854775Y-73052565D01*
X132889965Y-73128030D01*
X132889967Y-73128034D01*
X133025501Y-73321595D01*
X133025506Y-73321602D01*
X133192597Y-73488693D01*
X133192603Y-73488698D01*
X133378158Y-73618625D01*
X133421783Y-73673202D01*
X133428977Y-73742700D01*
X133397454Y-73805055D01*
X133378158Y-73821775D01*
X133192597Y-73951705D01*
X133025505Y-74118797D01*
X132889965Y-74312369D01*
X132889964Y-74312371D01*
X132790098Y-74526535D01*
X132790094Y-74526544D01*
X132728938Y-74754786D01*
X132728936Y-74754796D01*
X132708341Y-74990199D01*
X132708341Y-74990200D01*
X132728936Y-75225603D01*
X132728938Y-75225613D01*
X132790094Y-75453855D01*
X132790096Y-75453859D01*
X132790097Y-75453863D01*
X132825669Y-75530147D01*
X132889965Y-75668030D01*
X132889967Y-75668034D01*
X132944271Y-75745587D01*
X133008313Y-75837049D01*
X133025501Y-75861595D01*
X133025506Y-75861602D01*
X133192597Y-76028693D01*
X133192603Y-76028698D01*
X133378158Y-76158625D01*
X133421783Y-76213202D01*
X133428977Y-76282700D01*
X133397454Y-76345055D01*
X133378158Y-76361775D01*
X133192600Y-76491703D01*
X133153604Y-76530700D01*
X133065921Y-76618382D01*
X133004601Y-76651866D01*
X132978242Y-76654700D01*
X129627900Y-76654700D01*
X129560861Y-76635015D01*
X129515106Y-76582211D01*
X129503900Y-76530700D01*
X129503900Y-72197455D01*
X129513887Y-72152402D01*
X129513131Y-72152152D01*
X129515401Y-72145298D01*
X129515403Y-72145297D01*
X129568749Y-71984308D01*
X129578900Y-71884945D01*
X129578899Y-71288256D01*
X129575805Y-71257971D01*
X129568749Y-71188892D01*
X129568748Y-71188889D01*
X129550725Y-71134500D01*
X129515403Y-71027903D01*
X129515399Y-71027897D01*
X129515398Y-71027894D01*
X129426370Y-70883559D01*
X129426367Y-70883555D01*
X129306444Y-70763632D01*
X129306440Y-70763629D01*
X129162105Y-70674601D01*
X129162099Y-70674598D01*
X129162097Y-70674597D01*
X129162094Y-70674596D01*
X129001109Y-70621251D01*
X128901746Y-70611100D01*
X128355062Y-70611100D01*
X128355044Y-70611101D01*
X128255692Y-70621250D01*
X128255689Y-70621251D01*
X128094705Y-70674596D01*
X128094694Y-70674601D01*
X127950359Y-70763629D01*
X127950353Y-70763633D01*
X127940724Y-70773263D01*
X127879400Y-70806746D01*
X127809708Y-70801759D01*
X127765365Y-70773260D01*
X127756132Y-70764027D01*
X127756128Y-70764024D01*
X127611892Y-70675057D01*
X127611881Y-70675052D01*
X127451006Y-70621744D01*
X127351722Y-70611600D01*
X127328400Y-70611600D01*
X127328400Y-72561599D01*
X127351708Y-72561599D01*
X127351722Y-72561598D01*
X127451011Y-72551455D01*
X127457629Y-72550039D01*
X127457920Y-72551401D01*
X127520216Y-72549254D01*
X127580261Y-72584982D01*
X127606442Y-72628410D01*
X127648611Y-72748923D01*
X127678632Y-72796700D01*
X127731489Y-72880822D01*
X127733893Y-72884647D01*
X127752900Y-72950620D01*
X127752900Y-76530700D01*
X127733215Y-76597739D01*
X127680411Y-76643494D01*
X127628900Y-76654700D01*
X122616206Y-76654700D01*
X122549167Y-76635015D01*
X122528524Y-76618380D01*
X122480902Y-76570757D01*
X122480898Y-76570754D01*
X122337511Y-76474945D01*
X122337502Y-76474940D01*
X122254582Y-76440594D01*
X122214358Y-76413719D01*
X122163865Y-76363229D01*
X118940529Y-73139893D01*
X118907044Y-73078570D01*
X118912028Y-73008878D01*
X118953900Y-72952945D01*
X119019364Y-72928528D01*
X119087637Y-72943380D01*
X119094182Y-72947219D01*
X119134873Y-72972787D01*
X119134877Y-72972788D01*
X119134878Y-72972789D01*
X119305145Y-73032368D01*
X119305150Y-73032369D01*
X119484396Y-73052565D01*
X119484400Y-73052565D01*
X119484404Y-73052565D01*
X119663649Y-73032369D01*
X119663652Y-73032368D01*
X119663655Y-73032368D01*
X119833922Y-72972789D01*
X119986662Y-72876816D01*
X120114216Y-72749262D01*
X120210189Y-72596522D01*
X120269768Y-72426255D01*
X120269769Y-72426249D01*
X120289965Y-72247003D01*
X120289965Y-72246996D01*
X120269769Y-72067750D01*
X120269768Y-72067745D01*
X120263516Y-72049878D01*
X120210189Y-71897478D01*
X120202318Y-71884952D01*
X120202299Y-71884922D01*
X126128401Y-71884922D01*
X126138544Y-71984207D01*
X126191852Y-72145081D01*
X126191857Y-72145092D01*
X126280824Y-72289328D01*
X126280827Y-72289332D01*
X126400667Y-72409172D01*
X126400671Y-72409175D01*
X126544907Y-72498142D01*
X126544918Y-72498147D01*
X126705793Y-72551455D01*
X126805083Y-72561599D01*
X126828400Y-72561598D01*
X126828400Y-71836600D01*
X126128401Y-71836600D01*
X126128401Y-71884922D01*
X120202299Y-71884922D01*
X120131579Y-71772371D01*
X120114216Y-71744738D01*
X119986662Y-71617184D01*
X119958725Y-71599630D01*
X119833923Y-71521211D01*
X119663654Y-71461631D01*
X119663649Y-71461630D01*
X119484404Y-71441435D01*
X119484396Y-71441435D01*
X119305150Y-71461630D01*
X119305145Y-71461631D01*
X119134875Y-71521211D01*
X119046579Y-71576693D01*
X118980606Y-71595700D01*
X116958512Y-71595700D01*
X116885598Y-71595700D01*
X116794485Y-71595700D01*
X116769660Y-71599632D01*
X116614506Y-71624206D01*
X116614501Y-71624207D01*
X116482860Y-71666979D01*
X116413019Y-71668974D01*
X116356862Y-71636729D01*
X116293603Y-71573470D01*
X116140864Y-71477497D01*
X115970595Y-71417917D01*
X115970590Y-71417916D01*
X115791345Y-71397721D01*
X115791337Y-71397721D01*
X115612091Y-71417916D01*
X115612086Y-71417917D01*
X115441817Y-71477497D01*
X115289078Y-71573470D01*
X115161523Y-71701025D01*
X115161522Y-71701027D01*
X115155639Y-71710390D01*
X115103304Y-71756681D01*
X115034250Y-71767328D01*
X114984674Y-71749411D01*
X114977235Y-71744737D01*
X114898061Y-71694988D01*
X114841123Y-71659211D01*
X114670854Y-71599631D01*
X114670849Y-71599630D01*
X114491604Y-71579435D01*
X114491596Y-71579435D01*
X114312350Y-71599630D01*
X114312345Y-71599631D01*
X114142076Y-71659211D01*
X114085139Y-71694988D01*
X114017902Y-71713988D01*
X113951067Y-71693620D01*
X113914851Y-71657032D01*
X113836988Y-71535873D01*
X113836981Y-71535863D01*
X113742847Y-71427226D01*
X113742830Y-71427207D01*
X113742829Y-71427206D01*
X113634091Y-71332985D01*
X113564524Y-71288277D01*
X126128400Y-71288277D01*
X126128400Y-71336600D01*
X126828400Y-71336600D01*
X126828400Y-70611599D01*
X126805093Y-70611600D01*
X126805074Y-70611601D01*
X126705792Y-70621744D01*
X126544918Y-70675052D01*
X126544907Y-70675057D01*
X126400671Y-70764024D01*
X126400667Y-70764027D01*
X126280827Y-70883867D01*
X126280824Y-70883871D01*
X126191857Y-71028107D01*
X126191852Y-71028118D01*
X126138544Y-71188993D01*
X126128400Y-71288277D01*
X113564524Y-71288277D01*
X113513142Y-71255255D01*
X113513136Y-71255252D01*
X113442028Y-71222778D01*
X113382259Y-71195483D01*
X113295730Y-71170076D01*
X113244308Y-71154977D01*
X113244296Y-71154974D01*
X113101889Y-71134500D01*
X112530000Y-71134500D01*
X112529997Y-71134500D01*
X112458059Y-71139644D01*
X112320005Y-71180182D01*
X112198969Y-71257967D01*
X112198965Y-71257971D01*
X112104750Y-71366700D01*
X112104744Y-71366709D01*
X112044976Y-71497580D01*
X112044975Y-71497585D01*
X112024500Y-71639999D01*
X112024500Y-73140002D01*
X112029644Y-73211940D01*
X112054029Y-73294985D01*
X112065120Y-73332757D01*
X112070182Y-73349994D01*
X112147967Y-73471030D01*
X112147971Y-73471034D01*
X112168353Y-73488695D01*
X112256706Y-73565254D01*
X112297174Y-73583735D01*
X112387580Y-73625023D01*
X112387583Y-73625023D01*
X112387584Y-73625024D01*
X112530000Y-73645500D01*
X112530003Y-73645500D01*
X113101886Y-73645500D01*
X113101889Y-73645500D01*
X113244304Y-73625024D01*
X113382259Y-73584517D01*
X113513137Y-73524747D01*
X113628477Y-73450622D01*
X113629915Y-73449804D01*
X113634098Y-73447011D01*
X113683017Y-73404620D01*
X113742832Y-73352791D01*
X113760187Y-73332761D01*
X113818961Y-73294987D01*
X113888831Y-73294985D01*
X113947610Y-73332757D01*
X113976637Y-73396312D01*
X113977900Y-73413950D01*
X113977900Y-73420463D01*
X113977901Y-73420476D01*
X113984308Y-73480083D01*
X114034602Y-73614928D01*
X114034606Y-73614935D01*
X114120852Y-73730144D01*
X114120853Y-73730144D01*
X114120854Y-73730146D01*
X114151761Y-73753283D01*
X114172839Y-73769062D01*
X114214709Y-73824996D01*
X114219693Y-73894687D01*
X114209012Y-73924623D01*
X114201976Y-73938432D01*
X114165804Y-73981402D01*
X114120859Y-74015049D01*
X114120851Y-74015057D01*
X114034606Y-74130264D01*
X114034602Y-74130271D01*
X113984308Y-74265117D01*
X113979228Y-74312371D01*
X113977901Y-74324723D01*
X113977900Y-74324735D01*
X113977900Y-75220470D01*
X113977901Y-75220476D01*
X113984308Y-75280083D01*
X114034602Y-75414928D01*
X114034606Y-75414935D01*
X114120852Y-75530144D01*
X114120855Y-75530147D01*
X114236064Y-75616393D01*
X114236071Y-75616397D01*
X114281018Y-75633161D01*
X114370917Y-75666691D01*
X114430527Y-75673100D01*
X114710522Y-75673099D01*
X114777560Y-75692783D01*
X114823315Y-75745587D01*
X114833259Y-75814746D01*
X114816249Y-75861888D01*
X114778562Y-75923389D01*
X114726751Y-75970265D01*
X114672834Y-75982600D01*
X114354218Y-75982600D01*
X114255716Y-75992663D01*
X114255715Y-75992664D01*
X114176619Y-76018873D01*
X114096115Y-76045550D01*
X114096104Y-76045555D01*
X113953012Y-76133816D01*
X113953008Y-76133819D01*
X113834119Y-76252708D01*
X113834116Y-76252712D01*
X113745855Y-76395804D01*
X113745850Y-76395815D01*
X113729017Y-76446615D01*
X113692964Y-76555415D01*
X113692964Y-76555416D01*
X113692963Y-76555416D01*
X113682900Y-76653918D01*
X113682900Y-77187281D01*
X113692963Y-77285783D01*
X113745850Y-77445384D01*
X113745855Y-77445395D01*
X113834116Y-77588487D01*
X113834119Y-77588492D01*
X113866400Y-77620773D01*
X113899885Y-77682097D01*
X113894899Y-77751788D01*
X113866400Y-77796133D01*
X113834514Y-77828019D01*
X113746308Y-77971022D01*
X113746306Y-77971027D01*
X113693457Y-78130516D01*
X113683400Y-78228949D01*
X113683400Y-78245600D01*
X115574238Y-78245600D01*
X115641277Y-78265285D01*
X115661919Y-78281919D01*
X115676400Y-78296400D01*
X117512999Y-78296400D01*
X117512999Y-78279764D01*
X117512998Y-78279747D01*
X117502943Y-78181316D01*
X117450093Y-78021827D01*
X117450091Y-78021822D01*
X117361885Y-77878819D01*
X117330000Y-77846934D01*
X117296515Y-77785611D01*
X117301499Y-77715919D01*
X117330000Y-77671572D01*
X117362281Y-77639291D01*
X117450549Y-77496187D01*
X117503436Y-77336585D01*
X117513500Y-77238074D01*
X117513500Y-76704726D01*
X117503436Y-76606215D01*
X117450549Y-76446613D01*
X117450545Y-76446607D01*
X117450544Y-76446604D01*
X117362283Y-76303512D01*
X117362280Y-76303508D01*
X117243391Y-76184619D01*
X117243387Y-76184616D01*
X117100295Y-76096355D01*
X117100289Y-76096352D01*
X117100287Y-76096351D01*
X117013895Y-76067723D01*
X116956451Y-76027951D01*
X116929628Y-75963435D01*
X116928900Y-75950018D01*
X116928900Y-75797099D01*
X116948585Y-75730060D01*
X117001389Y-75684305D01*
X117052900Y-75673099D01*
X117426271Y-75673099D01*
X117426272Y-75673099D01*
X117485883Y-75666691D01*
X117620731Y-75616396D01*
X117735946Y-75530146D01*
X117822196Y-75414931D01*
X117872491Y-75280083D01*
X117878900Y-75220473D01*
X117878899Y-74324728D01*
X117872491Y-74265117D01*
X117822196Y-74130269D01*
X117822195Y-74130268D01*
X117822193Y-74130264D01*
X117735948Y-74015057D01*
X117735946Y-74015054D01*
X117690973Y-73981387D01*
X117654802Y-73938418D01*
X117647775Y-73924624D01*
X117634881Y-73855959D01*
X117661159Y-73791219D01*
X117683949Y-73769071D01*
X117689565Y-73764867D01*
X117705039Y-73753282D01*
X117770501Y-73728864D01*
X117838775Y-73743714D01*
X117867032Y-73764867D01*
X121036839Y-76934675D01*
X121070324Y-76995998D01*
X121070775Y-77046547D01*
X121053896Y-77131403D01*
X121021511Y-77193314D01*
X121019960Y-77194893D01*
X116421363Y-81793491D01*
X116420816Y-81794094D01*
X116326843Y-81888065D01*
X116326817Y-81888092D01*
X116031319Y-82229107D01*
X115760919Y-82590312D01*
X115760916Y-82590316D01*
X115516955Y-82969919D01*
X115300707Y-83365938D01*
X115113248Y-83776403D01*
X114955571Y-84199143D01*
X114955559Y-84199179D01*
X114828432Y-84632122D01*
X114732514Y-85073027D01*
X114668295Y-85519666D01*
X114636100Y-85969743D01*
X114636100Y-88171657D01*
X114616415Y-88238696D01*
X114563611Y-88284451D01*
X114555434Y-88287839D01*
X114507270Y-88305803D01*
X114507264Y-88305806D01*
X114392055Y-88392052D01*
X114392052Y-88392055D01*
X114305806Y-88507264D01*
X114305802Y-88507271D01*
X114255508Y-88642117D01*
X114249101Y-88701716D01*
X114249100Y-88701735D01*
X114249100Y-89631221D01*
X114229415Y-89698260D01*
X114176611Y-89744015D01*
X114107453Y-89753959D01*
X114043897Y-89724934D01*
X114032120Y-89713262D01*
X112303632Y-87754309D01*
X112299784Y-87749730D01*
X108527172Y-83033965D01*
X108500664Y-82969319D01*
X108500000Y-82956503D01*
X108500000Y-82721000D01*
X108519685Y-82653961D01*
X108572489Y-82608206D01*
X108624000Y-82597000D01*
X109023600Y-82597000D01*
X109523600Y-82597000D01*
X111421428Y-82597000D01*
X111421444Y-82596999D01*
X111480972Y-82590598D01*
X111480979Y-82590596D01*
X111615686Y-82540354D01*
X111615693Y-82540350D01*
X111730787Y-82454190D01*
X111730790Y-82454187D01*
X111816950Y-82339093D01*
X111816954Y-82339086D01*
X111867196Y-82204379D01*
X111867198Y-82204372D01*
X111873599Y-82144844D01*
X111873600Y-82144827D01*
X111873600Y-81672000D01*
X109523600Y-81672000D01*
X109523600Y-82597000D01*
X109023600Y-82597000D01*
X109023600Y-81172000D01*
X109523600Y-81172000D01*
X111873600Y-81172000D01*
X111873600Y-80699172D01*
X111873599Y-80699155D01*
X111867198Y-80639627D01*
X111867196Y-80639620D01*
X111816954Y-80504913D01*
X111816950Y-80504906D01*
X111730790Y-80389812D01*
X111730787Y-80389809D01*
X111615693Y-80303649D01*
X111615686Y-80303645D01*
X111480979Y-80253403D01*
X111480972Y-80253401D01*
X111421444Y-80247000D01*
X109523600Y-80247000D01*
X109523600Y-81172000D01*
X109023600Y-81172000D01*
X109023600Y-80247000D01*
X108624000Y-80247000D01*
X108556961Y-80227315D01*
X108511206Y-80174511D01*
X108500000Y-80123000D01*
X108500000Y-78762252D01*
X113683401Y-78762252D01*
X113693456Y-78860683D01*
X113746306Y-79020172D01*
X113746308Y-79020177D01*
X113834514Y-79163180D01*
X113953319Y-79281985D01*
X114096322Y-79370191D01*
X114096327Y-79370193D01*
X114255816Y-79423042D01*
X114354255Y-79433099D01*
X114908400Y-79433099D01*
X114962536Y-79433099D01*
X114962552Y-79433098D01*
X115060983Y-79423043D01*
X115220472Y-79370193D01*
X115220477Y-79370191D01*
X115363480Y-79281985D01*
X115482280Y-79163185D01*
X115485075Y-79159651D01*
X115542094Y-79119270D01*
X115611893Y-79116126D01*
X115672311Y-79151218D01*
X115687885Y-79171458D01*
X115714110Y-79213975D01*
X115714113Y-79213979D01*
X115832919Y-79332785D01*
X115975922Y-79420991D01*
X115975927Y-79420993D01*
X116135416Y-79473842D01*
X116233855Y-79483899D01*
X116788000Y-79483899D01*
X116842136Y-79483899D01*
X116842152Y-79483898D01*
X116940583Y-79473843D01*
X117100072Y-79420993D01*
X117100077Y-79420991D01*
X117243080Y-79332785D01*
X117361885Y-79213980D01*
X117450091Y-79070977D01*
X117450093Y-79070972D01*
X117502942Y-78911483D01*
X117512999Y-78813050D01*
X117513000Y-78813037D01*
X117513000Y-78796400D01*
X116788000Y-78796400D01*
X116788000Y-79483899D01*
X116233855Y-79483899D01*
X116287999Y-79483898D01*
X116288000Y-79483898D01*
X116288000Y-78796400D01*
X115622162Y-78796400D01*
X115555123Y-78776715D01*
X115534481Y-78760081D01*
X115520000Y-78745600D01*
X114908400Y-78745600D01*
X114908400Y-79433099D01*
X114354255Y-79433099D01*
X114408399Y-79433098D01*
X114408400Y-79433098D01*
X114408400Y-78745600D01*
X113683401Y-78745600D01*
X113683401Y-78762252D01*
X108500000Y-78762252D01*
X108500000Y-77071000D01*
X108519685Y-77003961D01*
X108572489Y-76958206D01*
X108624000Y-76947000D01*
X109023600Y-76947000D01*
X109523600Y-76947000D01*
X111421428Y-76947000D01*
X111421444Y-76946999D01*
X111480972Y-76940598D01*
X111480979Y-76940596D01*
X111615686Y-76890354D01*
X111615693Y-76890350D01*
X111730787Y-76804190D01*
X111730790Y-76804187D01*
X111816950Y-76689093D01*
X111816954Y-76689086D01*
X111867196Y-76554379D01*
X111867198Y-76554372D01*
X111873599Y-76494844D01*
X111873600Y-76494827D01*
X111873600Y-76022000D01*
X109523600Y-76022000D01*
X109523600Y-76947000D01*
X109023600Y-76947000D01*
X109023600Y-75522000D01*
X109523600Y-75522000D01*
X111873600Y-75522000D01*
X111873600Y-75049172D01*
X111873599Y-75049155D01*
X111867198Y-74989627D01*
X111867196Y-74989620D01*
X111816954Y-74854913D01*
X111816950Y-74854906D01*
X111730790Y-74739812D01*
X111730787Y-74739809D01*
X111615693Y-74653649D01*
X111615686Y-74653645D01*
X111480979Y-74603403D01*
X111480972Y-74603401D01*
X111421444Y-74597000D01*
X109523600Y-74597000D01*
X109523600Y-75522000D01*
X109023600Y-75522000D01*
X109023600Y-74597000D01*
X108624000Y-74597000D01*
X108556961Y-74577315D01*
X108511206Y-74524511D01*
X108500000Y-74473000D01*
X108500000Y-74038513D01*
X108519685Y-73971474D01*
X108521819Y-73968263D01*
X108533203Y-73951705D01*
X110720044Y-70770844D01*
X110726487Y-70762292D01*
X113403526Y-67511602D01*
X114198998Y-66545672D01*
X114256810Y-66506436D01*
X114294717Y-66500500D01*
X114440149Y-66500500D01*
X114507188Y-66520185D01*
G37*
%TD.AperFunction*%
%TA.AperFunction,Conductor*%
G36*
X130771012Y-107955335D02*
G01*
X130800038Y-108018890D01*
X130801300Y-108036539D01*
X130801300Y-108254436D01*
X130801298Y-108254442D01*
X130801298Y-108305800D01*
X130801298Y-108480299D01*
X130807438Y-108542635D01*
X130835504Y-108827606D01*
X130835507Y-108827623D01*
X130903586Y-109169888D01*
X130903589Y-109169899D01*
X130903591Y-109169908D01*
X130903592Y-109169909D01*
X130905354Y-109175716D01*
X131004901Y-109503881D01*
X131096819Y-109725789D01*
X131131306Y-109809049D01*
X131138458Y-109826314D01*
X131138460Y-109826319D01*
X131302967Y-110134088D01*
X131302978Y-110134106D01*
X131342454Y-110193186D01*
X131441625Y-110341606D01*
X131496862Y-110424273D01*
X131496872Y-110424287D01*
X131561044Y-110502481D01*
X131718270Y-110694060D01*
X131798097Y-110773887D01*
X132521981Y-111497771D01*
X132555466Y-111559094D01*
X132558300Y-111585452D01*
X132558300Y-112897870D01*
X132558301Y-112897876D01*
X132564708Y-112957483D01*
X132611213Y-113082167D01*
X132616197Y-113151859D01*
X132582712Y-113213182D01*
X132521389Y-113246666D01*
X132495031Y-113249500D01*
X130756962Y-113249500D01*
X130743078Y-113248720D01*
X130724849Y-113246666D01*
X130652735Y-113238540D01*
X130625666Y-113232362D01*
X130546462Y-113204648D01*
X130521444Y-113192600D01*
X130450395Y-113147957D01*
X130428686Y-113130644D01*
X130369355Y-113071313D01*
X130352042Y-113049604D01*
X130307399Y-112978555D01*
X130295351Y-112953537D01*
X130275873Y-112897872D01*
X130267636Y-112874331D01*
X130261459Y-112847263D01*
X130251280Y-112756922D01*
X130250500Y-112743038D01*
X130250500Y-112374500D01*
X130270185Y-112307461D01*
X130322989Y-112261706D01*
X130374500Y-112250500D01*
X130700028Y-112250500D01*
X130740982Y-112257457D01*
X130820745Y-112285368D01*
X130820750Y-112285369D01*
X130999996Y-112305565D01*
X131000000Y-112305565D01*
X131000004Y-112305565D01*
X131179249Y-112285369D01*
X131179252Y-112285368D01*
X131179255Y-112285368D01*
X131349522Y-112225789D01*
X131502262Y-112129816D01*
X131629816Y-112002262D01*
X131725789Y-111849522D01*
X131785368Y-111679255D01*
X131805565Y-111500000D01*
X131785368Y-111320745D01*
X131725789Y-111150478D01*
X131629816Y-110997738D01*
X131502262Y-110870184D01*
X131349523Y-110774211D01*
X131179254Y-110714631D01*
X131179249Y-110714630D01*
X131000004Y-110694435D01*
X130999996Y-110694435D01*
X130820750Y-110714630D01*
X130820745Y-110714631D01*
X130740983Y-110742542D01*
X130700028Y-110749500D01*
X130481360Y-110749500D01*
X130414321Y-110729815D01*
X130368566Y-110677011D01*
X130358622Y-110607853D01*
X130375822Y-110560402D01*
X130411544Y-110502488D01*
X130411547Y-110502481D01*
X130464855Y-110341606D01*
X130474999Y-110242322D01*
X130475000Y-110242309D01*
X130475000Y-110219000D01*
X128525001Y-110219000D01*
X128525001Y-110242322D01*
X128535144Y-110341607D01*
X128588452Y-110502481D01*
X128588455Y-110502488D01*
X128624178Y-110560402D01*
X128642619Y-110627795D01*
X128621697Y-110694458D01*
X128568055Y-110739228D01*
X128518640Y-110749500D01*
X128299972Y-110749500D01*
X128259017Y-110742542D01*
X128179254Y-110714631D01*
X128179249Y-110714630D01*
X128000004Y-110694435D01*
X127999996Y-110694435D01*
X127820750Y-110714630D01*
X127820742Y-110714632D01*
X127690454Y-110760222D01*
X127620675Y-110763783D01*
X127560048Y-110729054D01*
X127527821Y-110667061D01*
X127525500Y-110643180D01*
X127525500Y-110468464D01*
X127545185Y-110401425D01*
X127575187Y-110369199D01*
X127657546Y-110307546D01*
X127743796Y-110192331D01*
X127794091Y-110057483D01*
X127800500Y-109997873D01*
X127800499Y-109921842D01*
X127820183Y-109854805D01*
X127872986Y-109809049D01*
X127938382Y-109798623D01*
X127999996Y-109805565D01*
X128000000Y-109805565D01*
X128000004Y-109805565D01*
X128179249Y-109785369D01*
X128179252Y-109785368D01*
X128179255Y-109785368D01*
X128349522Y-109725789D01*
X128377726Y-109708067D01*
X128444959Y-109689066D01*
X128511795Y-109709432D01*
X128523545Y-109719000D01*
X129250000Y-109719000D01*
X129750000Y-109719000D01*
X130474999Y-109719000D01*
X130474999Y-109695692D01*
X130474998Y-109695677D01*
X130464855Y-109596392D01*
X130411547Y-109435518D01*
X130411542Y-109435507D01*
X130322575Y-109291271D01*
X130322572Y-109291267D01*
X130202732Y-109171427D01*
X130202728Y-109171424D01*
X130058492Y-109082457D01*
X130058481Y-109082452D01*
X129897606Y-109029144D01*
X129798322Y-109019000D01*
X129750000Y-109019000D01*
X129750000Y-109719000D01*
X129250000Y-109719000D01*
X129250000Y-109019000D01*
X129249999Y-109018999D01*
X129201693Y-109019000D01*
X129201675Y-109019001D01*
X129102388Y-109029144D01*
X129102387Y-109029144D01*
X129101303Y-109029504D01*
X129100595Y-109029528D01*
X129095771Y-109030561D01*
X129095586Y-109029699D01*
X129031474Y-109031898D01*
X128971436Y-108996160D01*
X128940251Y-108933636D01*
X128947819Y-108864178D01*
X128954925Y-108849795D01*
X128967729Y-108827617D01*
X128995679Y-108779206D01*
X129071929Y-108595114D01*
X129115959Y-108430781D01*
X129123497Y-108402647D01*
X129123498Y-108402643D01*
X129149502Y-108205089D01*
X129149500Y-108105459D01*
X129149500Y-108090323D01*
X129149500Y-108084300D01*
X129169185Y-108017261D01*
X129221989Y-107971506D01*
X129273500Y-107960300D01*
X130442400Y-107960300D01*
X130514340Y-107955155D01*
X130642369Y-107917561D01*
X130712233Y-107917561D01*
X130771012Y-107955335D01*
G37*
%TD.AperFunction*%
%TA.AperFunction,Conductor*%
G36*
X132562884Y-103813391D02*
G01*
X132612874Y-103862205D01*
X132628538Y-103930296D01*
X132624532Y-103955016D01*
X132573738Y-104144586D01*
X132573736Y-104144596D01*
X132553141Y-104379999D01*
X132553141Y-104380000D01*
X132573736Y-104615403D01*
X132573738Y-104615413D01*
X132634894Y-104843655D01*
X132634896Y-104843659D01*
X132634897Y-104843663D01*
X132707798Y-105000000D01*
X132734765Y-105057830D01*
X132734767Y-105057834D01*
X132870301Y-105251395D01*
X132870306Y-105251402D01*
X133037397Y-105418493D01*
X133037403Y-105418498D01*
X133223394Y-105548730D01*
X133267019Y-105603307D01*
X133274213Y-105672805D01*
X133242690Y-105735160D01*
X133223395Y-105751880D01*
X133037722Y-105881890D01*
X133037720Y-105881891D01*
X132870691Y-106048920D01*
X132870686Y-106048926D01*
X132735200Y-106242420D01*
X132735199Y-106242422D01*
X132635370Y-106456507D01*
X132635366Y-106456516D01*
X132572830Y-106689908D01*
X132570574Y-106689303D01*
X132543932Y-106743013D01*
X132483972Y-106778882D01*
X132414138Y-106776640D01*
X132356603Y-106736999D01*
X132335832Y-106699800D01*
X132318248Y-106649549D01*
X132318246Y-106649543D01*
X132198111Y-106400084D01*
X132099042Y-106242420D01*
X132050801Y-106165646D01*
X131878163Y-105949170D01*
X131780274Y-105851283D01*
X131745399Y-105816409D01*
X131668673Y-105739683D01*
X131668669Y-105739678D01*
X131654779Y-105725788D01*
X131607895Y-105678905D01*
X131564333Y-105635343D01*
X131560628Y-105631638D01*
X131560567Y-105631582D01*
X131501814Y-105572829D01*
X131478913Y-105554035D01*
X131269888Y-105382492D01*
X131269887Y-105382491D01*
X131269883Y-105382488D01*
X131093926Y-105264917D01*
X131020419Y-105215801D01*
X131020418Y-105215800D01*
X131020413Y-105215797D01*
X131020408Y-105215794D01*
X131020401Y-105215790D01*
X130755812Y-105074364D01*
X130755807Y-105074362D01*
X130746858Y-105070655D01*
X130696402Y-105049755D01*
X130642000Y-105005915D01*
X130619935Y-104939621D01*
X130637214Y-104871921D01*
X130688352Y-104824311D01*
X130696389Y-104820640D01*
X130957879Y-104712327D01*
X131396906Y-104495821D01*
X131820833Y-104251066D01*
X132227844Y-103979109D01*
X132429271Y-103824547D01*
X132494439Y-103799353D01*
X132562884Y-103813391D01*
G37*
%TD.AperFunction*%
%TD*%
M02*
