%TF.GenerationSoftware,KiCad,Pcbnew,8.0.2*%
%TF.CreationDate,2025-09-09T09:28:48+02:00*%
%TF.ProjectId,e77,6537372e-6b69-4636-9164-5f7063625858,rev?*%
%TF.SameCoordinates,Original*%
%TF.FileFunction,Copper,L2,Bot*%
%TF.FilePolarity,Positive*%
%FSLAX46Y46*%
G04 Gerber Fmt 4.6, Leading zero omitted, Abs format (unit mm)*
G04 Created by KiCad (PCBNEW 8.0.2) date 2025-09-09 09:28:48*
%MOMM*%
%LPD*%
G01*
G04 APERTURE LIST*
G04 Aperture macros list*
%AMRoundRect*
0 Rectangle with rounded corners*
0 $1 Rounding radius*
0 $2 $3 $4 $5 $6 $7 $8 $9 X,Y pos of 4 corners*
0 Add a 4 corners polygon primitive as box body*
4,1,4,$2,$3,$4,$5,$6,$7,$8,$9,$2,$3,0*
0 Add four circle primitives for the rounded corners*
1,1,$1+$1,$2,$3*
1,1,$1+$1,$4,$5*
1,1,$1+$1,$6,$7*
1,1,$1+$1,$8,$9*
0 Add four rect primitives between the rounded corners*
20,1,$1+$1,$2,$3,$4,$5,0*
20,1,$1+$1,$4,$5,$6,$7,0*
20,1,$1+$1,$6,$7,$8,$9,0*
20,1,$1+$1,$8,$9,$2,$3,0*%
G04 Aperture macros list end*
%TA.AperFunction,ComponentPad*%
%ADD10R,1.700000X1.700000*%
%TD*%
%TA.AperFunction,ComponentPad*%
%ADD11O,1.700000X1.700000*%
%TD*%
%TA.AperFunction,ComponentPad*%
%ADD12R,1.524000X1.524000*%
%TD*%
%TA.AperFunction,ComponentPad*%
%ADD13C,1.524000*%
%TD*%
%TA.AperFunction,SMDPad,CuDef*%
%ADD14R,2.000000X0.700000*%
%TD*%
%TA.AperFunction,SMDPad,CuDef*%
%ADD15R,0.700000X2.000000*%
%TD*%
%TA.AperFunction,SMDPad,CuDef*%
%ADD16R,3.600000X1.270000*%
%TD*%
%TA.AperFunction,SMDPad,CuDef*%
%ADD17R,4.200000X1.350000*%
%TD*%
%TA.AperFunction,SMDPad,CuDef*%
%ADD18RoundRect,0.200000X0.200000X-1.050000X0.200000X1.050000X-0.200000X1.050000X-0.200000X-1.050000X0*%
%TD*%
%TA.AperFunction,ViaPad*%
%ADD19C,0.600000*%
%TD*%
%TA.AperFunction,Conductor*%
%ADD20C,0.250000*%
%TD*%
%TA.AperFunction,Conductor*%
%ADD21C,0.200000*%
%TD*%
%TA.AperFunction,Conductor*%
%ADD22C,0.500000*%
%TD*%
%TA.AperFunction,Conductor*%
%ADD23C,0.330000*%
%TD*%
%TA.AperFunction,Conductor*%
%ADD24C,0.750000*%
%TD*%
G04 APERTURE END LIST*
D10*
%TO.P,J2,1,Pin_1*%
%TO.N,/b6*%
X134064000Y-85150200D03*
D11*
%TO.P,J2,2,Pin_2*%
%TO.N,/b7R*%
X134064000Y-82610200D03*
%TO.P,J2,3,Pin_3*%
%TO.N,GND*%
X134064000Y-80070200D03*
%TO.P,J2,4,Pin_4*%
%TO.N,Net-(J2-Pin_4)*%
X134064000Y-77530200D03*
%TO.P,J2,5,Pin_5*%
%TO.N,Net-(J2-Pin_5)*%
X134064000Y-74990200D03*
%TO.P,J2,6,Pin_6*%
%TO.N,Net-(J2-Pin_6)*%
X134064000Y-72450200D03*
%TD*%
D12*
%TO.P,U2,1,VCC*%
%TO.N,Net-(J1-Pin_4)*%
X115400000Y-116500000D03*
D13*
%TO.P,U2,2,DOUT*%
%TO.N,Net-(U2-DOUT)*%
X117400000Y-116500000D03*
%TO.P,U2,3,DIN*%
%TO.N,Net-(U2-DIN)*%
X119400000Y-116500000D03*
%TO.P,U2,4,DO8*%
%TO.N,unconnected-(U2-DO8-Pad4)*%
X121400000Y-116500000D03*
%TO.P,U2,5,RESET*%
%TO.N,unconnected-(U2-RESET-Pad5)*%
X123400000Y-116500000D03*
%TO.P,U2,6,PWM0/RSSI*%
%TO.N,unconnected-(U2-PWM0{slash}RSSI-Pad6)*%
X125400000Y-116500000D03*
%TO.P,U2,7,PWM1*%
%TO.N,unconnected-(U2-PWM1-Pad7)*%
X127400000Y-116500000D03*
%TO.P,U2,8,RESERVED*%
%TO.N,unconnected-(U2-RESERVED-Pad8)*%
X129400000Y-116500000D03*
%TO.P,U2,9,DTR/DI8*%
%TO.N,unconnected-(U2-DTR{slash}DI8-Pad9)*%
X131400000Y-116500000D03*
%TO.P,U2,10,GND*%
%TO.N,GND*%
X133400000Y-116500000D03*
%TO.P,U2,11,AD4/DIO4*%
%TO.N,unconnected-(U2-AD4{slash}DIO4-Pad11)*%
X133400000Y-94500000D03*
%TO.P,U2,12,CTS/DIO7*%
%TO.N,unconnected-(U2-CTS{slash}DIO7-Pad12)*%
X131400000Y-94500000D03*
%TO.P,U2,13,ON/SLEEP*%
%TO.N,unconnected-(U2-ON{slash}SLEEP-Pad13)*%
X129400000Y-94500000D03*
%TO.P,U2,14,VREF*%
%TO.N,unconnected-(U2-VREF-Pad14)*%
X127400000Y-94500000D03*
%TO.P,U2,15,AD5/DIO5*%
%TO.N,unconnected-(U2-AD5{slash}DIO5-Pad15)*%
X125400000Y-94500000D03*
%TO.P,U2,16,RTS/AD6/DIO6*%
%TO.N,unconnected-(U2-RTS{slash}AD6{slash}DIO6-Pad16)*%
X123400000Y-94500000D03*
%TO.P,U2,17,AD3/DIO3*%
%TO.N,unconnected-(U2-AD3{slash}DIO3-Pad17)*%
X121400000Y-94500000D03*
%TO.P,U2,18,AD2/DIO2*%
%TO.N,unconnected-(U2-AD2{slash}DIO2-Pad18)*%
X119400000Y-94500000D03*
%TO.P,U2,19,AD1/DIO1*%
%TO.N,unconnected-(U2-AD1{slash}DIO1-Pad19)*%
X117400000Y-94500000D03*
%TO.P,U2,20,AD0/DIO0*%
%TO.N,unconnected-(U2-AD0{slash}DIO0-Pad20)*%
X115400000Y-94500000D03*
%TD*%
D12*
%TO.P,U1,1,VCC*%
%TO.N,Net-(J2-Pin_4)*%
X115511600Y-89511600D03*
D13*
%TO.P,U1,2,DOUT*%
%TO.N,/a2*%
X117511600Y-89511600D03*
%TO.P,U1,3,DIN*%
%TO.N,/a3*%
X119511600Y-89511600D03*
%TO.P,U1,4,DO8*%
%TO.N,unconnected-(U1-DO8-Pad4)*%
X121511600Y-89511600D03*
%TO.P,U1,5,RESET*%
%TO.N,unconnected-(U1-RESET-Pad5)*%
X123511600Y-89511600D03*
%TO.P,U1,6,PWM0/RSSI*%
%TO.N,unconnected-(U1-PWM0{slash}RSSI-Pad6)*%
X125511600Y-89511600D03*
%TO.P,U1,7,PWM1*%
%TO.N,unconnected-(U1-PWM1-Pad7)*%
X127511600Y-89511600D03*
%TO.P,U1,8,RESERVED*%
%TO.N,unconnected-(U1-RESERVED-Pad8)*%
X129511600Y-89511600D03*
%TO.P,U1,9,DTR/DI8*%
%TO.N,unconnected-(U1-DTR{slash}DI8-Pad9)*%
X131511600Y-89511600D03*
%TO.P,U1,10,GND*%
%TO.N,GND*%
X133511600Y-89511600D03*
%TO.P,U1,11,AD4/DIO4*%
%TO.N,unconnected-(U1-AD4{slash}DIO4-Pad11)*%
X133511600Y-67511600D03*
%TO.P,U1,12,CTS/DIO7*%
%TO.N,unconnected-(U1-CTS{slash}DIO7-Pad12)*%
X131511600Y-67511600D03*
%TO.P,U1,13,ON/SLEEP*%
%TO.N,unconnected-(U1-ON{slash}SLEEP-Pad13)*%
X129511600Y-67511600D03*
%TO.P,U1,14,VREF*%
%TO.N,unconnected-(U1-VREF-Pad14)*%
X127511600Y-67511600D03*
%TO.P,U1,15,AD5/DIO5*%
%TO.N,unconnected-(U1-AD5{slash}DIO5-Pad15)*%
X125511600Y-67511600D03*
%TO.P,U1,16,RTS/AD6/DIO6*%
%TO.N,unconnected-(U1-RTS{slash}AD6{slash}DIO6-Pad16)*%
X123511600Y-67511600D03*
%TO.P,U1,17,AD3/DIO3*%
%TO.N,unconnected-(U1-AD3{slash}DIO3-Pad17)*%
X121511600Y-67511600D03*
%TO.P,U1,18,AD2/DIO2*%
%TO.N,unconnected-(U1-AD2{slash}DIO2-Pad18)*%
X119511600Y-67511600D03*
%TO.P,U1,19,AD1/DIO1*%
%TO.N,unconnected-(U1-AD1{slash}DIO1-Pad19)*%
X117511600Y-67511600D03*
%TO.P,U1,20,AD0/DIO0*%
%TO.N,unconnected-(U1-AD0{slash}DIO0-Pad20)*%
X115511600Y-67511600D03*
%TD*%
D10*
%TO.P,J1,1,Pin_1*%
%TO.N,Net-(J1-Pin_1)*%
X133908800Y-112000000D03*
D11*
%TO.P,J1,2,Pin_2*%
%TO.N,Net-(J1-Pin_2)*%
X133908800Y-109460000D03*
%TO.P,J1,3,Pin_3*%
%TO.N,GND*%
X133908800Y-106920000D03*
%TO.P,J1,4,Pin_4*%
%TO.N,Net-(J1-Pin_4)*%
X133908800Y-104380000D03*
%TO.P,J1,5,Pin_5*%
%TO.N,Net-(J1-Pin_5)*%
X133908800Y-101840000D03*
%TO.P,J1,6,Pin_6*%
%TO.N,Net-(J1-Pin_6)*%
X133908800Y-99300000D03*
%TD*%
D14*
%TO.P,U4,1,RX2A3*%
%TO.N,Net-(U2-DIN)*%
X114500000Y-111000000D03*
%TO.P,U4,2,TX2A2*%
%TO.N,Net-(U2-DOUT)*%
X114500000Y-110000000D03*
%TO.P,U4,3,Ad5A15*%
%TO.N,unconnected-(U4-Ad5A15-Pad3)*%
X114500000Y-109000000D03*
%TO.P,U4,4,Tx1B6*%
%TO.N,Net-(J1-Pin_1)*%
X114500000Y-108000000D03*
%TO.P,U4,5,Rx1B7*%
%TO.N,Net-(J1-Pin_2)*%
X114500000Y-107000000D03*
%TO.P,U4,6,PA1*%
%TO.N,unconnected-(U4-PA1-Pad6)*%
X114500000Y-106000000D03*
%TO.P,U4,7,Dio*%
%TO.N,Net-(J1-Pin_5)*%
X114500000Y-105000000D03*
%TO.P,U4,8,Clk*%
%TO.N,Net-(J1-Pin_6)*%
X114500000Y-104000000D03*
%TO.P,U4,9,PA12SCL*%
%TO.N,unconnected-(U4-PA12SCL-Pad9)*%
X114500000Y-103000000D03*
%TO.P,U4,10,PA11SDA*%
%TO.N,unconnected-(U4-PA11SDA-Pad10)*%
X114500000Y-102000000D03*
%TO.P,U4,11,GND*%
%TO.N,GND*%
X114500000Y-101000000D03*
%TO.P,U4,12,RFIO*%
%TO.N,Net-(AE2-A)*%
X114500000Y-100000000D03*
D15*
%TO.P,U4,13,MoA7*%
%TO.N,unconnected-(U4-MoA7-Pad13)*%
X122500000Y-97500000D03*
%TO.P,U4,14,MiA6*%
%TO.N,unconnected-(U4-MiA6-Pad14)*%
X123500000Y-97500000D03*
%TO.P,U4,15,CKA5*%
%TO.N,unconnected-(U4-CKA5-Pad15)*%
X124500000Y-97500000D03*
%TO.P,U4,16,CsA4*%
%TO.N,unconnected-(U4-CsA4-Pad16)*%
X125500000Y-97500000D03*
D14*
%TO.P,U4,17,GND*%
%TO.N,GND*%
X129500000Y-100000000D03*
%TO.P,U4,18,GND*%
X129500000Y-101000000D03*
%TO.P,U4,19,PA8*%
%TO.N,unconnected-(U4-PA8-Pad19)*%
X129500000Y-102000000D03*
%TO.P,U4,20,PA9*%
%TO.N,Net-(RN2-R4.1)*%
X129500000Y-107000000D03*
%TO.P,U4,21,Boot*%
%TO.N,Net-(RN2-R3.1)*%
X129500000Y-108000000D03*
%TO.P,U4,22,RST*%
%TO.N,Net-(JP2-B)*%
X129500000Y-109000000D03*
%TO.P,U4,23,GND*%
%TO.N,GND*%
X129500000Y-110000000D03*
%TO.P,U4,24,VDD*%
%TO.N,Net-(J1-Pin_4)*%
X129500000Y-111000000D03*
D15*
%TO.P,U4,25,Ad4A10*%
%TO.N,Net-(RN2-R1.1)*%
X125500000Y-113000000D03*
%TO.P,U4,26,Ad3B2*%
%TO.N,unconnected-(U4-Ad3B2-Pad26)*%
X124500000Y-113000000D03*
%TO.P,U4,27,PB12*%
%TO.N,unconnected-(U4-PB12-Pad27)*%
X123500000Y-113000000D03*
%TO.P,U4,28,GND*%
%TO.N,GND*%
X122500000Y-113000000D03*
%TO.P,U4,29,PA0*%
%TO.N,unconnected-(U4-PA0-Pad29)*%
X121500000Y-113000000D03*
%TO.P,U4,30,PB5*%
%TO.N,unconnected-(U4-PB5-Pad30)*%
X120500000Y-113000000D03*
%TO.P,U4,31,PB4*%
%TO.N,unconnected-(U4-PB4-Pad31)*%
X119500000Y-113000000D03*
%TO.P,U4,32,PB3*%
%TO.N,unconnected-(U4-PB3-Pad32)*%
X118500000Y-113000000D03*
%TD*%
D16*
%TO.P,AE2,1,A*%
%TO.N,Net-(AE2-A)*%
X108462500Y-105500000D03*
D17*
%TO.P,AE2,2,Shield*%
%TO.N,GND*%
X108662500Y-108325000D03*
X108662500Y-102675000D03*
%TD*%
D16*
%TO.P,AE1,1,A*%
%TO.N,Net-(AE1-A)*%
X109073600Y-78597000D03*
D17*
%TO.P,AE1,2,Shield*%
%TO.N,GND*%
X109273600Y-81422000D03*
X109273600Y-75772000D03*
%TD*%
D18*
%TO.P,U3,1,B3*%
%TO.N,unconnected-(U3-B3-Pad1)*%
X131001600Y-86226600D03*
%TO.P,U3,2,B5*%
%TO.N,unconnected-(U3-B5-Pad2)*%
X129731600Y-86226600D03*
%TO.P,U3,3,B5*%
%TO.N,unconnected-(U3-B5-Pad3)*%
X128461600Y-86226600D03*
%TO.P,U3,4,B6_Tx*%
%TO.N,/b6*%
X127191600Y-86226600D03*
%TO.P,U3,5,B7_Rx*%
%TO.N,/b7R*%
X125921600Y-86226600D03*
%TO.P,U3,6,B8*%
%TO.N,unconnected-(U3-B8-Pad6)*%
X124651600Y-86226600D03*
%TO.P,U3,7,A0*%
%TO.N,unconnected-(U3-A0-Pad7)*%
X123381600Y-86226600D03*
%TO.P,U3,8,A1*%
%TO.N,unconnected-(U3-A1-Pad8)*%
X122111600Y-86226600D03*
%TO.P,U3,9,A2_TX*%
%TO.N,/a2*%
X120841600Y-86226600D03*
%TO.P,U3,10,A3_RX*%
%TO.N,/a3*%
X119571600Y-86226600D03*
%TO.P,U3,11,A4*%
%TO.N,unconnected-(U3-A4-Pad11)*%
X118301600Y-86226600D03*
%TO.P,U3,12,A5*%
%TO.N,unconnected-(U3-A5-Pad12)*%
X117031600Y-86226600D03*
%TO.P,U3,13,GND*%
%TO.N,GND*%
X115761600Y-86226600D03*
%TO.P,U3,14,Ant*%
%TO.N,Net-(AE1-A)*%
X114491600Y-86226600D03*
%TO.P,U3,15,GND*%
%TO.N,GND*%
X113221600Y-86226600D03*
%TO.P,U3,16,A8*%
%TO.N,unconnected-(U3-A8-Pad16)*%
X113221600Y-70986600D03*
%TO.P,U3,17,~{Res}*%
%TO.N,Net-(JP1-B)*%
X114491600Y-70986600D03*
%TO.P,U3,18,A9*%
%TO.N,Net-(RN1-R3.1)*%
X115761600Y-70986600D03*
%TO.P,U3,19,A12*%
%TO.N,unconnected-(U3-A12-Pad19)*%
X117031600Y-70986600D03*
%TO.P,U3,20,A11*%
%TO.N,unconnected-(U3-A11-Pad20)*%
X118301600Y-70986600D03*
%TO.P,U3,21,A10*%
%TO.N,Net-(RN1-R2.1)*%
X119571600Y-70986600D03*
%TO.P,U3,22,B12*%
%TO.N,unconnected-(U3-B12-Pad22)*%
X120841600Y-70986600D03*
%TO.P,U3,23,B2*%
%TO.N,unconnected-(U3-B2-Pad23)*%
X122111600Y-70986600D03*
%TO.P,U3,24,B0*%
%TO.N,unconnected-(U3-B0-Pad24)*%
X123381600Y-70986600D03*
%TO.P,U3,25,A15*%
%TO.N,unconnected-(U3-A15-Pad25)*%
X124651600Y-70986600D03*
%TO.P,U3,26,C13*%
%TO.N,unconnected-(U3-C13-Pad26)*%
X125921600Y-70986600D03*
%TO.P,U3,27,GND*%
%TO.N,GND*%
X127191600Y-70986600D03*
%TO.P,U3,28,VCC*%
%TO.N,Net-(J2-Pin_4)*%
X128461600Y-70986600D03*
%TO.P,U3,29,Dio*%
%TO.N,Net-(J2-Pin_5)*%
X129731600Y-70986600D03*
%TO.P,U3,30,Clk*%
%TO.N,Net-(J2-Pin_6)*%
X131001600Y-70986600D03*
%TD*%
D19*
%TO.N,Net-(J1-Pin_1)*%
X116000000Y-108000000D03*
%TO.N,Net-(J1-Pin_2)*%
X116000000Y-107000000D03*
%TO.N,Net-(JP1-B)*%
X114491600Y-72385000D03*
%TO.N,Net-(JP2-B)*%
X128000000Y-109000000D03*
%TO.N,Net-(J1-Pin_4)*%
X131000000Y-111500000D03*
X128000000Y-111500000D03*
%TO.N,Net-(J1-Pin_6)*%
X116000000Y-104000000D03*
%TO.N,Net-(J1-Pin_5)*%
X116000000Y-105000000D03*
%TO.N,/a2*%
X119952218Y-87954361D03*
%TO.N,Net-(RN1-R3.1)*%
X115791341Y-72203286D03*
%TO.N,Net-(RN1-R2.1)*%
X119484400Y-72247000D03*
%TO.N,Net-(J2-Pin_4)*%
X128374400Y-72399400D03*
%TO.N,GND*%
X109324400Y-74126600D03*
X111712000Y-77530200D03*
X122684800Y-88249000D03*
X120297200Y-77073000D03*
X111335000Y-102500000D03*
X114658400Y-78089000D03*
X115064800Y-80019400D03*
X127203200Y-102819200D03*
X111762800Y-85963000D03*
X128831600Y-82000600D03*
X119500000Y-107000000D03*
X113845600Y-68741800D03*
X111579400Y-75772000D03*
X126500000Y-96000000D03*
X111048800Y-106578400D03*
X122532400Y-68945000D03*
X111610400Y-81422000D03*
X134318000Y-69453000D03*
X126190000Y-73517000D03*
X111508800Y-71078600D03*
X113500000Y-115500000D03*
X115369600Y-82305400D03*
X120500000Y-115000000D03*
X120094000Y-73517000D03*
X113500000Y-96000000D03*
X130304800Y-75599800D03*
X109500000Y-100500000D03*
X118265200Y-74787000D03*
X124920000Y-83677000D03*
X122583200Y-79206600D03*
X134550000Y-108204000D03*
X111661200Y-79917800D03*
X109476800Y-83118200D03*
X124500000Y-115000000D03*
X134500000Y-96000000D03*
X109500000Y-110500000D03*
X126291600Y-76209400D03*
X131879600Y-73161400D03*
X113744000Y-75803000D03*
X113236000Y-78190600D03*
X117706400Y-83880200D03*
X110896400Y-104140000D03*
X132082800Y-79105000D03*
X127104400Y-72399400D03*
X117706400Y-76057000D03*
X116538000Y-78038200D03*
X116588800Y-79765400D03*
X131876800Y-105460800D03*
X120500000Y-96000000D03*
X122500000Y-111500000D03*
X123494800Y-108407200D03*
X130000000Y-80375000D03*
X113000000Y-101000000D03*
X131879600Y-82153000D03*
X117195600Y-98399600D03*
X111610400Y-83169000D03*
X127254000Y-100939600D03*
X122684800Y-76158600D03*
X120548400Y-102666800D03*
X113286800Y-81492600D03*
X134673600Y-87385400D03*
X116382800Y-102362000D03*
X128000000Y-110000000D03*
X111559600Y-73923400D03*
X132590800Y-87131400D03*
X130500000Y-115000000D03*
X117297200Y-110540800D03*
X111250000Y-108250000D03*
X131927600Y-104495600D03*
X131572000Y-100126800D03*
X119500000Y-110000000D03*
%TO.N,Net-(RN2-R4.1)*%
X128000000Y-107000000D03*
%TO.N,Net-(RN2-R1.1)*%
X127000000Y-112000000D03*
%TO.N,Net-(RN2-R3.1)*%
X127660400Y-108100000D03*
%TD*%
D20*
%TO.N,Net-(J1-Pin_1)*%
X116000000Y-108000000D02*
X114500000Y-108000000D01*
%TO.N,Net-(J1-Pin_2)*%
X116000000Y-107000000D02*
X114500000Y-107000000D01*
D21*
%TO.N,Net-(JP1-B)*%
X114491600Y-72385000D02*
X114491600Y-70986600D01*
D20*
%TO.N,Net-(JP2-B)*%
X128000000Y-109000000D02*
X129500000Y-109000000D01*
D22*
%TO.N,Net-(J1-Pin_4)*%
X128646446Y-111500000D02*
X129353553Y-111500000D01*
X128646446Y-111500000D02*
X128000000Y-111500000D01*
X129250000Y-111250000D02*
X129500000Y-111000000D01*
X129353553Y-111500000D02*
X131000000Y-111500000D01*
X129250000Y-111250000D02*
G75*
G03*
X129353553Y-111500113I103600J-103600D01*
G01*
X128646446Y-111500000D02*
G75*
G03*
X129249986Y-111249986I-46J853600D01*
G01*
D20*
%TO.N,Net-(J1-Pin_6)*%
X116000000Y-104000000D02*
X114500000Y-104000000D01*
D21*
%TO.N,/a3*%
X119174771Y-87745827D02*
X118994453Y-87926146D01*
X118994453Y-88994453D02*
X119511600Y-89511600D01*
X119571600Y-86787800D02*
X119571600Y-86226600D01*
X118773200Y-88460300D02*
G75*
G02*
X118994455Y-87926148I755400J0D01*
G01*
X118773200Y-88460300D02*
G75*
G03*
X118994455Y-88994451I755400J0D01*
G01*
X119571600Y-86787800D02*
G75*
G02*
X119174781Y-87745837I-1354900J0D01*
G01*
D20*
%TO.N,Net-(J1-Pin_5)*%
X116000000Y-105000000D02*
X114500000Y-105000000D01*
D21*
%TO.N,/a2*%
X120545188Y-87361390D02*
X119952218Y-87954361D01*
X120841600Y-86645789D02*
X120841600Y-86226600D01*
X120545188Y-87361390D02*
G75*
G03*
X120841596Y-86645789I-715588J715590D01*
G01*
D23*
%TO.N,Net-(AE1-A)*%
X114491600Y-82735026D02*
X114491600Y-86226600D01*
X113279600Y-79809000D02*
X113126138Y-79655538D01*
X110570600Y-78597000D02*
X109073600Y-78597000D01*
X113126138Y-79655538D02*
G75*
G03*
X110570600Y-78597007I-2555538J-2555562D01*
G01*
X113279600Y-79809000D02*
G75*
G02*
X114491589Y-82735026I-2926000J-2926000D01*
G01*
D21*
%TO.N,/b6*%
X132413747Y-84719147D02*
X132336800Y-84642200D01*
X128256834Y-84134200D02*
X131110379Y-84134200D01*
X133454400Y-85150200D02*
X134064000Y-85150200D01*
X127191600Y-85199434D02*
X127191600Y-86226600D01*
X133454400Y-85150200D02*
G75*
G02*
X132413748Y-84719146I0J1471700D01*
G01*
X127503600Y-84446200D02*
G75*
G03*
X127191614Y-85199434I753200J-753200D01*
G01*
X131110379Y-84134200D02*
G75*
G02*
X132336806Y-84642194I21J-1734400D01*
G01*
X128256834Y-84134200D02*
G75*
G03*
X127503590Y-84446190I-34J-1065200D01*
G01*
%TO.N,/b7R*%
X126512599Y-83964000D02*
X126589199Y-83887399D01*
X125921600Y-85390800D02*
X125921600Y-86226600D01*
X133759200Y-82915000D02*
X134064000Y-82610200D01*
X133023347Y-83219800D02*
X128200928Y-83219800D01*
X126589199Y-83887399D02*
G75*
G02*
X128200928Y-83219811I1611701J-1611701D01*
G01*
X133759200Y-82915000D02*
G75*
G02*
X133023347Y-83219820I-735900J735900D01*
G01*
X125921600Y-85390800D02*
G75*
G02*
X126512599Y-83964000I2017800J0D01*
G01*
%TO.N,Net-(RN1-R3.1)*%
X115791341Y-72203286D02*
X115791341Y-71037371D01*
X115776470Y-71001470D02*
X115761600Y-70986600D01*
X115776470Y-71001470D02*
G75*
G02*
X115791370Y-71037371I-35870J-35930D01*
G01*
%TO.N,Net-(RN1-R2.1)*%
X119484400Y-72247000D02*
X119528000Y-72203400D01*
X119571600Y-72098140D02*
X119571600Y-70986600D01*
X119528000Y-72203400D02*
G75*
G03*
X119571617Y-72098140I-105300J105300D01*
G01*
D20*
%TO.N,Net-(U2-DIN)*%
X114500000Y-111300000D02*
X114500000Y-111000000D01*
X114712132Y-111812132D02*
X119400000Y-116500000D01*
X114500000Y-111300000D02*
G75*
G03*
X114712125Y-111812139I724300J0D01*
G01*
%TO.N,Net-(U2-DOUT)*%
X112500000Y-110853553D02*
X112500000Y-111250000D01*
X113353553Y-110000000D02*
X114500000Y-110000000D01*
X117400000Y-116200000D02*
X117400000Y-116500000D01*
X114146465Y-113646465D02*
X113030330Y-112530330D01*
X117187867Y-115687867D02*
X115853565Y-114353565D01*
X114146465Y-113646465D02*
G75*
G03*
X115000000Y-114000031I853535J853465D01*
G01*
X115853565Y-114353565D02*
G75*
G03*
X115000000Y-113999998I-853565J-853535D01*
G01*
X117400000Y-116200000D02*
G75*
G03*
X117187874Y-115687860I-724300J0D01*
G01*
X113030330Y-112530330D02*
G75*
G02*
X112500012Y-111250000I1280370J1280330D01*
G01*
X112750000Y-110250000D02*
G75*
G02*
X113353553Y-110000022I603500J-603500D01*
G01*
X112500000Y-110853553D02*
G75*
G02*
X112749984Y-110249984I853500J53D01*
G01*
D23*
%TO.N,Net-(AE2-A)*%
X112853553Y-100000000D02*
X114500000Y-100000000D01*
X112000000Y-100853553D02*
X112000000Y-104646446D01*
X111146446Y-105500000D02*
X108462500Y-105500000D01*
X111750000Y-105250000D02*
G75*
G02*
X111146446Y-105500019I-603600J603600D01*
G01*
X112853553Y-100000000D02*
G75*
G03*
X112249984Y-100249984I-53J-853500D01*
G01*
X111750000Y-105250000D02*
G75*
G03*
X112000019Y-104646446I-603600J603600D01*
G01*
X112000000Y-100853553D02*
G75*
G02*
X112249984Y-100249984I853500J53D01*
G01*
D21*
%TO.N,Net-(J2-Pin_4)*%
X128418000Y-71030200D02*
X128461600Y-70986600D01*
X128374400Y-71135459D02*
X128374400Y-72399400D01*
X128374400Y-71135459D02*
G75*
G02*
X128418012Y-71030212I148900J-41D01*
G01*
D20*
%TO.N,GND*%
X109500000Y-100500000D02*
X109542000Y-100542000D01*
D21*
X111610400Y-81422000D02*
X111829100Y-81422000D01*
D20*
X113000000Y-101000000D02*
X114500000Y-101000000D01*
D21*
X112404526Y-75987526D02*
X114853392Y-78436392D01*
X111579400Y-75772000D02*
X111884200Y-75772000D01*
X114745121Y-78038200D02*
X116538000Y-78038200D01*
X111579400Y-75772000D02*
X109273600Y-75772000D01*
D20*
X110896400Y-104140000D02*
X110998000Y-104140000D01*
X111250000Y-108250000D02*
X111962200Y-107537800D01*
D21*
X111579400Y-75772000D02*
X111610400Y-75803000D01*
X111610400Y-81422000D02*
X109273600Y-81422000D01*
D24*
X127427400Y-77802400D02*
X127899000Y-78274000D01*
D22*
X134550000Y-108204000D02*
X134528000Y-108182000D01*
X128000000Y-110000000D02*
X129476806Y-110000000D01*
X130247600Y-110032800D02*
X129555993Y-110032800D01*
X134474887Y-108160000D02*
X133670600Y-108160000D01*
D21*
X112202444Y-81576644D02*
X112634700Y-82008900D01*
X113221600Y-83425801D02*
X113221600Y-86226600D01*
D20*
X111335000Y-102500000D02*
X111335000Y-103738147D01*
X122500000Y-111500000D02*
X122500000Y-113000000D01*
D24*
X130000000Y-80375000D02*
X127899000Y-78274000D01*
D21*
X115565600Y-82501400D02*
X115369600Y-82305400D01*
D20*
X111171442Y-104068157D02*
X111217299Y-104022299D01*
X110947840Y-100940240D02*
X110963300Y-100955700D01*
D22*
X131467839Y-109527359D02*
X132244482Y-108750717D01*
D21*
X127104400Y-72399400D02*
X127104400Y-71135459D01*
D20*
X111250000Y-108250000D02*
X111212500Y-108287500D01*
D21*
X115565600Y-82109400D02*
X115369600Y-82305400D01*
D20*
X112674400Y-101555833D02*
X112674400Y-105818397D01*
X111121966Y-108325000D02*
X108662500Y-108325000D01*
X113000000Y-101000000D02*
X112837200Y-101162800D01*
D21*
X114658400Y-78089000D02*
X114683800Y-78063600D01*
D20*
X110087800Y-100584000D02*
X109643396Y-100584000D01*
X111335000Y-102500000D02*
X111335000Y-101853063D01*
D21*
X115761600Y-82974585D02*
X115761600Y-86226600D01*
D24*
X127191600Y-71048259D02*
X127191600Y-77233128D01*
D21*
X127329728Y-78038200D02*
X116538000Y-78038200D01*
X115761600Y-80629000D02*
X115761600Y-81636214D01*
D22*
X133670600Y-108160000D02*
G75*
G03*
X132244490Y-108750725I0J-2016800D01*
G01*
D21*
X127148000Y-71030200D02*
G75*
G03*
X127104383Y-71135459I105300J-105300D01*
G01*
X112404526Y-75987526D02*
G75*
G03*
X111884200Y-75771985I-520326J-520274D01*
G01*
X127427400Y-77802400D02*
G75*
G02*
X127329728Y-78038269I-97700J-97700D01*
G01*
X115565600Y-82109400D02*
G75*
G03*
X115761606Y-81636214I-473200J473200D01*
G01*
D20*
X111217299Y-104022299D02*
G75*
G03*
X111335018Y-103738147I-284199J284199D01*
G01*
D21*
X115761600Y-82974585D02*
G75*
G03*
X115565596Y-82501404I-669200J-15D01*
G01*
D20*
X110947840Y-100940240D02*
G75*
G03*
X110087800Y-100584006I-860040J-860060D01*
G01*
X111212500Y-108287500D02*
G75*
G02*
X111121966Y-108324986I-90500J90500D01*
G01*
D24*
X127899000Y-78274000D02*
G75*
G03*
X127329728Y-78038188I-569300J-569300D01*
G01*
D22*
X129516400Y-110016400D02*
G75*
G03*
X129476806Y-109999997I-39600J-39600D01*
G01*
D24*
X127148000Y-71030200D02*
G75*
G02*
X127191697Y-71048259I18100J-18100D01*
G01*
D20*
X109542000Y-100542000D02*
G75*
G03*
X109643396Y-100584001I101400J101400D01*
G01*
D21*
X114745121Y-78038200D02*
G75*
G03*
X114683794Y-78063594I-21J-86700D01*
G01*
D22*
X129516400Y-110016400D02*
G75*
G03*
X129555993Y-110032803I39600J39600D01*
G01*
D20*
X111335000Y-101853063D02*
G75*
G03*
X110963289Y-100955711I-1269100J-37D01*
G01*
D21*
X115761600Y-80629000D02*
G75*
G03*
X114853389Y-78436395I-3100800J0D01*
G01*
D20*
X112837200Y-101162800D02*
G75*
G03*
X112674414Y-101555833I393000J-393000D01*
G01*
D22*
X131467839Y-109527359D02*
G75*
G02*
X130247600Y-110032793I-1220239J1220259D01*
G01*
D20*
X111171442Y-104068157D02*
G75*
G02*
X110998000Y-104139995I-173442J173457D01*
G01*
X112674400Y-105818397D02*
G75*
G02*
X111962201Y-107537801I-2431600J-3D01*
G01*
D21*
X113221600Y-83425801D02*
G75*
G03*
X112634701Y-82008899I-2003800J1D01*
G01*
X112202444Y-81576644D02*
G75*
G03*
X111829100Y-81422003I-373344J-373356D01*
G01*
D22*
X134528000Y-108182000D02*
G75*
G03*
X134474887Y-108160005I-53100J-53100D01*
G01*
D24*
X127191600Y-77233128D02*
G75*
G03*
X127427408Y-77802392I805100J28D01*
G01*
D21*
%TO.N,Net-(J2-Pin_6)*%
X134064000Y-71663979D02*
X134064000Y-72450200D01*
X133386620Y-70986600D02*
X131001600Y-70986600D01*
X133865600Y-71185000D02*
G75*
G02*
X134064008Y-71663979I-479000J-479000D01*
G01*
X133865600Y-71185000D02*
G75*
G03*
X133386620Y-70986592I-479000J-479000D01*
G01*
%TO.N,Net-(J2-Pin_5)*%
X130261930Y-73016930D02*
X131588621Y-74343621D01*
X129731600Y-71736600D02*
X129731600Y-70986600D01*
X133149600Y-74990200D02*
X134064000Y-74990200D01*
X130261930Y-73016930D02*
G75*
G02*
X129731612Y-71736600I1280370J1280330D01*
G01*
X133149600Y-74990200D02*
G75*
G02*
X131588612Y-74343630I0J2207600D01*
G01*
D20*
%TO.N,Net-(RN2-R4.1)*%
X128000000Y-107000000D02*
X129500000Y-107000000D01*
%TO.N,Net-(RN2-R1.1)*%
X125750000Y-113000000D02*
X125500000Y-113000000D01*
X127000000Y-112000000D02*
X126176776Y-112823223D01*
X125750000Y-113000000D02*
G75*
G03*
X126176786Y-112823233I0J603600D01*
G01*
%TO.N,Net-(RN2-R3.1)*%
X127710400Y-108050000D02*
X127660400Y-108100000D01*
X127831110Y-108000000D02*
X129500000Y-108000000D01*
X127831110Y-108000000D02*
G75*
G03*
X127710397Y-108049997I-10J-170700D01*
G01*
%TD*%
%TA.AperFunction,Conductor*%
%TO.N,GND*%
G36*
X114507188Y-66520185D02*
G01*
X114552943Y-66572989D01*
X114562887Y-66642147D01*
X114541724Y-66695623D01*
X114414066Y-66877938D01*
X114414065Y-66877940D01*
X114320707Y-67078148D01*
X114320704Y-67078154D01*
X114263530Y-67291529D01*
X114263529Y-67291537D01*
X114244277Y-67511597D01*
X114244277Y-67511602D01*
X114263529Y-67731662D01*
X114263530Y-67731670D01*
X114320704Y-67945045D01*
X114320705Y-67945047D01*
X114320706Y-67945050D01*
X114414066Y-68145262D01*
X114414068Y-68145266D01*
X114540770Y-68326215D01*
X114540775Y-68326221D01*
X114696978Y-68482424D01*
X114696984Y-68482429D01*
X114877933Y-68609131D01*
X114877935Y-68609132D01*
X114877938Y-68609134D01*
X115078150Y-68702494D01*
X115291532Y-68759670D01*
X115448723Y-68773422D01*
X115511598Y-68778923D01*
X115511600Y-68778923D01*
X115511602Y-68778923D01*
X115566617Y-68774109D01*
X115731668Y-68759670D01*
X115945050Y-68702494D01*
X116145262Y-68609134D01*
X116326220Y-68482426D01*
X116423919Y-68384727D01*
X116485242Y-68351242D01*
X116554934Y-68356226D01*
X116599281Y-68384727D01*
X116696978Y-68482424D01*
X116696984Y-68482429D01*
X116877933Y-68609131D01*
X116877935Y-68609132D01*
X116877938Y-68609134D01*
X117078150Y-68702494D01*
X117291532Y-68759670D01*
X117448723Y-68773422D01*
X117511598Y-68778923D01*
X117511600Y-68778923D01*
X117511602Y-68778923D01*
X117566617Y-68774109D01*
X117731668Y-68759670D01*
X117945050Y-68702494D01*
X118145262Y-68609134D01*
X118326220Y-68482426D01*
X118423919Y-68384727D01*
X118485242Y-68351242D01*
X118554934Y-68356226D01*
X118599281Y-68384727D01*
X118696978Y-68482424D01*
X118696984Y-68482429D01*
X118877933Y-68609131D01*
X118877935Y-68609132D01*
X118877938Y-68609134D01*
X119078150Y-68702494D01*
X119291532Y-68759670D01*
X119448723Y-68773422D01*
X119511598Y-68778923D01*
X119511600Y-68778923D01*
X119511602Y-68778923D01*
X119566617Y-68774109D01*
X119731668Y-68759670D01*
X119945050Y-68702494D01*
X120145262Y-68609134D01*
X120326220Y-68482426D01*
X120423919Y-68384727D01*
X120485242Y-68351242D01*
X120554934Y-68356226D01*
X120599281Y-68384727D01*
X120696978Y-68482424D01*
X120696984Y-68482429D01*
X120877933Y-68609131D01*
X120877935Y-68609132D01*
X120877938Y-68609134D01*
X121078150Y-68702494D01*
X121291532Y-68759670D01*
X121448723Y-68773422D01*
X121511598Y-68778923D01*
X121511600Y-68778923D01*
X121511602Y-68778923D01*
X121566617Y-68774109D01*
X121731668Y-68759670D01*
X121945050Y-68702494D01*
X122145262Y-68609134D01*
X122326220Y-68482426D01*
X122423919Y-68384727D01*
X122485242Y-68351242D01*
X122554934Y-68356226D01*
X122599281Y-68384727D01*
X122696978Y-68482424D01*
X122696984Y-68482429D01*
X122877933Y-68609131D01*
X122877935Y-68609132D01*
X122877938Y-68609134D01*
X123078150Y-68702494D01*
X123291532Y-68759670D01*
X123448723Y-68773422D01*
X123511598Y-68778923D01*
X123511600Y-68778923D01*
X123511602Y-68778923D01*
X123566617Y-68774109D01*
X123731668Y-68759670D01*
X123945050Y-68702494D01*
X124145262Y-68609134D01*
X124326220Y-68482426D01*
X124423919Y-68384727D01*
X124485242Y-68351242D01*
X124554934Y-68356226D01*
X124599281Y-68384727D01*
X124696978Y-68482424D01*
X124696984Y-68482429D01*
X124877933Y-68609131D01*
X124877935Y-68609132D01*
X124877938Y-68609134D01*
X125078150Y-68702494D01*
X125291532Y-68759670D01*
X125448723Y-68773422D01*
X125511598Y-68778923D01*
X125511600Y-68778923D01*
X125511602Y-68778923D01*
X125566617Y-68774109D01*
X125731668Y-68759670D01*
X125945050Y-68702494D01*
X126145262Y-68609134D01*
X126326220Y-68482426D01*
X126423919Y-68384727D01*
X126485242Y-68351242D01*
X126554934Y-68356226D01*
X126599281Y-68384727D01*
X126696978Y-68482424D01*
X126696984Y-68482429D01*
X126877933Y-68609131D01*
X126877935Y-68609132D01*
X126877938Y-68609134D01*
X127078150Y-68702494D01*
X127291532Y-68759670D01*
X127448723Y-68773422D01*
X127511598Y-68778923D01*
X127511600Y-68778923D01*
X127511602Y-68778923D01*
X127566617Y-68774109D01*
X127731668Y-68759670D01*
X127945050Y-68702494D01*
X128145262Y-68609134D01*
X128326220Y-68482426D01*
X128423919Y-68384727D01*
X128485242Y-68351242D01*
X128554934Y-68356226D01*
X128599281Y-68384727D01*
X128696978Y-68482424D01*
X128696984Y-68482429D01*
X128877933Y-68609131D01*
X128877935Y-68609132D01*
X128877938Y-68609134D01*
X129078150Y-68702494D01*
X129291532Y-68759670D01*
X129448723Y-68773422D01*
X129511598Y-68778923D01*
X129511600Y-68778923D01*
X129511602Y-68778923D01*
X129566617Y-68774109D01*
X129731668Y-68759670D01*
X129945050Y-68702494D01*
X130145262Y-68609134D01*
X130326220Y-68482426D01*
X130423919Y-68384727D01*
X130485242Y-68351242D01*
X130554934Y-68356226D01*
X130599281Y-68384727D01*
X130696978Y-68482424D01*
X130696984Y-68482429D01*
X130877933Y-68609131D01*
X130877935Y-68609132D01*
X130877938Y-68609134D01*
X131078150Y-68702494D01*
X131291532Y-68759670D01*
X131448723Y-68773422D01*
X131511598Y-68778923D01*
X131511600Y-68778923D01*
X131511602Y-68778923D01*
X131566617Y-68774109D01*
X131731668Y-68759670D01*
X131945050Y-68702494D01*
X132145262Y-68609134D01*
X132326220Y-68482426D01*
X132423919Y-68384727D01*
X132485242Y-68351242D01*
X132554934Y-68356226D01*
X132599281Y-68384727D01*
X132696978Y-68482424D01*
X132696984Y-68482429D01*
X132877933Y-68609131D01*
X132877935Y-68609132D01*
X132877938Y-68609134D01*
X133078150Y-68702494D01*
X133291532Y-68759670D01*
X133448723Y-68773422D01*
X133511598Y-68778923D01*
X133511600Y-68778923D01*
X133511602Y-68778923D01*
X133566617Y-68774109D01*
X133731668Y-68759670D01*
X133945050Y-68702494D01*
X134145262Y-68609134D01*
X134326220Y-68482426D01*
X134482426Y-68326220D01*
X134609134Y-68145262D01*
X134702494Y-67945050D01*
X134759670Y-67731668D01*
X134778923Y-67511600D01*
X134759670Y-67291532D01*
X134702494Y-67078150D01*
X134609134Y-66877939D01*
X134482426Y-66696980D01*
X134481476Y-66695623D01*
X134459149Y-66629417D01*
X134476159Y-66561649D01*
X134527108Y-66513837D01*
X134583051Y-66500500D01*
X135875500Y-66500500D01*
X135942539Y-66520185D01*
X135988294Y-66572989D01*
X135999500Y-66624500D01*
X135999500Y-117375500D01*
X135979815Y-117442539D01*
X135927011Y-117488294D01*
X135875500Y-117499500D01*
X134478962Y-117499500D01*
X134411923Y-117479815D01*
X134366168Y-117427011D01*
X134356224Y-117357853D01*
X134377387Y-117304376D01*
X134497099Y-117133409D01*
X134497100Y-117133407D01*
X134590419Y-116933284D01*
X134590424Y-116933270D01*
X134647573Y-116719986D01*
X134647575Y-116719976D01*
X134666821Y-116500000D01*
X134666821Y-116499999D01*
X134647575Y-116280023D01*
X134647573Y-116280013D01*
X134590424Y-116066729D01*
X134590420Y-116066720D01*
X134497096Y-115866586D01*
X134451741Y-115801811D01*
X134451740Y-115801810D01*
X133781000Y-116472550D01*
X133781000Y-116449840D01*
X133755036Y-116352939D01*
X133704876Y-116266060D01*
X133633940Y-116195124D01*
X133547061Y-116144964D01*
X133450160Y-116119000D01*
X133427448Y-116119000D01*
X134098188Y-115448259D01*
X134098187Y-115448258D01*
X134033411Y-115402901D01*
X134033405Y-115402898D01*
X133833284Y-115309580D01*
X133833270Y-115309575D01*
X133619986Y-115252426D01*
X133619976Y-115252424D01*
X133400001Y-115233179D01*
X133399999Y-115233179D01*
X133180023Y-115252424D01*
X133180013Y-115252426D01*
X132966729Y-115309575D01*
X132966720Y-115309579D01*
X132766590Y-115402901D01*
X132701811Y-115448258D01*
X133372553Y-116119000D01*
X133349840Y-116119000D01*
X133252939Y-116144964D01*
X133166060Y-116195124D01*
X133095124Y-116266060D01*
X133044964Y-116352939D01*
X133019000Y-116449840D01*
X133019000Y-116472553D01*
X132587041Y-116040594D01*
X132562341Y-116005319D01*
X132497534Y-115866339D01*
X132400000Y-115727045D01*
X132370827Y-115685381D01*
X132312318Y-115626872D01*
X132214620Y-115529174D01*
X132214616Y-115529171D01*
X132214615Y-115529170D01*
X132033666Y-115402468D01*
X132033662Y-115402466D01*
X131986457Y-115380454D01*
X131833450Y-115309106D01*
X131833447Y-115309105D01*
X131833445Y-115309104D01*
X131620070Y-115251930D01*
X131620062Y-115251929D01*
X131400002Y-115232677D01*
X131399998Y-115232677D01*
X131179937Y-115251929D01*
X131179929Y-115251930D01*
X130966554Y-115309104D01*
X130966548Y-115309107D01*
X130766340Y-115402465D01*
X130766338Y-115402466D01*
X130585381Y-115529172D01*
X130487680Y-115626873D01*
X130426356Y-115660357D01*
X130356665Y-115655373D01*
X130312318Y-115626872D01*
X130214621Y-115529175D01*
X130214615Y-115529170D01*
X130033666Y-115402468D01*
X130033662Y-115402466D01*
X129986457Y-115380454D01*
X129833450Y-115309106D01*
X129833447Y-115309105D01*
X129833445Y-115309104D01*
X129620070Y-115251930D01*
X129620062Y-115251929D01*
X129400002Y-115232677D01*
X129399998Y-115232677D01*
X129179937Y-115251929D01*
X129179929Y-115251930D01*
X128966554Y-115309104D01*
X128966548Y-115309107D01*
X128766340Y-115402465D01*
X128766338Y-115402466D01*
X128585381Y-115529172D01*
X128487680Y-115626873D01*
X128426356Y-115660357D01*
X128356665Y-115655373D01*
X128312318Y-115626872D01*
X128214621Y-115529175D01*
X128214615Y-115529170D01*
X128033666Y-115402468D01*
X128033662Y-115402466D01*
X127986457Y-115380454D01*
X127833450Y-115309106D01*
X127833447Y-115309105D01*
X127833445Y-115309104D01*
X127620070Y-115251930D01*
X127620062Y-115251929D01*
X127400002Y-115232677D01*
X127399998Y-115232677D01*
X127179937Y-115251929D01*
X127179929Y-115251930D01*
X126966554Y-115309104D01*
X126966548Y-115309107D01*
X126766340Y-115402465D01*
X126766338Y-115402466D01*
X126585381Y-115529172D01*
X126487680Y-115626873D01*
X126426356Y-115660357D01*
X126356665Y-115655373D01*
X126312318Y-115626872D01*
X126214621Y-115529175D01*
X126214615Y-115529170D01*
X126033666Y-115402468D01*
X126033662Y-115402466D01*
X125986457Y-115380454D01*
X125833450Y-115309106D01*
X125833447Y-115309105D01*
X125833445Y-115309104D01*
X125620070Y-115251930D01*
X125620062Y-115251929D01*
X125400002Y-115232677D01*
X125399998Y-115232677D01*
X125179937Y-115251929D01*
X125179929Y-115251930D01*
X124966554Y-115309104D01*
X124966548Y-115309107D01*
X124766340Y-115402465D01*
X124766338Y-115402466D01*
X124585381Y-115529172D01*
X124487680Y-115626873D01*
X124426356Y-115660357D01*
X124356665Y-115655373D01*
X124312318Y-115626872D01*
X124214621Y-115529175D01*
X124214615Y-115529170D01*
X124033666Y-115402468D01*
X124033662Y-115402466D01*
X123986457Y-115380454D01*
X123833450Y-115309106D01*
X123833447Y-115309105D01*
X123833445Y-115309104D01*
X123620070Y-115251930D01*
X123620062Y-115251929D01*
X123400002Y-115232677D01*
X123399998Y-115232677D01*
X123179937Y-115251929D01*
X123179929Y-115251930D01*
X122966554Y-115309104D01*
X122966548Y-115309107D01*
X122766340Y-115402465D01*
X122766338Y-115402466D01*
X122585381Y-115529172D01*
X122487680Y-115626873D01*
X122426356Y-115660357D01*
X122356665Y-115655373D01*
X122312318Y-115626872D01*
X122214621Y-115529175D01*
X122214615Y-115529170D01*
X122033666Y-115402468D01*
X122033662Y-115402466D01*
X121986457Y-115380454D01*
X121833450Y-115309106D01*
X121833447Y-115309105D01*
X121833445Y-115309104D01*
X121620070Y-115251930D01*
X121620062Y-115251929D01*
X121400002Y-115232677D01*
X121399998Y-115232677D01*
X121179937Y-115251929D01*
X121179929Y-115251930D01*
X120966554Y-115309104D01*
X120966548Y-115309107D01*
X120766340Y-115402465D01*
X120766338Y-115402466D01*
X120585381Y-115529172D01*
X120487680Y-115626873D01*
X120426356Y-115660357D01*
X120356665Y-115655373D01*
X120312318Y-115626872D01*
X120214621Y-115529175D01*
X120214615Y-115529170D01*
X120033666Y-115402468D01*
X120033662Y-115402466D01*
X119986457Y-115380454D01*
X119833450Y-115309106D01*
X119833447Y-115309105D01*
X119833445Y-115309104D01*
X119620070Y-115251930D01*
X119620062Y-115251929D01*
X119400002Y-115232677D01*
X119399998Y-115232677D01*
X119253288Y-115245512D01*
X119179932Y-115251930D01*
X119179930Y-115251930D01*
X119179926Y-115251931D01*
X119135977Y-115263707D01*
X119066127Y-115262044D01*
X119016204Y-115231613D01*
X118496771Y-114712180D01*
X118463286Y-114650857D01*
X118468270Y-114581165D01*
X118510142Y-114525232D01*
X118575606Y-114500815D01*
X118584452Y-114500499D01*
X118897871Y-114500499D01*
X118897872Y-114500499D01*
X118957483Y-114494091D01*
X118957485Y-114494090D01*
X118957487Y-114494090D01*
X118965031Y-114492308D01*
X118965377Y-114493775D01*
X119026342Y-114489408D01*
X119041378Y-114493822D01*
X119042513Y-114494089D01*
X119042517Y-114494091D01*
X119102127Y-114500500D01*
X119897872Y-114500499D01*
X119957483Y-114494091D01*
X119957485Y-114494090D01*
X119957487Y-114494090D01*
X119965031Y-114492308D01*
X119965377Y-114493775D01*
X120026342Y-114489408D01*
X120041378Y-114493822D01*
X120042513Y-114494089D01*
X120042517Y-114494091D01*
X120102127Y-114500500D01*
X120897872Y-114500499D01*
X120957483Y-114494091D01*
X120957485Y-114494090D01*
X120957487Y-114494090D01*
X120965031Y-114492308D01*
X120965377Y-114493775D01*
X121026342Y-114489408D01*
X121041378Y-114493822D01*
X121042513Y-114494089D01*
X121042517Y-114494091D01*
X121102127Y-114500500D01*
X121897872Y-114500499D01*
X121957483Y-114494091D01*
X121957489Y-114494088D01*
X121965025Y-114492308D01*
X121965321Y-114493561D01*
X122027063Y-114489142D01*
X122040655Y-114493132D01*
X122042627Y-114493598D01*
X122102155Y-114499999D01*
X122102172Y-114500000D01*
X122250000Y-114500000D01*
X122250000Y-114342106D01*
X122269685Y-114275067D01*
X122274734Y-114267794D01*
X122293796Y-114242331D01*
X122344091Y-114107483D01*
X122350500Y-114047873D01*
X122350499Y-111952135D01*
X122649500Y-111952135D01*
X122649500Y-114047870D01*
X122649501Y-114047876D01*
X122655908Y-114107483D01*
X122706203Y-114242329D01*
X122725266Y-114267794D01*
X122749684Y-114333258D01*
X122750000Y-114342106D01*
X122750000Y-114500000D01*
X122897828Y-114500000D01*
X122897844Y-114499999D01*
X122957375Y-114493598D01*
X122964926Y-114491814D01*
X122965315Y-114493462D01*
X123025624Y-114489140D01*
X123042387Y-114494060D01*
X123042512Y-114494089D01*
X123042517Y-114494091D01*
X123102127Y-114500500D01*
X123897872Y-114500499D01*
X123957483Y-114494091D01*
X123957485Y-114494090D01*
X123957487Y-114494090D01*
X123965031Y-114492308D01*
X123965377Y-114493775D01*
X124026342Y-114489408D01*
X124041378Y-114493822D01*
X124042513Y-114494089D01*
X124042517Y-114494091D01*
X124102127Y-114500500D01*
X124897872Y-114500499D01*
X124957483Y-114494091D01*
X124957485Y-114494090D01*
X124957487Y-114494090D01*
X124965031Y-114492308D01*
X124965377Y-114493775D01*
X125026342Y-114489408D01*
X125041378Y-114493822D01*
X125042513Y-114494089D01*
X125042517Y-114494091D01*
X125102127Y-114500500D01*
X125897872Y-114500499D01*
X125957483Y-114494091D01*
X126092331Y-114443796D01*
X126207546Y-114357546D01*
X126293796Y-114242331D01*
X126344091Y-114107483D01*
X126350500Y-114047873D01*
X126350499Y-113542521D01*
X126370183Y-113475483D01*
X126401618Y-113442201D01*
X126550649Y-113333934D01*
X126570508Y-113314075D01*
X126570559Y-113314030D01*
X126575506Y-113309082D01*
X126575509Y-113309081D01*
X126619047Y-113265543D01*
X126672754Y-113211841D01*
X126672755Y-113211837D01*
X126679133Y-113205461D01*
X126679165Y-113205423D01*
X127058379Y-112826209D01*
X127119700Y-112792726D01*
X127132156Y-112790674D01*
X127179255Y-112785368D01*
X127349522Y-112725789D01*
X127502262Y-112629816D01*
X127629816Y-112502262D01*
X127725789Y-112349522D01*
X127725789Y-112349519D01*
X127728259Y-112345590D01*
X127780594Y-112299299D01*
X127847136Y-112288342D01*
X127999996Y-112305565D01*
X128000000Y-112305565D01*
X128000004Y-112305565D01*
X128179249Y-112285369D01*
X128179252Y-112285368D01*
X128179255Y-112285368D01*
X128259017Y-112257457D01*
X128299972Y-112250500D01*
X128561135Y-112250500D01*
X128561211Y-112250503D01*
X128567600Y-112250502D01*
X128567606Y-112250504D01*
X128595104Y-112250502D01*
X128595166Y-112250520D01*
X128646486Y-112250518D01*
X128646486Y-112250519D01*
X128737350Y-112250514D01*
X128755482Y-112250514D01*
X128755909Y-112250500D01*
X129279635Y-112250500D01*
X129353312Y-112250500D01*
X129432193Y-112250525D01*
X129432197Y-112250524D01*
X129438384Y-112250526D01*
X129438900Y-112250500D01*
X130700028Y-112250500D01*
X130740982Y-112257457D01*
X130820745Y-112285368D01*
X130820750Y-112285369D01*
X130999996Y-112305565D01*
X131000000Y-112305565D01*
X131000004Y-112305565D01*
X131179249Y-112285369D01*
X131179252Y-112285368D01*
X131179255Y-112285368D01*
X131349522Y-112225789D01*
X131502262Y-112129816D01*
X131629816Y-112002262D01*
X131725789Y-111849522D01*
X131785368Y-111679255D01*
X131786779Y-111666739D01*
X131805565Y-111500000D01*
X131805565Y-111499996D01*
X131785369Y-111320750D01*
X131785368Y-111320745D01*
X131769085Y-111274211D01*
X131725789Y-111150478D01*
X131629816Y-110997738D01*
X131502262Y-110870184D01*
X131460735Y-110844091D01*
X131349521Y-110774210D01*
X131179249Y-110714630D01*
X131109331Y-110706753D01*
X131044917Y-110679687D01*
X131005362Y-110622092D01*
X130999925Y-110596789D01*
X130994091Y-110542517D01*
X130994091Y-110542516D01*
X130992307Y-110534966D01*
X130993559Y-110534669D01*
X130989145Y-110472924D01*
X130993132Y-110459346D01*
X130993598Y-110457375D01*
X130999999Y-110397844D01*
X131000000Y-110397827D01*
X131000000Y-110250000D01*
X130842107Y-110250000D01*
X130775068Y-110230315D01*
X130767796Y-110225267D01*
X130742331Y-110206204D01*
X130742328Y-110206202D01*
X130607482Y-110155908D01*
X130607483Y-110155908D01*
X130547883Y-110149501D01*
X130547881Y-110149500D01*
X130547873Y-110149500D01*
X130547864Y-110149500D01*
X128452129Y-110149500D01*
X128452123Y-110149501D01*
X128392516Y-110155908D01*
X128257671Y-110206202D01*
X128257668Y-110206204D01*
X128232204Y-110225267D01*
X128166739Y-110249684D01*
X128157893Y-110250000D01*
X128000000Y-110250000D01*
X128000000Y-110397844D01*
X128006401Y-110457372D01*
X128008187Y-110464930D01*
X128006542Y-110465318D01*
X128010851Y-110525656D01*
X128005943Y-110542371D01*
X128005908Y-110542519D01*
X128000073Y-110596789D01*
X127973334Y-110661340D01*
X127915941Y-110701187D01*
X127890669Y-110706752D01*
X127820750Y-110714630D01*
X127650478Y-110774210D01*
X127497737Y-110870184D01*
X127370182Y-110997739D01*
X127271739Y-111154410D01*
X127219405Y-111200700D01*
X127152863Y-111211657D01*
X127000004Y-111194435D01*
X126999996Y-111194435D01*
X126820750Y-111214630D01*
X126820745Y-111214631D01*
X126650476Y-111274211D01*
X126497737Y-111370184D01*
X126370185Y-111497736D01*
X126327900Y-111565031D01*
X126275565Y-111611321D01*
X126206511Y-111621968D01*
X126148596Y-111598324D01*
X126104122Y-111565031D01*
X126092331Y-111556204D01*
X126092329Y-111556203D01*
X126092328Y-111556202D01*
X125957482Y-111505908D01*
X125957483Y-111505908D01*
X125897883Y-111499501D01*
X125897881Y-111499500D01*
X125897873Y-111499500D01*
X125897864Y-111499500D01*
X125102129Y-111499500D01*
X125102123Y-111499501D01*
X125042520Y-111505908D01*
X125034974Y-111507692D01*
X125034628Y-111506230D01*
X124973622Y-111510584D01*
X124958600Y-111506172D01*
X124957482Y-111505908D01*
X124897883Y-111499501D01*
X124897881Y-111499500D01*
X124897873Y-111499500D01*
X124897864Y-111499500D01*
X124102129Y-111499500D01*
X124102123Y-111499501D01*
X124042520Y-111505908D01*
X124034974Y-111507692D01*
X124034628Y-111506230D01*
X123973622Y-111510584D01*
X123958600Y-111506172D01*
X123957482Y-111505908D01*
X123897883Y-111499501D01*
X123897881Y-111499500D01*
X123897873Y-111499500D01*
X123897864Y-111499500D01*
X123102129Y-111499500D01*
X123102123Y-111499501D01*
X123042515Y-111505909D01*
X123034971Y-111507692D01*
X123034675Y-111506439D01*
X122972926Y-111510855D01*
X122959357Y-111506870D01*
X122957372Y-111506401D01*
X122897844Y-111500000D01*
X122750000Y-111500000D01*
X122750000Y-111657893D01*
X122730315Y-111724932D01*
X122725267Y-111732204D01*
X122706204Y-111757668D01*
X122706202Y-111757671D01*
X122655908Y-111892517D01*
X122649501Y-111952116D01*
X122649501Y-111952123D01*
X122649500Y-111952135D01*
X122350499Y-111952135D01*
X122350499Y-111952128D01*
X122345299Y-111903757D01*
X122344091Y-111892516D01*
X122293797Y-111757671D01*
X122293795Y-111757668D01*
X122274733Y-111732204D01*
X122250316Y-111666739D01*
X122250000Y-111657893D01*
X122250000Y-111500000D01*
X122102155Y-111500000D01*
X122042624Y-111506401D01*
X122035073Y-111508186D01*
X122034684Y-111506542D01*
X121974348Y-111510853D01*
X121957614Y-111505939D01*
X121957483Y-111505908D01*
X121897883Y-111499501D01*
X121897881Y-111499500D01*
X121897873Y-111499500D01*
X121897864Y-111499500D01*
X121102129Y-111499500D01*
X121102123Y-111499501D01*
X121042520Y-111505908D01*
X121034974Y-111507692D01*
X121034628Y-111506230D01*
X120973622Y-111510584D01*
X120958600Y-111506172D01*
X120957482Y-111505908D01*
X120897883Y-111499501D01*
X120897881Y-111499500D01*
X120897873Y-111499500D01*
X120897864Y-111499500D01*
X120102129Y-111499500D01*
X120102123Y-111499501D01*
X120042520Y-111505908D01*
X120034974Y-111507692D01*
X120034628Y-111506230D01*
X119973622Y-111510584D01*
X119958600Y-111506172D01*
X119957482Y-111505908D01*
X119897883Y-111499501D01*
X119897881Y-111499500D01*
X119897873Y-111499500D01*
X119897864Y-111499500D01*
X119102129Y-111499500D01*
X119102123Y-111499501D01*
X119042520Y-111505908D01*
X119034974Y-111507692D01*
X119034628Y-111506230D01*
X118973622Y-111510584D01*
X118958600Y-111506172D01*
X118957482Y-111505908D01*
X118897883Y-111499501D01*
X118897881Y-111499500D01*
X118897873Y-111499500D01*
X118897864Y-111499500D01*
X118102129Y-111499500D01*
X118102123Y-111499501D01*
X118042516Y-111505908D01*
X117907671Y-111556202D01*
X117907664Y-111556206D01*
X117792455Y-111642452D01*
X117792452Y-111642455D01*
X117706206Y-111757664D01*
X117706202Y-111757671D01*
X117655908Y-111892517D01*
X117649501Y-111952116D01*
X117649501Y-111952123D01*
X117649500Y-111952135D01*
X117649500Y-113565548D01*
X117629815Y-113632587D01*
X117577011Y-113678342D01*
X117507853Y-113688286D01*
X117444297Y-113659261D01*
X117437819Y-113653229D01*
X115749762Y-111965172D01*
X115716277Y-111903849D01*
X115721261Y-111834157D01*
X115763132Y-111778225D01*
X115834321Y-111724932D01*
X115857546Y-111707546D01*
X115943796Y-111592331D01*
X115994091Y-111457483D01*
X116000500Y-111397873D01*
X116000499Y-110602128D01*
X115994091Y-110542517D01*
X115994090Y-110542515D01*
X115994090Y-110542512D01*
X115992308Y-110534969D01*
X115993773Y-110534622D01*
X115989409Y-110473651D01*
X115993819Y-110458633D01*
X115994089Y-110457488D01*
X115994091Y-110457483D01*
X116000500Y-110397873D01*
X116000499Y-109602128D01*
X115994091Y-109542517D01*
X115994090Y-109542515D01*
X115994090Y-109542512D01*
X115992308Y-109534969D01*
X115993773Y-109534622D01*
X115989409Y-109473651D01*
X115993819Y-109458633D01*
X115994089Y-109457488D01*
X115994088Y-109457488D01*
X115994091Y-109457483D01*
X116000500Y-109397873D01*
X116000499Y-108916320D01*
X116020183Y-108849282D01*
X116072987Y-108803527D01*
X116110610Y-108793101D01*
X116179255Y-108785368D01*
X116349522Y-108725789D01*
X116502262Y-108629816D01*
X116629816Y-108502262D01*
X116725789Y-108349522D01*
X116785368Y-108179255D01*
X116793809Y-108104341D01*
X116794299Y-108099996D01*
X126854835Y-108099996D01*
X126854835Y-108100003D01*
X126875030Y-108279249D01*
X126875031Y-108279254D01*
X126934611Y-108449523D01*
X127030584Y-108602262D01*
X127158137Y-108729815D01*
X127163584Y-108734159D01*
X127162056Y-108736074D01*
X127200787Y-108779868D01*
X127211740Y-108846402D01*
X127194435Y-108999995D01*
X127194435Y-109000003D01*
X127214630Y-109179249D01*
X127214631Y-109179254D01*
X127274211Y-109349523D01*
X127342133Y-109457619D01*
X127370184Y-109502262D01*
X127497738Y-109629816D01*
X127650478Y-109725789D01*
X127774980Y-109769354D01*
X127820745Y-109785368D01*
X127820750Y-109785369D01*
X127999996Y-109805565D01*
X128000000Y-109805565D01*
X128000004Y-109805565D01*
X128186176Y-109784589D01*
X128186358Y-109786205D01*
X128247600Y-109789951D01*
X128249344Y-109790736D01*
X128249359Y-109790697D01*
X128392517Y-109844091D01*
X128392516Y-109844091D01*
X128399444Y-109844835D01*
X128452127Y-109850500D01*
X130547872Y-109850499D01*
X130607483Y-109844091D01*
X130742331Y-109793796D01*
X130767796Y-109774733D01*
X130833261Y-109750316D01*
X130842107Y-109750000D01*
X131000000Y-109750000D01*
X131000000Y-109602172D01*
X130999999Y-109602155D01*
X130993598Y-109542627D01*
X130991814Y-109535076D01*
X130993459Y-109534687D01*
X130989143Y-109474361D01*
X130994058Y-109457619D01*
X130994091Y-109457481D01*
X130994896Y-109449994D01*
X131000500Y-109397873D01*
X131000499Y-108602128D01*
X130994091Y-108542517D01*
X130994090Y-108542515D01*
X130994090Y-108542512D01*
X130992308Y-108534969D01*
X130993773Y-108534622D01*
X130989409Y-108473651D01*
X130993819Y-108458633D01*
X130994089Y-108457488D01*
X130994091Y-108457483D01*
X131000500Y-108397873D01*
X131000499Y-107602128D01*
X130994091Y-107542517D01*
X130994090Y-107542515D01*
X130994090Y-107542512D01*
X130992308Y-107534969D01*
X130993773Y-107534622D01*
X130989409Y-107473651D01*
X130993819Y-107458633D01*
X130994089Y-107457488D01*
X130994091Y-107457483D01*
X131000500Y-107397873D01*
X131000499Y-106602128D01*
X130994091Y-106542517D01*
X130978233Y-106500000D01*
X130943797Y-106407671D01*
X130943793Y-106407664D01*
X130857547Y-106292455D01*
X130857544Y-106292452D01*
X130742335Y-106206206D01*
X130742328Y-106206202D01*
X130607482Y-106155908D01*
X130607483Y-106155908D01*
X130547883Y-106149501D01*
X130547881Y-106149500D01*
X130547873Y-106149500D01*
X130547864Y-106149500D01*
X128452129Y-106149500D01*
X128452123Y-106149501D01*
X128392516Y-106155908D01*
X128249360Y-106209303D01*
X128248105Y-106205940D01*
X128196411Y-106217094D01*
X128182141Y-106214956D01*
X128000004Y-106194435D01*
X127999996Y-106194435D01*
X127820750Y-106214630D01*
X127820745Y-106214631D01*
X127650476Y-106274211D01*
X127497737Y-106370184D01*
X127370184Y-106497737D01*
X127274211Y-106650476D01*
X127214631Y-106820745D01*
X127214630Y-106820750D01*
X127194435Y-106999996D01*
X127194435Y-107000003D01*
X127214630Y-107179249D01*
X127214631Y-107179254D01*
X127255241Y-107295309D01*
X127258802Y-107365088D01*
X127224073Y-107425716D01*
X127204173Y-107441257D01*
X127158138Y-107470183D01*
X127030584Y-107597737D01*
X126934611Y-107750476D01*
X126875031Y-107920745D01*
X126875030Y-107920750D01*
X126854835Y-108099996D01*
X116794299Y-108099996D01*
X116805565Y-108000003D01*
X116805565Y-107999996D01*
X116785369Y-107820750D01*
X116785368Y-107820745D01*
X116725788Y-107650475D01*
X116672691Y-107565973D01*
X116653690Y-107498736D01*
X116672691Y-107434027D01*
X116725788Y-107349524D01*
X116725789Y-107349522D01*
X116785368Y-107179255D01*
X116787943Y-107156401D01*
X116805565Y-107000003D01*
X116805565Y-106999996D01*
X116785369Y-106820750D01*
X116785368Y-106820745D01*
X116763937Y-106759499D01*
X116725789Y-106650478D01*
X116723418Y-106646705D01*
X116680746Y-106578793D01*
X116629816Y-106497738D01*
X116502262Y-106370184D01*
X116349521Y-106274210D01*
X116179249Y-106214630D01*
X116110615Y-106206897D01*
X116046201Y-106179830D01*
X116006646Y-106122235D01*
X116000499Y-106083677D01*
X116000499Y-105916321D01*
X116020184Y-105849282D01*
X116072988Y-105803527D01*
X116110610Y-105793101D01*
X116179255Y-105785368D01*
X116349522Y-105725789D01*
X116502262Y-105629816D01*
X116629816Y-105502262D01*
X116725789Y-105349522D01*
X116785368Y-105179255D01*
X116799049Y-105057834D01*
X116805565Y-105000003D01*
X116805565Y-104999996D01*
X116785369Y-104820750D01*
X116785368Y-104820745D01*
X116725788Y-104650475D01*
X116672691Y-104565973D01*
X116653690Y-104498736D01*
X116672691Y-104434027D01*
X116725788Y-104349524D01*
X116785368Y-104179254D01*
X116785369Y-104179249D01*
X116805565Y-104000003D01*
X116805565Y-103999996D01*
X116785369Y-103820750D01*
X116785368Y-103820745D01*
X116772123Y-103782894D01*
X116725789Y-103650478D01*
X116629816Y-103497738D01*
X116502262Y-103370184D01*
X116456613Y-103341501D01*
X116349521Y-103274210D01*
X116179249Y-103214630D01*
X116110615Y-103206897D01*
X116046201Y-103179830D01*
X116006646Y-103122235D01*
X116000499Y-103083677D01*
X116000499Y-102602129D01*
X116000498Y-102602123D01*
X116000498Y-102602116D01*
X115994091Y-102542517D01*
X115994090Y-102542515D01*
X115994090Y-102542512D01*
X115992308Y-102534969D01*
X115993773Y-102534622D01*
X115989409Y-102473651D01*
X115993819Y-102458633D01*
X115994089Y-102457488D01*
X115994091Y-102457483D01*
X116000500Y-102397873D01*
X116000499Y-101602135D01*
X127999500Y-101602135D01*
X127999500Y-102397870D01*
X127999501Y-102397876D01*
X128005908Y-102457483D01*
X128056202Y-102592328D01*
X128056206Y-102592335D01*
X128142452Y-102707544D01*
X128142455Y-102707547D01*
X128257664Y-102793793D01*
X128257671Y-102793797D01*
X128392517Y-102844091D01*
X128392516Y-102844091D01*
X128399444Y-102844835D01*
X128452127Y-102850500D01*
X130547872Y-102850499D01*
X130607483Y-102844091D01*
X130742331Y-102793796D01*
X130857546Y-102707546D01*
X130943796Y-102592331D01*
X130994091Y-102457483D01*
X131000500Y-102397873D01*
X131000499Y-101602128D01*
X130994091Y-101542517D01*
X130994091Y-101542516D01*
X130992307Y-101534966D01*
X130993559Y-101534669D01*
X130989145Y-101472924D01*
X130993132Y-101459346D01*
X130993598Y-101457375D01*
X130999999Y-101397844D01*
X131000000Y-101397827D01*
X131000000Y-101250000D01*
X130842107Y-101250000D01*
X130775068Y-101230315D01*
X130767796Y-101225267D01*
X130742331Y-101206204D01*
X130742328Y-101206202D01*
X130607482Y-101155908D01*
X130607483Y-101155908D01*
X130547883Y-101149501D01*
X130547881Y-101149500D01*
X130547873Y-101149500D01*
X130547864Y-101149500D01*
X128452129Y-101149500D01*
X128452123Y-101149501D01*
X128392516Y-101155908D01*
X128257671Y-101206202D01*
X128257668Y-101206204D01*
X128232204Y-101225267D01*
X128166739Y-101249684D01*
X128157893Y-101250000D01*
X128000000Y-101250000D01*
X128000000Y-101397844D01*
X128006401Y-101457372D01*
X128008187Y-101464930D01*
X128006542Y-101465318D01*
X128010851Y-101525656D01*
X128005943Y-101542371D01*
X128005908Y-101542520D01*
X128004216Y-101558260D01*
X127999501Y-101602123D01*
X127999500Y-101602135D01*
X116000499Y-101602135D01*
X116000499Y-101602128D01*
X115994091Y-101542517D01*
X115994091Y-101542516D01*
X115992307Y-101534966D01*
X115993559Y-101534669D01*
X115989145Y-101472924D01*
X115993132Y-101459346D01*
X115993598Y-101457375D01*
X115999999Y-101397844D01*
X116000000Y-101397827D01*
X116000000Y-101250000D01*
X115842107Y-101250000D01*
X115775068Y-101230315D01*
X115767796Y-101225267D01*
X115742331Y-101206204D01*
X115742328Y-101206202D01*
X115607482Y-101155908D01*
X115607483Y-101155908D01*
X115547883Y-101149501D01*
X115547881Y-101149500D01*
X115547873Y-101149500D01*
X115547864Y-101149500D01*
X113452129Y-101149500D01*
X113452123Y-101149501D01*
X113392516Y-101155908D01*
X113257671Y-101206202D01*
X113257668Y-101206204D01*
X113232204Y-101225267D01*
X113166739Y-101249684D01*
X113157893Y-101250000D01*
X113000000Y-101250000D01*
X113000000Y-101397844D01*
X113006401Y-101457372D01*
X113008187Y-101464930D01*
X113006542Y-101465318D01*
X113010851Y-101525656D01*
X113005943Y-101542371D01*
X113005908Y-101542520D01*
X113004216Y-101558260D01*
X112999501Y-101602123D01*
X112999500Y-101602135D01*
X112999500Y-102397870D01*
X112999501Y-102397876D01*
X113005908Y-102457479D01*
X113007692Y-102465026D01*
X113006229Y-102465371D01*
X113010585Y-102526371D01*
X113006173Y-102541396D01*
X113005908Y-102542517D01*
X112999501Y-102602116D01*
X112999501Y-102602123D01*
X112999500Y-102602135D01*
X112999500Y-103397870D01*
X112999501Y-103397876D01*
X113005908Y-103457479D01*
X113007692Y-103465026D01*
X113006229Y-103465371D01*
X113010585Y-103526371D01*
X113006173Y-103541396D01*
X113005908Y-103542517D01*
X112999501Y-103602116D01*
X112999500Y-103602135D01*
X112999500Y-104397870D01*
X112999501Y-104397876D01*
X113005908Y-104457479D01*
X113007692Y-104465026D01*
X113006229Y-104465371D01*
X113010585Y-104526371D01*
X113006173Y-104541396D01*
X113005908Y-104542517D01*
X112999501Y-104602116D01*
X112999500Y-104602135D01*
X112999500Y-105397870D01*
X112999501Y-105397876D01*
X113005908Y-105457479D01*
X113007692Y-105465026D01*
X113006229Y-105465371D01*
X113010585Y-105526371D01*
X113006173Y-105541396D01*
X113005908Y-105542517D01*
X112999501Y-105602116D01*
X112999500Y-105602135D01*
X112999500Y-106397870D01*
X112999501Y-106397876D01*
X113005908Y-106457479D01*
X113007692Y-106465026D01*
X113006229Y-106465371D01*
X113010585Y-106526371D01*
X113006173Y-106541396D01*
X113005908Y-106542517D01*
X113002008Y-106578796D01*
X112999501Y-106602123D01*
X112999500Y-106602135D01*
X112999500Y-107397870D01*
X112999501Y-107397876D01*
X113005908Y-107457479D01*
X113007692Y-107465026D01*
X113006229Y-107465371D01*
X113010585Y-107526371D01*
X113006173Y-107541396D01*
X113005908Y-107542517D01*
X112999989Y-107597578D01*
X112999501Y-107602123D01*
X112999500Y-107602135D01*
X112999500Y-108397870D01*
X112999501Y-108397876D01*
X113005908Y-108457479D01*
X113007692Y-108465026D01*
X113006229Y-108465371D01*
X113010585Y-108526371D01*
X113006173Y-108541396D01*
X113005908Y-108542517D01*
X113000954Y-108588599D01*
X112999501Y-108602123D01*
X112999500Y-108602135D01*
X112999500Y-109322053D01*
X112979815Y-109389092D01*
X112927011Y-109434847D01*
X112907589Y-109441829D01*
X112877138Y-109449987D01*
X112877115Y-109449994D01*
X112698009Y-109524176D01*
X112697988Y-109524187D01*
X112530084Y-109621122D01*
X112376257Y-109739155D01*
X112365745Y-109749666D01*
X112365698Y-109749710D01*
X112344039Y-109771370D01*
X112343968Y-109771408D01*
X112239142Y-109876236D01*
X112239136Y-109876243D01*
X112121107Y-110030064D01*
X112024161Y-110197988D01*
X111949964Y-110377130D01*
X111899794Y-110564403D01*
X111874496Y-110756634D01*
X111874495Y-110756647D01*
X111874500Y-110844091D01*
X111874500Y-111317303D01*
X111874511Y-111317538D01*
X111874511Y-111386815D01*
X111905145Y-111658706D01*
X111966030Y-111925467D01*
X111966032Y-111925473D01*
X112056402Y-112183740D01*
X112090434Y-112254411D01*
X112175116Y-112430261D01*
X112320691Y-112661948D01*
X112491283Y-112875871D01*
X112491286Y-112875874D01*
X112540133Y-112924722D01*
X112540141Y-112924731D01*
X112544472Y-112929062D01*
X112544473Y-112929063D01*
X112572893Y-112957483D01*
X112588025Y-112972615D01*
X112588027Y-112972618D01*
X112647559Y-113032153D01*
X112647590Y-113032180D01*
X113751807Y-114136398D01*
X113752238Y-114136788D01*
X113789104Y-114173657D01*
X113878601Y-114242335D01*
X113979684Y-114319905D01*
X113979686Y-114319906D01*
X114187727Y-114440026D01*
X114409669Y-114531963D01*
X114641711Y-114594142D01*
X114837316Y-114619895D01*
X114879884Y-114625500D01*
X114879885Y-114625500D01*
X114924051Y-114625500D01*
X114993906Y-114625500D01*
X115006061Y-114626097D01*
X115101315Y-114635479D01*
X115125148Y-114640219D01*
X115210895Y-114666231D01*
X115233334Y-114675526D01*
X115312357Y-114717765D01*
X115332564Y-114731268D01*
X115406558Y-114791994D01*
X115415576Y-114800167D01*
X115470801Y-114855394D01*
X115470824Y-114855414D01*
X115641229Y-115025819D01*
X115674714Y-115087142D01*
X115669730Y-115156834D01*
X115627858Y-115212767D01*
X115562394Y-115237184D01*
X115553548Y-115237500D01*
X114590129Y-115237500D01*
X114590123Y-115237501D01*
X114530516Y-115243908D01*
X114395671Y-115294202D01*
X114395664Y-115294206D01*
X114280455Y-115380452D01*
X114280452Y-115380455D01*
X114194206Y-115495664D01*
X114194202Y-115495671D01*
X114143908Y-115630517D01*
X114137501Y-115690116D01*
X114137500Y-115690135D01*
X114137500Y-116630324D01*
X114117815Y-116697363D01*
X114065011Y-116743118D01*
X113995853Y-116753062D01*
X113932297Y-116724037D01*
X113925819Y-116718005D01*
X113256487Y-116048673D01*
X113250020Y-116041690D01*
X108529852Y-110534827D01*
X108501169Y-110471116D01*
X108500000Y-110454129D01*
X108500000Y-109543000D01*
X108500000Y-109500000D01*
X108912500Y-109500000D01*
X110810328Y-109500000D01*
X110810344Y-109499999D01*
X110869872Y-109493598D01*
X110869879Y-109493596D01*
X111004586Y-109443354D01*
X111004593Y-109443350D01*
X111119687Y-109357190D01*
X111119690Y-109357187D01*
X111205850Y-109242093D01*
X111205854Y-109242086D01*
X111256096Y-109107379D01*
X111256098Y-109107372D01*
X111262499Y-109047844D01*
X111262500Y-109047827D01*
X111262500Y-108575000D01*
X108912500Y-108575000D01*
X108912500Y-109500000D01*
X108500000Y-109500000D01*
X108500000Y-108075000D01*
X108912500Y-108075000D01*
X111262500Y-108075000D01*
X111262500Y-107602172D01*
X111262499Y-107602155D01*
X111256098Y-107542627D01*
X111256096Y-107542620D01*
X111205854Y-107407913D01*
X111205850Y-107407906D01*
X111119690Y-107292812D01*
X111119687Y-107292809D01*
X111004593Y-107206649D01*
X111004586Y-107206645D01*
X110869879Y-107156403D01*
X110869872Y-107156401D01*
X110810344Y-107150000D01*
X108912500Y-107150000D01*
X108912500Y-108075000D01*
X108500000Y-108075000D01*
X108500000Y-106759499D01*
X108519685Y-106692460D01*
X108572489Y-106646705D01*
X108623997Y-106635499D01*
X110310372Y-106635499D01*
X110369983Y-106629091D01*
X110504831Y-106578796D01*
X110620046Y-106492546D01*
X110706296Y-106377331D01*
X110755217Y-106246167D01*
X110797088Y-106190233D01*
X110862552Y-106165816D01*
X110871399Y-106165500D01*
X111064681Y-106165500D01*
X111064753Y-106165503D01*
X111071492Y-106165502D01*
X111071498Y-106165504D01*
X111095098Y-106165502D01*
X111095160Y-106165520D01*
X111146482Y-106165518D01*
X111146482Y-106165519D01*
X111246043Y-106165515D01*
X111443462Y-106139515D01*
X111635798Y-106087971D01*
X111819762Y-106011765D01*
X111992206Y-105912200D01*
X112150179Y-105790981D01*
X112178268Y-105762890D01*
X112189280Y-105751879D01*
X112220583Y-105720578D01*
X112278601Y-105662558D01*
X112278825Y-105662306D01*
X112290964Y-105650168D01*
X112290968Y-105650163D01*
X112308125Y-105627804D01*
X112412184Y-105492194D01*
X112511747Y-105319753D01*
X112587952Y-105135792D01*
X112639495Y-104943458D01*
X112654687Y-104828107D01*
X112665494Y-104746054D01*
X112665495Y-104746040D01*
X112665495Y-104740453D01*
X112665495Y-104719619D01*
X112665500Y-104719561D01*
X112665500Y-104646411D01*
X112665501Y-104622664D01*
X112665504Y-104571498D01*
X112665502Y-104571492D01*
X112665503Y-104564754D01*
X112665500Y-104564680D01*
X112665500Y-100935786D01*
X112665504Y-100935701D01*
X112665503Y-100928501D01*
X112665505Y-100928496D01*
X112665500Y-100861631D01*
X112666560Y-100845455D01*
X112669774Y-100821031D01*
X112678148Y-100789772D01*
X112684441Y-100774577D01*
X112700625Y-100746548D01*
X112710572Y-100733585D01*
X112733455Y-100710700D01*
X112746567Y-100700639D01*
X112774588Y-100684462D01*
X112789776Y-100678171D01*
X112821032Y-100669797D01*
X112845646Y-100666558D01*
X112861807Y-100665500D01*
X112876010Y-100665501D01*
X112943047Y-100685190D01*
X112988798Y-100737997D01*
X112989020Y-100739020D01*
X113000000Y-100750000D01*
X113157893Y-100750000D01*
X113224932Y-100769685D01*
X113232204Y-100774733D01*
X113257668Y-100793795D01*
X113257671Y-100793797D01*
X113392517Y-100844091D01*
X113392516Y-100844091D01*
X113399444Y-100844835D01*
X113452127Y-100850500D01*
X115547872Y-100850499D01*
X115607483Y-100844091D01*
X115742331Y-100793796D01*
X115767796Y-100774733D01*
X115833261Y-100750316D01*
X115842107Y-100750000D01*
X116000000Y-100750000D01*
X116000000Y-100602172D01*
X115999999Y-100602155D01*
X115993598Y-100542627D01*
X115991814Y-100535076D01*
X115993459Y-100534687D01*
X115989143Y-100474361D01*
X115994058Y-100457619D01*
X115994091Y-100457481D01*
X115994102Y-100457377D01*
X116000500Y-100397873D01*
X116000500Y-100397844D01*
X128000000Y-100397844D01*
X128006401Y-100457375D01*
X128008186Y-100464927D01*
X128006754Y-100465265D01*
X128011119Y-100526370D01*
X128006632Y-100541649D01*
X128006401Y-100542624D01*
X128000000Y-100602155D01*
X128000000Y-100750000D01*
X129250000Y-100750000D01*
X129750000Y-100750000D01*
X131000000Y-100750000D01*
X131000000Y-100602172D01*
X130999999Y-100602155D01*
X130993597Y-100542622D01*
X130991813Y-100535067D01*
X130993250Y-100534727D01*
X130988874Y-100473658D01*
X130993364Y-100458366D01*
X130993597Y-100457377D01*
X130999999Y-100397844D01*
X131000000Y-100397827D01*
X131000000Y-100250000D01*
X129750000Y-100250000D01*
X129750000Y-100750000D01*
X129250000Y-100750000D01*
X129250000Y-100250000D01*
X128000000Y-100250000D01*
X128000000Y-100397844D01*
X116000500Y-100397844D01*
X116000499Y-99602155D01*
X128000000Y-99602155D01*
X128000000Y-99750000D01*
X129250000Y-99750000D01*
X129750000Y-99750000D01*
X131000000Y-99750000D01*
X131000000Y-99602172D01*
X130999999Y-99602155D01*
X130993598Y-99542627D01*
X130993596Y-99542620D01*
X130943354Y-99407913D01*
X130943350Y-99407906D01*
X130862570Y-99299999D01*
X132553141Y-99299999D01*
X132553141Y-99300000D01*
X132573736Y-99535403D01*
X132573738Y-99535413D01*
X132634894Y-99763655D01*
X132634896Y-99763659D01*
X132634897Y-99763663D01*
X132675069Y-99849811D01*
X132734765Y-99977830D01*
X132734767Y-99977834D01*
X132870301Y-100171395D01*
X132870306Y-100171402D01*
X133037397Y-100338493D01*
X133037403Y-100338498D01*
X133222958Y-100468425D01*
X133266583Y-100523002D01*
X133273777Y-100592500D01*
X133242254Y-100654855D01*
X133222958Y-100671575D01*
X133037397Y-100801505D01*
X132870305Y-100968597D01*
X132734765Y-101162169D01*
X132734764Y-101162171D01*
X132634898Y-101376335D01*
X132634894Y-101376344D01*
X132573738Y-101604586D01*
X132573736Y-101604596D01*
X132553141Y-101839999D01*
X132553141Y-101840000D01*
X132573736Y-102075403D01*
X132573738Y-102075413D01*
X132634894Y-102303655D01*
X132634896Y-102303659D01*
X132634897Y-102303663D01*
X132678833Y-102397883D01*
X132734765Y-102517830D01*
X132734767Y-102517834D01*
X132793796Y-102602135D01*
X132867606Y-102707547D01*
X132870301Y-102711395D01*
X132870306Y-102711402D01*
X133037397Y-102878493D01*
X133037403Y-102878498D01*
X133222958Y-103008425D01*
X133266583Y-103063002D01*
X133273777Y-103132500D01*
X133242254Y-103194855D01*
X133222958Y-103211575D01*
X133037397Y-103341505D01*
X132870305Y-103508597D01*
X132734765Y-103702169D01*
X132734764Y-103702171D01*
X132634898Y-103916335D01*
X132634894Y-103916344D01*
X132573738Y-104144586D01*
X132573736Y-104144596D01*
X132553141Y-104379999D01*
X132553141Y-104380000D01*
X132573736Y-104615403D01*
X132573738Y-104615413D01*
X132634894Y-104843655D01*
X132634896Y-104843659D01*
X132634897Y-104843663D01*
X132707798Y-105000000D01*
X132734765Y-105057830D01*
X132734767Y-105057834D01*
X132870301Y-105251395D01*
X132870306Y-105251402D01*
X133037397Y-105418493D01*
X133037403Y-105418498D01*
X133223394Y-105548730D01*
X133267019Y-105603307D01*
X133274213Y-105672805D01*
X133242690Y-105735160D01*
X133223395Y-105751880D01*
X133037722Y-105881890D01*
X133037720Y-105881891D01*
X132870691Y-106048920D01*
X132870686Y-106048926D01*
X132735200Y-106242420D01*
X132735199Y-106242422D01*
X132635370Y-106456507D01*
X132635367Y-106456513D01*
X132578164Y-106669999D01*
X132578164Y-106670000D01*
X133475788Y-106670000D01*
X133442875Y-106727007D01*
X133408800Y-106854174D01*
X133408800Y-106985826D01*
X133442875Y-107112993D01*
X133475788Y-107170000D01*
X132578164Y-107170000D01*
X132635367Y-107383486D01*
X132635370Y-107383492D01*
X132735199Y-107597578D01*
X132870694Y-107791082D01*
X133037717Y-107958105D01*
X133223395Y-108088119D01*
X133267019Y-108142696D01*
X133274212Y-108212195D01*
X133242690Y-108274549D01*
X133223395Y-108291269D01*
X133037394Y-108421508D01*
X132870305Y-108588597D01*
X132734765Y-108782169D01*
X132734764Y-108782171D01*
X132634898Y-108996335D01*
X132634894Y-108996344D01*
X132573738Y-109224586D01*
X132573736Y-109224596D01*
X132553141Y-109459999D01*
X132553141Y-109460000D01*
X132573736Y-109695403D01*
X132573738Y-109695413D01*
X132634894Y-109923655D01*
X132634896Y-109923659D01*
X132634897Y-109923663D01*
X132639768Y-109934108D01*
X132734765Y-110137830D01*
X132734767Y-110137834D01*
X132813086Y-110249684D01*
X132870301Y-110331396D01*
X132870306Y-110331402D01*
X132992230Y-110453326D01*
X133025715Y-110514649D01*
X133020731Y-110584341D01*
X132978859Y-110640274D01*
X132947883Y-110657189D01*
X132816469Y-110706203D01*
X132816464Y-110706206D01*
X132701255Y-110792452D01*
X132701252Y-110792455D01*
X132615006Y-110907664D01*
X132615002Y-110907671D01*
X132564708Y-111042517D01*
X132558301Y-111102116D01*
X132558301Y-111102123D01*
X132558300Y-111102135D01*
X132558300Y-112897870D01*
X132558301Y-112897876D01*
X132564708Y-112957483D01*
X132615002Y-113092328D01*
X132615006Y-113092335D01*
X132701252Y-113207544D01*
X132701255Y-113207547D01*
X132816464Y-113293793D01*
X132816471Y-113293797D01*
X132951317Y-113344091D01*
X132951316Y-113344091D01*
X132958244Y-113344835D01*
X133010927Y-113350500D01*
X134806672Y-113350499D01*
X134866283Y-113344091D01*
X135001131Y-113293796D01*
X135116346Y-113207546D01*
X135202596Y-113092331D01*
X135252891Y-112957483D01*
X135259300Y-112897873D01*
X135259299Y-111102128D01*
X135252891Y-111042517D01*
X135202596Y-110907669D01*
X135202595Y-110907668D01*
X135202593Y-110907664D01*
X135116347Y-110792455D01*
X135116344Y-110792452D01*
X135001135Y-110706206D01*
X135001128Y-110706202D01*
X134869717Y-110657189D01*
X134813783Y-110615318D01*
X134789366Y-110549853D01*
X134804218Y-110481580D01*
X134825363Y-110453332D01*
X134947295Y-110331401D01*
X135082835Y-110137830D01*
X135182703Y-109923663D01*
X135243863Y-109695408D01*
X135264459Y-109460000D01*
X135243863Y-109224592D01*
X135183685Y-109000003D01*
X135182705Y-108996344D01*
X135182704Y-108996343D01*
X135182703Y-108996337D01*
X135082835Y-108782171D01*
X135081223Y-108779868D01*
X134947294Y-108588597D01*
X134780202Y-108421506D01*
X134780201Y-108421505D01*
X134594205Y-108291269D01*
X134550581Y-108236692D01*
X134543388Y-108167193D01*
X134574910Y-108104839D01*
X134594205Y-108088119D01*
X134779882Y-107958105D01*
X134946905Y-107791082D01*
X135082400Y-107597578D01*
X135182229Y-107383492D01*
X135182232Y-107383486D01*
X135239436Y-107170000D01*
X134341812Y-107170000D01*
X134374725Y-107112993D01*
X134408800Y-106985826D01*
X134408800Y-106854174D01*
X134374725Y-106727007D01*
X134341812Y-106670000D01*
X135239436Y-106670000D01*
X135239435Y-106669999D01*
X135182232Y-106456513D01*
X135182229Y-106456507D01*
X135082400Y-106242422D01*
X135082399Y-106242420D01*
X134946913Y-106048926D01*
X134946908Y-106048920D01*
X134779878Y-105881890D01*
X134594205Y-105751879D01*
X134550580Y-105697302D01*
X134543388Y-105627804D01*
X134574910Y-105565449D01*
X134594206Y-105548730D01*
X134660569Y-105502262D01*
X134780201Y-105418495D01*
X134947295Y-105251401D01*
X135082835Y-105057830D01*
X135182703Y-104843663D01*
X135243863Y-104615408D01*
X135264459Y-104380000D01*
X135243863Y-104144592D01*
X135182703Y-103916337D01*
X135082835Y-103702171D01*
X135082671Y-103701936D01*
X134947294Y-103508597D01*
X134780202Y-103341506D01*
X134780196Y-103341501D01*
X134594642Y-103211575D01*
X134551017Y-103156998D01*
X134543823Y-103087500D01*
X134575346Y-103025145D01*
X134594642Y-103008425D01*
X134616826Y-102992891D01*
X134780201Y-102878495D01*
X134947295Y-102711401D01*
X135082835Y-102517830D01*
X135182703Y-102303663D01*
X135243863Y-102075408D01*
X135264459Y-101840000D01*
X135243863Y-101604592D01*
X135182703Y-101376337D01*
X135082835Y-101162171D01*
X135078451Y-101155909D01*
X134947294Y-100968597D01*
X134780202Y-100801506D01*
X134780196Y-100801501D01*
X134594642Y-100671575D01*
X134551017Y-100616998D01*
X134543823Y-100547500D01*
X134575346Y-100485145D01*
X134594642Y-100468425D01*
X134695386Y-100397883D01*
X134780201Y-100338495D01*
X134947295Y-100171401D01*
X135082835Y-99977830D01*
X135182703Y-99763663D01*
X135243863Y-99535408D01*
X135264459Y-99300000D01*
X135243863Y-99064592D01*
X135182703Y-98836337D01*
X135082835Y-98622171D01*
X135072551Y-98607483D01*
X134947294Y-98428597D01*
X134780202Y-98261506D01*
X134780195Y-98261501D01*
X134586634Y-98125967D01*
X134586630Y-98125965D01*
X134586628Y-98125964D01*
X134372463Y-98026097D01*
X134372459Y-98026096D01*
X134372455Y-98026094D01*
X134144213Y-97964938D01*
X134144203Y-97964936D01*
X133908801Y-97944341D01*
X133908799Y-97944341D01*
X133673396Y-97964936D01*
X133673386Y-97964938D01*
X133445144Y-98026094D01*
X133445135Y-98026098D01*
X133230971Y-98125964D01*
X133230969Y-98125965D01*
X133037397Y-98261505D01*
X132870305Y-98428597D01*
X132734765Y-98622169D01*
X132734764Y-98622171D01*
X132634898Y-98836335D01*
X132634894Y-98836344D01*
X132573738Y-99064586D01*
X132573736Y-99064596D01*
X132553141Y-99299999D01*
X130862570Y-99299999D01*
X130857190Y-99292812D01*
X130857187Y-99292809D01*
X130742093Y-99206649D01*
X130742086Y-99206645D01*
X130607379Y-99156403D01*
X130607372Y-99156401D01*
X130547844Y-99150000D01*
X129750000Y-99150000D01*
X129750000Y-99750000D01*
X129250000Y-99750000D01*
X129250000Y-99150000D01*
X128452155Y-99150000D01*
X128392627Y-99156401D01*
X128392620Y-99156403D01*
X128257913Y-99206645D01*
X128257906Y-99206649D01*
X128142812Y-99292809D01*
X128142809Y-99292812D01*
X128056649Y-99407906D01*
X128056645Y-99407913D01*
X128006403Y-99542620D01*
X128006401Y-99542627D01*
X128000000Y-99602155D01*
X116000499Y-99602155D01*
X116000499Y-99602128D01*
X115994091Y-99542517D01*
X115991441Y-99535413D01*
X115943797Y-99407671D01*
X115943793Y-99407664D01*
X115857547Y-99292455D01*
X115857544Y-99292452D01*
X115742335Y-99206206D01*
X115742328Y-99206202D01*
X115607482Y-99155908D01*
X115607483Y-99155908D01*
X115547883Y-99149501D01*
X115547881Y-99149500D01*
X115547873Y-99149500D01*
X115547864Y-99149500D01*
X113452129Y-99149500D01*
X113452123Y-99149501D01*
X113392516Y-99155908D01*
X113257671Y-99206202D01*
X113257664Y-99206206D01*
X113142457Y-99292451D01*
X113136723Y-99298185D01*
X113075398Y-99331667D01*
X113049045Y-99334500D01*
X112782384Y-99334500D01*
X112781981Y-99334518D01*
X112754024Y-99334518D01*
X112589438Y-99356177D01*
X112556596Y-99360500D01*
X112556595Y-99360500D01*
X112556589Y-99360501D01*
X112364257Y-99412026D01*
X112364237Y-99412033D01*
X112180276Y-99488227D01*
X112180272Y-99488229D01*
X112180269Y-99488230D01*
X112180268Y-99488231D01*
X112098560Y-99535403D01*
X112007809Y-99587795D01*
X111849822Y-99709020D01*
X111849816Y-99709025D01*
X111835557Y-99723283D01*
X111815754Y-99743086D01*
X111815685Y-99743123D01*
X111709004Y-99849806D01*
X111708998Y-99849813D01*
X111587772Y-100007800D01*
X111488214Y-100180249D01*
X111488203Y-100180270D01*
X111412013Y-100364224D01*
X111412004Y-100364250D01*
X111360478Y-100556585D01*
X111334495Y-100754022D01*
X111334500Y-100844091D01*
X111334500Y-101558260D01*
X111314815Y-101625299D01*
X111262011Y-101671054D01*
X111192853Y-101680998D01*
X111129297Y-101651973D01*
X111122819Y-101645941D01*
X111119687Y-101642809D01*
X111004593Y-101556649D01*
X111004586Y-101556645D01*
X110869879Y-101506403D01*
X110869872Y-101506401D01*
X110810344Y-101500000D01*
X108912500Y-101500000D01*
X108912500Y-103850000D01*
X110810328Y-103850000D01*
X110810344Y-103849999D01*
X110869872Y-103843598D01*
X110869879Y-103843596D01*
X111004586Y-103793354D01*
X111004593Y-103793350D01*
X111119687Y-103707190D01*
X111122819Y-103704059D01*
X111126705Y-103701936D01*
X111126788Y-103701875D01*
X111126796Y-103701886D01*
X111184142Y-103670574D01*
X111253834Y-103675558D01*
X111309767Y-103717430D01*
X111334184Y-103782894D01*
X111334500Y-103791740D01*
X111334500Y-104638282D01*
X111333438Y-104654474D01*
X111330220Y-104678906D01*
X111321843Y-104710168D01*
X111315546Y-104725370D01*
X111299360Y-104753403D01*
X111289301Y-104766512D01*
X111266415Y-104789399D01*
X111253416Y-104799374D01*
X111225379Y-104815562D01*
X111210169Y-104821862D01*
X111178913Y-104830238D01*
X111173190Y-104830991D01*
X111154612Y-104833438D01*
X111138427Y-104834500D01*
X110871399Y-104834500D01*
X110804360Y-104814815D01*
X110758605Y-104762011D01*
X110755217Y-104753833D01*
X110706297Y-104622671D01*
X110706293Y-104622664D01*
X110620047Y-104507455D01*
X110620044Y-104507452D01*
X110504835Y-104421206D01*
X110504828Y-104421202D01*
X110369982Y-104370908D01*
X110369983Y-104370908D01*
X110310383Y-104364501D01*
X110310381Y-104364500D01*
X110310373Y-104364500D01*
X110310365Y-104364500D01*
X108624000Y-104364500D01*
X108556961Y-104344815D01*
X108511206Y-104292011D01*
X108500000Y-104240500D01*
X108500000Y-103893000D01*
X108500000Y-101041333D01*
X108519685Y-100974294D01*
X108524800Y-100966933D01*
X108603770Y-100861640D01*
X112371281Y-95838291D01*
X112382784Y-95825028D01*
X113932511Y-94275301D01*
X113993832Y-94241818D01*
X114063524Y-94246802D01*
X114119457Y-94288674D01*
X114143874Y-94354138D01*
X114143718Y-94373791D01*
X114132677Y-94499997D01*
X114132677Y-94500002D01*
X114151929Y-94720062D01*
X114151930Y-94720070D01*
X114209104Y-94933445D01*
X114209105Y-94933447D01*
X114209106Y-94933450D01*
X114302466Y-95133662D01*
X114302468Y-95133666D01*
X114429170Y-95314615D01*
X114429175Y-95314621D01*
X114585378Y-95470824D01*
X114585384Y-95470829D01*
X114766333Y-95597531D01*
X114766335Y-95597532D01*
X114766338Y-95597534D01*
X114966550Y-95690894D01*
X115179932Y-95748070D01*
X115337123Y-95761822D01*
X115399998Y-95767323D01*
X115400000Y-95767323D01*
X115400002Y-95767323D01*
X115455017Y-95762509D01*
X115620068Y-95748070D01*
X115833450Y-95690894D01*
X116033662Y-95597534D01*
X116214620Y-95470826D01*
X116312319Y-95373127D01*
X116373642Y-95339642D01*
X116443334Y-95344626D01*
X116487681Y-95373127D01*
X116585378Y-95470824D01*
X116585384Y-95470829D01*
X116766333Y-95597531D01*
X116766335Y-95597532D01*
X116766338Y-95597534D01*
X116966550Y-95690894D01*
X117179932Y-95748070D01*
X117337123Y-95761822D01*
X117399998Y-95767323D01*
X117400000Y-95767323D01*
X117400002Y-95767323D01*
X117455017Y-95762509D01*
X117620068Y-95748070D01*
X117833450Y-95690894D01*
X118033662Y-95597534D01*
X118214620Y-95470826D01*
X118312319Y-95373127D01*
X118373642Y-95339642D01*
X118443334Y-95344626D01*
X118487681Y-95373127D01*
X118585378Y-95470824D01*
X118585384Y-95470829D01*
X118766333Y-95597531D01*
X118766335Y-95597532D01*
X118766338Y-95597534D01*
X118966550Y-95690894D01*
X119179932Y-95748070D01*
X119337123Y-95761822D01*
X119399998Y-95767323D01*
X119400000Y-95767323D01*
X119400002Y-95767323D01*
X119455017Y-95762509D01*
X119620068Y-95748070D01*
X119833450Y-95690894D01*
X120033662Y-95597534D01*
X120214620Y-95470826D01*
X120312319Y-95373127D01*
X120373642Y-95339642D01*
X120443334Y-95344626D01*
X120487681Y-95373127D01*
X120585378Y-95470824D01*
X120585384Y-95470829D01*
X120766333Y-95597531D01*
X120766335Y-95597532D01*
X120766338Y-95597534D01*
X120966550Y-95690894D01*
X121179932Y-95748070D01*
X121337123Y-95761822D01*
X121399998Y-95767323D01*
X121400000Y-95767323D01*
X121400002Y-95767323D01*
X121455017Y-95762509D01*
X121620068Y-95748070D01*
X121833450Y-95690894D01*
X122033662Y-95597534D01*
X122214620Y-95470826D01*
X122312319Y-95373127D01*
X122373642Y-95339642D01*
X122443334Y-95344626D01*
X122487681Y-95373127D01*
X122585378Y-95470824D01*
X122585384Y-95470829D01*
X122766333Y-95597531D01*
X122766335Y-95597532D01*
X122766338Y-95597534D01*
X122966550Y-95690894D01*
X123179932Y-95748070D01*
X123224543Y-95751972D01*
X123289610Y-95777423D01*
X123330590Y-95834013D01*
X123334469Y-95903775D01*
X123300017Y-95964560D01*
X123238170Y-95997069D01*
X123213737Y-95999500D01*
X123102130Y-95999500D01*
X123102123Y-95999501D01*
X123042520Y-96005908D01*
X123034974Y-96007692D01*
X123034628Y-96006230D01*
X122973622Y-96010584D01*
X122958600Y-96006172D01*
X122957482Y-96005908D01*
X122897883Y-95999501D01*
X122897881Y-95999500D01*
X122897873Y-95999500D01*
X122897864Y-95999500D01*
X122102129Y-95999500D01*
X122102123Y-95999501D01*
X122042516Y-96005908D01*
X121907671Y-96056202D01*
X121907664Y-96056206D01*
X121792455Y-96142452D01*
X121792452Y-96142455D01*
X121706206Y-96257664D01*
X121706202Y-96257671D01*
X121655908Y-96392517D01*
X121649501Y-96452116D01*
X121649501Y-96452123D01*
X121649500Y-96452135D01*
X121649500Y-98547870D01*
X121649501Y-98547876D01*
X121655908Y-98607483D01*
X121706202Y-98742328D01*
X121706206Y-98742335D01*
X121792452Y-98857544D01*
X121792455Y-98857547D01*
X121907664Y-98943793D01*
X121907671Y-98943797D01*
X122042517Y-98994091D01*
X122042516Y-98994091D01*
X122049444Y-98994835D01*
X122102127Y-99000500D01*
X122897872Y-99000499D01*
X122957483Y-98994091D01*
X122957485Y-98994090D01*
X122957487Y-98994090D01*
X122965031Y-98992308D01*
X122965377Y-98993775D01*
X123026342Y-98989408D01*
X123041378Y-98993822D01*
X123042513Y-98994089D01*
X123042517Y-98994091D01*
X123102127Y-99000500D01*
X123897872Y-99000499D01*
X123957483Y-98994091D01*
X123957485Y-98994090D01*
X123957487Y-98994090D01*
X123965031Y-98992308D01*
X123965377Y-98993775D01*
X124026342Y-98989408D01*
X124041378Y-98993822D01*
X124042513Y-98994089D01*
X124042517Y-98994091D01*
X124102127Y-99000500D01*
X124897872Y-99000499D01*
X124957483Y-98994091D01*
X124957485Y-98994090D01*
X124957487Y-98994090D01*
X124965031Y-98992308D01*
X124965377Y-98993775D01*
X125026342Y-98989408D01*
X125041378Y-98993822D01*
X125042513Y-98994089D01*
X125042517Y-98994091D01*
X125102127Y-99000500D01*
X125897872Y-99000499D01*
X125957483Y-98994091D01*
X126092331Y-98943796D01*
X126207546Y-98857546D01*
X126293796Y-98742331D01*
X126344091Y-98607483D01*
X126350500Y-98547873D01*
X126350499Y-96452128D01*
X126344091Y-96392517D01*
X126293796Y-96257669D01*
X126293795Y-96257668D01*
X126293793Y-96257664D01*
X126207547Y-96142455D01*
X126207544Y-96142452D01*
X126092335Y-96056206D01*
X126092328Y-96056202D01*
X125957482Y-96005908D01*
X125957483Y-96005908D01*
X125897883Y-95999501D01*
X125897881Y-95999500D01*
X125897873Y-95999500D01*
X125897865Y-95999500D01*
X125586268Y-95999500D01*
X125519229Y-95979815D01*
X125473474Y-95927011D01*
X125463530Y-95857853D01*
X125492555Y-95794297D01*
X125551333Y-95756523D01*
X125575457Y-95751972D01*
X125620068Y-95748070D01*
X125833450Y-95690894D01*
X126033662Y-95597534D01*
X126214620Y-95470826D01*
X126312319Y-95373127D01*
X126373642Y-95339642D01*
X126443334Y-95344626D01*
X126487681Y-95373127D01*
X126585378Y-95470824D01*
X126585384Y-95470829D01*
X126766333Y-95597531D01*
X126766335Y-95597532D01*
X126766338Y-95597534D01*
X126966550Y-95690894D01*
X127179932Y-95748070D01*
X127337123Y-95761822D01*
X127399998Y-95767323D01*
X127400000Y-95767323D01*
X127400002Y-95767323D01*
X127455017Y-95762509D01*
X127620068Y-95748070D01*
X127833450Y-95690894D01*
X128033662Y-95597534D01*
X128214620Y-95470826D01*
X128312319Y-95373127D01*
X128373642Y-95339642D01*
X128443334Y-95344626D01*
X128487681Y-95373127D01*
X128585378Y-95470824D01*
X128585384Y-95470829D01*
X128766333Y-95597531D01*
X128766335Y-95597532D01*
X128766338Y-95597534D01*
X128966550Y-95690894D01*
X129179932Y-95748070D01*
X129337123Y-95761822D01*
X129399998Y-95767323D01*
X129400000Y-95767323D01*
X129400002Y-95767323D01*
X129455017Y-95762509D01*
X129620068Y-95748070D01*
X129833450Y-95690894D01*
X130033662Y-95597534D01*
X130214620Y-95470826D01*
X130312319Y-95373127D01*
X130373642Y-95339642D01*
X130443334Y-95344626D01*
X130487681Y-95373127D01*
X130585378Y-95470824D01*
X130585384Y-95470829D01*
X130766333Y-95597531D01*
X130766335Y-95597532D01*
X130766338Y-95597534D01*
X130966550Y-95690894D01*
X131179932Y-95748070D01*
X131337123Y-95761822D01*
X131399998Y-95767323D01*
X131400000Y-95767323D01*
X131400002Y-95767323D01*
X131455017Y-95762509D01*
X131620068Y-95748070D01*
X131833450Y-95690894D01*
X132033662Y-95597534D01*
X132214620Y-95470826D01*
X132312319Y-95373127D01*
X132373642Y-95339642D01*
X132443334Y-95344626D01*
X132487681Y-95373127D01*
X132585378Y-95470824D01*
X132585384Y-95470829D01*
X132766333Y-95597531D01*
X132766335Y-95597532D01*
X132766338Y-95597534D01*
X132966550Y-95690894D01*
X133179932Y-95748070D01*
X133337123Y-95761822D01*
X133399998Y-95767323D01*
X133400000Y-95767323D01*
X133400002Y-95767323D01*
X133455017Y-95762509D01*
X133620068Y-95748070D01*
X133833450Y-95690894D01*
X134033662Y-95597534D01*
X134214620Y-95470826D01*
X134370826Y-95314620D01*
X134497534Y-95133662D01*
X134590894Y-94933450D01*
X134648070Y-94720068D01*
X134667323Y-94500000D01*
X134648070Y-94279932D01*
X134590894Y-94066550D01*
X134497534Y-93866339D01*
X134370826Y-93685380D01*
X134214620Y-93529174D01*
X134214616Y-93529171D01*
X134214615Y-93529170D01*
X134033666Y-93402468D01*
X134033662Y-93402466D01*
X133960568Y-93368382D01*
X133833450Y-93309106D01*
X133833447Y-93309105D01*
X133833445Y-93309104D01*
X133620070Y-93251930D01*
X133620062Y-93251929D01*
X133400002Y-93232677D01*
X133399998Y-93232677D01*
X133179937Y-93251929D01*
X133179929Y-93251930D01*
X132966554Y-93309104D01*
X132966548Y-93309107D01*
X132766340Y-93402465D01*
X132766338Y-93402466D01*
X132585381Y-93529172D01*
X132487680Y-93626873D01*
X132426356Y-93660357D01*
X132356665Y-93655373D01*
X132312318Y-93626872D01*
X132214621Y-93529175D01*
X132214615Y-93529170D01*
X132033666Y-93402468D01*
X132033662Y-93402466D01*
X131960568Y-93368382D01*
X131833450Y-93309106D01*
X131833447Y-93309105D01*
X131833445Y-93309104D01*
X131620070Y-93251930D01*
X131620062Y-93251929D01*
X131400002Y-93232677D01*
X131399998Y-93232677D01*
X131179937Y-93251929D01*
X131179929Y-93251930D01*
X130966554Y-93309104D01*
X130966548Y-93309107D01*
X130766340Y-93402465D01*
X130766338Y-93402466D01*
X130585381Y-93529172D01*
X130487680Y-93626873D01*
X130426356Y-93660357D01*
X130356665Y-93655373D01*
X130312318Y-93626872D01*
X130214621Y-93529175D01*
X130214615Y-93529170D01*
X130033666Y-93402468D01*
X130033662Y-93402466D01*
X129960568Y-93368382D01*
X129833450Y-93309106D01*
X129833447Y-93309105D01*
X129833445Y-93309104D01*
X129620070Y-93251930D01*
X129620062Y-93251929D01*
X129400002Y-93232677D01*
X129399998Y-93232677D01*
X129179937Y-93251929D01*
X129179929Y-93251930D01*
X128966554Y-93309104D01*
X128966548Y-93309107D01*
X128766340Y-93402465D01*
X128766338Y-93402466D01*
X128585381Y-93529172D01*
X128487680Y-93626873D01*
X128426356Y-93660357D01*
X128356665Y-93655373D01*
X128312318Y-93626872D01*
X128214621Y-93529175D01*
X128214615Y-93529170D01*
X128033666Y-93402468D01*
X128033662Y-93402466D01*
X127960568Y-93368382D01*
X127833450Y-93309106D01*
X127833447Y-93309105D01*
X127833445Y-93309104D01*
X127620070Y-93251930D01*
X127620062Y-93251929D01*
X127400002Y-93232677D01*
X127399998Y-93232677D01*
X127179937Y-93251929D01*
X127179929Y-93251930D01*
X126966554Y-93309104D01*
X126966548Y-93309107D01*
X126766340Y-93402465D01*
X126766338Y-93402466D01*
X126585381Y-93529172D01*
X126487680Y-93626873D01*
X126426356Y-93660357D01*
X126356665Y-93655373D01*
X126312318Y-93626872D01*
X126214621Y-93529175D01*
X126214615Y-93529170D01*
X126033666Y-93402468D01*
X126033662Y-93402466D01*
X125960568Y-93368382D01*
X125833450Y-93309106D01*
X125833447Y-93309105D01*
X125833445Y-93309104D01*
X125620070Y-93251930D01*
X125620062Y-93251929D01*
X125400002Y-93232677D01*
X125399998Y-93232677D01*
X125179937Y-93251929D01*
X125179929Y-93251930D01*
X124966554Y-93309104D01*
X124966548Y-93309107D01*
X124766340Y-93402465D01*
X124766338Y-93402466D01*
X124585381Y-93529172D01*
X124487680Y-93626873D01*
X124426356Y-93660357D01*
X124356665Y-93655373D01*
X124312318Y-93626872D01*
X124214621Y-93529175D01*
X124214615Y-93529170D01*
X124033666Y-93402468D01*
X124033662Y-93402466D01*
X123960568Y-93368382D01*
X123833450Y-93309106D01*
X123833447Y-93309105D01*
X123833445Y-93309104D01*
X123620070Y-93251930D01*
X123620062Y-93251929D01*
X123400002Y-93232677D01*
X123399998Y-93232677D01*
X123179937Y-93251929D01*
X123179929Y-93251930D01*
X122966554Y-93309104D01*
X122966548Y-93309107D01*
X122766340Y-93402465D01*
X122766338Y-93402466D01*
X122585381Y-93529172D01*
X122487680Y-93626873D01*
X122426356Y-93660357D01*
X122356665Y-93655373D01*
X122312318Y-93626872D01*
X122214621Y-93529175D01*
X122214615Y-93529170D01*
X122033666Y-93402468D01*
X122033662Y-93402466D01*
X121960568Y-93368382D01*
X121833450Y-93309106D01*
X121833447Y-93309105D01*
X121833445Y-93309104D01*
X121620070Y-93251930D01*
X121620062Y-93251929D01*
X121400002Y-93232677D01*
X121399998Y-93232677D01*
X121179937Y-93251929D01*
X121179929Y-93251930D01*
X120966554Y-93309104D01*
X120966548Y-93309107D01*
X120766340Y-93402465D01*
X120766338Y-93402466D01*
X120585381Y-93529172D01*
X120487680Y-93626873D01*
X120426356Y-93660357D01*
X120356665Y-93655373D01*
X120312318Y-93626872D01*
X120214621Y-93529175D01*
X120214615Y-93529170D01*
X120033666Y-93402468D01*
X120033662Y-93402466D01*
X119960568Y-93368382D01*
X119833450Y-93309106D01*
X119833447Y-93309105D01*
X119833445Y-93309104D01*
X119620070Y-93251930D01*
X119620062Y-93251929D01*
X119400002Y-93232677D01*
X119399998Y-93232677D01*
X119179937Y-93251929D01*
X119179929Y-93251930D01*
X118966554Y-93309104D01*
X118966548Y-93309107D01*
X118766340Y-93402465D01*
X118766338Y-93402466D01*
X118585381Y-93529172D01*
X118487680Y-93626873D01*
X118426356Y-93660357D01*
X118356665Y-93655373D01*
X118312318Y-93626872D01*
X118214621Y-93529175D01*
X118214615Y-93529170D01*
X118033666Y-93402468D01*
X118033662Y-93402466D01*
X117960568Y-93368382D01*
X117833450Y-93309106D01*
X117833447Y-93309105D01*
X117833445Y-93309104D01*
X117620070Y-93251930D01*
X117620062Y-93251929D01*
X117400002Y-93232677D01*
X117399998Y-93232677D01*
X117179937Y-93251929D01*
X117179929Y-93251930D01*
X116966554Y-93309104D01*
X116966548Y-93309107D01*
X116766340Y-93402465D01*
X116766338Y-93402466D01*
X116585381Y-93529172D01*
X116487680Y-93626873D01*
X116426356Y-93660357D01*
X116356665Y-93655373D01*
X116312318Y-93626872D01*
X116214621Y-93529175D01*
X116214615Y-93529170D01*
X116033666Y-93402468D01*
X116033662Y-93402466D01*
X115960568Y-93368382D01*
X115833450Y-93309106D01*
X115833447Y-93309105D01*
X115833445Y-93309104D01*
X115620070Y-93251930D01*
X115620062Y-93251929D01*
X115400002Y-93232677D01*
X115399998Y-93232677D01*
X115179937Y-93251929D01*
X115179923Y-93251932D01*
X115140370Y-93262530D01*
X115070521Y-93260867D01*
X115012658Y-93221704D01*
X114985155Y-93157475D01*
X114988503Y-93110663D01*
X115000500Y-93065893D01*
X115000500Y-92934108D01*
X115000500Y-91019492D01*
X115000742Y-91011757D01*
X115000948Y-91008454D01*
X115003636Y-90965456D01*
X115002956Y-90962089D01*
X115000500Y-90937533D01*
X115000500Y-90934109D01*
X115000500Y-90934108D01*
X114999450Y-90930189D01*
X114999531Y-90926756D01*
X114999439Y-90926051D01*
X114999548Y-90926036D01*
X115001115Y-90860339D01*
X115040280Y-90802478D01*
X115104509Y-90774975D01*
X115119226Y-90774099D01*
X116321471Y-90774099D01*
X116321472Y-90774099D01*
X116381083Y-90767691D01*
X116515931Y-90717396D01*
X116631146Y-90631146D01*
X116654842Y-90599492D01*
X116710774Y-90557621D01*
X116780466Y-90552637D01*
X116825232Y-90572229D01*
X116877938Y-90609134D01*
X117078150Y-90702494D01*
X117291532Y-90759670D01*
X117448723Y-90773422D01*
X117511598Y-90778923D01*
X117511600Y-90778923D01*
X117511602Y-90778923D01*
X117566751Y-90774098D01*
X117731668Y-90759670D01*
X117945050Y-90702494D01*
X118145262Y-90609134D01*
X118326220Y-90482426D01*
X118423919Y-90384727D01*
X118485242Y-90351242D01*
X118554934Y-90356226D01*
X118599281Y-90384727D01*
X118696978Y-90482424D01*
X118696984Y-90482429D01*
X118877933Y-90609131D01*
X118877935Y-90609132D01*
X118877938Y-90609134D01*
X119078150Y-90702494D01*
X119291532Y-90759670D01*
X119448723Y-90773422D01*
X119511598Y-90778923D01*
X119511600Y-90778923D01*
X119511602Y-90778923D01*
X119566751Y-90774098D01*
X119731668Y-90759670D01*
X119945050Y-90702494D01*
X120145262Y-90609134D01*
X120326220Y-90482426D01*
X120423919Y-90384727D01*
X120485242Y-90351242D01*
X120554934Y-90356226D01*
X120599281Y-90384727D01*
X120696978Y-90482424D01*
X120696984Y-90482429D01*
X120877933Y-90609131D01*
X120877935Y-90609132D01*
X120877938Y-90609134D01*
X121078150Y-90702494D01*
X121291532Y-90759670D01*
X121448723Y-90773422D01*
X121511598Y-90778923D01*
X121511600Y-90778923D01*
X121511602Y-90778923D01*
X121566751Y-90774098D01*
X121731668Y-90759670D01*
X121945050Y-90702494D01*
X122145262Y-90609134D01*
X122326220Y-90482426D01*
X122423919Y-90384727D01*
X122485242Y-90351242D01*
X122554934Y-90356226D01*
X122599281Y-90384727D01*
X122696978Y-90482424D01*
X122696984Y-90482429D01*
X122877933Y-90609131D01*
X122877935Y-90609132D01*
X122877938Y-90609134D01*
X123078150Y-90702494D01*
X123291532Y-90759670D01*
X123448723Y-90773422D01*
X123511598Y-90778923D01*
X123511600Y-90778923D01*
X123511602Y-90778923D01*
X123566751Y-90774098D01*
X123731668Y-90759670D01*
X123945050Y-90702494D01*
X124145262Y-90609134D01*
X124326220Y-90482426D01*
X124423919Y-90384727D01*
X124485242Y-90351242D01*
X124554934Y-90356226D01*
X124599281Y-90384727D01*
X124696978Y-90482424D01*
X124696984Y-90482429D01*
X124877933Y-90609131D01*
X124877935Y-90609132D01*
X124877938Y-90609134D01*
X125078150Y-90702494D01*
X125291532Y-90759670D01*
X125448723Y-90773422D01*
X125511598Y-90778923D01*
X125511600Y-90778923D01*
X125511602Y-90778923D01*
X125566751Y-90774098D01*
X125731668Y-90759670D01*
X125945050Y-90702494D01*
X126145262Y-90609134D01*
X126326220Y-90482426D01*
X126423919Y-90384727D01*
X126485242Y-90351242D01*
X126554934Y-90356226D01*
X126599281Y-90384727D01*
X126696978Y-90482424D01*
X126696984Y-90482429D01*
X126877933Y-90609131D01*
X126877935Y-90609132D01*
X126877938Y-90609134D01*
X127078150Y-90702494D01*
X127291532Y-90759670D01*
X127448723Y-90773422D01*
X127511598Y-90778923D01*
X127511600Y-90778923D01*
X127511602Y-90778923D01*
X127566751Y-90774098D01*
X127731668Y-90759670D01*
X127945050Y-90702494D01*
X128145262Y-90609134D01*
X128326220Y-90482426D01*
X128423919Y-90384727D01*
X128485242Y-90351242D01*
X128554934Y-90356226D01*
X128599281Y-90384727D01*
X128696978Y-90482424D01*
X128696984Y-90482429D01*
X128877933Y-90609131D01*
X128877935Y-90609132D01*
X128877938Y-90609134D01*
X129078150Y-90702494D01*
X129291532Y-90759670D01*
X129448723Y-90773422D01*
X129511598Y-90778923D01*
X129511600Y-90778923D01*
X129511602Y-90778923D01*
X129566751Y-90774098D01*
X129731668Y-90759670D01*
X129945050Y-90702494D01*
X130145262Y-90609134D01*
X130326220Y-90482426D01*
X130423919Y-90384727D01*
X130485242Y-90351242D01*
X130554934Y-90356226D01*
X130599281Y-90384727D01*
X130696978Y-90482424D01*
X130696984Y-90482429D01*
X130877933Y-90609131D01*
X130877935Y-90609132D01*
X130877938Y-90609134D01*
X131078150Y-90702494D01*
X131291532Y-90759670D01*
X131448723Y-90773422D01*
X131511598Y-90778923D01*
X131511600Y-90778923D01*
X131511602Y-90778923D01*
X131566751Y-90774098D01*
X131731668Y-90759670D01*
X131945050Y-90702494D01*
X132145262Y-90609134D01*
X132326220Y-90482426D01*
X132482426Y-90326220D01*
X132609134Y-90145262D01*
X132673943Y-90006276D01*
X132698643Y-89971001D01*
X133130600Y-89539044D01*
X133130600Y-89561760D01*
X133156564Y-89658661D01*
X133206724Y-89745540D01*
X133277660Y-89816476D01*
X133364539Y-89866636D01*
X133461440Y-89892600D01*
X133484153Y-89892600D01*
X132813410Y-90563340D01*
X132878190Y-90608699D01*
X132878192Y-90608700D01*
X133078315Y-90702019D01*
X133078329Y-90702024D01*
X133291613Y-90759173D01*
X133291623Y-90759175D01*
X133511599Y-90778421D01*
X133511601Y-90778421D01*
X133731576Y-90759175D01*
X133731586Y-90759173D01*
X133944870Y-90702024D01*
X133944884Y-90702019D01*
X134145007Y-90608700D01*
X134145017Y-90608694D01*
X134209788Y-90563341D01*
X133539048Y-89892600D01*
X133561760Y-89892600D01*
X133658661Y-89866636D01*
X133745540Y-89816476D01*
X133816476Y-89745540D01*
X133866636Y-89658661D01*
X133892600Y-89561760D01*
X133892600Y-89539047D01*
X134563341Y-90209788D01*
X134608694Y-90145017D01*
X134608700Y-90145007D01*
X134702019Y-89944884D01*
X134702024Y-89944870D01*
X134759173Y-89731586D01*
X134759175Y-89731576D01*
X134778421Y-89511600D01*
X134778421Y-89511599D01*
X134759175Y-89291623D01*
X134759173Y-89291613D01*
X134702024Y-89078329D01*
X134702020Y-89078320D01*
X134608696Y-88878186D01*
X134563341Y-88813411D01*
X134563340Y-88813410D01*
X133892600Y-89484151D01*
X133892600Y-89461440D01*
X133866636Y-89364539D01*
X133816476Y-89277660D01*
X133745540Y-89206724D01*
X133658661Y-89156564D01*
X133561760Y-89130600D01*
X133539048Y-89130600D01*
X134209788Y-88459859D01*
X134209787Y-88459858D01*
X134145011Y-88414501D01*
X134145005Y-88414498D01*
X133944884Y-88321180D01*
X133944870Y-88321175D01*
X133731586Y-88264026D01*
X133731576Y-88264024D01*
X133511601Y-88244779D01*
X133511599Y-88244779D01*
X133291623Y-88264024D01*
X133291613Y-88264026D01*
X133078329Y-88321175D01*
X133078320Y-88321179D01*
X132878190Y-88414501D01*
X132813411Y-88459858D01*
X133484153Y-89130600D01*
X133461440Y-89130600D01*
X133364539Y-89156564D01*
X133277660Y-89206724D01*
X133206724Y-89277660D01*
X133156564Y-89364539D01*
X133130600Y-89461440D01*
X133130600Y-89484153D01*
X132698641Y-89052194D01*
X132673941Y-89016919D01*
X132609134Y-88877939D01*
X132511600Y-88738645D01*
X132482427Y-88696981D01*
X132423918Y-88638472D01*
X132326220Y-88540774D01*
X132326216Y-88540771D01*
X132326215Y-88540770D01*
X132145266Y-88414068D01*
X132145262Y-88414066D01*
X132098057Y-88392054D01*
X131945050Y-88320706D01*
X131945047Y-88320705D01*
X131945045Y-88320704D01*
X131731670Y-88263530D01*
X131731662Y-88263529D01*
X131511602Y-88244277D01*
X131511598Y-88244277D01*
X131291537Y-88263529D01*
X131291529Y-88263530D01*
X131078154Y-88320704D01*
X131078148Y-88320707D01*
X130877940Y-88414065D01*
X130877938Y-88414066D01*
X130696981Y-88540772D01*
X130599280Y-88638473D01*
X130537956Y-88671957D01*
X130468265Y-88666973D01*
X130423918Y-88638472D01*
X130326221Y-88540775D01*
X130326215Y-88540770D01*
X130145266Y-88414068D01*
X130145262Y-88414066D01*
X130098057Y-88392054D01*
X129945050Y-88320706D01*
X129945047Y-88320705D01*
X129945045Y-88320704D01*
X129731670Y-88263530D01*
X129731662Y-88263529D01*
X129511602Y-88244277D01*
X129511598Y-88244277D01*
X129291537Y-88263529D01*
X129291529Y-88263530D01*
X129078154Y-88320704D01*
X129078148Y-88320707D01*
X128877940Y-88414065D01*
X128877938Y-88414066D01*
X128696981Y-88540772D01*
X128599280Y-88638473D01*
X128537956Y-88671957D01*
X128468265Y-88666973D01*
X128423918Y-88638472D01*
X128326221Y-88540775D01*
X128326215Y-88540770D01*
X128145266Y-88414068D01*
X128145262Y-88414066D01*
X128098057Y-88392054D01*
X127945050Y-88320706D01*
X127945047Y-88320705D01*
X127945045Y-88320704D01*
X127731670Y-88263530D01*
X127731662Y-88263529D01*
X127511602Y-88244277D01*
X127511598Y-88244277D01*
X127291537Y-88263529D01*
X127291529Y-88263530D01*
X127078154Y-88320704D01*
X127078148Y-88320707D01*
X126877940Y-88414065D01*
X126877938Y-88414066D01*
X126696981Y-88540772D01*
X126599280Y-88638473D01*
X126537956Y-88671957D01*
X126468265Y-88666973D01*
X126423918Y-88638472D01*
X126326221Y-88540775D01*
X126326215Y-88540770D01*
X126145266Y-88414068D01*
X126145262Y-88414066D01*
X126098057Y-88392054D01*
X125945050Y-88320706D01*
X125945047Y-88320705D01*
X125945045Y-88320704D01*
X125731670Y-88263530D01*
X125731662Y-88263529D01*
X125511602Y-88244277D01*
X125511598Y-88244277D01*
X125291537Y-88263529D01*
X125291529Y-88263530D01*
X125078154Y-88320704D01*
X125078148Y-88320707D01*
X124877940Y-88414065D01*
X124877938Y-88414066D01*
X124696981Y-88540772D01*
X124599280Y-88638473D01*
X124537956Y-88671957D01*
X124468265Y-88666973D01*
X124423918Y-88638472D01*
X124326221Y-88540775D01*
X124326215Y-88540770D01*
X124145266Y-88414068D01*
X124145262Y-88414066D01*
X124098057Y-88392054D01*
X123945050Y-88320706D01*
X123945047Y-88320705D01*
X123945045Y-88320704D01*
X123731670Y-88263530D01*
X123731662Y-88263529D01*
X123511602Y-88244277D01*
X123511598Y-88244277D01*
X123291537Y-88263529D01*
X123291529Y-88263530D01*
X123078154Y-88320704D01*
X123078148Y-88320707D01*
X122877940Y-88414065D01*
X122877938Y-88414066D01*
X122696981Y-88540772D01*
X122599280Y-88638473D01*
X122537956Y-88671957D01*
X122468265Y-88666973D01*
X122423918Y-88638472D01*
X122326221Y-88540775D01*
X122326215Y-88540770D01*
X122145266Y-88414068D01*
X122145262Y-88414066D01*
X122098057Y-88392054D01*
X121945050Y-88320706D01*
X121945047Y-88320705D01*
X121945045Y-88320704D01*
X121731670Y-88263530D01*
X121731662Y-88263529D01*
X121511602Y-88244277D01*
X121511598Y-88244277D01*
X121291537Y-88263529D01*
X121291529Y-88263530D01*
X121078154Y-88320704D01*
X121078148Y-88320707D01*
X120877940Y-88414065D01*
X120877932Y-88414069D01*
X120877330Y-88414492D01*
X120877022Y-88414595D01*
X120873253Y-88416772D01*
X120872815Y-88416013D01*
X120811121Y-88436810D01*
X120743356Y-88419790D01*
X120695550Y-88368836D01*
X120682882Y-88300124D01*
X120689180Y-88271952D01*
X120691954Y-88264026D01*
X120716034Y-88195208D01*
X120737586Y-88133617D01*
X120737586Y-88133614D01*
X120737634Y-88133194D01*
X120739261Y-88118747D01*
X120742814Y-88087218D01*
X120769880Y-88022804D01*
X120827474Y-87983248D01*
X120866034Y-87977100D01*
X121098213Y-87977100D01*
X121098216Y-87977100D01*
X121168796Y-87970686D01*
X121331206Y-87920078D01*
X121412449Y-87870963D01*
X121480004Y-87853127D01*
X121540750Y-87870963D01*
X121621994Y-87920078D01*
X121784404Y-87970686D01*
X121854984Y-87977100D01*
X121854987Y-87977100D01*
X122368213Y-87977100D01*
X122368216Y-87977100D01*
X122438796Y-87970686D01*
X122601206Y-87920078D01*
X122682449Y-87870963D01*
X122750004Y-87853127D01*
X122810750Y-87870963D01*
X122891994Y-87920078D01*
X123054404Y-87970686D01*
X123124984Y-87977100D01*
X123124987Y-87977100D01*
X123638213Y-87977100D01*
X123638216Y-87977100D01*
X123708796Y-87970686D01*
X123871206Y-87920078D01*
X123952449Y-87870963D01*
X124020004Y-87853127D01*
X124080750Y-87870963D01*
X124161994Y-87920078D01*
X124324404Y-87970686D01*
X124394984Y-87977100D01*
X124394987Y-87977100D01*
X124908213Y-87977100D01*
X124908216Y-87977100D01*
X124978796Y-87970686D01*
X125141206Y-87920078D01*
X125222449Y-87870963D01*
X125290004Y-87853127D01*
X125350750Y-87870963D01*
X125431994Y-87920078D01*
X125594404Y-87970686D01*
X125664984Y-87977100D01*
X125664987Y-87977100D01*
X126178213Y-87977100D01*
X126178216Y-87977100D01*
X126248796Y-87970686D01*
X126411206Y-87920078D01*
X126492449Y-87870963D01*
X126560004Y-87853127D01*
X126620750Y-87870963D01*
X126701994Y-87920078D01*
X126864404Y-87970686D01*
X126934984Y-87977100D01*
X126934987Y-87977100D01*
X127448213Y-87977100D01*
X127448216Y-87977100D01*
X127518796Y-87970686D01*
X127681206Y-87920078D01*
X127762449Y-87870963D01*
X127830004Y-87853127D01*
X127890750Y-87870963D01*
X127971994Y-87920078D01*
X128134404Y-87970686D01*
X128204984Y-87977100D01*
X128204987Y-87977100D01*
X128718213Y-87977100D01*
X128718216Y-87977100D01*
X128788796Y-87970686D01*
X128951206Y-87920078D01*
X129032449Y-87870963D01*
X129100004Y-87853127D01*
X129160750Y-87870963D01*
X129241994Y-87920078D01*
X129404404Y-87970686D01*
X129474984Y-87977100D01*
X129474987Y-87977100D01*
X129988213Y-87977100D01*
X129988216Y-87977100D01*
X130058796Y-87970686D01*
X130221206Y-87920078D01*
X130302449Y-87870963D01*
X130370004Y-87853127D01*
X130430750Y-87870963D01*
X130511994Y-87920078D01*
X130674404Y-87970686D01*
X130744984Y-87977100D01*
X130744987Y-87977100D01*
X131258213Y-87977100D01*
X131258216Y-87977100D01*
X131328796Y-87970686D01*
X131491206Y-87920078D01*
X131636785Y-87832072D01*
X131757072Y-87711785D01*
X131845078Y-87566206D01*
X131895686Y-87403796D01*
X131902100Y-87333216D01*
X131902100Y-85348514D01*
X131921785Y-85281475D01*
X131974589Y-85235720D01*
X132043747Y-85225776D01*
X132103413Y-85251567D01*
X132253384Y-85371165D01*
X132450455Y-85494994D01*
X132450460Y-85494997D01*
X132643301Y-85587864D01*
X132695161Y-85634686D01*
X132713500Y-85699584D01*
X132713500Y-86048069D01*
X132713501Y-86048076D01*
X132719908Y-86107683D01*
X132770202Y-86242528D01*
X132770206Y-86242535D01*
X132856452Y-86357744D01*
X132856455Y-86357747D01*
X132971664Y-86443993D01*
X132971671Y-86443997D01*
X133106517Y-86494291D01*
X133106516Y-86494291D01*
X133113444Y-86495035D01*
X133166127Y-86500700D01*
X134961872Y-86500699D01*
X135021483Y-86494291D01*
X135156331Y-86443996D01*
X135271546Y-86357746D01*
X135357796Y-86242531D01*
X135408091Y-86107683D01*
X135414500Y-86048073D01*
X135414499Y-84252328D01*
X135408091Y-84192717D01*
X135381821Y-84122284D01*
X135357797Y-84057871D01*
X135357793Y-84057864D01*
X135271547Y-83942655D01*
X135271544Y-83942652D01*
X135156335Y-83856406D01*
X135156328Y-83856402D01*
X135024917Y-83807389D01*
X134968983Y-83765518D01*
X134944566Y-83700053D01*
X134959418Y-83631780D01*
X134980563Y-83603532D01*
X135102495Y-83481601D01*
X135238035Y-83288030D01*
X135337903Y-83073863D01*
X135399063Y-82845608D01*
X135419659Y-82610200D01*
X135399063Y-82374792D01*
X135337903Y-82146537D01*
X135238035Y-81932371D01*
X135143378Y-81797185D01*
X135102494Y-81738797D01*
X134935402Y-81571706D01*
X134935401Y-81571705D01*
X134749405Y-81441469D01*
X134705781Y-81386892D01*
X134698588Y-81317393D01*
X134730110Y-81255039D01*
X134749405Y-81238319D01*
X134935082Y-81108305D01*
X135102105Y-80941282D01*
X135237600Y-80747778D01*
X135337429Y-80533692D01*
X135337432Y-80533686D01*
X135394636Y-80320200D01*
X134497012Y-80320200D01*
X134529925Y-80263193D01*
X134564000Y-80136026D01*
X134564000Y-80004374D01*
X134529925Y-79877207D01*
X134497012Y-79820200D01*
X135394636Y-79820200D01*
X135394635Y-79820199D01*
X135337432Y-79606713D01*
X135337429Y-79606707D01*
X135237600Y-79392622D01*
X135237599Y-79392620D01*
X135102113Y-79199126D01*
X135102108Y-79199120D01*
X134935078Y-79032090D01*
X134749405Y-78902079D01*
X134705780Y-78847502D01*
X134698588Y-78778004D01*
X134730110Y-78715649D01*
X134749406Y-78698930D01*
X134935401Y-78568695D01*
X135102495Y-78401601D01*
X135238035Y-78208030D01*
X135337903Y-77993863D01*
X135399063Y-77765608D01*
X135419659Y-77530200D01*
X135418609Y-77518204D01*
X135407306Y-77389011D01*
X135399063Y-77294792D01*
X135337903Y-77066537D01*
X135238035Y-76852371D01*
X135204299Y-76804190D01*
X135102494Y-76658797D01*
X134935402Y-76491706D01*
X134935396Y-76491701D01*
X134749842Y-76361775D01*
X134706217Y-76307198D01*
X134699023Y-76237700D01*
X134730546Y-76175345D01*
X134749842Y-76158625D01*
X134772026Y-76143091D01*
X134935401Y-76028695D01*
X135102495Y-75861601D01*
X135238035Y-75668030D01*
X135337903Y-75453863D01*
X135399063Y-75225608D01*
X135419659Y-74990200D01*
X135399063Y-74754792D01*
X135337903Y-74526537D01*
X135238035Y-74312371D01*
X135224607Y-74293193D01*
X135102494Y-74118797D01*
X134935402Y-73951706D01*
X134935396Y-73951701D01*
X134749842Y-73821775D01*
X134706217Y-73767198D01*
X134699023Y-73697700D01*
X134730546Y-73635345D01*
X134749842Y-73618625D01*
X134919010Y-73500172D01*
X134935401Y-73488695D01*
X135102495Y-73321601D01*
X135238035Y-73128030D01*
X135337903Y-72913863D01*
X135399063Y-72685608D01*
X135419659Y-72450200D01*
X135399063Y-72214792D01*
X135337903Y-71986537D01*
X135238035Y-71772371D01*
X135207490Y-71728747D01*
X135102494Y-71578797D01*
X134935402Y-71411706D01*
X134935395Y-71411701D01*
X134741831Y-71276165D01*
X134741829Y-71276164D01*
X134624952Y-71221663D01*
X134572513Y-71175490D01*
X134566877Y-71165586D01*
X134479559Y-70994220D01*
X134361331Y-70831496D01*
X134328056Y-70798221D01*
X134328053Y-70798219D01*
X134290221Y-70760385D01*
X134290218Y-70760382D01*
X134238659Y-70708825D01*
X134238657Y-70708823D01*
X134233562Y-70703729D01*
X134233480Y-70703656D01*
X134219098Y-70689274D01*
X134219090Y-70689267D01*
X134056379Y-70571048D01*
X133877161Y-70479729D01*
X133877157Y-70479728D01*
X133685869Y-70417572D01*
X133487201Y-70386101D01*
X133471807Y-70386101D01*
X133471783Y-70386100D01*
X133465677Y-70386100D01*
X133386638Y-70386100D01*
X133313724Y-70386098D01*
X133313723Y-70386098D01*
X133306139Y-70386098D01*
X133306107Y-70386100D01*
X132026100Y-70386100D01*
X131959061Y-70366415D01*
X131913306Y-70313611D01*
X131902100Y-70262100D01*
X131902100Y-69879986D01*
X131895686Y-69809407D01*
X131895686Y-69809404D01*
X131845078Y-69646994D01*
X131757072Y-69501415D01*
X131757070Y-69501413D01*
X131757069Y-69501411D01*
X131636788Y-69381130D01*
X131636599Y-69381016D01*
X131491206Y-69293122D01*
X131328796Y-69242514D01*
X131328794Y-69242513D01*
X131328792Y-69242513D01*
X131279378Y-69238023D01*
X131258216Y-69236100D01*
X130744984Y-69236100D01*
X130725745Y-69237848D01*
X130674407Y-69242513D01*
X130511993Y-69293122D01*
X130430750Y-69342236D01*
X130363195Y-69360072D01*
X130302450Y-69342236D01*
X130221206Y-69293122D01*
X130058796Y-69242514D01*
X130058794Y-69242513D01*
X130058792Y-69242513D01*
X130009378Y-69238023D01*
X129988216Y-69236100D01*
X129474984Y-69236100D01*
X129455745Y-69237848D01*
X129404407Y-69242513D01*
X129241993Y-69293122D01*
X129160750Y-69342236D01*
X129093195Y-69360072D01*
X129032450Y-69342236D01*
X128951206Y-69293122D01*
X128788796Y-69242514D01*
X128788794Y-69242513D01*
X128788792Y-69242513D01*
X128739378Y-69238023D01*
X128718216Y-69236100D01*
X128204984Y-69236100D01*
X128185745Y-69237848D01*
X128134407Y-69242513D01*
X127971991Y-69293123D01*
X127890265Y-69342528D01*
X127822710Y-69360364D01*
X127761967Y-69342528D01*
X127681001Y-69293582D01*
X127680993Y-69293579D01*
X127518705Y-69243009D01*
X127518706Y-69243009D01*
X127448172Y-69236600D01*
X126935017Y-69236600D01*
X126864497Y-69243008D01*
X126864492Y-69243009D01*
X126702204Y-69293580D01*
X126621232Y-69342529D01*
X126553677Y-69360364D01*
X126492933Y-69342528D01*
X126411206Y-69293122D01*
X126248796Y-69242514D01*
X126248794Y-69242513D01*
X126248792Y-69242513D01*
X126199378Y-69238023D01*
X126178216Y-69236100D01*
X125664984Y-69236100D01*
X125645745Y-69237848D01*
X125594407Y-69242513D01*
X125431993Y-69293122D01*
X125350750Y-69342236D01*
X125283195Y-69360072D01*
X125222450Y-69342236D01*
X125141206Y-69293122D01*
X124978796Y-69242514D01*
X124978794Y-69242513D01*
X124978792Y-69242513D01*
X124929378Y-69238023D01*
X124908216Y-69236100D01*
X124394984Y-69236100D01*
X124375745Y-69237848D01*
X124324407Y-69242513D01*
X124161993Y-69293122D01*
X124080750Y-69342236D01*
X124013195Y-69360072D01*
X123952450Y-69342236D01*
X123871206Y-69293122D01*
X123708796Y-69242514D01*
X123708794Y-69242513D01*
X123708792Y-69242513D01*
X123659378Y-69238023D01*
X123638216Y-69236100D01*
X123124984Y-69236100D01*
X123105745Y-69237848D01*
X123054407Y-69242513D01*
X122891993Y-69293122D01*
X122810750Y-69342236D01*
X122743195Y-69360072D01*
X122682450Y-69342236D01*
X122601206Y-69293122D01*
X122438796Y-69242514D01*
X122438794Y-69242513D01*
X122438792Y-69242513D01*
X122389378Y-69238023D01*
X122368216Y-69236100D01*
X121854984Y-69236100D01*
X121835745Y-69237848D01*
X121784407Y-69242513D01*
X121621993Y-69293122D01*
X121540750Y-69342236D01*
X121473195Y-69360072D01*
X121412450Y-69342236D01*
X121331206Y-69293122D01*
X121168796Y-69242514D01*
X121168794Y-69242513D01*
X121168792Y-69242513D01*
X121119378Y-69238023D01*
X121098216Y-69236100D01*
X120584984Y-69236100D01*
X120565745Y-69237848D01*
X120514407Y-69242513D01*
X120351993Y-69293122D01*
X120270750Y-69342236D01*
X120203195Y-69360072D01*
X120142450Y-69342236D01*
X120061206Y-69293122D01*
X119898796Y-69242514D01*
X119898794Y-69242513D01*
X119898792Y-69242513D01*
X119849378Y-69238023D01*
X119828216Y-69236100D01*
X119314984Y-69236100D01*
X119295745Y-69237848D01*
X119244407Y-69242513D01*
X119081993Y-69293122D01*
X119000750Y-69342236D01*
X118933195Y-69360072D01*
X118872450Y-69342236D01*
X118791206Y-69293122D01*
X118628796Y-69242514D01*
X118628794Y-69242513D01*
X118628792Y-69242513D01*
X118579378Y-69238023D01*
X118558216Y-69236100D01*
X118044984Y-69236100D01*
X118025745Y-69237848D01*
X117974407Y-69242513D01*
X117811993Y-69293122D01*
X117730750Y-69342236D01*
X117663195Y-69360072D01*
X117602450Y-69342236D01*
X117521206Y-69293122D01*
X117358796Y-69242514D01*
X117358794Y-69242513D01*
X117358792Y-69242513D01*
X117309378Y-69238023D01*
X117288216Y-69236100D01*
X116774984Y-69236100D01*
X116755745Y-69237848D01*
X116704407Y-69242513D01*
X116541993Y-69293122D01*
X116460750Y-69342236D01*
X116393195Y-69360072D01*
X116332450Y-69342236D01*
X116251206Y-69293122D01*
X116088796Y-69242514D01*
X116088794Y-69242513D01*
X116088792Y-69242513D01*
X116039378Y-69238023D01*
X116018216Y-69236100D01*
X115504984Y-69236100D01*
X115485745Y-69237848D01*
X115434407Y-69242513D01*
X115271993Y-69293122D01*
X115190750Y-69342236D01*
X115123195Y-69360072D01*
X115062450Y-69342236D01*
X114981206Y-69293122D01*
X114818796Y-69242514D01*
X114818794Y-69242513D01*
X114818792Y-69242513D01*
X114769378Y-69238023D01*
X114748216Y-69236100D01*
X114234984Y-69236100D01*
X114215745Y-69237848D01*
X114164407Y-69242513D01*
X114001993Y-69293122D01*
X113920750Y-69342236D01*
X113853195Y-69360072D01*
X113792450Y-69342236D01*
X113711206Y-69293122D01*
X113548796Y-69242514D01*
X113548794Y-69242513D01*
X113548792Y-69242513D01*
X113499378Y-69238023D01*
X113478216Y-69236100D01*
X112964984Y-69236100D01*
X112945745Y-69237848D01*
X112894407Y-69242513D01*
X112731993Y-69293122D01*
X112586411Y-69381130D01*
X112466130Y-69501411D01*
X112378122Y-69646993D01*
X112327513Y-69809407D01*
X112321100Y-69879986D01*
X112321100Y-72093213D01*
X112327513Y-72163792D01*
X112327513Y-72163794D01*
X112327514Y-72163796D01*
X112378122Y-72326206D01*
X112453079Y-72450200D01*
X112466130Y-72471788D01*
X112586411Y-72592069D01*
X112586413Y-72592070D01*
X112586415Y-72592072D01*
X112731994Y-72680078D01*
X112894404Y-72730686D01*
X112964984Y-72737100D01*
X112964987Y-72737100D01*
X113478213Y-72737100D01*
X113478216Y-72737100D01*
X113548796Y-72730686D01*
X113637151Y-72703153D01*
X113707010Y-72702002D01*
X113766402Y-72738803D01*
X113779034Y-72755567D01*
X113827752Y-72833101D01*
X113861784Y-72887262D01*
X113989338Y-73014816D01*
X114142078Y-73110789D01*
X114312345Y-73170368D01*
X114312350Y-73170369D01*
X114491596Y-73190565D01*
X114491600Y-73190565D01*
X114491604Y-73190565D01*
X114670849Y-73170369D01*
X114670852Y-73170368D01*
X114670855Y-73170368D01*
X114841122Y-73110789D01*
X114993862Y-73014816D01*
X115121416Y-72887262D01*
X115127299Y-72877899D01*
X115179631Y-72831607D01*
X115248684Y-72820956D01*
X115298266Y-72838875D01*
X115441814Y-72929073D01*
X115441818Y-72929074D01*
X115441819Y-72929075D01*
X115612086Y-72988654D01*
X115612091Y-72988655D01*
X115791337Y-73008851D01*
X115791341Y-73008851D01*
X115791345Y-73008851D01*
X115970590Y-72988655D01*
X115970593Y-72988654D01*
X115970596Y-72988654D01*
X116140863Y-72929075D01*
X116293603Y-72833102D01*
X116416279Y-72710426D01*
X116477602Y-72676941D01*
X116540849Y-72679721D01*
X116541993Y-72680077D01*
X116541994Y-72680078D01*
X116704404Y-72730686D01*
X116774984Y-72737100D01*
X116774987Y-72737100D01*
X117288213Y-72737100D01*
X117288216Y-72737100D01*
X117358796Y-72730686D01*
X117521206Y-72680078D01*
X117602449Y-72630963D01*
X117670004Y-72613127D01*
X117730750Y-72630963D01*
X117811994Y-72680078D01*
X117974404Y-72730686D01*
X118044984Y-72737100D01*
X118044987Y-72737100D01*
X118558213Y-72737100D01*
X118558216Y-72737100D01*
X118628796Y-72730686D01*
X118716817Y-72703257D01*
X118786674Y-72702108D01*
X118846067Y-72738909D01*
X118850646Y-72744324D01*
X118854582Y-72749259D01*
X118854584Y-72749262D01*
X118982138Y-72876816D01*
X119065306Y-72929074D01*
X119096669Y-72948781D01*
X119134878Y-72972789D01*
X119296134Y-73029215D01*
X119305145Y-73032368D01*
X119305150Y-73032369D01*
X119484396Y-73052565D01*
X119484400Y-73052565D01*
X119484404Y-73052565D01*
X119663649Y-73032369D01*
X119663652Y-73032368D01*
X119663655Y-73032368D01*
X119833922Y-72972789D01*
X119986662Y-72876816D01*
X120114216Y-72749262D01*
X120115592Y-72747073D01*
X120146333Y-72698148D01*
X120198667Y-72651856D01*
X120267721Y-72641207D01*
X120315474Y-72658001D01*
X120351994Y-72680078D01*
X120514404Y-72730686D01*
X120584984Y-72737100D01*
X120584987Y-72737100D01*
X121098213Y-72737100D01*
X121098216Y-72737100D01*
X121168796Y-72730686D01*
X121331206Y-72680078D01*
X121412449Y-72630963D01*
X121480004Y-72613127D01*
X121540750Y-72630963D01*
X121621994Y-72680078D01*
X121784404Y-72730686D01*
X121854984Y-72737100D01*
X121854987Y-72737100D01*
X122368213Y-72737100D01*
X122368216Y-72737100D01*
X122438796Y-72730686D01*
X122601206Y-72680078D01*
X122682449Y-72630963D01*
X122750004Y-72613127D01*
X122810750Y-72630963D01*
X122891994Y-72680078D01*
X123054404Y-72730686D01*
X123124984Y-72737100D01*
X123124987Y-72737100D01*
X123638213Y-72737100D01*
X123638216Y-72737100D01*
X123708796Y-72730686D01*
X123871206Y-72680078D01*
X123952449Y-72630963D01*
X124020004Y-72613127D01*
X124080750Y-72630963D01*
X124161994Y-72680078D01*
X124324404Y-72730686D01*
X124394984Y-72737100D01*
X124394987Y-72737100D01*
X124908213Y-72737100D01*
X124908216Y-72737100D01*
X124978796Y-72730686D01*
X125141206Y-72680078D01*
X125222449Y-72630963D01*
X125290004Y-72613127D01*
X125350750Y-72630963D01*
X125431994Y-72680078D01*
X125594404Y-72730686D01*
X125664984Y-72737100D01*
X125664987Y-72737100D01*
X126178213Y-72737100D01*
X126178216Y-72737100D01*
X126248796Y-72730686D01*
X126411206Y-72680078D01*
X126492935Y-72630670D01*
X126560489Y-72612835D01*
X126621234Y-72630671D01*
X126702203Y-72679619D01*
X126702206Y-72679620D01*
X126864494Y-72730190D01*
X126864493Y-72730190D01*
X126935027Y-72736599D01*
X127448181Y-72736599D01*
X127518698Y-72730192D01*
X127526381Y-72727798D01*
X127596241Y-72726644D01*
X127655635Y-72763443D01*
X127668269Y-72780209D01*
X127744582Y-72901660D01*
X127744584Y-72901662D01*
X127872138Y-73029216D01*
X127909298Y-73052565D01*
X128001960Y-73110789D01*
X128024878Y-73125189D01*
X128050236Y-73134062D01*
X128195145Y-73184768D01*
X128195150Y-73184769D01*
X128374396Y-73204965D01*
X128374400Y-73204965D01*
X128374404Y-73204965D01*
X128553649Y-73184769D01*
X128553652Y-73184768D01*
X128553655Y-73184768D01*
X128723922Y-73125189D01*
X128876662Y-73029216D01*
X129004216Y-72901662D01*
X129100189Y-72748922D01*
X129100190Y-72748917D01*
X129101079Y-72747073D01*
X129101974Y-72746081D01*
X129103894Y-72743026D01*
X129104428Y-72743362D01*
X129147896Y-72695208D01*
X129215321Y-72676888D01*
X129249690Y-72682476D01*
X129282839Y-72692805D01*
X129340987Y-72731542D01*
X129357669Y-72757387D01*
X129428635Y-72904754D01*
X129572714Y-73134059D01*
X129741561Y-73345792D01*
X129777076Y-73381308D01*
X129777099Y-73381334D01*
X129781410Y-73385645D01*
X129781411Y-73385646D01*
X129837306Y-73441541D01*
X129884457Y-73488693D01*
X129895930Y-73500166D01*
X129895937Y-73500172D01*
X131108116Y-74712351D01*
X131108126Y-74712362D01*
X131112450Y-74716686D01*
X131112451Y-74716687D01*
X131127679Y-74731915D01*
X131127700Y-74731953D01*
X131164000Y-74768252D01*
X131164000Y-74768253D01*
X131261547Y-74865798D01*
X131474824Y-75040826D01*
X131474828Y-75040829D01*
X131704227Y-75194105D01*
X131704228Y-75194105D01*
X131704229Y-75194106D01*
X131947554Y-75324163D01*
X132202454Y-75429744D01*
X132466476Y-75509833D01*
X132466490Y-75509835D01*
X132466495Y-75509837D01*
X132524630Y-75521400D01*
X132737076Y-75563658D01*
X132737085Y-75563658D01*
X132737091Y-75563660D01*
X132766978Y-75566602D01*
X132775957Y-75567487D01*
X132840745Y-75593646D01*
X132876188Y-75638485D01*
X132889965Y-75668029D01*
X132889967Y-75668034D01*
X133025501Y-75861595D01*
X133025506Y-75861602D01*
X133192597Y-76028693D01*
X133192603Y-76028698D01*
X133378158Y-76158625D01*
X133421783Y-76213202D01*
X133428977Y-76282700D01*
X133397454Y-76345055D01*
X133378158Y-76361775D01*
X133192597Y-76491705D01*
X133025505Y-76658797D01*
X132889965Y-76852369D01*
X132889964Y-76852371D01*
X132790098Y-77066535D01*
X132790094Y-77066544D01*
X132728938Y-77294786D01*
X132728936Y-77294796D01*
X132708341Y-77530199D01*
X132708341Y-77530200D01*
X132728936Y-77765603D01*
X132728938Y-77765613D01*
X132790094Y-77993855D01*
X132790096Y-77993859D01*
X132790097Y-77993863D01*
X132889965Y-78208030D01*
X132889967Y-78208034D01*
X133025501Y-78401595D01*
X133025506Y-78401602D01*
X133192597Y-78568693D01*
X133192603Y-78568698D01*
X133378594Y-78698930D01*
X133422219Y-78753507D01*
X133429413Y-78823005D01*
X133397890Y-78885360D01*
X133378595Y-78902080D01*
X133192922Y-79032090D01*
X133192920Y-79032091D01*
X133025891Y-79199120D01*
X133025886Y-79199126D01*
X132890400Y-79392620D01*
X132890399Y-79392622D01*
X132790570Y-79606707D01*
X132790567Y-79606713D01*
X132733364Y-79820199D01*
X132733364Y-79820200D01*
X133630988Y-79820200D01*
X133598075Y-79877207D01*
X133564000Y-80004374D01*
X133564000Y-80136026D01*
X133598075Y-80263193D01*
X133630988Y-80320200D01*
X132733364Y-80320200D01*
X132790567Y-80533686D01*
X132790570Y-80533692D01*
X132890399Y-80747778D01*
X133025894Y-80941282D01*
X133192917Y-81108305D01*
X133378595Y-81238319D01*
X133422219Y-81292896D01*
X133429412Y-81362395D01*
X133397890Y-81424749D01*
X133378595Y-81441469D01*
X133192594Y-81571708D01*
X133025505Y-81738797D01*
X132889965Y-81932369D01*
X132889964Y-81932371D01*
X132828775Y-82063592D01*
X132790887Y-82144844D01*
X132790098Y-82146535D01*
X132790094Y-82146544D01*
X132728938Y-82374786D01*
X132728936Y-82374796D01*
X132717448Y-82506108D01*
X132691995Y-82571176D01*
X132635404Y-82612155D01*
X132593920Y-82619300D01*
X128114541Y-82619300D01*
X128114390Y-82619309D01*
X128059458Y-82619309D01*
X127995984Y-82625560D01*
X127777876Y-82647039D01*
X127500346Y-82702240D01*
X127312954Y-82759083D01*
X127229577Y-82784375D01*
X127229574Y-82784376D01*
X127229568Y-82784378D01*
X126968168Y-82892652D01*
X126968161Y-82892655D01*
X126848709Y-82956503D01*
X126718614Y-83026039D01*
X126718601Y-83026047D01*
X126483350Y-83183235D01*
X126483345Y-83183239D01*
X126264615Y-83362746D01*
X126224820Y-83402542D01*
X126224810Y-83402550D01*
X126224811Y-83402551D01*
X126220480Y-83406881D01*
X126220480Y-83406882D01*
X126164581Y-83462781D01*
X126164580Y-83462782D01*
X126145761Y-83481600D01*
X126145762Y-83481601D01*
X126032077Y-83595287D01*
X126032076Y-83595286D01*
X125984007Y-83643356D01*
X125800651Y-83873279D01*
X125644189Y-84122286D01*
X125516597Y-84387233D01*
X125516591Y-84387247D01*
X125489278Y-84465304D01*
X125448556Y-84522080D01*
X125436386Y-84530466D01*
X125350748Y-84582235D01*
X125283193Y-84600071D01*
X125222450Y-84582235D01*
X125141208Y-84533123D01*
X125141207Y-84533122D01*
X125141206Y-84533122D01*
X124978796Y-84482514D01*
X124978794Y-84482513D01*
X124978792Y-84482513D01*
X124929378Y-84478023D01*
X124908216Y-84476100D01*
X124394984Y-84476100D01*
X124375745Y-84477848D01*
X124324407Y-84482513D01*
X124161993Y-84533122D01*
X124096284Y-84572844D01*
X124080752Y-84582235D01*
X124080750Y-84582236D01*
X124013195Y-84600072D01*
X123952450Y-84582236D01*
X123952448Y-84582235D01*
X123871206Y-84533122D01*
X123708796Y-84482514D01*
X123708794Y-84482513D01*
X123708792Y-84482513D01*
X123659378Y-84478023D01*
X123638216Y-84476100D01*
X123124984Y-84476100D01*
X123105745Y-84477848D01*
X123054407Y-84482513D01*
X122891993Y-84533122D01*
X122826284Y-84572844D01*
X122810752Y-84582235D01*
X122810750Y-84582236D01*
X122743195Y-84600072D01*
X122682450Y-84582236D01*
X122682448Y-84582235D01*
X122601206Y-84533122D01*
X122438796Y-84482514D01*
X122438794Y-84482513D01*
X122438792Y-84482513D01*
X122389378Y-84478023D01*
X122368216Y-84476100D01*
X121854984Y-84476100D01*
X121835745Y-84477848D01*
X121784407Y-84482513D01*
X121621993Y-84533122D01*
X121556284Y-84572844D01*
X121540752Y-84582235D01*
X121540750Y-84582236D01*
X121473195Y-84600072D01*
X121412450Y-84582236D01*
X121412448Y-84582235D01*
X121331206Y-84533122D01*
X121168796Y-84482514D01*
X121168794Y-84482513D01*
X121168792Y-84482513D01*
X121119378Y-84478023D01*
X121098216Y-84476100D01*
X120584984Y-84476100D01*
X120565745Y-84477848D01*
X120514407Y-84482513D01*
X120351993Y-84533122D01*
X120286284Y-84572844D01*
X120270752Y-84582235D01*
X120270750Y-84582236D01*
X120203195Y-84600072D01*
X120142450Y-84582236D01*
X120142448Y-84582235D01*
X120061206Y-84533122D01*
X119898796Y-84482514D01*
X119898794Y-84482513D01*
X119898792Y-84482513D01*
X119849378Y-84478023D01*
X119828216Y-84476100D01*
X119314984Y-84476100D01*
X119295745Y-84477848D01*
X119244407Y-84482513D01*
X119081993Y-84533122D01*
X119016284Y-84572844D01*
X119000752Y-84582235D01*
X119000750Y-84582236D01*
X118933195Y-84600072D01*
X118872450Y-84582236D01*
X118872448Y-84582235D01*
X118791206Y-84533122D01*
X118628796Y-84482514D01*
X118628794Y-84482513D01*
X118628792Y-84482513D01*
X118579378Y-84478023D01*
X118558216Y-84476100D01*
X118044984Y-84476100D01*
X118025745Y-84477848D01*
X117974407Y-84482513D01*
X117811993Y-84533122D01*
X117746284Y-84572844D01*
X117730752Y-84582235D01*
X117730750Y-84582236D01*
X117663195Y-84600072D01*
X117602450Y-84582236D01*
X117602448Y-84582235D01*
X117521206Y-84533122D01*
X117358796Y-84482514D01*
X117358794Y-84482513D01*
X117358792Y-84482513D01*
X117309378Y-84478023D01*
X117288216Y-84476100D01*
X116774984Y-84476100D01*
X116755745Y-84477848D01*
X116704407Y-84482513D01*
X116541991Y-84533123D01*
X116460265Y-84582528D01*
X116392710Y-84600364D01*
X116331967Y-84582528D01*
X116251001Y-84533582D01*
X116250993Y-84533579D01*
X116088705Y-84483009D01*
X116088706Y-84483009D01*
X116018172Y-84476600D01*
X115505017Y-84476600D01*
X115434497Y-84483008D01*
X115434488Y-84483009D01*
X115317990Y-84519312D01*
X115248130Y-84520463D01*
X115188737Y-84483662D01*
X115158670Y-84420594D01*
X115157100Y-84400927D01*
X115157100Y-82663373D01*
X115157088Y-82663135D01*
X115157088Y-82608206D01*
X115157089Y-82546299D01*
X115127476Y-82170000D01*
X115068430Y-81797185D01*
X115004301Y-81530067D01*
X114980317Y-81430163D01*
X114980310Y-81430140D01*
X114978558Y-81424749D01*
X114863674Y-81071164D01*
X114832341Y-80995520D01*
X123661099Y-80995520D01*
X123689940Y-81140507D01*
X123689943Y-81140517D01*
X123746512Y-81277088D01*
X123746519Y-81277101D01*
X123828648Y-81400015D01*
X123828651Y-81400019D01*
X123933180Y-81504548D01*
X123933184Y-81504551D01*
X124056098Y-81586680D01*
X124056111Y-81586687D01*
X124192682Y-81643256D01*
X124192687Y-81643258D01*
X124192691Y-81643258D01*
X124192692Y-81643259D01*
X124337679Y-81672100D01*
X124337682Y-81672100D01*
X124485520Y-81672100D01*
X124583062Y-81652696D01*
X124630513Y-81643258D01*
X124767095Y-81586684D01*
X124890016Y-81504551D01*
X124994551Y-81400016D01*
X125076684Y-81277095D01*
X125133258Y-81140513D01*
X125162100Y-80995518D01*
X125162100Y-80847682D01*
X125162100Y-80847679D01*
X125133259Y-80702692D01*
X125133258Y-80702691D01*
X125133258Y-80702687D01*
X125107135Y-80639620D01*
X125076687Y-80566111D01*
X125076680Y-80566098D01*
X124994551Y-80443184D01*
X124994548Y-80443180D01*
X124890019Y-80338651D01*
X124890015Y-80338648D01*
X124767101Y-80256519D01*
X124767088Y-80256512D01*
X124630517Y-80199943D01*
X124630507Y-80199940D01*
X124485520Y-80171100D01*
X124485518Y-80171100D01*
X124337682Y-80171100D01*
X124337680Y-80171100D01*
X124192692Y-80199940D01*
X124192682Y-80199943D01*
X124056111Y-80256512D01*
X124056098Y-80256519D01*
X123933184Y-80338648D01*
X123933180Y-80338651D01*
X123828651Y-80443180D01*
X123828648Y-80443184D01*
X123746519Y-80566098D01*
X123746512Y-80566111D01*
X123689943Y-80702682D01*
X123689940Y-80702692D01*
X123661100Y-80847679D01*
X123661100Y-80847682D01*
X123661100Y-80995518D01*
X123661100Y-80995520D01*
X123661099Y-80995520D01*
X114832341Y-80995520D01*
X114719226Y-80722434D01*
X114709167Y-80702692D01*
X114547873Y-80386131D01*
X114547869Y-80386125D01*
X114547863Y-80386112D01*
X114350640Y-80064272D01*
X114128774Y-79758899D01*
X113883632Y-79471874D01*
X113800872Y-79389114D01*
X113800844Y-79389083D01*
X113639501Y-79227740D01*
X113639492Y-79227724D01*
X113464599Y-79052831D01*
X113178329Y-78812624D01*
X113178328Y-78812623D01*
X113128886Y-78778004D01*
X112872206Y-78598276D01*
X112548571Y-78411426D01*
X112548566Y-78411423D01*
X112548561Y-78411421D01*
X112209887Y-78253496D01*
X112209879Y-78253493D01*
X111858712Y-78125679D01*
X111497759Y-78028964D01*
X111497762Y-78028964D01*
X111497752Y-78028962D01*
X111476086Y-78025141D01*
X111413484Y-77994115D01*
X111377594Y-77934168D01*
X111374330Y-77916279D01*
X111367691Y-77854516D01*
X111317397Y-77719671D01*
X111317393Y-77719664D01*
X111231147Y-77604455D01*
X111231144Y-77604452D01*
X111115935Y-77518206D01*
X111115928Y-77518202D01*
X110981082Y-77467908D01*
X110981083Y-77467908D01*
X110921483Y-77461501D01*
X110921481Y-77461500D01*
X110921473Y-77461500D01*
X110921465Y-77461500D01*
X108624000Y-77461500D01*
X108556961Y-77441815D01*
X108511206Y-77389011D01*
X108500000Y-77337500D01*
X108500000Y-77071000D01*
X108519685Y-77003961D01*
X108572489Y-76958206D01*
X108624000Y-76947000D01*
X109023600Y-76947000D01*
X109523600Y-76947000D01*
X111421428Y-76947000D01*
X111421444Y-76946999D01*
X111480972Y-76940598D01*
X111480979Y-76940596D01*
X111615686Y-76890354D01*
X111615693Y-76890350D01*
X111730787Y-76804190D01*
X111730790Y-76804187D01*
X111816950Y-76689093D01*
X111816954Y-76689086D01*
X111867196Y-76554379D01*
X111867198Y-76554372D01*
X111873599Y-76494844D01*
X111873600Y-76494827D01*
X111873600Y-76022000D01*
X109523600Y-76022000D01*
X109523600Y-76947000D01*
X109023600Y-76947000D01*
X109023600Y-75522000D01*
X109523600Y-75522000D01*
X111873600Y-75522000D01*
X111873600Y-75049172D01*
X111873599Y-75049155D01*
X111867198Y-74989627D01*
X111867196Y-74989620D01*
X111816954Y-74854913D01*
X111816950Y-74854906D01*
X111730790Y-74739812D01*
X111730787Y-74739809D01*
X111615693Y-74653649D01*
X111615686Y-74653645D01*
X111480979Y-74603403D01*
X111480972Y-74603401D01*
X111421444Y-74597000D01*
X109523600Y-74597000D01*
X109523600Y-75522000D01*
X109023600Y-75522000D01*
X109023600Y-74597000D01*
X108624000Y-74597000D01*
X108556961Y-74577315D01*
X108511206Y-74524511D01*
X108500000Y-74473000D01*
X108500000Y-74038513D01*
X108519685Y-73971474D01*
X108521819Y-73968263D01*
X108533203Y-73951705D01*
X110720044Y-70770844D01*
X110726487Y-70762292D01*
X113403526Y-67511602D01*
X114198998Y-66545672D01*
X114256810Y-66506436D01*
X114294717Y-66500500D01*
X114440149Y-66500500D01*
X114507188Y-66520185D01*
G37*
%TD.AperFunction*%
%TA.AperFunction,Conductor*%
G36*
X111473369Y-79406223D02*
G01*
X111693249Y-79484897D01*
X111704470Y-79489545D01*
X111955053Y-79608061D01*
X111965780Y-79613796D01*
X112203524Y-79756294D01*
X112213641Y-79763054D01*
X112339639Y-79856499D01*
X112436273Y-79928168D01*
X112445672Y-79935881D01*
X112587329Y-80064270D01*
X112653205Y-80123976D01*
X112657613Y-80128173D01*
X112806864Y-80277424D01*
X112811061Y-80281832D01*
X113033776Y-80527561D01*
X113041496Y-80536967D01*
X113237245Y-80800905D01*
X113244005Y-80811023D01*
X113399927Y-81071164D01*
X113412930Y-81092857D01*
X113418664Y-81103585D01*
X113490297Y-81255039D01*
X113559160Y-81400638D01*
X113563817Y-81411881D01*
X113674517Y-81721271D01*
X113678049Y-81732916D01*
X113757887Y-82051657D01*
X113760261Y-82063592D01*
X113808474Y-82388626D01*
X113809667Y-82400736D01*
X113825951Y-82732231D01*
X113826100Y-82738315D01*
X113826100Y-84400928D01*
X113806415Y-84467967D01*
X113753611Y-84513722D01*
X113684453Y-84523666D01*
X113665210Y-84519313D01*
X113548705Y-84483009D01*
X113548706Y-84483009D01*
X113478172Y-84476600D01*
X112965017Y-84476600D01*
X112894497Y-84483008D01*
X112894492Y-84483009D01*
X112732203Y-84533581D01*
X112586722Y-84621527D01*
X112466527Y-84741722D01*
X112378581Y-84887203D01*
X112378580Y-84887205D01*
X112344648Y-84996093D01*
X112344648Y-84996095D01*
X113487471Y-86138918D01*
X113520956Y-86200241D01*
X113515972Y-86269933D01*
X113487471Y-86314280D01*
X112344648Y-87457103D01*
X112339111Y-87479570D01*
X112303954Y-87539951D01*
X112241735Y-87571739D01*
X112172206Y-87564843D01*
X112121886Y-87527357D01*
X111518437Y-86773046D01*
X112321600Y-86773046D01*
X112868047Y-86226600D01*
X112868047Y-86226599D01*
X112321600Y-85680152D01*
X112321600Y-86773046D01*
X111518437Y-86773046D01*
X108527172Y-83033965D01*
X108500664Y-82969319D01*
X108500000Y-82956503D01*
X108500000Y-82721000D01*
X108519685Y-82653961D01*
X108572489Y-82608206D01*
X108624000Y-82597000D01*
X109023600Y-82597000D01*
X109523600Y-82597000D01*
X111421428Y-82597000D01*
X111421444Y-82596999D01*
X111480972Y-82590598D01*
X111480979Y-82590596D01*
X111615686Y-82540354D01*
X111615693Y-82540350D01*
X111730787Y-82454190D01*
X111730790Y-82454187D01*
X111816950Y-82339093D01*
X111816954Y-82339086D01*
X111867196Y-82204379D01*
X111867198Y-82204372D01*
X111873599Y-82144844D01*
X111873600Y-82144827D01*
X111873600Y-81672000D01*
X109523600Y-81672000D01*
X109523600Y-82597000D01*
X109023600Y-82597000D01*
X109023600Y-81172000D01*
X109523600Y-81172000D01*
X111873600Y-81172000D01*
X111873600Y-80699172D01*
X111873599Y-80699155D01*
X111867198Y-80639627D01*
X111867196Y-80639620D01*
X111816954Y-80504913D01*
X111816950Y-80504906D01*
X111730790Y-80389812D01*
X111730787Y-80389809D01*
X111615693Y-80303649D01*
X111615686Y-80303645D01*
X111480979Y-80253403D01*
X111480972Y-80253401D01*
X111421444Y-80247000D01*
X109523600Y-80247000D01*
X109523600Y-81172000D01*
X109023600Y-81172000D01*
X109023600Y-80247000D01*
X108624000Y-80247000D01*
X108556961Y-80227315D01*
X108511206Y-80174511D01*
X108500000Y-80123000D01*
X108500000Y-79856499D01*
X108519685Y-79789460D01*
X108572489Y-79743705D01*
X108623997Y-79732499D01*
X110921472Y-79732499D01*
X110981083Y-79726091D01*
X111115931Y-79675796D01*
X111231146Y-79589546D01*
X111317396Y-79474331D01*
X111317397Y-79474325D01*
X111321646Y-79466548D01*
X111324184Y-79467934D01*
X111357262Y-79423727D01*
X111422720Y-79399294D01*
X111473369Y-79406223D01*
G37*
%TD.AperFunction*%
%TA.AperFunction,Conductor*%
G36*
X132849196Y-71606785D02*
G01*
X132894951Y-71659589D01*
X132904895Y-71728747D01*
X132891599Y-71767159D01*
X132892253Y-71767464D01*
X132790098Y-71986535D01*
X132790094Y-71986544D01*
X132728938Y-72214786D01*
X132728936Y-72214796D01*
X132708341Y-72450199D01*
X132708341Y-72450200D01*
X132728936Y-72685603D01*
X132728938Y-72685613D01*
X132790094Y-72913855D01*
X132790096Y-72913859D01*
X132790097Y-72913863D01*
X132854775Y-73052565D01*
X132889965Y-73128030D01*
X132889967Y-73128034D01*
X133025501Y-73321595D01*
X133025506Y-73321602D01*
X133192597Y-73488693D01*
X133192603Y-73488698D01*
X133378158Y-73618625D01*
X133421783Y-73673202D01*
X133428977Y-73742700D01*
X133397454Y-73805055D01*
X133378158Y-73821775D01*
X133192597Y-73951705D01*
X133025508Y-74118794D01*
X132903393Y-74293193D01*
X132848816Y-74336817D01*
X132779317Y-74344010D01*
X132777627Y-74343686D01*
X132741636Y-74336527D01*
X132725969Y-74332330D01*
X132542293Y-74269982D01*
X132527309Y-74263775D01*
X132353351Y-74177991D01*
X132339303Y-74169881D01*
X132178030Y-74062123D01*
X132165162Y-74052249D01*
X132016417Y-73921807D01*
X132010494Y-73916259D01*
X131043016Y-72948781D01*
X131009531Y-72887458D01*
X131014515Y-72817766D01*
X131056387Y-72761833D01*
X131121851Y-72737416D01*
X131130697Y-72737100D01*
X131258213Y-72737100D01*
X131258216Y-72737100D01*
X131328796Y-72730686D01*
X131491206Y-72680078D01*
X131636785Y-72592072D01*
X131757072Y-72471785D01*
X131845078Y-72326206D01*
X131895686Y-72163796D01*
X131902100Y-72093216D01*
X131902100Y-71711100D01*
X131921785Y-71644061D01*
X131974589Y-71598306D01*
X132026100Y-71587100D01*
X132782157Y-71587100D01*
X132849196Y-71606785D01*
G37*
%TD.AperFunction*%
%TD*%
M02*
