%TF.GenerationSoftware,KiCad,Pcbnew,8.0.2*%
%TF.CreationDate,2025-09-09T09:28:48+02:00*%
%TF.ProjectId,e77,6537372e-6b69-4636-9164-5f7063625858,rev?*%
%TF.SameCoordinates,Original*%
%TF.FileFunction,Other,Comment*%
%FSLAX46Y46*%
G04 Gerber Fmt 4.6, Leading zero omitted, Abs format (unit mm)*
G04 Created by KiCad (PCBNEW 8.0.2) date 2025-09-09 09:28:48*
%MOMM*%
%LPD*%
G01*
G04 APERTURE LIST*
%ADD10C,0.150000*%
G04 APERTURE END LIST*
D10*
X114043509Y-114690476D02*
X114091128Y-114547619D01*
X114091128Y-114547619D02*
X114138747Y-114500000D01*
X114138747Y-114500000D02*
X114233985Y-114452381D01*
X114233985Y-114452381D02*
X114376842Y-114452381D01*
X114376842Y-114452381D02*
X114472080Y-114500000D01*
X114472080Y-114500000D02*
X114519700Y-114547619D01*
X114519700Y-114547619D02*
X114567319Y-114642857D01*
X114567319Y-114642857D02*
X114567319Y-115023809D01*
X114567319Y-115023809D02*
X113567319Y-115023809D01*
X113567319Y-115023809D02*
X113567319Y-114690476D01*
X113567319Y-114690476D02*
X113614938Y-114595238D01*
X113614938Y-114595238D02*
X113662557Y-114547619D01*
X113662557Y-114547619D02*
X113757795Y-114500000D01*
X113757795Y-114500000D02*
X113853033Y-114500000D01*
X113853033Y-114500000D02*
X113948271Y-114547619D01*
X113948271Y-114547619D02*
X113995890Y-114595238D01*
X113995890Y-114595238D02*
X114043509Y-114690476D01*
X114043509Y-114690476D02*
X114043509Y-115023809D01*
X114567319Y-113880952D02*
X114519700Y-113976190D01*
X114519700Y-113976190D02*
X114472080Y-114023809D01*
X114472080Y-114023809D02*
X114376842Y-114071428D01*
X114376842Y-114071428D02*
X114091128Y-114071428D01*
X114091128Y-114071428D02*
X113995890Y-114023809D01*
X113995890Y-114023809D02*
X113948271Y-113976190D01*
X113948271Y-113976190D02*
X113900652Y-113880952D01*
X113900652Y-113880952D02*
X113900652Y-113738095D01*
X113900652Y-113738095D02*
X113948271Y-113642857D01*
X113948271Y-113642857D02*
X113995890Y-113595238D01*
X113995890Y-113595238D02*
X114091128Y-113547619D01*
X114091128Y-113547619D02*
X114376842Y-113547619D01*
X114376842Y-113547619D02*
X114472080Y-113595238D01*
X114472080Y-113595238D02*
X114519700Y-113642857D01*
X114519700Y-113642857D02*
X114567319Y-113738095D01*
X114567319Y-113738095D02*
X114567319Y-113880952D01*
X114567319Y-112690476D02*
X114043509Y-112690476D01*
X114043509Y-112690476D02*
X113948271Y-112738095D01*
X113948271Y-112738095D02*
X113900652Y-112833333D01*
X113900652Y-112833333D02*
X113900652Y-113023809D01*
X113900652Y-113023809D02*
X113948271Y-113119047D01*
X114519700Y-112690476D02*
X114567319Y-112785714D01*
X114567319Y-112785714D02*
X114567319Y-113023809D01*
X114567319Y-113023809D02*
X114519700Y-113119047D01*
X114519700Y-113119047D02*
X114424461Y-113166666D01*
X114424461Y-113166666D02*
X114329223Y-113166666D01*
X114329223Y-113166666D02*
X114233985Y-113119047D01*
X114233985Y-113119047D02*
X114186366Y-113023809D01*
X114186366Y-113023809D02*
X114186366Y-112785714D01*
X114186366Y-112785714D02*
X114138747Y-112690476D01*
X114567319Y-112214285D02*
X113900652Y-112214285D01*
X114091128Y-112214285D02*
X113995890Y-112166666D01*
X113995890Y-112166666D02*
X113948271Y-112119047D01*
X113948271Y-112119047D02*
X113900652Y-112023809D01*
X113900652Y-112023809D02*
X113900652Y-111928571D01*
X114567319Y-111166666D02*
X113567319Y-111166666D01*
X114519700Y-111166666D02*
X114567319Y-111261904D01*
X114567319Y-111261904D02*
X114567319Y-111452380D01*
X114567319Y-111452380D02*
X114519700Y-111547618D01*
X114519700Y-111547618D02*
X114472080Y-111595237D01*
X114472080Y-111595237D02*
X114376842Y-111642856D01*
X114376842Y-111642856D02*
X114091128Y-111642856D01*
X114091128Y-111642856D02*
X113995890Y-111595237D01*
X113995890Y-111595237D02*
X113948271Y-111547618D01*
X113948271Y-111547618D02*
X113900652Y-111452380D01*
X113900652Y-111452380D02*
X113900652Y-111261904D01*
X113900652Y-111261904D02*
X113948271Y-111166666D01*
X113567319Y-110071427D02*
X113567319Y-109499999D01*
X114567319Y-109785713D02*
X113567319Y-109785713D01*
X114567319Y-109166665D02*
X113567319Y-109166665D01*
X114567319Y-108738094D02*
X114043509Y-108738094D01*
X114043509Y-108738094D02*
X113948271Y-108785713D01*
X113948271Y-108785713D02*
X113900652Y-108880951D01*
X113900652Y-108880951D02*
X113900652Y-109023808D01*
X113900652Y-109023808D02*
X113948271Y-109119046D01*
X113948271Y-109119046D02*
X113995890Y-109166665D01*
X114567319Y-108261903D02*
X113900652Y-108261903D01*
X113567319Y-108261903D02*
X113614938Y-108309522D01*
X113614938Y-108309522D02*
X113662557Y-108261903D01*
X113662557Y-108261903D02*
X113614938Y-108214284D01*
X113614938Y-108214284D02*
X113567319Y-108261903D01*
X113567319Y-108261903D02*
X113662557Y-108261903D01*
X114519700Y-107357142D02*
X114567319Y-107452380D01*
X114567319Y-107452380D02*
X114567319Y-107642856D01*
X114567319Y-107642856D02*
X114519700Y-107738094D01*
X114519700Y-107738094D02*
X114472080Y-107785713D01*
X114472080Y-107785713D02*
X114376842Y-107833332D01*
X114376842Y-107833332D02*
X114091128Y-107833332D01*
X114091128Y-107833332D02*
X113995890Y-107785713D01*
X113995890Y-107785713D02*
X113948271Y-107738094D01*
X113948271Y-107738094D02*
X113900652Y-107642856D01*
X113900652Y-107642856D02*
X113900652Y-107452380D01*
X113900652Y-107452380D02*
X113948271Y-107357142D01*
X114567319Y-106928570D02*
X113567319Y-106928570D01*
X114186366Y-106833332D02*
X114567319Y-106547618D01*
X113900652Y-106547618D02*
X114281604Y-106928570D01*
X113900652Y-106119046D02*
X114567319Y-106119046D01*
X113995890Y-106119046D02*
X113948271Y-106071427D01*
X113948271Y-106071427D02*
X113900652Y-105976189D01*
X113900652Y-105976189D02*
X113900652Y-105833332D01*
X113900652Y-105833332D02*
X113948271Y-105738094D01*
X113948271Y-105738094D02*
X114043509Y-105690475D01*
X114043509Y-105690475D02*
X114567319Y-105690475D01*
X114519700Y-104833332D02*
X114567319Y-104928570D01*
X114567319Y-104928570D02*
X114567319Y-105119046D01*
X114567319Y-105119046D02*
X114519700Y-105214284D01*
X114519700Y-105214284D02*
X114424461Y-105261903D01*
X114424461Y-105261903D02*
X114043509Y-105261903D01*
X114043509Y-105261903D02*
X113948271Y-105214284D01*
X113948271Y-105214284D02*
X113900652Y-105119046D01*
X113900652Y-105119046D02*
X113900652Y-104928570D01*
X113900652Y-104928570D02*
X113948271Y-104833332D01*
X113948271Y-104833332D02*
X114043509Y-104785713D01*
X114043509Y-104785713D02*
X114138747Y-104785713D01*
X114138747Y-104785713D02*
X114233985Y-105261903D01*
X114519700Y-104404760D02*
X114567319Y-104309522D01*
X114567319Y-104309522D02*
X114567319Y-104119046D01*
X114567319Y-104119046D02*
X114519700Y-104023808D01*
X114519700Y-104023808D02*
X114424461Y-103976189D01*
X114424461Y-103976189D02*
X114376842Y-103976189D01*
X114376842Y-103976189D02*
X114281604Y-104023808D01*
X114281604Y-104023808D02*
X114233985Y-104119046D01*
X114233985Y-104119046D02*
X114233985Y-104261903D01*
X114233985Y-104261903D02*
X114186366Y-104357141D01*
X114186366Y-104357141D02*
X114091128Y-104404760D01*
X114091128Y-104404760D02*
X114043509Y-104404760D01*
X114043509Y-104404760D02*
X113948271Y-104357141D01*
X113948271Y-104357141D02*
X113900652Y-104261903D01*
X113900652Y-104261903D02*
X113900652Y-104119046D01*
X113900652Y-104119046D02*
X113948271Y-104023808D01*
X114519700Y-103595236D02*
X114567319Y-103499998D01*
X114567319Y-103499998D02*
X114567319Y-103309522D01*
X114567319Y-103309522D02*
X114519700Y-103214284D01*
X114519700Y-103214284D02*
X114424461Y-103166665D01*
X114424461Y-103166665D02*
X114376842Y-103166665D01*
X114376842Y-103166665D02*
X114281604Y-103214284D01*
X114281604Y-103214284D02*
X114233985Y-103309522D01*
X114233985Y-103309522D02*
X114233985Y-103452379D01*
X114233985Y-103452379D02*
X114186366Y-103547617D01*
X114186366Y-103547617D02*
X114091128Y-103595236D01*
X114091128Y-103595236D02*
X114043509Y-103595236D01*
X114043509Y-103595236D02*
X113948271Y-103547617D01*
X113948271Y-103547617D02*
X113900652Y-103452379D01*
X113900652Y-103452379D02*
X113900652Y-103309522D01*
X113900652Y-103309522D02*
X113948271Y-103214284D01*
X114472080Y-102738093D02*
X114519700Y-102690474D01*
X114519700Y-102690474D02*
X114567319Y-102738093D01*
X114567319Y-102738093D02*
X114519700Y-102785712D01*
X114519700Y-102785712D02*
X114472080Y-102738093D01*
X114472080Y-102738093D02*
X114567319Y-102738093D01*
X113948271Y-102738093D02*
X113995890Y-102690474D01*
X113995890Y-102690474D02*
X114043509Y-102738093D01*
X114043509Y-102738093D02*
X113995890Y-102785712D01*
X113995890Y-102785712D02*
X113948271Y-102738093D01*
X113948271Y-102738093D02*
X114043509Y-102738093D01*
X114567319Y-100976189D02*
X114567319Y-101547617D01*
X114567319Y-101261903D02*
X113567319Y-101261903D01*
X113567319Y-101261903D02*
X113710176Y-101357141D01*
X113710176Y-101357141D02*
X113805414Y-101452379D01*
X113805414Y-101452379D02*
X113853033Y-101547617D01*
X114472080Y-100547617D02*
X114519700Y-100499998D01*
X114519700Y-100499998D02*
X114567319Y-100547617D01*
X114567319Y-100547617D02*
X114519700Y-100595236D01*
X114519700Y-100595236D02*
X114472080Y-100547617D01*
X114472080Y-100547617D02*
X114567319Y-100547617D01*
X113567319Y-99595237D02*
X113567319Y-100071427D01*
X113567319Y-100071427D02*
X114043509Y-100119046D01*
X114043509Y-100119046D02*
X113995890Y-100071427D01*
X113995890Y-100071427D02*
X113948271Y-99976189D01*
X113948271Y-99976189D02*
X113948271Y-99738094D01*
X113948271Y-99738094D02*
X113995890Y-99642856D01*
X113995890Y-99642856D02*
X114043509Y-99595237D01*
X114043509Y-99595237D02*
X114138747Y-99547618D01*
X114138747Y-99547618D02*
X114376842Y-99547618D01*
X114376842Y-99547618D02*
X114472080Y-99595237D01*
X114472080Y-99595237D02*
X114519700Y-99642856D01*
X114519700Y-99642856D02*
X114567319Y-99738094D01*
X114567319Y-99738094D02*
X114567319Y-99976189D01*
X114567319Y-99976189D02*
X114519700Y-100071427D01*
X114519700Y-100071427D02*
X114472080Y-100119046D01*
X113567319Y-99214284D02*
X113567319Y-98547618D01*
X113567319Y-98547618D02*
X114567319Y-98976189D01*
X114567319Y-98166665D02*
X113900652Y-98166665D01*
X113995890Y-98166665D02*
X113948271Y-98119046D01*
X113948271Y-98119046D02*
X113900652Y-98023808D01*
X113900652Y-98023808D02*
X113900652Y-97880951D01*
X113900652Y-97880951D02*
X113948271Y-97785713D01*
X113948271Y-97785713D02*
X114043509Y-97738094D01*
X114043509Y-97738094D02*
X114567319Y-97738094D01*
X114043509Y-97738094D02*
X113948271Y-97690475D01*
X113948271Y-97690475D02*
X113900652Y-97595237D01*
X113900652Y-97595237D02*
X113900652Y-97452380D01*
X113900652Y-97452380D02*
X113948271Y-97357141D01*
X113948271Y-97357141D02*
X114043509Y-97309522D01*
X114043509Y-97309522D02*
X114567319Y-97309522D01*
X114567319Y-96833332D02*
X113900652Y-96833332D01*
X113995890Y-96833332D02*
X113948271Y-96785713D01*
X113948271Y-96785713D02*
X113900652Y-96690475D01*
X113900652Y-96690475D02*
X113900652Y-96547618D01*
X113900652Y-96547618D02*
X113948271Y-96452380D01*
X113948271Y-96452380D02*
X114043509Y-96404761D01*
X114043509Y-96404761D02*
X114567319Y-96404761D01*
X114043509Y-96404761D02*
X113948271Y-96357142D01*
X113948271Y-96357142D02*
X113900652Y-96261904D01*
X113900652Y-96261904D02*
X113900652Y-96119047D01*
X113900652Y-96119047D02*
X113948271Y-96023808D01*
X113948271Y-96023808D02*
X114043509Y-95976189D01*
X114043509Y-95976189D02*
X114567319Y-95976189D01*
M02*
