%TF.GenerationSoftware,KiCad,Pcbnew,8.0.2*%
%TF.CreationDate,2025-09-09T09:28:48+02:00*%
%TF.ProjectId,e77,6537372e-6b69-4636-9164-5f7063625858,rev?*%
%TF.SameCoordinates,Original*%
%TF.FileFunction,Legend,Bot*%
%TF.FilePolarity,Positive*%
%FSLAX46Y46*%
G04 Gerber Fmt 4.6, Leading zero omitted, Abs format (unit mm)*
G04 Created by KiCad (PCBNEW 8.0.2) date 2025-09-09 09:28:48*
%MOMM*%
%LPD*%
G01*
G04 APERTURE LIST*
G04 Aperture macros list*
%AMRoundRect*
0 Rectangle with rounded corners*
0 $1 Rounding radius*
0 $2 $3 $4 $5 $6 $7 $8 $9 X,Y pos of 4 corners*
0 Add a 4 corners polygon primitive as box body*
4,1,4,$2,$3,$4,$5,$6,$7,$8,$9,$2,$3,0*
0 Add four circle primitives for the rounded corners*
1,1,$1+$1,$2,$3*
1,1,$1+$1,$4,$5*
1,1,$1+$1,$6,$7*
1,1,$1+$1,$8,$9*
0 Add four rect primitives between the rounded corners*
20,1,$1+$1,$2,$3,$4,$5,0*
20,1,$1+$1,$4,$5,$6,$7,0*
20,1,$1+$1,$6,$7,$8,$9,0*
20,1,$1+$1,$8,$9,$2,$3,0*%
G04 Aperture macros list end*
%ADD10C,0.150000*%
%ADD11C,0.100000*%
%ADD12C,0.120000*%
%ADD13R,1.700000X1.700000*%
%ADD14O,1.700000X1.700000*%
%ADD15R,1.524000X1.524000*%
%ADD16C,1.524000*%
%ADD17R,2.000000X0.700000*%
%ADD18R,0.700000X2.000000*%
%ADD19R,3.600000X1.270000*%
%ADD20R,4.200000X1.350000*%
%ADD21C,1.000000*%
%ADD22RoundRect,0.200000X0.200000X-1.050000X0.200000X1.050000X-0.200000X1.050000X-0.200000X-1.050000X0*%
G04 APERTURE END LIST*
D10*
X119547618Y-104045180D02*
X119214285Y-104521371D01*
X118976190Y-104045180D02*
X118976190Y-105045180D01*
X118976190Y-105045180D02*
X119357142Y-105045180D01*
X119357142Y-105045180D02*
X119452380Y-104997561D01*
X119452380Y-104997561D02*
X119499999Y-104949942D01*
X119499999Y-104949942D02*
X119547618Y-104854704D01*
X119547618Y-104854704D02*
X119547618Y-104711847D01*
X119547618Y-104711847D02*
X119499999Y-104616609D01*
X119499999Y-104616609D02*
X119452380Y-104568990D01*
X119452380Y-104568990D02*
X119357142Y-104521371D01*
X119357142Y-104521371D02*
X118976190Y-104521371D01*
X120404761Y-104045180D02*
X120404761Y-104568990D01*
X120404761Y-104568990D02*
X120357142Y-104664228D01*
X120357142Y-104664228D02*
X120261904Y-104711847D01*
X120261904Y-104711847D02*
X120071428Y-104711847D01*
X120071428Y-104711847D02*
X119976190Y-104664228D01*
X120404761Y-104092800D02*
X120309523Y-104045180D01*
X120309523Y-104045180D02*
X120071428Y-104045180D01*
X120071428Y-104045180D02*
X119976190Y-104092800D01*
X119976190Y-104092800D02*
X119928571Y-104188038D01*
X119928571Y-104188038D02*
X119928571Y-104283276D01*
X119928571Y-104283276D02*
X119976190Y-104378514D01*
X119976190Y-104378514D02*
X120071428Y-104426133D01*
X120071428Y-104426133D02*
X120309523Y-104426133D01*
X120309523Y-104426133D02*
X120404761Y-104473752D01*
X120880952Y-104045180D02*
X120880952Y-105045180D01*
X120976190Y-104426133D02*
X121261904Y-104045180D01*
X121261904Y-104711847D02*
X120880952Y-104330895D01*
X121595238Y-105045180D02*
X122214285Y-105045180D01*
X122214285Y-105045180D02*
X121880952Y-104664228D01*
X121880952Y-104664228D02*
X122023809Y-104664228D01*
X122023809Y-104664228D02*
X122119047Y-104616609D01*
X122119047Y-104616609D02*
X122166666Y-104568990D01*
X122166666Y-104568990D02*
X122214285Y-104473752D01*
X122214285Y-104473752D02*
X122214285Y-104235657D01*
X122214285Y-104235657D02*
X122166666Y-104140419D01*
X122166666Y-104140419D02*
X122119047Y-104092800D01*
X122119047Y-104092800D02*
X122023809Y-104045180D01*
X122023809Y-104045180D02*
X121738095Y-104045180D01*
X121738095Y-104045180D02*
X121642857Y-104092800D01*
X121642857Y-104092800D02*
X121595238Y-104140419D01*
X123166666Y-104045180D02*
X122595238Y-104045180D01*
X122880952Y-104045180D02*
X122880952Y-105045180D01*
X122880952Y-105045180D02*
X122785714Y-104902323D01*
X122785714Y-104902323D02*
X122690476Y-104807085D01*
X122690476Y-104807085D02*
X122595238Y-104759466D01*
X123500000Y-105045180D02*
X124166666Y-105045180D01*
X124166666Y-105045180D02*
X123738095Y-104045180D01*
X124500000Y-104949942D02*
X124547619Y-104997561D01*
X124547619Y-104997561D02*
X124642857Y-105045180D01*
X124642857Y-105045180D02*
X124880952Y-105045180D01*
X124880952Y-105045180D02*
X124976190Y-104997561D01*
X124976190Y-104997561D02*
X125023809Y-104949942D01*
X125023809Y-104949942D02*
X125071428Y-104854704D01*
X125071428Y-104854704D02*
X125071428Y-104759466D01*
X125071428Y-104759466D02*
X125023809Y-104616609D01*
X125023809Y-104616609D02*
X124452381Y-104045180D01*
X124452381Y-104045180D02*
X125071428Y-104045180D01*
X127430590Y-79133266D02*
X127430590Y-78799933D01*
X126906780Y-78657076D02*
X126906780Y-79133266D01*
X126906780Y-79133266D02*
X127906780Y-79133266D01*
X127906780Y-79133266D02*
X127906780Y-78657076D01*
X127906780Y-78323742D02*
X127906780Y-77657076D01*
X127906780Y-77657076D02*
X126906780Y-78085647D01*
X127906780Y-77371361D02*
X127906780Y-76704695D01*
X127906780Y-76704695D02*
X126906780Y-77133266D01*
D11*
%TO.C,U4*%
X113500000Y-111500000D02*
X114500000Y-111500000D01*
X114500000Y-97500000D02*
X114500000Y-98500000D01*
X114500000Y-111500000D02*
X114500000Y-112000000D01*
X114500000Y-113000000D02*
X114500000Y-112000000D01*
X117500000Y-113000000D02*
X114500000Y-113000000D01*
X120000000Y-97500000D02*
X114500000Y-97500000D01*
X127000000Y-97500000D02*
X129500000Y-97500000D01*
X127000000Y-113000000D02*
X129500000Y-113000000D01*
X129500000Y-97500000D02*
X129500000Y-99000000D01*
X129500000Y-113000000D02*
X129500000Y-112000000D01*
D10*
X114362353Y-112500000D02*
G75*
G02*
X113637647Y-112500000I-362353J0D01*
G01*
X113637647Y-112500000D02*
G75*
G02*
X114362353Y-112500000I362353J0D01*
G01*
D12*
%TO.C,AE2*%
X110372500Y-103550000D02*
X110372500Y-104660000D01*
X110372500Y-106340000D02*
X110372500Y-107450000D01*
X110922500Y-105500000D02*
X111422500Y-105750000D01*
X111422500Y-105250000D02*
X110922500Y-105500000D01*
X111422500Y-105750000D02*
X111422500Y-105250000D01*
%TO.C,AE1*%
X110983600Y-76647000D02*
X110983600Y-77757000D01*
X110983600Y-79437000D02*
X110983600Y-80547000D01*
X111533600Y-78597000D02*
X112033600Y-78847000D01*
X112033600Y-78347000D02*
X111533600Y-78597000D01*
X112033600Y-78847000D02*
X112033600Y-78347000D01*
%TO.C,U3*%
X131771600Y-86726600D02*
X131771600Y-86226600D01*
X132271600Y-86226600D01*
X131771600Y-86726600D01*
G36*
X131771600Y-86726600D02*
G01*
X131771600Y-86226600D01*
X132271600Y-86226600D01*
X131771600Y-86726600D01*
G37*
%TD*%
%LPC*%
D13*
%TO.C,J2*%
X134064000Y-85150200D03*
D14*
X134064000Y-82610200D03*
X134064000Y-80070200D03*
X134064000Y-77530200D03*
X134064000Y-74990200D03*
X134064000Y-72450200D03*
%TD*%
D15*
%TO.C,U2*%
X115400000Y-116500000D03*
D16*
X117400000Y-116500000D03*
X119400000Y-116500000D03*
X121400000Y-116500000D03*
X123400000Y-116500000D03*
X125400000Y-116500000D03*
X127400000Y-116500000D03*
X129400000Y-116500000D03*
X131400000Y-116500000D03*
X133400000Y-116500000D03*
X133400000Y-94500000D03*
X131400000Y-94500000D03*
X129400000Y-94500000D03*
X127400000Y-94500000D03*
X125400000Y-94500000D03*
X123400000Y-94500000D03*
X121400000Y-94500000D03*
X119400000Y-94500000D03*
X117400000Y-94500000D03*
X115400000Y-94500000D03*
%TD*%
D15*
%TO.C,U1*%
X115511600Y-89511600D03*
D16*
X117511600Y-89511600D03*
X119511600Y-89511600D03*
X121511600Y-89511600D03*
X123511600Y-89511600D03*
X125511600Y-89511600D03*
X127511600Y-89511600D03*
X129511600Y-89511600D03*
X131511600Y-89511600D03*
X133511600Y-89511600D03*
X133511600Y-67511600D03*
X131511600Y-67511600D03*
X129511600Y-67511600D03*
X127511600Y-67511600D03*
X125511600Y-67511600D03*
X123511600Y-67511600D03*
X121511600Y-67511600D03*
X119511600Y-67511600D03*
X117511600Y-67511600D03*
X115511600Y-67511600D03*
%TD*%
D13*
%TO.C,J1*%
X133908800Y-112000000D03*
D14*
X133908800Y-109460000D03*
X133908800Y-106920000D03*
X133908800Y-104380000D03*
X133908800Y-101840000D03*
X133908800Y-99300000D03*
%TD*%
D17*
%TO.C,U4*%
X114500000Y-111000000D03*
X114500000Y-110000000D03*
X114500000Y-109000000D03*
X114500000Y-108000000D03*
X114500000Y-107000000D03*
X114500000Y-106000000D03*
X114500000Y-105000000D03*
X114500000Y-104000000D03*
X114500000Y-103000000D03*
X114500000Y-102000000D03*
X114500000Y-101000000D03*
X114500000Y-100000000D03*
D18*
X122500000Y-97500000D03*
X123500000Y-97500000D03*
X124500000Y-97500000D03*
X125500000Y-97500000D03*
D17*
X129500000Y-100000000D03*
X129500000Y-101000000D03*
X129500000Y-102000000D03*
X129500000Y-107000000D03*
X129500000Y-108000000D03*
X129500000Y-109000000D03*
X129500000Y-110000000D03*
X129500000Y-111000000D03*
D18*
X125500000Y-113000000D03*
X124500000Y-113000000D03*
X123500000Y-113000000D03*
X122500000Y-113000000D03*
X121500000Y-113000000D03*
X120500000Y-113000000D03*
X119500000Y-113000000D03*
X118500000Y-113000000D03*
%TD*%
D19*
%TO.C,AE2*%
X108462500Y-105500000D03*
D20*
X108662500Y-108325000D03*
X108662500Y-102675000D03*
%TD*%
D19*
%TO.C,AE1*%
X109073600Y-78597000D03*
D20*
X109273600Y-81422000D03*
X109273600Y-75772000D03*
%TD*%
D21*
%TO.C,U3*%
X124411600Y-80921600D03*
D22*
X131001600Y-86226600D03*
X129731600Y-86226600D03*
X128461600Y-86226600D03*
X127191600Y-86226600D03*
X125921600Y-86226600D03*
X124651600Y-86226600D03*
X123381600Y-86226600D03*
X122111600Y-86226600D03*
X120841600Y-86226600D03*
X119571600Y-86226600D03*
X118301600Y-86226600D03*
X117031600Y-86226600D03*
X115761600Y-86226600D03*
X114491600Y-86226600D03*
X113221600Y-86226600D03*
X113221600Y-70986600D03*
X114491600Y-70986600D03*
X115761600Y-70986600D03*
X117031600Y-70986600D03*
X118301600Y-70986600D03*
X119571600Y-70986600D03*
X120841600Y-70986600D03*
X122111600Y-70986600D03*
X123381600Y-70986600D03*
X124651600Y-70986600D03*
X125921600Y-70986600D03*
X127191600Y-70986600D03*
X128461600Y-70986600D03*
X129731600Y-70986600D03*
X131001600Y-70986600D03*
%TD*%
%LPD*%
M02*
