%TF.GenerationSoftware,KiCad,Pcbnew,8.0.2*%
%TF.CreationDate,2025-09-09T09:28:48+02:00*%
%TF.ProjectId,e77,6537372e-6b69-4636-9164-5f7063625858,rev?*%
%TF.SameCoordinates,Original*%
%TF.FileFunction,Legend,Top*%
%TF.FilePolarity,Positive*%
%FSLAX46Y46*%
G04 Gerber Fmt 4.6, Leading zero omitted, Abs format (unit mm)*
G04 Created by KiCad (PCBNEW 8.0.2) date 2025-09-09 09:28:48*
%MOMM*%
%LPD*%
G01*
G04 APERTURE LIST*
G04 Aperture macros list*
%AMRoundRect*
0 Rectangle with rounded corners*
0 $1 Rounding radius*
0 $2 $3 $4 $5 $6 $7 $8 $9 X,Y pos of 4 corners*
0 Add a 4 corners polygon primitive as box body*
4,1,4,$2,$3,$4,$5,$6,$7,$8,$9,$2,$3,0*
0 Add four circle primitives for the rounded corners*
1,1,$1+$1,$2,$3*
1,1,$1+$1,$4,$5*
1,1,$1+$1,$6,$7*
1,1,$1+$1,$8,$9*
0 Add four rect primitives between the rounded corners*
20,1,$1+$1,$2,$3,$4,$5,0*
20,1,$1+$1,$4,$5,$6,$7,0*
20,1,$1+$1,$6,$7,$8,$9,0*
20,1,$1+$1,$8,$9,$2,$3,0*%
%AMFreePoly0*
4,1,19,0.500000,-0.750000,0.000000,-0.750000,0.000000,-0.744911,-0.071157,-0.744911,-0.207708,-0.704816,-0.327430,-0.627875,-0.420627,-0.520320,-0.479746,-0.390866,-0.500000,-0.250000,-0.500000,0.250000,-0.479746,0.390866,-0.420627,0.520320,-0.327430,0.627875,-0.207708,0.704816,-0.071157,0.744911,0.000000,0.744911,0.000000,0.750000,0.500000,0.750000,0.500000,-0.750000,0.500000,-0.750000,
$1*%
%AMFreePoly1*
4,1,19,0.000000,0.744911,0.071157,0.744911,0.207708,0.704816,0.327430,0.627875,0.420627,0.520320,0.479746,0.390866,0.500000,0.250000,0.500000,-0.250000,0.479746,-0.390866,0.420627,-0.520320,0.327430,-0.627875,0.207708,-0.704816,0.071157,-0.744911,0.000000,-0.744911,0.000000,-0.750000,-0.500000,-0.750000,-0.500000,0.750000,0.000000,0.750000,0.000000,0.744911,0.000000,0.744911,
$1*%
G04 Aperture macros list end*
%ADD10C,0.100000*%
%ADD11C,0.150000*%
%ADD12C,0.120000*%
%ADD13RoundRect,0.218750X-0.218750X-0.256250X0.218750X-0.256250X0.218750X0.256250X-0.218750X0.256250X0*%
%ADD14FreePoly0,90.000000*%
%ADD15FreePoly1,90.000000*%
%ADD16R,0.500000X0.800000*%
%ADD17R,0.400000X0.800000*%
%ADD18R,1.700000X1.700000*%
%ADD19O,1.700000X1.700000*%
%ADD20RoundRect,0.218750X0.256250X-0.218750X0.256250X0.218750X-0.256250X0.218750X-0.256250X-0.218750X0*%
%ADD21RoundRect,0.225000X0.250000X-0.225000X0.250000X0.225000X-0.250000X0.225000X-0.250000X-0.225000X0*%
%ADD22R,1.524000X1.524000*%
%ADD23C,1.524000*%
%ADD24R,0.800000X0.500000*%
%ADD25R,0.800000X0.400000*%
%ADD26RoundRect,0.225000X0.225000X0.250000X-0.225000X0.250000X-0.225000X-0.250000X0.225000X-0.250000X0*%
%ADD27FreePoly0,0.000000*%
%ADD28FreePoly1,0.000000*%
%ADD29R,4.200000X1.350000*%
%ADD30C,1.000000*%
G04 APERTURE END LIST*
D10*
X131806380Y-98946687D02*
X131854000Y-98994306D01*
X131854000Y-98994306D02*
X131901619Y-99137163D01*
X131901619Y-99137163D02*
X131901619Y-99232401D01*
X131901619Y-99232401D02*
X131854000Y-99375258D01*
X131854000Y-99375258D02*
X131758761Y-99470496D01*
X131758761Y-99470496D02*
X131663523Y-99518115D01*
X131663523Y-99518115D02*
X131473047Y-99565734D01*
X131473047Y-99565734D02*
X131330190Y-99565734D01*
X131330190Y-99565734D02*
X131139714Y-99518115D01*
X131139714Y-99518115D02*
X131044476Y-99470496D01*
X131044476Y-99470496D02*
X130949238Y-99375258D01*
X130949238Y-99375258D02*
X130901619Y-99232401D01*
X130901619Y-99232401D02*
X130901619Y-99137163D01*
X130901619Y-99137163D02*
X130949238Y-98994306D01*
X130949238Y-98994306D02*
X130996857Y-98946687D01*
X130698419Y-85233772D02*
X130698419Y-84662344D01*
X131698419Y-84948058D02*
X130698419Y-84948058D01*
X114950419Y-114599353D02*
X114950419Y-113980306D01*
X114950419Y-113980306D02*
X115331371Y-114313639D01*
X115331371Y-114313639D02*
X115331371Y-114170782D01*
X115331371Y-114170782D02*
X115378990Y-114075544D01*
X115378990Y-114075544D02*
X115426609Y-114027925D01*
X115426609Y-114027925D02*
X115521847Y-113980306D01*
X115521847Y-113980306D02*
X115759942Y-113980306D01*
X115759942Y-113980306D02*
X115855180Y-114027925D01*
X115855180Y-114027925D02*
X115902800Y-114075544D01*
X115902800Y-114075544D02*
X115950419Y-114170782D01*
X115950419Y-114170782D02*
X115950419Y-114456496D01*
X115950419Y-114456496D02*
X115902800Y-114551734D01*
X115902800Y-114551734D02*
X115855180Y-114599353D01*
X115001219Y-87522953D02*
X115001219Y-86903906D01*
X115001219Y-86903906D02*
X115382171Y-87237239D01*
X115382171Y-87237239D02*
X115382171Y-87094382D01*
X115382171Y-87094382D02*
X115429790Y-86999144D01*
X115429790Y-86999144D02*
X115477409Y-86951525D01*
X115477409Y-86951525D02*
X115572647Y-86903906D01*
X115572647Y-86903906D02*
X115810742Y-86903906D01*
X115810742Y-86903906D02*
X115905980Y-86951525D01*
X115905980Y-86951525D02*
X115953600Y-86999144D01*
X115953600Y-86999144D02*
X116001219Y-87094382D01*
X116001219Y-87094382D02*
X116001219Y-87380096D01*
X116001219Y-87380096D02*
X115953600Y-87475334D01*
X115953600Y-87475334D02*
X115905980Y-87522953D01*
X131647619Y-81877887D02*
X131171428Y-82211220D01*
X131647619Y-82449315D02*
X130647619Y-82449315D01*
X130647619Y-82449315D02*
X130647619Y-82068363D01*
X130647619Y-82068363D02*
X130695238Y-81973125D01*
X130695238Y-81973125D02*
X130742857Y-81925506D01*
X130742857Y-81925506D02*
X130838095Y-81877887D01*
X130838095Y-81877887D02*
X130980952Y-81877887D01*
X130980952Y-81877887D02*
X131076190Y-81925506D01*
X131076190Y-81925506D02*
X131123809Y-81973125D01*
X131123809Y-81973125D02*
X131171428Y-82068363D01*
X131171428Y-82068363D02*
X131171428Y-82449315D01*
X131647619Y-109208287D02*
X131171428Y-109541620D01*
X131647619Y-109779715D02*
X130647619Y-109779715D01*
X130647619Y-109779715D02*
X130647619Y-109398763D01*
X130647619Y-109398763D02*
X130695238Y-109303525D01*
X130695238Y-109303525D02*
X130742857Y-109255906D01*
X130742857Y-109255906D02*
X130838095Y-109208287D01*
X130838095Y-109208287D02*
X130980952Y-109208287D01*
X130980952Y-109208287D02*
X131076190Y-109255906D01*
X131076190Y-109255906D02*
X131123809Y-109303525D01*
X131123809Y-109303525D02*
X131171428Y-109398763D01*
X131171428Y-109398763D02*
X131171428Y-109779715D01*
X110819619Y-72835487D02*
X110343428Y-73168820D01*
X110819619Y-73406915D02*
X109819619Y-73406915D01*
X109819619Y-73406915D02*
X109819619Y-73025963D01*
X109819619Y-73025963D02*
X109867238Y-72930725D01*
X109867238Y-72930725D02*
X109914857Y-72883106D01*
X109914857Y-72883106D02*
X110010095Y-72835487D01*
X110010095Y-72835487D02*
X110152952Y-72835487D01*
X110152952Y-72835487D02*
X110248190Y-72883106D01*
X110248190Y-72883106D02*
X110295809Y-72930725D01*
X110295809Y-72930725D02*
X110343428Y-73025963D01*
X110343428Y-73025963D02*
X110343428Y-73406915D01*
X110772000Y-72025963D02*
X110819619Y-72121201D01*
X110819619Y-72121201D02*
X110819619Y-72311677D01*
X110819619Y-72311677D02*
X110772000Y-72406915D01*
X110772000Y-72406915D02*
X110676761Y-72454534D01*
X110676761Y-72454534D02*
X110295809Y-72454534D01*
X110295809Y-72454534D02*
X110200571Y-72406915D01*
X110200571Y-72406915D02*
X110152952Y-72311677D01*
X110152952Y-72311677D02*
X110152952Y-72121201D01*
X110152952Y-72121201D02*
X110200571Y-72025963D01*
X110200571Y-72025963D02*
X110295809Y-71978344D01*
X110295809Y-71978344D02*
X110391047Y-71978344D01*
X110391047Y-71978344D02*
X110486285Y-72454534D01*
X110772000Y-71597391D02*
X110819619Y-71502153D01*
X110819619Y-71502153D02*
X110819619Y-71311677D01*
X110819619Y-71311677D02*
X110772000Y-71216439D01*
X110772000Y-71216439D02*
X110676761Y-71168820D01*
X110676761Y-71168820D02*
X110629142Y-71168820D01*
X110629142Y-71168820D02*
X110533904Y-71216439D01*
X110533904Y-71216439D02*
X110486285Y-71311677D01*
X110486285Y-71311677D02*
X110486285Y-71454534D01*
X110486285Y-71454534D02*
X110438666Y-71549772D01*
X110438666Y-71549772D02*
X110343428Y-71597391D01*
X110343428Y-71597391D02*
X110295809Y-71597391D01*
X110295809Y-71597391D02*
X110200571Y-71549772D01*
X110200571Y-71549772D02*
X110152952Y-71454534D01*
X110152952Y-71454534D02*
X110152952Y-71311677D01*
X110152952Y-71311677D02*
X110200571Y-71216439D01*
X130698419Y-104490153D02*
X130698419Y-103871106D01*
X130698419Y-103871106D02*
X131079371Y-104204439D01*
X131079371Y-104204439D02*
X131079371Y-104061582D01*
X131079371Y-104061582D02*
X131126990Y-103966344D01*
X131126990Y-103966344D02*
X131174609Y-103918725D01*
X131174609Y-103918725D02*
X131269847Y-103871106D01*
X131269847Y-103871106D02*
X131507942Y-103871106D01*
X131507942Y-103871106D02*
X131603180Y-103918725D01*
X131603180Y-103918725D02*
X131650800Y-103966344D01*
X131650800Y-103966344D02*
X131698419Y-104061582D01*
X131698419Y-104061582D02*
X131698419Y-104347296D01*
X131698419Y-104347296D02*
X131650800Y-104442534D01*
X131650800Y-104442534D02*
X131603180Y-104490153D01*
X131368266Y-107341315D02*
X131368266Y-106579411D01*
X131317466Y-80417315D02*
X131317466Y-79655411D01*
X131704780Y-72073487D02*
X131752400Y-72121106D01*
X131752400Y-72121106D02*
X131800019Y-72263963D01*
X131800019Y-72263963D02*
X131800019Y-72359201D01*
X131800019Y-72359201D02*
X131752400Y-72502058D01*
X131752400Y-72502058D02*
X131657161Y-72597296D01*
X131657161Y-72597296D02*
X131561923Y-72644915D01*
X131561923Y-72644915D02*
X131371447Y-72692534D01*
X131371447Y-72692534D02*
X131228590Y-72692534D01*
X131228590Y-72692534D02*
X131038114Y-72644915D01*
X131038114Y-72644915D02*
X130942876Y-72597296D01*
X130942876Y-72597296D02*
X130847638Y-72502058D01*
X130847638Y-72502058D02*
X130800019Y-72359201D01*
X130800019Y-72359201D02*
X130800019Y-72263963D01*
X130800019Y-72263963D02*
X130847638Y-72121106D01*
X130847638Y-72121106D02*
X130895257Y-72073487D01*
X131850819Y-75286515D02*
X130850819Y-75286515D01*
X130850819Y-75286515D02*
X130850819Y-75048420D01*
X130850819Y-75048420D02*
X130898438Y-74905563D01*
X130898438Y-74905563D02*
X130993676Y-74810325D01*
X130993676Y-74810325D02*
X131088914Y-74762706D01*
X131088914Y-74762706D02*
X131279390Y-74715087D01*
X131279390Y-74715087D02*
X131422247Y-74715087D01*
X131422247Y-74715087D02*
X131612723Y-74762706D01*
X131612723Y-74762706D02*
X131707961Y-74810325D01*
X131707961Y-74810325D02*
X131803200Y-74905563D01*
X131803200Y-74905563D02*
X131850819Y-75048420D01*
X131850819Y-75048420D02*
X131850819Y-75286515D01*
X131749219Y-102159715D02*
X130749219Y-102159715D01*
X130749219Y-102159715D02*
X130749219Y-101921620D01*
X130749219Y-101921620D02*
X130796838Y-101778763D01*
X130796838Y-101778763D02*
X130892076Y-101683525D01*
X130892076Y-101683525D02*
X130987314Y-101635906D01*
X130987314Y-101635906D02*
X131177790Y-101588287D01*
X131177790Y-101588287D02*
X131320647Y-101588287D01*
X131320647Y-101588287D02*
X131511123Y-101635906D01*
X131511123Y-101635906D02*
X131606361Y-101683525D01*
X131606361Y-101683525D02*
X131701600Y-101778763D01*
X131701600Y-101778763D02*
X131749219Y-101921620D01*
X131749219Y-101921620D02*
X131749219Y-102159715D01*
X130596819Y-112259372D02*
X130596819Y-111687944D01*
X131596819Y-111973658D02*
X130596819Y-111973658D01*
X130800019Y-77820153D02*
X130800019Y-77201106D01*
X130800019Y-77201106D02*
X131180971Y-77534439D01*
X131180971Y-77534439D02*
X131180971Y-77391582D01*
X131180971Y-77391582D02*
X131228590Y-77296344D01*
X131228590Y-77296344D02*
X131276209Y-77248725D01*
X131276209Y-77248725D02*
X131371447Y-77201106D01*
X131371447Y-77201106D02*
X131609542Y-77201106D01*
X131609542Y-77201106D02*
X131704780Y-77248725D01*
X131704780Y-77248725D02*
X131752400Y-77296344D01*
X131752400Y-77296344D02*
X131800019Y-77391582D01*
X131800019Y-77391582D02*
X131800019Y-77677296D01*
X131800019Y-77677296D02*
X131752400Y-77772534D01*
X131752400Y-77772534D02*
X131704780Y-77820153D01*
X133552666Y-88037315D02*
X133552666Y-87275411D01*
X133451066Y-115012115D02*
X133451066Y-114250211D01*
X129864819Y-105329487D02*
X129388628Y-105662820D01*
X129864819Y-105900915D02*
X128864819Y-105900915D01*
X128864819Y-105900915D02*
X128864819Y-105519963D01*
X128864819Y-105519963D02*
X128912438Y-105424725D01*
X128912438Y-105424725D02*
X128960057Y-105377106D01*
X128960057Y-105377106D02*
X129055295Y-105329487D01*
X129055295Y-105329487D02*
X129198152Y-105329487D01*
X129198152Y-105329487D02*
X129293390Y-105377106D01*
X129293390Y-105377106D02*
X129341009Y-105424725D01*
X129341009Y-105424725D02*
X129388628Y-105519963D01*
X129388628Y-105519963D02*
X129388628Y-105900915D01*
X129817200Y-104519963D02*
X129864819Y-104615201D01*
X129864819Y-104615201D02*
X129864819Y-104805677D01*
X129864819Y-104805677D02*
X129817200Y-104900915D01*
X129817200Y-104900915D02*
X129721961Y-104948534D01*
X129721961Y-104948534D02*
X129341009Y-104948534D01*
X129341009Y-104948534D02*
X129245771Y-104900915D01*
X129245771Y-104900915D02*
X129198152Y-104805677D01*
X129198152Y-104805677D02*
X129198152Y-104615201D01*
X129198152Y-104615201D02*
X129245771Y-104519963D01*
X129245771Y-104519963D02*
X129341009Y-104472344D01*
X129341009Y-104472344D02*
X129436247Y-104472344D01*
X129436247Y-104472344D02*
X129531485Y-104948534D01*
X129817200Y-104091391D02*
X129864819Y-103996153D01*
X129864819Y-103996153D02*
X129864819Y-103805677D01*
X129864819Y-103805677D02*
X129817200Y-103710439D01*
X129817200Y-103710439D02*
X129721961Y-103662820D01*
X129721961Y-103662820D02*
X129674342Y-103662820D01*
X129674342Y-103662820D02*
X129579104Y-103710439D01*
X129579104Y-103710439D02*
X129531485Y-103805677D01*
X129531485Y-103805677D02*
X129531485Y-103948534D01*
X129531485Y-103948534D02*
X129483866Y-104043772D01*
X129483866Y-104043772D02*
X129388628Y-104091391D01*
X129388628Y-104091391D02*
X129341009Y-104091391D01*
X129341009Y-104091391D02*
X129245771Y-104043772D01*
X129245771Y-104043772D02*
X129198152Y-103948534D01*
X129198152Y-103948534D02*
X129198152Y-103805677D01*
X129198152Y-103805677D02*
X129245771Y-103710439D01*
D11*
X118507752Y-74604476D02*
X119174419Y-74604476D01*
X118126800Y-74842571D02*
X118841085Y-75080666D01*
X118841085Y-75080666D02*
X118841085Y-74461619D01*
X119174419Y-74080666D02*
X118174419Y-74080666D01*
X118793466Y-73985428D02*
X119174419Y-73699714D01*
X118507752Y-73699714D02*
X118888704Y-74080666D01*
X118174419Y-73366380D02*
X118174419Y-72699714D01*
X118174419Y-72699714D02*
X119174419Y-73128285D01*
X129859580Y-112709476D02*
X129907200Y-112757095D01*
X129907200Y-112757095D02*
X129954819Y-112899952D01*
X129954819Y-112899952D02*
X129954819Y-112995190D01*
X129954819Y-112995190D02*
X129907200Y-113138047D01*
X129907200Y-113138047D02*
X129811961Y-113233285D01*
X129811961Y-113233285D02*
X129716723Y-113280904D01*
X129716723Y-113280904D02*
X129526247Y-113328523D01*
X129526247Y-113328523D02*
X129383390Y-113328523D01*
X129383390Y-113328523D02*
X129192914Y-113280904D01*
X129192914Y-113280904D02*
X129097676Y-113233285D01*
X129097676Y-113233285D02*
X129002438Y-113138047D01*
X129002438Y-113138047D02*
X128954819Y-112995190D01*
X128954819Y-112995190D02*
X128954819Y-112899952D01*
X128954819Y-112899952D02*
X129002438Y-112757095D01*
X129002438Y-112757095D02*
X129050057Y-112709476D01*
X126454819Y-112595238D02*
X126454819Y-113166666D01*
X126454819Y-112880952D02*
X125454819Y-112880952D01*
X125454819Y-112880952D02*
X125597676Y-112976190D01*
X125597676Y-112976190D02*
X125692914Y-113071428D01*
X125692914Y-113071428D02*
X125740533Y-113166666D01*
X125454819Y-111976190D02*
X125454819Y-111880952D01*
X125454819Y-111880952D02*
X125502438Y-111785714D01*
X125502438Y-111785714D02*
X125550057Y-111738095D01*
X125550057Y-111738095D02*
X125645295Y-111690476D01*
X125645295Y-111690476D02*
X125835771Y-111642857D01*
X125835771Y-111642857D02*
X126073866Y-111642857D01*
X126073866Y-111642857D02*
X126264342Y-111690476D01*
X126264342Y-111690476D02*
X126359580Y-111738095D01*
X126359580Y-111738095D02*
X126407200Y-111785714D01*
X126407200Y-111785714D02*
X126454819Y-111880952D01*
X126454819Y-111880952D02*
X126454819Y-111976190D01*
X126454819Y-111976190D02*
X126407200Y-112071428D01*
X126407200Y-112071428D02*
X126359580Y-112119047D01*
X126359580Y-112119047D02*
X126264342Y-112166666D01*
X126264342Y-112166666D02*
X126073866Y-112214285D01*
X126073866Y-112214285D02*
X125835771Y-112214285D01*
X125835771Y-112214285D02*
X125645295Y-112166666D01*
X125645295Y-112166666D02*
X125550057Y-112119047D01*
X125550057Y-112119047D02*
X125502438Y-112071428D01*
X125502438Y-112071428D02*
X125454819Y-111976190D01*
X126454819Y-111214285D02*
X125454819Y-111214285D01*
X126073866Y-111119047D02*
X126454819Y-110833333D01*
X125788152Y-110833333D02*
X126169104Y-111214285D01*
X127686733Y-73376180D02*
X127639114Y-73423800D01*
X127639114Y-73423800D02*
X127496257Y-73471419D01*
X127496257Y-73471419D02*
X127401019Y-73471419D01*
X127401019Y-73471419D02*
X127258162Y-73423800D01*
X127258162Y-73423800D02*
X127162924Y-73328561D01*
X127162924Y-73328561D02*
X127115305Y-73233323D01*
X127115305Y-73233323D02*
X127067686Y-73042847D01*
X127067686Y-73042847D02*
X127067686Y-72899990D01*
X127067686Y-72899990D02*
X127115305Y-72709514D01*
X127115305Y-72709514D02*
X127162924Y-72614276D01*
X127162924Y-72614276D02*
X127258162Y-72519038D01*
X127258162Y-72519038D02*
X127401019Y-72471419D01*
X127401019Y-72471419D02*
X127496257Y-72471419D01*
X127496257Y-72471419D02*
X127639114Y-72519038D01*
X127639114Y-72519038D02*
X127686733Y-72566657D01*
X128639114Y-73471419D02*
X128067686Y-73471419D01*
X128353400Y-73471419D02*
X128353400Y-72471419D01*
X128353400Y-72471419D02*
X128258162Y-72614276D01*
X128258162Y-72614276D02*
X128162924Y-72709514D01*
X128162924Y-72709514D02*
X128067686Y-72757133D01*
D12*
%TO.C,D4*%
X120227500Y-109265000D02*
X120227500Y-110735000D01*
X120227500Y-110735000D02*
X122512500Y-110735000D01*
X122512500Y-109265000D02*
X120227500Y-109265000D01*
%TO.C,JP2*%
X128692400Y-108304800D02*
X128692400Y-106904800D01*
X129392400Y-106204800D02*
X129992400Y-106204800D01*
X129992400Y-109004800D02*
X129392400Y-109004800D01*
X130692400Y-106904800D02*
X130692400Y-108304800D01*
X128692400Y-106904800D02*
G75*
G02*
X129392400Y-106204800I700000J0D01*
G01*
X129392400Y-109004800D02*
G75*
G02*
X128692400Y-108304800I-1J699999D01*
G01*
X129992400Y-106204800D02*
G75*
G02*
X130692400Y-106904800I0J-700000D01*
G01*
X130692400Y-108304800D02*
G75*
G02*
X129992400Y-109004800I-699999J-1D01*
G01*
%TO.C,RN1*%
X114248400Y-74372600D02*
X114248400Y-73372600D01*
X117608400Y-74372600D02*
X117608400Y-73372600D01*
%TO.C,J2*%
X132734000Y-83880200D02*
X132734000Y-71120200D01*
X135394000Y-71120200D02*
X132734000Y-71120200D01*
X135394000Y-83880200D02*
X132734000Y-83880200D01*
X135394000Y-83880200D02*
X135394000Y-71120200D01*
X135394000Y-85150200D02*
X135394000Y-86480200D01*
X135394000Y-86480200D02*
X134064000Y-86480200D01*
%TO.C,D1*%
X113923400Y-76908100D02*
X113923400Y-79193100D01*
X113923400Y-79193100D02*
X115393400Y-79193100D01*
X115393400Y-79193100D02*
X115393400Y-76908100D01*
%TO.C,C2*%
X128990000Y-110884580D02*
X128990000Y-110603420D01*
X130010000Y-110884580D02*
X130010000Y-110603420D01*
%TO.C,U2*%
X135410000Y-93310000D02*
X114330000Y-93310000D01*
X135410000Y-117690000D02*
X114330000Y-117690000D01*
X135410000Y-117690000D02*
X135410000Y-93310000D01*
%TO.C,D3*%
X120227500Y-106265000D02*
X120227500Y-107735000D01*
X120227500Y-107735000D02*
X122512500Y-107735000D01*
X122512500Y-106265000D02*
X120227500Y-106265000D01*
%TO.C,U1*%
X135521600Y-66321600D02*
X114441600Y-66321600D01*
X135521600Y-90701600D02*
X114441600Y-90701600D01*
X135521600Y-90701600D02*
X135521600Y-66321600D01*
%TO.C,RN2*%
X125500000Y-106820000D02*
X126500000Y-106820000D01*
X125500000Y-110180000D02*
X126500000Y-110180000D01*
%TO.C,D2*%
X115803000Y-76958900D02*
X115803000Y-79243900D01*
X115803000Y-79243900D02*
X117273000Y-79243900D01*
X117273000Y-79243900D02*
X117273000Y-76958900D01*
%TO.C,C1*%
X127993980Y-71076600D02*
X127712820Y-71076600D01*
X127993980Y-72096600D02*
X127712820Y-72096600D01*
%TO.C,JP1*%
X110980000Y-72690000D02*
X110980000Y-72090000D01*
X111680000Y-71390000D02*
X113080000Y-71390000D01*
X113080000Y-73390000D02*
X111680000Y-73390000D01*
X113780000Y-72090000D02*
X113780000Y-72690000D01*
X110980000Y-72090000D02*
G75*
G02*
X111680000Y-71390000I699999J1D01*
G01*
X111680000Y-73390000D02*
G75*
G02*
X110980000Y-72690000I-1J699999D01*
G01*
X113080000Y-71390000D02*
G75*
G02*
X113780000Y-72090000I0J-700000D01*
G01*
X113780000Y-72690000D02*
G75*
G02*
X113080000Y-73390000I-700000J0D01*
G01*
%TO.C,J1*%
X132578800Y-110730000D02*
X132578800Y-97970000D01*
X135238800Y-97970000D02*
X132578800Y-97970000D01*
X135238800Y-110730000D02*
X132578800Y-110730000D01*
X135238800Y-110730000D02*
X135238800Y-97970000D01*
X135238800Y-112000000D02*
X135238800Y-113330000D01*
X135238800Y-113330000D02*
X133908800Y-113330000D01*
%TD*%
%LPC*%
D13*
%TO.C,D4*%
X120925000Y-110000000D03*
X122500000Y-110000000D03*
%TD*%
D14*
%TO.C,JP2*%
X129692400Y-108254800D03*
D15*
X129692400Y-106954800D03*
%TD*%
D16*
%TO.C,RN1*%
X117128400Y-72972600D03*
D17*
X116328400Y-72972600D03*
X115528400Y-72972600D03*
D16*
X114728400Y-72972600D03*
X114728400Y-74772600D03*
D17*
X115528400Y-74772600D03*
X116328400Y-74772600D03*
D16*
X117128400Y-74772600D03*
%TD*%
D18*
%TO.C,J2*%
X134064000Y-85150200D03*
D19*
X134064000Y-82610200D03*
X134064000Y-80070200D03*
X134064000Y-77530200D03*
X134064000Y-74990200D03*
X134064000Y-72450200D03*
%TD*%
D20*
%TO.C,D1*%
X114658400Y-78495600D03*
X114658400Y-76920600D03*
%TD*%
D21*
%TO.C,C2*%
X129500000Y-111519000D03*
X129500000Y-109969000D03*
%TD*%
D22*
%TO.C,U2*%
X115400000Y-116500000D03*
D23*
X117400000Y-116500000D03*
X119400000Y-116500000D03*
X121400000Y-116500000D03*
X123400000Y-116500000D03*
X125400000Y-116500000D03*
X127400000Y-116500000D03*
X129400000Y-116500000D03*
X131400000Y-116500000D03*
X133400000Y-116500000D03*
X133400000Y-94500000D03*
X131400000Y-94500000D03*
X129400000Y-94500000D03*
X127400000Y-94500000D03*
X125400000Y-94500000D03*
X123400000Y-94500000D03*
X121400000Y-94500000D03*
X119400000Y-94500000D03*
X117400000Y-94500000D03*
X115400000Y-94500000D03*
%TD*%
D13*
%TO.C,D3*%
X120925000Y-107000000D03*
X122500000Y-107000000D03*
%TD*%
D22*
%TO.C,U1*%
X115511600Y-89511600D03*
D23*
X117511600Y-89511600D03*
X119511600Y-89511600D03*
X121511600Y-89511600D03*
X123511600Y-89511600D03*
X125511600Y-89511600D03*
X127511600Y-89511600D03*
X129511600Y-89511600D03*
X131511600Y-89511600D03*
X133511600Y-89511600D03*
X133511600Y-67511600D03*
X131511600Y-67511600D03*
X129511600Y-67511600D03*
X127511600Y-67511600D03*
X125511600Y-67511600D03*
X123511600Y-67511600D03*
X121511600Y-67511600D03*
X119511600Y-67511600D03*
X117511600Y-67511600D03*
X115511600Y-67511600D03*
%TD*%
D24*
%TO.C,RN2*%
X126900000Y-109700000D03*
D25*
X126900000Y-108900000D03*
X126900000Y-108100000D03*
D24*
X126900000Y-107300000D03*
X125100000Y-107300000D03*
D25*
X125100000Y-108100000D03*
X125100000Y-108900000D03*
D24*
X125100000Y-109700000D03*
%TD*%
D20*
%TO.C,D2*%
X116538000Y-78546400D03*
X116538000Y-76971400D03*
%TD*%
D26*
%TO.C,C1*%
X128628400Y-71586600D03*
X127078400Y-71586600D03*
%TD*%
D27*
%TO.C,JP1*%
X111730000Y-72390000D03*
D28*
X113030000Y-72390000D03*
%TD*%
D18*
%TO.C,J1*%
X133908800Y-112000000D03*
D19*
X133908800Y-109460000D03*
X133908800Y-106920000D03*
X133908800Y-104380000D03*
X133908800Y-101840000D03*
X133908800Y-99300000D03*
%TD*%
D29*
%TO.C,AE2*%
X108662500Y-108325000D03*
X108662500Y-102675000D03*
%TD*%
%TO.C,AE1*%
X109273600Y-81422000D03*
X109273600Y-75772000D03*
%TD*%
D30*
%TO.C,U3*%
X124411600Y-80921600D03*
%TD*%
%LPD*%
M02*
