%TF.GenerationSoftware,KiCad,Pcbnew,8.0.2*%
%TF.CreationDate,2025-09-09T09:28:48+02:00*%
%TF.ProjectId,e77,6537372e-6b69-4636-9164-5f7063625858,rev?*%
%TF.SameCoordinates,Original*%
%TF.FileFunction,Soldermask,Top*%
%TF.FilePolarity,Negative*%
%FSLAX46Y46*%
G04 Gerber Fmt 4.6, Leading zero omitted, Abs format (unit mm)*
G04 Created by KiCad (PCBNEW 8.0.2) date 2025-09-09 09:28:48*
%MOMM*%
%LPD*%
G01*
G04 APERTURE LIST*
G04 Aperture macros list*
%AMRoundRect*
0 Rectangle with rounded corners*
0 $1 Rounding radius*
0 $2 $3 $4 $5 $6 $7 $8 $9 X,Y pos of 4 corners*
0 Add a 4 corners polygon primitive as box body*
4,1,4,$2,$3,$4,$5,$6,$7,$8,$9,$2,$3,0*
0 Add four circle primitives for the rounded corners*
1,1,$1+$1,$2,$3*
1,1,$1+$1,$4,$5*
1,1,$1+$1,$6,$7*
1,1,$1+$1,$8,$9*
0 Add four rect primitives between the rounded corners*
20,1,$1+$1,$2,$3,$4,$5,0*
20,1,$1+$1,$4,$5,$6,$7,0*
20,1,$1+$1,$6,$7,$8,$9,0*
20,1,$1+$1,$8,$9,$2,$3,0*%
%AMFreePoly0*
4,1,19,0.500000,-0.750000,0.000000,-0.750000,0.000000,-0.744911,-0.071157,-0.744911,-0.207708,-0.704816,-0.327430,-0.627875,-0.420627,-0.520320,-0.479746,-0.390866,-0.500000,-0.250000,-0.500000,0.250000,-0.479746,0.390866,-0.420627,0.520320,-0.327430,0.627875,-0.207708,0.704816,-0.071157,0.744911,0.000000,0.744911,0.000000,0.750000,0.500000,0.750000,0.500000,-0.750000,0.500000,-0.750000,
$1*%
%AMFreePoly1*
4,1,19,0.000000,0.744911,0.071157,0.744911,0.207708,0.704816,0.327430,0.627875,0.420627,0.520320,0.479746,0.390866,0.500000,0.250000,0.500000,-0.250000,0.479746,-0.390866,0.420627,-0.520320,0.327430,-0.627875,0.207708,-0.704816,0.071157,-0.744911,0.000000,-0.744911,0.000000,-0.750000,-0.500000,-0.750000,-0.500000,0.750000,0.000000,0.750000,0.000000,0.744911,0.000000,0.744911,
$1*%
G04 Aperture macros list end*
%ADD10RoundRect,0.218750X-0.218750X-0.256250X0.218750X-0.256250X0.218750X0.256250X-0.218750X0.256250X0*%
%ADD11FreePoly0,90.000000*%
%ADD12FreePoly1,90.000000*%
%ADD13R,0.500000X0.800000*%
%ADD14R,0.400000X0.800000*%
%ADD15R,1.700000X1.700000*%
%ADD16O,1.700000X1.700000*%
%ADD17RoundRect,0.218750X0.256250X-0.218750X0.256250X0.218750X-0.256250X0.218750X-0.256250X-0.218750X0*%
%ADD18RoundRect,0.225000X0.250000X-0.225000X0.250000X0.225000X-0.250000X0.225000X-0.250000X-0.225000X0*%
%ADD19R,1.524000X1.524000*%
%ADD20C,1.524000*%
%ADD21R,0.800000X0.500000*%
%ADD22R,0.800000X0.400000*%
%ADD23RoundRect,0.225000X0.225000X0.250000X-0.225000X0.250000X-0.225000X-0.250000X0.225000X-0.250000X0*%
%ADD24FreePoly0,0.000000*%
%ADD25FreePoly1,0.000000*%
%ADD26R,4.200000X1.350000*%
%ADD27C,1.000000*%
G04 APERTURE END LIST*
D10*
%TO.C,D4*%
X120925000Y-110000000D03*
X122500000Y-110000000D03*
%TD*%
D11*
%TO.C,JP2*%
X129692400Y-108254800D03*
D12*
X129692400Y-106954800D03*
%TD*%
D13*
%TO.C,RN1*%
X117128400Y-72972600D03*
D14*
X116328400Y-72972600D03*
X115528400Y-72972600D03*
D13*
X114728400Y-72972600D03*
X114728400Y-74772600D03*
D14*
X115528400Y-74772600D03*
X116328400Y-74772600D03*
D13*
X117128400Y-74772600D03*
%TD*%
D15*
%TO.C,J2*%
X134064000Y-85150200D03*
D16*
X134064000Y-82610200D03*
X134064000Y-80070200D03*
X134064000Y-77530200D03*
X134064000Y-74990200D03*
X134064000Y-72450200D03*
%TD*%
D17*
%TO.C,D1*%
X114658400Y-78495600D03*
X114658400Y-76920600D03*
%TD*%
D18*
%TO.C,C2*%
X129500000Y-111519000D03*
X129500000Y-109969000D03*
%TD*%
D19*
%TO.C,U2*%
X115400000Y-116500000D03*
D20*
X117400000Y-116500000D03*
X119400000Y-116500000D03*
X121400000Y-116500000D03*
X123400000Y-116500000D03*
X125400000Y-116500000D03*
X127400000Y-116500000D03*
X129400000Y-116500000D03*
X131400000Y-116500000D03*
X133400000Y-116500000D03*
X133400000Y-94500000D03*
X131400000Y-94500000D03*
X129400000Y-94500000D03*
X127400000Y-94500000D03*
X125400000Y-94500000D03*
X123400000Y-94500000D03*
X121400000Y-94500000D03*
X119400000Y-94500000D03*
X117400000Y-94500000D03*
X115400000Y-94500000D03*
%TD*%
D10*
%TO.C,D3*%
X120925000Y-107000000D03*
X122500000Y-107000000D03*
%TD*%
D19*
%TO.C,U1*%
X115511600Y-89511600D03*
D20*
X117511600Y-89511600D03*
X119511600Y-89511600D03*
X121511600Y-89511600D03*
X123511600Y-89511600D03*
X125511600Y-89511600D03*
X127511600Y-89511600D03*
X129511600Y-89511600D03*
X131511600Y-89511600D03*
X133511600Y-89511600D03*
X133511600Y-67511600D03*
X131511600Y-67511600D03*
X129511600Y-67511600D03*
X127511600Y-67511600D03*
X125511600Y-67511600D03*
X123511600Y-67511600D03*
X121511600Y-67511600D03*
X119511600Y-67511600D03*
X117511600Y-67511600D03*
X115511600Y-67511600D03*
%TD*%
D21*
%TO.C,RN2*%
X126900000Y-109700000D03*
D22*
X126900000Y-108900000D03*
X126900000Y-108100000D03*
D21*
X126900000Y-107300000D03*
X125100000Y-107300000D03*
D22*
X125100000Y-108100000D03*
X125100000Y-108900000D03*
D21*
X125100000Y-109700000D03*
%TD*%
D17*
%TO.C,D2*%
X116538000Y-78546400D03*
X116538000Y-76971400D03*
%TD*%
D23*
%TO.C,C1*%
X128628400Y-71586600D03*
X127078400Y-71586600D03*
%TD*%
D24*
%TO.C,JP1*%
X111730000Y-72390000D03*
D25*
X113030000Y-72390000D03*
%TD*%
D15*
%TO.C,J1*%
X133908800Y-112000000D03*
D16*
X133908800Y-109460000D03*
X133908800Y-106920000D03*
X133908800Y-104380000D03*
X133908800Y-101840000D03*
X133908800Y-99300000D03*
%TD*%
D26*
%TO.C,AE2*%
X108662500Y-108325000D03*
X108662500Y-102675000D03*
%TD*%
%TO.C,AE1*%
X109273600Y-81422000D03*
X109273600Y-75772000D03*
%TD*%
D27*
%TO.C,U3*%
X124411600Y-80921600D03*
%TD*%
M02*
