M48
; DRILL file {KiCad 8.0.2} date 2025-09-09T09:28:48+0200
; FORMAT={-:-/ absolute / inch / decimal}
; #@! TF.CreationDate,2025-09-09T09:28:48+02:00
; #@! TF.GenerationSoftware,Kicad,Pcbnew,8.0.2
; #@! TF.FileFunction,Plated,1,2,PTH
FMAT,2
INCH
; #@! TA.AperFunction,Plated,PTH,ViaDrill
T1C0.0118
; #@! TA.AperFunction,Plated,PTH,ComponentDrill
T2C0.0300
; #@! TA.AperFunction,Plated,PTH,ComponentDrill
T3C0.0394
%
G90
G05
T1
X4.3041Y-2.9184
X4.3101Y-3.2724
X4.311Y-3.9567
X4.311Y-4.3504
X4.366Y-4.1
X4.372Y-4.196
X4.3799Y-4.2618
X4.3833Y-4.0354
X4.3901Y-2.7984
X4.3921Y-2.9104
X4.3929Y-2.9831
X4.3941Y-3.2056
X4.3941Y-3.2744
X4.3961Y-3.1464
X4.3981Y-3.0524
X4.4001Y-3.3844
X4.4488Y-3.9764
X4.4581Y-3.0784
X4.4601Y-3.2084
X4.4685Y-3.7795
X4.4685Y-4.5472
X4.4781Y-2.9844
X4.4821Y-2.7064
X4.5075Y-2.8498
X4.5141Y-3.0744
X4.5301Y-3.1504
X4.5421Y-3.2404
X4.5587Y-2.8426
X4.5669Y-4.0945
X4.5669Y-4.1339
X4.5669Y-4.2126
X4.5669Y-4.252
X4.582Y-4.03
X4.5881Y-3.0724
X4.5901Y-3.1404
X4.614Y-3.874
X4.618Y-4.352
X4.6341Y-2.9944
X4.6341Y-3.3024
X4.6561Y-2.9444
X4.7041Y-2.8444
X4.7047Y-4.2126
X4.7047Y-4.3307
X4.7225Y-3.4628
X4.7281Y-2.8944
X4.7361Y-3.0344
X4.7441Y-3.7795
X4.7441Y-4.5276
X4.746Y-4.042
X4.8228Y-4.3898
X4.8241Y-2.7144
X4.8261Y-3.1184
X4.8301Y-2.9984
X4.8301Y-3.4744
X4.862Y-4.268
X4.9016Y-4.5276
X4.9181Y-3.2944
X4.9681Y-2.8944
X4.9721Y-3.0004
X4.9803Y-3.7795
X5.0Y-4.4094
X5.0041Y-2.8504
X5.008Y-4.048
X5.01Y-3.974
X5.026Y-4.2559
X5.0394Y-4.2126
X5.0394Y-4.2913
X5.0394Y-4.3307
X5.0394Y-4.3898
X5.0541Y-2.8504
X5.0721Y-3.2284
X5.1181Y-3.1644
X5.1301Y-2.9764
X5.1378Y-4.5276
X5.1575Y-4.3898
X5.18Y-3.942
X5.192Y-4.152
X5.1921Y-2.8804
X5.1921Y-3.2344
X5.194Y-4.114
X5.2001Y-3.1144
X5.2201Y-3.4304
X5.2881Y-2.7344
X5.2953Y-3.7795
X5.2972Y-4.26
X5.3021Y-3.4404
T2
X4.5433Y-3.7205
X4.5433Y-4.5866
X4.5477Y-2.6579
X4.5477Y-3.5241
X4.622Y-3.7205
X4.622Y-4.5866
X4.6264Y-2.6579
X4.6264Y-3.5241
X4.7008Y-3.7205
X4.7008Y-4.5866
X4.7052Y-2.6579
X4.7052Y-3.5241
X4.7795Y-3.7205
X4.7795Y-4.5866
X4.7839Y-2.6579
X4.7839Y-3.5241
X4.8583Y-3.7205
X4.8583Y-4.5866
X4.8627Y-2.6579
X4.8627Y-3.5241
X4.937Y-3.7205
X4.937Y-4.5866
X4.9414Y-2.6579
X4.9414Y-3.5241
X5.0157Y-3.7205
X5.0157Y-4.5866
X5.0201Y-2.6579
X5.0201Y-3.5241
X5.0945Y-3.7205
X5.0945Y-4.5866
X5.0989Y-2.6579
X5.0989Y-3.5241
X5.1732Y-3.7205
X5.1732Y-4.5866
X5.1776Y-2.6579
X5.1776Y-3.5241
X5.252Y-3.7205
X5.252Y-4.5866
X5.2564Y-2.6579
X5.2564Y-3.5241
T3
X5.272Y-3.9094
X5.272Y-4.0094
X5.272Y-4.1094
X5.272Y-4.2094
X5.272Y-4.3094
X5.272Y-4.4094
X5.2781Y-2.8524
X5.2781Y-2.9524
X5.2781Y-3.0524
X5.2781Y-3.1524
X5.2781Y-3.2524
X5.2781Y-3.3524
M30
